G04*
G04 #@! TF.GenerationSoftware,Altium Limited,Altium Designer,20.2.5 (213)*
G04*
G04 Layer_Physical_Order=2*
G04 Layer_Color=16711680*
%FSLAX43Y43*%
%MOMM*%
G71*
G04*
G04 #@! TF.SameCoordinates,5171A944-556C-47A8-97AE-1EF1437A18D6*
G04*
G04*
G04 #@! TF.FilePolarity,Positive*
G04*
G01*
G75*
%ADD59C,0.254*%
%ADD60C,1.750*%
%ADD61C,1.778*%
%ADD62C,2.100*%
%ADD63C,0.700*%
G36*
X6462Y61791D02*
X6123Y61650D01*
X5818Y61447D01*
X5558Y61187D01*
X5355Y60882D01*
X5214Y60543D01*
X5143Y60183D01*
Y60000D01*
X5102Y59903D01*
X5005Y59862D01*
X1712D01*
X1712Y59862D01*
X1712Y59862D01*
X1712Y59862D01*
X1558Y59862D01*
X1254Y59802D01*
X969Y59684D01*
X929Y59657D01*
X926Y59643D01*
X1038Y59552D01*
X1205Y59620D01*
X1505Y59660D01*
X1805Y59620D01*
X2085Y59505D01*
X2325Y59320D01*
X2510Y59080D01*
X2625Y58800D01*
X2665Y58500D01*
X2625Y58200D01*
X2510Y57920D01*
X2325Y57680D01*
X2085Y57495D01*
X1805Y57380D01*
X1505Y57340D01*
X1205Y57380D01*
X925Y57495D01*
X685Y57680D01*
X500Y57920D01*
X385Y58200D01*
X345Y58500D01*
X385Y58800D01*
X453Y58967D01*
X362Y59079D01*
X348Y59076D01*
X321Y59036D01*
X203Y58751D01*
X143Y58448D01*
X143Y58293D01*
X143Y1000D01*
Y915D01*
X176Y748D01*
X241Y591D01*
X335Y450D01*
X455Y330D01*
X597Y236D01*
X753Y171D01*
X920Y137D01*
X39090D01*
X39257Y171D01*
X39414Y236D01*
X39555Y330D01*
X39675Y450D01*
X39769Y591D01*
X39834Y748D01*
X39868Y915D01*
Y1000D01*
Y59000D01*
Y59085D01*
X39834Y59251D01*
X39769Y59408D01*
X39675Y59550D01*
X39555Y59670D01*
X39414Y59764D01*
X39257Y59829D01*
X39090Y59862D01*
X35005D01*
X34908Y59903D01*
X34868Y60000D01*
Y60183D01*
X34796Y60543D01*
X34656Y60882D01*
X34452Y61187D01*
X34192Y61447D01*
X33887Y61650D01*
X33548Y61791D01*
X33188Y61862D01*
X6822D01*
X6462Y61791D01*
D02*
G37*
%LPC*%
G36*
X38505Y59660D02*
X38805Y59620D01*
X39085Y59505D01*
X39325Y59320D01*
X39509Y59080D01*
X39625Y58800D01*
X39665Y58500D01*
X39625Y58200D01*
X39509Y57920D01*
X39325Y57680D01*
X39085Y57495D01*
X38805Y57380D01*
X38505Y57340D01*
X38205Y57380D01*
X37925Y57495D01*
X37685Y57680D01*
X37500Y57920D01*
X37384Y58200D01*
X37345Y58500D01*
X37384Y58800D01*
X37500Y59080D01*
X37685Y59320D01*
X37925Y59505D01*
X38205Y59620D01*
X38505Y59660D01*
D02*
G37*
G36*
X17983Y56319D02*
X18241Y56285D01*
X18482Y56185D01*
X18689Y56027D01*
X18847Y55820D01*
X18947Y55579D01*
X18981Y55321D01*
X18947Y55063D01*
X18847Y54822D01*
X18689Y54616D01*
X18482Y54457D01*
X18241Y54358D01*
X17983Y54324D01*
X17725Y54358D01*
X17484Y54457D01*
X17278Y54616D01*
X17119Y54822D01*
X17020Y55063D01*
X16986Y55321D01*
X17020Y55579D01*
X17119Y55820D01*
X17278Y56027D01*
X17484Y56185D01*
X17725Y56285D01*
X17983Y56319D01*
D02*
G37*
G36*
X33223D02*
X33481Y56285D01*
X33722Y56185D01*
X33929Y56027D01*
X34087Y55820D01*
X34187Y55579D01*
X34221Y55321D01*
X34187Y55063D01*
X34087Y54822D01*
X33929Y54616D01*
X33722Y54457D01*
X33481Y54358D01*
X33223Y54324D01*
X32965Y54358D01*
X32724Y54457D01*
X32518Y54616D01*
X32359Y54822D01*
X32260Y55063D01*
X32226Y55321D01*
X32260Y55579D01*
X32359Y55820D01*
X32518Y56027D01*
X32724Y56185D01*
X32965Y56285D01*
X33223Y56319D01*
D02*
G37*
G36*
Y53798D02*
X33481Y53764D01*
X33722Y53665D01*
X33929Y53506D01*
X34087Y53300D01*
X34187Y53059D01*
X34221Y52801D01*
X34187Y52543D01*
X34087Y52302D01*
X33929Y52095D01*
X33722Y51937D01*
X33481Y51837D01*
X33223Y51803D01*
X32965Y51837D01*
X32724Y51937D01*
X32518Y52095D01*
X32359Y52302D01*
X32260Y52543D01*
X32226Y52801D01*
X32260Y53059D01*
X32359Y53300D01*
X32518Y53506D01*
X32724Y53665D01*
X32965Y53764D01*
X33223Y53798D01*
D02*
G37*
G36*
Y51278D02*
X33481Y51244D01*
X33722Y51144D01*
X33929Y50986D01*
X34087Y50779D01*
X34187Y50539D01*
X34221Y50280D01*
X34187Y50022D01*
X34087Y49782D01*
X33929Y49575D01*
X33722Y49416D01*
X33481Y49317D01*
X33223Y49283D01*
X32965Y49317D01*
X32724Y49416D01*
X32518Y49575D01*
X32359Y49782D01*
X32260Y50022D01*
X32226Y50280D01*
X32260Y50539D01*
X32359Y50779D01*
X32518Y50986D01*
X32724Y51144D01*
X32965Y51244D01*
X33223Y51278D01*
D02*
G37*
G36*
X17983Y51239D02*
X18241Y51205D01*
X18482Y51105D01*
X18689Y50947D01*
X18847Y50740D01*
X18947Y50499D01*
X18981Y50241D01*
X18947Y49983D01*
X18847Y49742D01*
X18689Y49536D01*
X18482Y49377D01*
X18241Y49278D01*
X17983Y49244D01*
X17725Y49278D01*
X17484Y49377D01*
X17278Y49536D01*
X17119Y49742D01*
X17020Y49983D01*
X16986Y50241D01*
X17020Y50499D01*
X17119Y50740D01*
X17278Y50947D01*
X17484Y51105D01*
X17725Y51205D01*
X17983Y51239D01*
D02*
G37*
G36*
X33223Y48757D02*
X33481Y48723D01*
X33722Y48624D01*
X33929Y48465D01*
X34087Y48259D01*
X34187Y48018D01*
X34221Y47760D01*
X34187Y47502D01*
X34087Y47261D01*
X33929Y47055D01*
X33722Y46896D01*
X33481Y46796D01*
X33223Y46762D01*
X32965Y46796D01*
X32724Y46896D01*
X32518Y47055D01*
X32359Y47261D01*
X32260Y47502D01*
X32226Y47760D01*
X32260Y48018D01*
X32359Y48259D01*
X32518Y48465D01*
X32724Y48624D01*
X32965Y48723D01*
X33223Y48757D01*
D02*
G37*
G36*
X17983Y48699D02*
X18241Y48665D01*
X18482Y48565D01*
X18689Y48407D01*
X18847Y48200D01*
X18947Y47959D01*
X18981Y47701D01*
X18947Y47443D01*
X18847Y47202D01*
X18831Y47181D01*
X23303Y42709D01*
X23353Y42634D01*
X23371Y42545D01*
Y33305D01*
X23464Y33243D01*
X23563Y33094D01*
X23598Y32918D01*
X23563Y32743D01*
X23464Y32594D01*
X23315Y32495D01*
X23162Y32464D01*
X23174Y32337D01*
X23450D01*
X23947Y32834D01*
X23925Y32944D01*
X23960Y33119D01*
X24060Y33268D01*
X24208Y33368D01*
X24384Y33403D01*
X24560Y33368D01*
X24708Y33268D01*
X24808Y33119D01*
X24843Y32944D01*
X24808Y32768D01*
X24708Y32619D01*
X24560Y32520D01*
X24384Y32485D01*
X24274Y32507D01*
X23709Y31942D01*
X23634Y31892D01*
X23546Y31874D01*
X22327D01*
X22238Y31892D01*
X22163Y31942D01*
X21960Y32145D01*
X21910Y32220D01*
X21892Y32309D01*
Y38385D01*
X18503Y41774D01*
X18482Y41757D01*
X18241Y41658D01*
X17983Y41624D01*
X17725Y41658D01*
X17484Y41757D01*
X17278Y41916D01*
X17119Y42122D01*
X17020Y42363D01*
X16986Y42621D01*
X17020Y42879D01*
X17119Y43120D01*
X17278Y43327D01*
X17484Y43485D01*
X17725Y43585D01*
X17983Y43619D01*
X18241Y43585D01*
X18482Y43485D01*
X18689Y43327D01*
X18847Y43120D01*
X18947Y42879D01*
X18981Y42621D01*
X18947Y42363D01*
X18847Y42122D01*
X18831Y42101D01*
X22287Y38645D01*
X22337Y38570D01*
X22355Y38481D01*
Y32405D01*
X22422Y32337D01*
X23104D01*
X23117Y32464D01*
X22964Y32495D01*
X22815Y32594D01*
X22716Y32743D01*
X22681Y32918D01*
X22716Y33094D01*
X22815Y33243D01*
X22908Y33305D01*
Y42449D01*
X18503Y46854D01*
X18482Y46837D01*
X18241Y46738D01*
X17983Y46704D01*
X17725Y46738D01*
X17484Y46837D01*
X17278Y46996D01*
X17119Y47202D01*
X17020Y47443D01*
X16986Y47701D01*
X17020Y47959D01*
X17119Y48200D01*
X17278Y48407D01*
X17484Y48565D01*
X17725Y48665D01*
X17983Y48699D01*
D02*
G37*
G36*
X33096Y46376D02*
Y45366D01*
X32087D01*
X32110Y45538D01*
X32225Y45816D01*
X32408Y46055D01*
X32647Y46238D01*
X32925Y46353D01*
X33096Y46376D01*
D02*
G37*
G36*
X33350D02*
X33522Y46353D01*
X33800Y46238D01*
X34038Y46055D01*
X34222Y45816D01*
X34337Y45538D01*
X34359Y45366D01*
X33350D01*
Y46376D01*
D02*
G37*
G36*
X36830Y47135D02*
X37085Y47102D01*
X37322Y47003D01*
X37525Y46847D01*
X37682Y46644D01*
X37780Y46406D01*
X37813Y46152D01*
X37780Y45897D01*
X37682Y45660D01*
X37668Y45642D01*
X38797Y44512D01*
X38847Y44437D01*
X38865Y44348D01*
Y19660D01*
X38847Y19571D01*
X38797Y19496D01*
X28733Y9431D01*
X28754Y9322D01*
X28719Y9146D01*
X28620Y8997D01*
X28471Y8898D01*
X28296Y8863D01*
X28120Y8898D01*
X27971Y8997D01*
X27872Y9146D01*
X27837Y9322D01*
X27872Y9497D01*
X27971Y9646D01*
X28120Y9746D01*
X28296Y9781D01*
X28405Y9759D01*
X38402Y19755D01*
Y44253D01*
X37340Y45314D01*
X37322Y45300D01*
X37085Y45202D01*
X36830Y45168D01*
X36575Y45202D01*
X36338Y45300D01*
X36135Y45456D01*
X35978Y45660D01*
X35880Y45897D01*
X35847Y46152D01*
X35880Y46406D01*
X35978Y46644D01*
X36135Y46847D01*
X36338Y47003D01*
X36575Y47102D01*
X36830Y47135D01*
D02*
G37*
G36*
X17983Y46159D02*
X18241Y46125D01*
X18482Y46025D01*
X18689Y45867D01*
X18847Y45660D01*
X18947Y45419D01*
X18981Y45161D01*
X18947Y44903D01*
X18847Y44662D01*
X18689Y44456D01*
X18482Y44297D01*
X18241Y44198D01*
X17983Y44164D01*
X17725Y44198D01*
X17484Y44297D01*
X17278Y44456D01*
X17119Y44662D01*
X17020Y44903D01*
X16986Y45161D01*
X17020Y45419D01*
X17119Y45660D01*
X17278Y45867D01*
X17484Y46025D01*
X17725Y46125D01*
X17983Y46159D01*
D02*
G37*
G36*
X32087Y45112D02*
X33096D01*
Y44103D01*
X32925Y44126D01*
X32647Y44241D01*
X32408Y44424D01*
X32225Y44663D01*
X32110Y44941D01*
X32087Y45112D01*
D02*
G37*
G36*
X33350D02*
X34359D01*
X34337Y44941D01*
X34222Y44663D01*
X34038Y44424D01*
X33800Y44241D01*
X33522Y44126D01*
X33350Y44103D01*
Y45112D01*
D02*
G37*
G36*
X36703Y44734D02*
Y43739D01*
X35708D01*
X35730Y43907D01*
X35844Y44181D01*
X36025Y44417D01*
X36261Y44598D01*
X36535Y44712D01*
X36703Y44734D01*
D02*
G37*
G36*
X36957D02*
X37125Y44712D01*
X37399Y44598D01*
X37635Y44417D01*
X37816Y44181D01*
X37930Y43907D01*
X37952Y43739D01*
X36957D01*
Y44734D01*
D02*
G37*
G36*
X33096Y43855D02*
Y42846D01*
X32087D01*
X32110Y43017D01*
X32225Y43295D01*
X32408Y43534D01*
X32647Y43717D01*
X32925Y43833D01*
X33096Y43855D01*
D02*
G37*
G36*
X33350D02*
X33522Y43833D01*
X33800Y43717D01*
X34038Y43534D01*
X34222Y43295D01*
X34337Y43017D01*
X34359Y42846D01*
X33350D01*
Y43855D01*
D02*
G37*
G36*
X35708Y43485D02*
X36703D01*
Y42490D01*
X36535Y42512D01*
X36261Y42626D01*
X36025Y42807D01*
X35844Y43042D01*
X35730Y43317D01*
X35708Y43485D01*
D02*
G37*
G36*
X36957D02*
X37952D01*
X37930Y43317D01*
X37816Y43042D01*
X37635Y42807D01*
X37399Y42626D01*
X37125Y42512D01*
X36957Y42490D01*
Y43485D01*
D02*
G37*
G36*
X32087Y42592D02*
X33096D01*
Y41583D01*
X32925Y41605D01*
X32647Y41721D01*
X32408Y41904D01*
X32225Y42143D01*
X32110Y42421D01*
X32087Y42592D01*
D02*
G37*
G36*
X33350D02*
X34359D01*
X34337Y42421D01*
X34222Y42143D01*
X34038Y41904D01*
X33800Y41721D01*
X33522Y41605D01*
X33350Y41583D01*
Y42592D01*
D02*
G37*
G36*
X36830Y42055D02*
X37085Y42022D01*
X37322Y41923D01*
X37525Y41767D01*
X37682Y41564D01*
X37780Y41326D01*
X37813Y41072D01*
X37780Y40817D01*
X37682Y40580D01*
X37525Y40376D01*
X37322Y40220D01*
X37085Y40122D01*
X36830Y40088D01*
X36575Y40122D01*
X36338Y40220D01*
X36135Y40376D01*
X35978Y40580D01*
X35880Y40817D01*
X35847Y41072D01*
X35880Y41326D01*
X35978Y41564D01*
X36135Y41767D01*
X36338Y41923D01*
X36575Y42022D01*
X36830Y42055D01*
D02*
G37*
G36*
X33223Y41196D02*
X33481Y41162D01*
X33722Y41062D01*
X33929Y40904D01*
X34087Y40697D01*
X34187Y40457D01*
X34221Y40199D01*
X34187Y39940D01*
X34087Y39700D01*
X33929Y39493D01*
X33722Y39335D01*
X33481Y39235D01*
X33223Y39201D01*
X32965Y39235D01*
X32724Y39335D01*
X32518Y39493D01*
X32359Y39700D01*
X32260Y39940D01*
X32226Y40199D01*
X32260Y40457D01*
X32359Y40697D01*
X32518Y40904D01*
X32724Y41062D01*
X32965Y41162D01*
X33223Y41196D01*
D02*
G37*
G36*
X17983Y41079D02*
X18241Y41045D01*
X18482Y40945D01*
X18689Y40787D01*
X18847Y40580D01*
X18947Y40339D01*
X18981Y40081D01*
X18947Y39823D01*
X18847Y39582D01*
X18689Y39376D01*
X18482Y39217D01*
X18241Y39118D01*
X17983Y39084D01*
X17725Y39118D01*
X17484Y39217D01*
X17278Y39376D01*
X17119Y39582D01*
X17020Y39823D01*
X16986Y40081D01*
X17020Y40339D01*
X17119Y40580D01*
X17278Y40787D01*
X17484Y40945D01*
X17725Y41045D01*
X17983Y41079D01*
D02*
G37*
G36*
X36703Y39654D02*
Y38659D01*
X35708D01*
X35730Y38827D01*
X35844Y39101D01*
X36025Y39337D01*
X36261Y39518D01*
X36535Y39632D01*
X36703Y39654D01*
D02*
G37*
G36*
X36957D02*
X37125Y39632D01*
X37399Y39518D01*
X37635Y39337D01*
X37816Y39101D01*
X37930Y38827D01*
X37952Y38659D01*
X36957D01*
Y39654D01*
D02*
G37*
G36*
X35708Y38405D02*
X36703D01*
Y37410D01*
X36535Y37432D01*
X36261Y37546D01*
X36025Y37727D01*
X35844Y37962D01*
X35730Y38237D01*
X35708Y38405D01*
D02*
G37*
G36*
X36957D02*
X37952D01*
X37930Y38237D01*
X37816Y37962D01*
X37635Y37727D01*
X37399Y37546D01*
X37125Y37432D01*
X36957Y37410D01*
Y38405D01*
D02*
G37*
G36*
X33223Y38676D02*
X33481Y38642D01*
X33722Y38542D01*
X33929Y38383D01*
X34087Y38177D01*
X34187Y37936D01*
X34221Y37678D01*
X34187Y37420D01*
X34087Y37179D01*
X33929Y36973D01*
X33722Y36814D01*
X33481Y36715D01*
X33223Y36681D01*
X32965Y36715D01*
X32724Y36814D01*
X32518Y36973D01*
X32359Y37179D01*
X32260Y37420D01*
X32226Y37678D01*
X32260Y37936D01*
X32359Y38177D01*
X32518Y38383D01*
X32724Y38542D01*
X32965Y38642D01*
X33223Y38676D01*
D02*
G37*
G36*
X36830Y34435D02*
X37085Y34402D01*
X37322Y34303D01*
X37525Y34147D01*
X37682Y33944D01*
X37780Y33706D01*
X37813Y33452D01*
X37780Y33197D01*
X37682Y32960D01*
X37525Y32756D01*
X37322Y32600D01*
X37085Y32502D01*
X36830Y32468D01*
X36575Y32502D01*
X36338Y32600D01*
X36135Y32756D01*
X35978Y32960D01*
X35880Y33197D01*
X35847Y33452D01*
X35880Y33706D01*
X35978Y33944D01*
X36135Y34147D01*
X36338Y34303D01*
X36575Y34402D01*
X36830Y34435D01*
D02*
G37*
G36*
X17983Y38539D02*
X18241Y38505D01*
X18482Y38405D01*
X18689Y38247D01*
X18847Y38040D01*
X18947Y37799D01*
X18981Y37541D01*
X18947Y37283D01*
X18847Y37042D01*
X18689Y36836D01*
X18519Y36706D01*
X18562Y36579D01*
X19380D01*
X19469Y36561D01*
X19544Y36511D01*
X20992Y35063D01*
X21042Y34988D01*
X21059Y34900D01*
Y31614D01*
X21073Y31600D01*
X29292D01*
X31713Y34022D01*
X31788Y34072D01*
X31877Y34090D01*
X32885D01*
X32911Y34217D01*
X32724Y34294D01*
X32518Y34452D01*
X32359Y34659D01*
X32260Y34899D01*
X32226Y35158D01*
X32260Y35416D01*
X32359Y35656D01*
X32518Y35863D01*
X32724Y36022D01*
X32965Y36121D01*
X33223Y36155D01*
X33481Y36121D01*
X33722Y36022D01*
X33929Y35863D01*
X34087Y35656D01*
X34187Y35416D01*
X34221Y35158D01*
X34187Y34899D01*
X34087Y34659D01*
X33929Y34452D01*
X33722Y34294D01*
X33536Y34217D01*
X33561Y34090D01*
X34601D01*
X35992Y35482D01*
X35978Y35500D01*
X35880Y35737D01*
X35847Y35992D01*
X35880Y36246D01*
X35978Y36484D01*
X36135Y36687D01*
X36338Y36843D01*
X36575Y36942D01*
X36830Y36975D01*
X37085Y36942D01*
X37322Y36843D01*
X37525Y36687D01*
X37682Y36484D01*
X37780Y36246D01*
X37813Y35992D01*
X37780Y35737D01*
X37682Y35500D01*
X37525Y35296D01*
X37322Y35140D01*
X37085Y35042D01*
X36830Y35008D01*
X36575Y35042D01*
X36338Y35140D01*
X36320Y35154D01*
X34860Y33695D01*
X34785Y33644D01*
X34696Y33627D01*
X33750D01*
X33723Y33504D01*
X33723Y33500D01*
X33929Y33342D01*
X34087Y33136D01*
X34187Y32895D01*
X34221Y32637D01*
X34187Y32379D01*
X34087Y32138D01*
X33929Y31932D01*
X33722Y31773D01*
X33481Y31673D01*
X33223Y31639D01*
X32965Y31673D01*
X32724Y31773D01*
X32518Y31932D01*
X32359Y32138D01*
X32260Y32379D01*
X32226Y32637D01*
X32260Y32895D01*
X32359Y33136D01*
X32518Y33342D01*
X32723Y33500D01*
X32724Y33504D01*
X32696Y33627D01*
X31973D01*
X29551Y31205D01*
X29476Y31155D01*
X29388Y31138D01*
X20977D01*
X20888Y31155D01*
X20813Y31205D01*
X20664Y31354D01*
X20614Y31429D01*
X20597Y31518D01*
Y34804D01*
X19284Y36116D01*
X18066D01*
X18058Y35989D01*
X18241Y35965D01*
X18482Y35865D01*
X18689Y35707D01*
X18847Y35500D01*
X18947Y35259D01*
X18981Y35001D01*
X18947Y34743D01*
X18847Y34502D01*
X18689Y34296D01*
X18482Y34137D01*
X18241Y34038D01*
X17983Y34004D01*
X17725Y34038D01*
X17484Y34137D01*
X17278Y34296D01*
X17227Y34299D01*
X16440Y33512D01*
Y16983D01*
X19595Y13829D01*
X19645Y13754D01*
X19662Y13665D01*
Y9697D01*
X22801Y6558D01*
X22911Y6580D01*
X23020Y6558D01*
X29250Y12787D01*
X29325Y12838D01*
X29413Y12855D01*
X29966D01*
X30029Y12948D01*
X30177Y13048D01*
X30353Y13083D01*
X30529Y13048D01*
X30677Y12948D01*
X30777Y12799D01*
X30812Y12624D01*
X30777Y12448D01*
X30677Y12299D01*
X30529Y12200D01*
X30353Y12165D01*
X30177Y12200D01*
X30029Y12299D01*
X29966Y12392D01*
X29509D01*
X23348Y6231D01*
X23370Y6121D01*
X23335Y5946D01*
X23235Y5797D01*
X23086Y5698D01*
X22911Y5663D01*
X22735Y5698D01*
X22586Y5797D01*
X22487Y5946D01*
X22452Y6121D01*
X22474Y6231D01*
X19267Y9438D01*
X19217Y9513D01*
X19200Y9601D01*
Y13569D01*
X16045Y16724D01*
X15995Y16799D01*
X15977Y16887D01*
Y33608D01*
X15995Y33696D01*
X16045Y33771D01*
X17019Y34746D01*
X16986Y35001D01*
X17020Y35259D01*
X17119Y35500D01*
X17278Y35707D01*
X17484Y35865D01*
X17725Y35965D01*
X17909Y35989D01*
X17901Y36116D01*
X17165D01*
X6377Y25329D01*
X6302Y25278D01*
X6214Y25261D01*
X2739D01*
X2677Y25168D01*
X2528Y25068D01*
X2353Y25033D01*
X2177Y25068D01*
X2028Y25168D01*
X1929Y25317D01*
X1894Y25492D01*
X1929Y25668D01*
X2028Y25817D01*
X2177Y25916D01*
X2353Y25951D01*
X2528Y25916D01*
X2677Y25817D01*
X2739Y25724D01*
X6118D01*
X16905Y36511D01*
X16980Y36561D01*
X17069Y36579D01*
X17404D01*
X17447Y36706D01*
X17278Y36836D01*
X17119Y37042D01*
X17020Y37283D01*
X16986Y37541D01*
X17020Y37799D01*
X17119Y38040D01*
X17278Y38247D01*
X17484Y38405D01*
X17725Y38505D01*
X17983Y38539D01*
D02*
G37*
G36*
Y33459D02*
X18241Y33425D01*
X18482Y33325D01*
X18689Y33167D01*
X18847Y32960D01*
X18947Y32719D01*
X18981Y32461D01*
X18947Y32203D01*
X18847Y31962D01*
X18689Y31756D01*
X18482Y31597D01*
X18241Y31498D01*
X17983Y31464D01*
X17725Y31498D01*
X17484Y31597D01*
X17278Y31756D01*
X17119Y31962D01*
X17020Y32203D01*
X16986Y32461D01*
X17020Y32719D01*
X17119Y32960D01*
X17278Y33167D01*
X17484Y33325D01*
X17725Y33425D01*
X17983Y33459D01*
D02*
G37*
G36*
Y53779D02*
X18241Y53745D01*
X18482Y53645D01*
X18689Y53487D01*
X18847Y53280D01*
X18947Y53039D01*
X18981Y52781D01*
X18947Y52523D01*
X18847Y52282D01*
X18689Y52076D01*
X18482Y51917D01*
X18241Y51818D01*
X17983Y51784D01*
X17725Y51818D01*
X17484Y51917D01*
X17463Y51934D01*
X10137Y44608D01*
Y31603D01*
X10230Y31541D01*
X10330Y31392D01*
X10365Y31217D01*
X10330Y31041D01*
X10230Y30892D01*
X10082Y30793D01*
X9906Y30758D01*
X9730Y30793D01*
X9582Y30892D01*
X9482Y31041D01*
X9447Y31217D01*
X9482Y31392D01*
X9582Y31541D01*
X9675Y31603D01*
Y44704D01*
X9692Y44793D01*
X9742Y44868D01*
X17136Y52261D01*
X17119Y52282D01*
X17020Y52523D01*
X16986Y52781D01*
X17020Y53039D01*
X17119Y53280D01*
X17278Y53487D01*
X17484Y53645D01*
X17725Y53745D01*
X17983Y53779D01*
D02*
G37*
G36*
X36830Y31895D02*
X37085Y31862D01*
X37322Y31763D01*
X37525Y31607D01*
X37682Y31404D01*
X37780Y31166D01*
X37813Y30912D01*
X37780Y30657D01*
X37682Y30420D01*
X37525Y30216D01*
X37322Y30060D01*
X37085Y29962D01*
X36830Y29928D01*
X36575Y29962D01*
X36338Y30060D01*
X36135Y30216D01*
X35978Y30420D01*
X35880Y30657D01*
X35847Y30912D01*
X35880Y31166D01*
X35978Y31404D01*
X36135Y31607D01*
X36338Y31763D01*
X36575Y31862D01*
X36830Y31895D01*
D02*
G37*
G36*
X33223Y31114D02*
X33481Y31080D01*
X33722Y30980D01*
X33929Y30822D01*
X34087Y30615D01*
X34187Y30375D01*
X34221Y30117D01*
X34187Y29858D01*
X34087Y29618D01*
X33929Y29411D01*
X33722Y29253D01*
X33481Y29153D01*
X33223Y29119D01*
X32965Y29153D01*
X32724Y29253D01*
X32518Y29411D01*
X32359Y29618D01*
X32260Y29858D01*
X32226Y30117D01*
X32260Y30375D01*
X32359Y30615D01*
X32518Y30822D01*
X32724Y30980D01*
X32965Y31080D01*
X33223Y31114D01*
D02*
G37*
G36*
X17983Y30919D02*
X18241Y30885D01*
X18482Y30785D01*
X18689Y30627D01*
X18847Y30420D01*
X18947Y30179D01*
X18981Y29921D01*
X18947Y29663D01*
X18847Y29422D01*
X18689Y29216D01*
X18482Y29057D01*
X18241Y28958D01*
X17983Y28924D01*
X17725Y28958D01*
X17484Y29057D01*
X17278Y29216D01*
X17119Y29422D01*
X17020Y29663D01*
X16986Y29921D01*
X17020Y30179D01*
X17119Y30420D01*
X17278Y30627D01*
X17484Y30785D01*
X17725Y30885D01*
X17983Y30919D01*
D02*
G37*
G36*
X36830Y29355D02*
X37085Y29322D01*
X37322Y29223D01*
X37525Y29067D01*
X37682Y28864D01*
X37780Y28626D01*
X37813Y28372D01*
X37780Y28117D01*
X37682Y27880D01*
X37525Y27676D01*
X37322Y27520D01*
X37085Y27422D01*
X36830Y27388D01*
X36575Y27422D01*
X36338Y27520D01*
X36135Y27676D01*
X35978Y27880D01*
X35880Y28117D01*
X35847Y28372D01*
X35880Y28626D01*
X35978Y28864D01*
X36135Y29067D01*
X36338Y29223D01*
X36575Y29322D01*
X36830Y29355D01*
D02*
G37*
G36*
X33223Y28594D02*
X33481Y28560D01*
X33722Y28460D01*
X33929Y28301D01*
X34087Y28095D01*
X34187Y27854D01*
X34221Y27596D01*
X34187Y27338D01*
X34087Y27097D01*
X33929Y26891D01*
X33722Y26732D01*
X33481Y26633D01*
X33223Y26599D01*
X32965Y26633D01*
X32724Y26732D01*
X32518Y26891D01*
X32359Y27097D01*
X32260Y27338D01*
X32226Y27596D01*
X32260Y27854D01*
X32359Y28095D01*
X32518Y28301D01*
X32724Y28460D01*
X32965Y28560D01*
X33223Y28594D01*
D02*
G37*
G36*
X17983Y28379D02*
X18241Y28345D01*
X18482Y28245D01*
X18689Y28087D01*
X18847Y27880D01*
X18947Y27639D01*
X18981Y27381D01*
X18947Y27123D01*
X18847Y26882D01*
X18689Y26676D01*
X18482Y26517D01*
X18241Y26418D01*
X17983Y26384D01*
X17725Y26418D01*
X17484Y26517D01*
X17278Y26676D01*
X17119Y26882D01*
X17020Y27123D01*
X16986Y27381D01*
X17020Y27639D01*
X17119Y27880D01*
X17278Y28087D01*
X17484Y28245D01*
X17725Y28345D01*
X17983Y28379D01*
D02*
G37*
G36*
X33223Y26073D02*
X33481Y26039D01*
X33722Y25940D01*
X33929Y25781D01*
X34087Y25574D01*
X34187Y25334D01*
X34221Y25076D01*
X34187Y24817D01*
X34087Y24577D01*
X33929Y24370D01*
X33722Y24212D01*
X33481Y24112D01*
X33223Y24078D01*
X32965Y24112D01*
X32724Y24212D01*
X32518Y24370D01*
X32359Y24577D01*
X32260Y24817D01*
X32226Y25076D01*
X32260Y25334D01*
X32359Y25574D01*
X32518Y25781D01*
X32724Y25940D01*
X32965Y26039D01*
X33223Y26073D01*
D02*
G37*
G36*
X17983Y25839D02*
X18241Y25805D01*
X18482Y25705D01*
X18689Y25547D01*
X18847Y25340D01*
X18947Y25099D01*
X18981Y24841D01*
X18947Y24583D01*
X18847Y24342D01*
X18689Y24136D01*
X18482Y23977D01*
X18241Y23878D01*
X17983Y23844D01*
X17725Y23878D01*
X17484Y23977D01*
X17278Y24136D01*
X17119Y24342D01*
X17020Y24583D01*
X16986Y24841D01*
X17020Y25099D01*
X17119Y25340D01*
X17278Y25547D01*
X17484Y25705D01*
X17725Y25805D01*
X17983Y25839D01*
D02*
G37*
G36*
X33223Y23553D02*
X33481Y23519D01*
X33722Y23419D01*
X33929Y23261D01*
X34087Y23054D01*
X34187Y22813D01*
X34221Y22555D01*
X34187Y22297D01*
X34087Y22056D01*
X33929Y21850D01*
X33722Y21691D01*
X33481Y21592D01*
X33223Y21558D01*
X32965Y21592D01*
X32724Y21691D01*
X32518Y21850D01*
X32359Y22056D01*
X32260Y22297D01*
X32226Y22555D01*
X32260Y22813D01*
X32359Y23054D01*
X32518Y23261D01*
X32724Y23419D01*
X32965Y23519D01*
X33223Y23553D01*
D02*
G37*
G36*
X17983Y23299D02*
X18241Y23265D01*
X18482Y23165D01*
X18689Y23007D01*
X18847Y22800D01*
X18947Y22559D01*
X18981Y22301D01*
X18947Y22043D01*
X18847Y21802D01*
X18689Y21596D01*
X18482Y21437D01*
X18241Y21338D01*
X17983Y21304D01*
X17725Y21338D01*
X17484Y21437D01*
X17278Y21596D01*
X17119Y21802D01*
X17020Y22043D01*
X16986Y22301D01*
X17020Y22559D01*
X17119Y22800D01*
X17278Y23007D01*
X17484Y23165D01*
X17725Y23265D01*
X17983Y23299D01*
D02*
G37*
G36*
X1505Y2660D02*
X1805Y2621D01*
X2085Y2505D01*
X2325Y2320D01*
X2510Y2080D01*
X2625Y1800D01*
X2665Y1500D01*
X2625Y1200D01*
X2510Y920D01*
X2325Y680D01*
X2085Y496D01*
X1805Y380D01*
X1505Y340D01*
X1205Y380D01*
X925Y496D01*
X685Y680D01*
X500Y920D01*
X385Y1200D01*
X345Y1500D01*
X385Y1800D01*
X500Y2080D01*
X685Y2320D01*
X925Y2505D01*
X1205Y2621D01*
X1505Y2660D01*
D02*
G37*
G36*
X38505D02*
X38805Y2621D01*
X39085Y2505D01*
X39325Y2320D01*
X39509Y2080D01*
X39625Y1800D01*
X39665Y1500D01*
X39625Y1200D01*
X39509Y920D01*
X39325Y680D01*
X39085Y496D01*
X38805Y380D01*
X38505Y340D01*
X38205Y380D01*
X37925Y496D01*
X37685Y680D01*
X37500Y920D01*
X37384Y1200D01*
X37345Y1500D01*
X37384Y1800D01*
X37500Y2080D01*
X37685Y2320D01*
X37925Y2505D01*
X38205Y2621D01*
X38505Y2660D01*
D02*
G37*
%LPD*%
D59*
X24384Y32944D02*
X23546Y32106D01*
X29413Y12624D02*
X22911Y6121D01*
X19431Y9601D01*
Y13665D01*
X30353Y12624D02*
X29413D01*
X38633Y19660D02*
Y44348D01*
X36830Y46152D01*
X38633Y19660D02*
X28296Y9322D01*
X17983Y52781D02*
X9906Y44704D01*
Y31217D02*
Y44704D01*
X17069Y36347D02*
X6214Y25492D01*
X2353D02*
X2353Y25492D01*
X6214Y25492D02*
X2353D01*
X19380Y36347D02*
X17069D01*
X20828Y34900D02*
X19380Y36347D01*
X29388Y31369D02*
X20977D01*
X20828Y31518D01*
Y34900D01*
X23546Y32106D02*
X22327D01*
X23139Y32918D02*
Y42545D01*
X22123Y32309D02*
Y38481D01*
X22327Y32106D02*
X22123Y32309D01*
Y38481D02*
X17983Y42621D01*
X36830Y35992D02*
X34696Y33858D01*
X31877D02*
X29388Y31369D01*
X34696Y33858D02*
X31877D01*
X16209Y16887D02*
Y33608D01*
X17602Y35001D02*
X16209Y33608D01*
X19431Y13665D02*
X16209Y16887D01*
X17983Y35001D02*
X17602D01*
X23139Y42545D02*
X17983Y47701D01*
D60*
X36830Y35992D02*
D03*
Y38532D02*
D03*
Y41072D02*
D03*
Y43612D02*
D03*
Y46152D02*
D03*
Y33452D02*
D03*
Y30912D02*
D03*
Y28372D02*
D03*
D61*
X17983Y47701D02*
D03*
Y55321D02*
D03*
Y52781D02*
D03*
Y50241D02*
D03*
Y45161D02*
D03*
Y42621D02*
D03*
Y40081D02*
D03*
Y37541D02*
D03*
Y35001D02*
D03*
Y32461D02*
D03*
Y29921D02*
D03*
Y27381D02*
D03*
Y24841D02*
D03*
Y22301D02*
D03*
X33223Y55321D02*
D03*
Y52801D02*
D03*
Y50280D02*
D03*
Y47760D02*
D03*
Y45239D02*
D03*
Y42719D02*
D03*
Y40199D02*
D03*
Y37678D02*
D03*
Y35158D02*
D03*
Y32637D02*
D03*
Y30117D02*
D03*
Y27596D02*
D03*
Y25076D02*
D03*
Y22555D02*
D03*
D62*
X1505Y1500D02*
D03*
X38505D02*
D03*
Y58500D02*
D03*
X1505D02*
D03*
D63*
X24384Y32944D02*
D03*
X22911Y6121D02*
D03*
X28296Y9322D02*
D03*
X9906Y31217D02*
D03*
X23139Y32918D02*
D03*
X2353Y25492D02*
D03*
X30353Y12624D02*
D03*
M02*
