G04*
G04 #@! TF.GenerationSoftware,Altium Limited,Altium Designer,20.1.14 (287)*
G04*
G04 Layer_Physical_Order=1*
G04 Layer_Color=255*
%FSLAX43Y43*%
%MOMM*%
G71*
G04*
G04 #@! TF.SameCoordinates,2B19F274-0338-4189-8154-59E22298D11E*
G04*
G04*
G04 #@! TF.FilePolarity,Positive*
G04*
G01*
G75*
%ADD11C,0.127*%
%ADD15R,1.200X1.200*%
%ADD16R,1.500X1.600*%
%ADD17R,0.900X1.000*%
%ADD18R,1.600X2.800*%
%ADD19R,0.550X0.550*%
G04:AMPARAMS|DCode=20|XSize=0.55mm|YSize=0.5mm|CornerRadius=0.063mm|HoleSize=0mm|Usage=FLASHONLY|Rotation=90.000|XOffset=0mm|YOffset=0mm|HoleType=Round|Shape=RoundedRectangle|*
%AMROUNDEDRECTD20*
21,1,0.550,0.375,0,0,90.0*
21,1,0.425,0.500,0,0,90.0*
1,1,0.125,0.188,0.213*
1,1,0.125,0.188,-0.213*
1,1,0.125,-0.188,-0.213*
1,1,0.125,-0.188,0.213*
%
%ADD20ROUNDEDRECTD20*%
%ADD21R,1.200X1.650*%
%ADD22R,1.150X1.350*%
%ADD23R,0.850X0.750*%
%ADD24R,0.950X0.850*%
%ADD25R,2.550X2.550*%
%ADD26R,0.300X0.850*%
%ADD27R,0.850X0.300*%
%ADD28R,0.600X1.550*%
%ADD29R,1.200X1.800*%
%ADD30R,1.550X0.600*%
%ADD31R,1.800X1.200*%
%ADD32R,1.550X0.600*%
%ADD33R,1.800X1.200*%
%ADD34R,1.257X0.508*%
%ADD35R,0.600X0.640*%
%ADD36R,0.850X0.950*%
%ADD62C,1.750*%
%ADD63C,1.778*%
%ADD64C,2.100*%
%ADD65C,0.600*%
%ADD66C,1.270*%
G36*
X30435Y58184D02*
X30436Y58162D01*
X30440Y58143D01*
X30444Y58126D01*
X30450Y58111D01*
X30457Y58100D01*
X30465Y58091D01*
X30475Y58084D01*
X30485Y58080D01*
X30497Y58079D01*
X30243D01*
X30255Y58080D01*
X30266Y58084D01*
X30276Y58091D01*
X30284Y58100D01*
X30291Y58111D01*
X30297Y58126D01*
X30301Y58143D01*
X30304Y58162D01*
X30306Y58184D01*
X30307Y58209D01*
X30434D01*
X30435Y58184D01*
D02*
G37*
G36*
X28667Y58082D02*
X28480Y58079D01*
X28492Y58080D01*
X28503Y58084D01*
X28512Y58091D01*
X28521Y58100D01*
X28528Y58112D01*
X28533Y58126D01*
X28538Y58143D01*
X28541Y58162D01*
X28543Y58184D01*
X28543Y58209D01*
X28670D01*
X28667Y58082D01*
D02*
G37*
G36*
X28485Y56540D02*
X28475Y56536D01*
X28465Y56529D01*
X28457Y56520D01*
X28450Y56508D01*
X28444Y56494D01*
X28440Y56477D01*
X28436Y56458D01*
X28435Y56436D01*
X28434Y56411D01*
X28307D01*
X28306Y56436D01*
X28304Y56458D01*
X28301Y56477D01*
X28297Y56494D01*
X28291Y56508D01*
X28284Y56520D01*
X28276Y56529D01*
X28266Y56536D01*
X28255Y56540D01*
X28243Y56541D01*
X28497D01*
X28485Y56540D01*
D02*
G37*
G36*
X33523Y61724D02*
X33849Y61589D01*
X34143Y61392D01*
X34393Y61143D01*
X34589Y60849D01*
X34724Y60523D01*
X34793Y60176D01*
Y60000D01*
X34809Y59921D01*
X34853Y59853D01*
X34921Y59808D01*
X35000Y59793D01*
X38293D01*
X38293Y59793D01*
X38293Y59793D01*
X38293Y59793D01*
X38353Y59793D01*
X38376Y59772D01*
X38333Y59638D01*
X38200Y59620D01*
X37920Y59505D01*
X37680Y59320D01*
X37495Y59080D01*
X37380Y58800D01*
X37340Y58500D01*
X37380Y58200D01*
X37495Y57920D01*
X37680Y57680D01*
X37920Y57495D01*
X38200Y57380D01*
X38500Y57340D01*
X38800Y57380D01*
X39080Y57495D01*
X39320Y57680D01*
X39505Y57920D01*
X39620Y58200D01*
X39638Y58333D01*
X39772Y58376D01*
X39793Y58353D01*
X39793Y58293D01*
Y56425D01*
X39673Y56354D01*
X39666Y56354D01*
X39608Y56366D01*
X35805D01*
X33532Y58639D01*
X33477Y58676D01*
X33414Y58688D01*
X28702D01*
X28638Y58676D01*
X28584Y58639D01*
X28489Y58544D01*
X28453Y58490D01*
X28440Y58427D01*
Y58223D01*
X28435Y58212D01*
X28435Y58190D01*
X28434Y58185D01*
X27970D01*
Y57241D01*
X26797D01*
X26733Y57228D01*
X26679Y57192D01*
X23807Y54319D01*
X22520D01*
X22494Y54446D01*
X22521Y54457D01*
X22727Y54616D01*
X22886Y54822D01*
X22985Y55063D01*
X23019Y55321D01*
X22985Y55579D01*
X22886Y55820D01*
X22727Y56027D01*
X22521Y56185D01*
X22280Y56285D01*
X22022Y56319D01*
X21764Y56285D01*
X21523Y56185D01*
X21316Y56027D01*
X21158Y55820D01*
X21058Y55579D01*
X21024Y55321D01*
X21058Y55063D01*
X21158Y54822D01*
X21316Y54616D01*
X21523Y54457D01*
X21549Y54446D01*
X21524Y54319D01*
X18618D01*
X18554Y54307D01*
X18500Y54271D01*
X18303Y54074D01*
X13396Y49167D01*
X6873D01*
X6865Y49294D01*
X7040Y49317D01*
X7281Y49416D01*
X7487Y49575D01*
X7646Y49782D01*
X7745Y50022D01*
X7779Y50280D01*
X7745Y50539D01*
X7646Y50779D01*
X7487Y50986D01*
X7281Y51144D01*
X7040Y51244D01*
X6782Y51278D01*
X6524Y51244D01*
X6283Y51144D01*
X6076Y50986D01*
X5918Y50779D01*
X5818Y50539D01*
X5784Y50280D01*
X5818Y50022D01*
X5918Y49782D01*
X6076Y49575D01*
X6283Y49416D01*
X6524Y49317D01*
X6699Y49294D01*
X6691Y49167D01*
X4516D01*
X4453Y49154D01*
X4398Y49118D01*
X1889Y46608D01*
X1853Y46554D01*
X1840Y46490D01*
Y45771D01*
X1853Y45707D01*
X1889Y45653D01*
X2727Y44815D01*
X2754Y44797D01*
X2760Y44696D01*
X2750Y44658D01*
X2606Y44598D01*
X2370Y44417D01*
X2189Y44181D01*
X2075Y43907D01*
X2053Y43739D01*
X3175D01*
X4297D01*
X4275Y43907D01*
X4161Y44181D01*
X4044Y44334D01*
X4139Y44418D01*
X4735Y43822D01*
Y40455D01*
X4452Y40172D01*
X3812D01*
X3769Y40299D01*
X3870Y40376D01*
X4027Y40580D01*
X4125Y40817D01*
X4158Y41072D01*
X4125Y41326D01*
X4027Y41564D01*
X3870Y41767D01*
X3667Y41923D01*
X3430Y42022D01*
X3175Y42055D01*
X2920Y42022D01*
X2683Y41923D01*
X2480Y41767D01*
X2323Y41564D01*
X2225Y41326D01*
X2192Y41072D01*
X2225Y40817D01*
X2323Y40580D01*
X2480Y40376D01*
X2581Y40299D01*
X2538Y40172D01*
X913D01*
X849Y40159D01*
X795Y40123D01*
X720Y40048D01*
X684Y39994D01*
X672Y39931D01*
Y33249D01*
X684Y33185D01*
X720Y33131D01*
X2377Y31474D01*
X2323Y31404D01*
X2225Y31166D01*
X2192Y30912D01*
X2225Y30657D01*
X2323Y30420D01*
X2480Y30216D01*
X2683Y30060D01*
X2920Y29962D01*
X3175Y29928D01*
X3430Y29962D01*
X3667Y30060D01*
X3870Y30216D01*
X4024Y30417D01*
X4034Y30418D01*
X4151Y30389D01*
Y28895D01*
X4034Y28865D01*
X4024Y28867D01*
X3870Y29067D01*
X3667Y29223D01*
X3430Y29322D01*
X3175Y29355D01*
X2920Y29322D01*
X2683Y29223D01*
X2480Y29067D01*
X2323Y28864D01*
X2225Y28626D01*
X2192Y28372D01*
X2225Y28117D01*
X2323Y27880D01*
X2480Y27676D01*
X2683Y27520D01*
X2920Y27422D01*
X3175Y27388D01*
X3430Y27422D01*
X3667Y27520D01*
X3870Y27676D01*
X4024Y27877D01*
X4034Y27878D01*
X4151Y27849D01*
Y22653D01*
X2919Y21421D01*
X2883Y21367D01*
X2871Y21303D01*
Y14949D01*
X2759Y14824D01*
X2518D01*
X2487Y14824D01*
X2391Y14899D01*
Y14978D01*
X1814D01*
Y14224D01*
Y13470D01*
X2391D01*
Y13549D01*
X2487Y13624D01*
X2518Y13624D01*
X2864D01*
X2865Y13619D01*
X2865Y13597D01*
X2871Y13586D01*
Y12973D01*
X2865Y12968D01*
X2375D01*
Y13122D01*
X1948D01*
Y12548D01*
Y11974D01*
X2375D01*
Y12128D01*
X2865D01*
X2871Y12122D01*
Y11647D01*
X2759Y11522D01*
X2518D01*
X2487Y11522D01*
X2391Y11597D01*
Y11676D01*
X1814D01*
Y10922D01*
Y10168D01*
X2391D01*
Y10247D01*
X2487Y10322D01*
X2518Y10322D01*
X2871D01*
Y9606D01*
X2820D01*
Y8456D01*
X3870D01*
Y9606D01*
X3204D01*
Y10322D01*
X3587D01*
Y10755D01*
X4857D01*
X4920Y10768D01*
X4975Y10804D01*
X5842Y11672D01*
X6523D01*
X6572Y11613D01*
Y11188D01*
X6583Y11133D01*
X6582Y11120D01*
X6510Y11006D01*
X5966D01*
X5903Y10994D01*
X5849Y10957D01*
X5782Y10891D01*
X5746Y10837D01*
X5733Y10773D01*
Y9550D01*
X5746Y9486D01*
X5782Y9432D01*
X6174Y9041D01*
X6228Y9004D01*
X6292Y8992D01*
X6406D01*
Y8802D01*
X6960D01*
Y8675D01*
X7087D01*
Y8101D01*
X7514D01*
Y8255D01*
X8240D01*
Y8508D01*
X8705D01*
Y8473D01*
X9384D01*
Y8346D01*
X9511D01*
Y7942D01*
X9834D01*
Y7121D01*
X9917D01*
Y6932D01*
X9917Y6932D01*
Y6755D01*
X9930Y6691D01*
X9966Y6637D01*
X9975Y6628D01*
X9961Y6608D01*
X9930Y6452D01*
X9961Y6296D01*
X10049Y6163D01*
X10171Y6082D01*
Y5116D01*
X9411D01*
Y3383D01*
X7711D01*
Y3916D01*
X6311D01*
Y2516D01*
X7711D01*
Y3050D01*
X11209D01*
X11272Y3062D01*
X11304Y3084D01*
X11377Y3056D01*
X11423Y3016D01*
X11413Y2934D01*
X11438Y2742D01*
X11512Y2563D01*
X11630Y2409D01*
X11783Y2292D01*
X11962Y2218D01*
X12154Y2192D01*
X12346Y2218D01*
X12525Y2292D01*
X12678Y2409D01*
X12796Y2563D01*
X12870Y2742D01*
X12895Y2934D01*
X12870Y3126D01*
X12796Y3304D01*
X12678Y3458D01*
X12525Y3576D01*
X12346Y3650D01*
X12246Y3663D01*
Y3666D01*
X12234Y3730D01*
X12197Y3784D01*
X11767Y4214D01*
Y7006D01*
X11794Y7027D01*
X11830Y7016D01*
X11917Y6927D01*
Y6705D01*
X11930Y6641D01*
X11966Y6587D01*
X12388Y6166D01*
Y4976D01*
X12367D01*
X12304Y4963D01*
X12250Y4927D01*
X12214Y4873D01*
X12202Y4810D01*
Y4385D01*
X12214Y4321D01*
X12250Y4268D01*
X12304Y4232D01*
X12367Y4219D01*
X12742D01*
X12806Y4232D01*
X12841Y4255D01*
X12877Y4257D01*
X12925Y4250D01*
X12989Y4232D01*
X13039Y4157D01*
X13144Y4087D01*
X13267Y4062D01*
X13328D01*
Y4597D01*
Y5133D01*
X13267D01*
X13144Y5108D01*
X13039Y5038D01*
X12989Y4962D01*
X12925Y4945D01*
X12877Y4938D01*
X12841Y4939D01*
X12806Y4963D01*
X12742Y4976D01*
X12722D01*
Y6235D01*
X12709Y6298D01*
X12673Y6353D01*
X12251Y6774D01*
Y7121D01*
X12433D01*
Y7117D01*
X12446Y7053D01*
X12482Y6999D01*
X14005Y5476D01*
Y5122D01*
X14018Y5058D01*
X14054Y5004D01*
X14107Y4968D01*
X14171Y4956D01*
X14546D01*
X14609Y4968D01*
X14644Y4992D01*
X14680Y4994D01*
X14728Y4986D01*
X14792Y4969D01*
X14843Y4893D01*
X14947Y4823D01*
X15071Y4799D01*
X15131D01*
Y5334D01*
Y5869D01*
X15071D01*
X14947Y5845D01*
X14843Y5775D01*
X14792Y5699D01*
X14728Y5682D01*
X14680Y5674D01*
X14644Y5676D01*
X14609Y5700D01*
X14546Y5712D01*
X14241D01*
X12917Y7036D01*
X12834Y7121D01*
X12834D01*
X12834Y7121D01*
Y8067D01*
X12863D01*
Y8096D01*
X13573D01*
X21037Y632D01*
X21091Y596D01*
X21155Y583D01*
X29400D01*
X29464Y596D01*
X29518Y632D01*
X29961Y1075D01*
X29997Y1129D01*
X30009Y1190D01*
X30339D01*
Y2940D01*
X30432Y3021D01*
X30445D01*
X30539Y2940D01*
Y1190D01*
X31339D01*
Y2940D01*
X31111D01*
X31111Y2945D01*
X31110Y2967D01*
X31105Y2978D01*
Y3113D01*
X31093Y3177D01*
X31056Y3231D01*
X30982Y3306D01*
X30928Y3342D01*
X30864Y3354D01*
X30645D01*
X30645Y3354D01*
X21189D01*
X18729Y5814D01*
X18778Y5931D01*
X19256D01*
Y7010D01*
Y8089D01*
X18529D01*
X18442Y8180D01*
Y8750D01*
X18429Y8814D01*
X18393Y8868D01*
X18272Y8989D01*
X18320Y9106D01*
X18545D01*
Y10058D01*
X17818D01*
Y9609D01*
X17701Y9560D01*
X17439Y9822D01*
Y11209D01*
X17426Y11272D01*
X17390Y11326D01*
X17323Y11393D01*
X17269Y11429D01*
X17206Y11442D01*
X15012D01*
X14948Y11429D01*
X14894Y11393D01*
X14514Y11012D01*
X13847D01*
X13836Y11017D01*
X13814Y11018D01*
X13809Y11019D01*
Y11096D01*
X12863D01*
Y11125D01*
X12834D01*
Y12071D01*
X12599D01*
X12551Y12188D01*
X12864Y12501D01*
X15054D01*
X15057Y12476D01*
X15131Y12297D01*
X15249Y12143D01*
X15403Y12026D01*
X15582Y11952D01*
X15773Y11926D01*
X15965Y11952D01*
X16144Y12026D01*
X16298Y12143D01*
X16415Y12297D01*
X16489Y12476D01*
X16515Y12668D01*
X16489Y12859D01*
X16415Y13038D01*
X16298Y13192D01*
X16144Y13310D01*
X15965Y13384D01*
X15773Y13409D01*
X15582Y13384D01*
X15403Y13310D01*
X15249Y13192D01*
X15131Y13038D01*
X15057Y12859D01*
X15054Y12834D01*
X12795D01*
X12731Y12822D01*
X12677Y12786D01*
X12053Y12162D01*
X12017Y12107D01*
X12009Y12071D01*
X11834D01*
X11751Y12163D01*
Y12328D01*
X13224Y13801D01*
X13244Y13785D01*
X13423Y13711D01*
X13614Y13686D01*
X13806Y13711D01*
X13985Y13785D01*
X14139Y13903D01*
X14256Y14057D01*
X14330Y14235D01*
X14356Y14427D01*
X14330Y14619D01*
X14256Y14798D01*
X14139Y14951D01*
X13985Y15069D01*
X13806Y15143D01*
X13614Y15169D01*
X13423Y15143D01*
X13244Y15069D01*
X13090Y14951D01*
X12972Y14798D01*
X12898Y14619D01*
X12873Y14427D01*
X12898Y14235D01*
X12972Y14057D01*
X12988Y14036D01*
X11466Y12515D01*
X11430Y12461D01*
X11417Y12397D01*
Y12109D01*
X11412Y12098D01*
X11412Y12076D01*
X11411Y12071D01*
X10834D01*
X10751Y12163D01*
Y13665D01*
X11192Y14105D01*
X11212Y14090D01*
X11391Y14016D01*
X11582Y13991D01*
X11774Y14016D01*
X11953Y14090D01*
X12107Y14208D01*
X12224Y14361D01*
X12298Y14540D01*
X12324Y14732D01*
X12298Y14924D01*
X12224Y15103D01*
X12107Y15256D01*
X11953Y15374D01*
X11774Y15448D01*
X11582Y15473D01*
X11391Y15448D01*
X11212Y15374D01*
X11058Y15256D01*
X10940Y15103D01*
X10866Y14924D01*
X10841Y14732D01*
X10866Y14540D01*
X10940Y14361D01*
X10956Y14341D01*
X10466Y13852D01*
X10430Y13798D01*
X10417Y13734D01*
Y12859D01*
X10292Y12856D01*
X10279Y12920D01*
X10243Y12974D01*
X9836Y13381D01*
X9782Y13418D01*
X9750Y13424D01*
Y14100D01*
X9236D01*
X8116Y15220D01*
X8062Y15256D01*
X7998Y15269D01*
X7408D01*
Y15877D01*
X6234D01*
X6182Y16004D01*
X6597Y16420D01*
X14942D01*
X18899Y12463D01*
X18953Y12426D01*
X19017Y12414D01*
X25262D01*
Y11115D01*
X27062D01*
Y14115D01*
X25262D01*
Y12747D01*
X19086D01*
X15129Y16704D01*
X15075Y16740D01*
X15011Y16753D01*
X6528D01*
X6464Y16740D01*
X6410Y16704D01*
X5683Y15977D01*
X5647Y15923D01*
X5638Y15877D01*
X5075D01*
X5074Y15882D01*
X5074Y15904D01*
X5069Y15915D01*
Y19418D01*
X5072Y19422D01*
X5187Y19468D01*
X6640D01*
X6650Y19456D01*
X6675Y19265D01*
X6749Y19086D01*
X6867Y18932D01*
X7021Y18814D01*
X7200Y18740D01*
X7391Y18715D01*
X7583Y18740D01*
X7762Y18814D01*
X7916Y18932D01*
X8033Y19086D01*
X8107Y19265D01*
X8133Y19456D01*
X8107Y19648D01*
X8033Y19827D01*
X7916Y19981D01*
X7762Y20098D01*
X7583Y20172D01*
X7391Y20198D01*
X7200Y20172D01*
X7021Y20098D01*
X6867Y19981D01*
X6749Y19827D01*
X6739Y19801D01*
X5187D01*
X5072Y19846D01*
X5069Y19850D01*
Y33426D01*
X5056Y33490D01*
X5020Y33544D01*
X3648Y34917D01*
X3594Y34953D01*
X3562Y34959D01*
X3539Y35073D01*
X3541Y35088D01*
X3667Y35140D01*
X3737Y35194D01*
X5244Y33688D01*
Y32106D01*
X5256Y32042D01*
X5292Y31988D01*
X6123Y31157D01*
X6177Y31121D01*
X6241Y31108D01*
X6260D01*
X6285Y30981D01*
X6283Y30980D01*
X6076Y30822D01*
X5918Y30615D01*
X5818Y30375D01*
X5784Y30117D01*
X5818Y29858D01*
X5918Y29618D01*
X6076Y29411D01*
X6283Y29253D01*
X6524Y29153D01*
X6782Y29119D01*
X7040Y29153D01*
X7281Y29253D01*
X7487Y29411D01*
X7646Y29618D01*
X7745Y29858D01*
X7779Y30117D01*
X7745Y30375D01*
X7646Y30615D01*
X7487Y30822D01*
X7281Y30980D01*
X7278Y30981D01*
X7304Y31108D01*
X24206D01*
X28762Y26552D01*
X28816Y26516D01*
X28880Y26503D01*
X34552D01*
X34642Y26413D01*
X34642Y26092D01*
X34534Y26046D01*
X34488D01*
Y25619D01*
X36546D01*
Y26046D01*
X36500D01*
X36392Y26092D01*
X36392Y26173D01*
Y26636D01*
X36509Y26684D01*
X37248Y25946D01*
X37302Y25909D01*
X37366Y25897D01*
X38384D01*
X39254Y25026D01*
Y17138D01*
X38965Y16849D01*
X38838Y16902D01*
Y18187D01*
X36838D01*
Y16787D01*
X37650D01*
X37663Y16660D01*
X37621Y16651D01*
X37567Y16615D01*
X37455Y16504D01*
X37419Y16449D01*
X37406Y16386D01*
Y16125D01*
X36992Y15710D01*
X36955Y15656D01*
X36943Y15592D01*
Y11499D01*
X34043Y8599D01*
X33914D01*
X33902Y8604D01*
X33881Y8605D01*
X33876Y8606D01*
Y8787D01*
X32418D01*
Y8155D01*
X32067D01*
X31409Y8813D01*
Y17302D01*
X31414Y17313D01*
X31414Y17335D01*
X31415Y17340D01*
X31691D01*
Y9937D01*
X31703Y9873D01*
X31740Y9819D01*
X31974Y9585D01*
X32028Y9549D01*
X32092Y9536D01*
X32418D01*
Y9349D01*
X33876D01*
Y10057D01*
X32418D01*
Y9870D01*
X32161D01*
X32024Y10006D01*
Y11333D01*
X32142Y11382D01*
X32342Y11181D01*
X32344Y11174D01*
X32350Y11170D01*
X32352Y11164D01*
X32398Y11115D01*
X32412Y11097D01*
X32418Y11089D01*
Y11070D01*
X32417Y11067D01*
X32418Y11061D01*
Y11054D01*
X32417Y11049D01*
X32418Y11045D01*
Y10619D01*
X33876D01*
Y11327D01*
X32727D01*
X32724Y11329D01*
X32718Y11327D01*
X32686D01*
X32674Y11335D01*
X32634Y11369D01*
X32611Y11391D01*
X32599Y11396D01*
X32278Y11717D01*
Y18374D01*
X32266Y18438D01*
X32229Y18492D01*
X31900Y18821D01*
X31846Y18858D01*
X31782Y18870D01*
X31767D01*
Y19154D01*
X31773Y19154D01*
X31794Y19155D01*
X31805Y19160D01*
X33866D01*
X33930Y19172D01*
X33984Y19209D01*
X34187Y19412D01*
X34285Y19330D01*
Y18914D01*
X36343D01*
Y19341D01*
X36296D01*
X36189Y19387D01*
X36189Y19468D01*
Y20006D01*
X36218Y20017D01*
X36220Y20020D01*
X36224Y20020D01*
X36246Y20030D01*
X36255Y20040D01*
X36595Y20198D01*
X36619Y20215D01*
X36643Y20231D01*
X36645Y20234D01*
X36648Y20236D01*
X36663Y20261D01*
X36679Y20285D01*
X36680Y20289D01*
X36682Y20292D01*
X36686Y20320D01*
X36692Y20349D01*
Y21326D01*
X36679Y21390D01*
X36643Y21444D01*
X36544Y21543D01*
X36490Y21579D01*
X36426Y21592D01*
X30419D01*
X22757Y29254D01*
X22886Y29422D01*
X22985Y29663D01*
X23019Y29921D01*
X22985Y30179D01*
X22886Y30420D01*
X22727Y30627D01*
X22521Y30785D01*
X22280Y30885D01*
X22022Y30919D01*
X21764Y30885D01*
X21523Y30785D01*
X21316Y30627D01*
X21158Y30420D01*
X21058Y30179D01*
X21024Y29921D01*
X21058Y29663D01*
X21158Y29422D01*
X21316Y29216D01*
X21523Y29057D01*
X21764Y28958D01*
X22022Y28924D01*
X22280Y28958D01*
X22493Y29046D01*
X30232Y21307D01*
X30286Y21271D01*
X30350Y21258D01*
X34341D01*
X34439Y21187D01*
Y20843D01*
X29490D01*
X29426Y20830D01*
X29372Y20794D01*
X29187Y20609D01*
X29165Y20600D01*
X29108Y20582D01*
X29032Y20606D01*
X22830Y26809D01*
X22886Y26882D01*
X22985Y27123D01*
X23019Y27381D01*
X22985Y27639D01*
X22886Y27880D01*
X22727Y28087D01*
X22521Y28245D01*
X22280Y28345D01*
X22022Y28379D01*
X21764Y28345D01*
X21523Y28245D01*
X21316Y28087D01*
X21158Y27880D01*
X21058Y27639D01*
X21024Y27381D01*
X21058Y27123D01*
X21158Y26882D01*
X21316Y26676D01*
X21523Y26517D01*
X21764Y26418D01*
X22022Y26384D01*
X22280Y26418D01*
X22521Y26517D01*
X22594Y26573D01*
X28872Y20296D01*
X28876Y20284D01*
X28890Y20269D01*
X28900Y20256D01*
X28909Y20244D01*
X28916Y20231D01*
X28922Y20218D01*
X28927Y20204D01*
X28931Y20190D01*
X28934Y20174D01*
X28936Y20158D01*
X28937Y20137D01*
X28942Y20127D01*
Y19679D01*
X28937Y19668D01*
X28936Y19646D01*
X28936Y19641D01*
X28533D01*
Y18591D01*
X29454D01*
X29470Y18588D01*
X29875D01*
X30132Y18331D01*
X30159Y18313D01*
X30186Y18295D01*
X30186Y18295D01*
X30186Y18295D01*
X30249Y18282D01*
X30717D01*
Y17983D01*
X29721D01*
X29710Y17988D01*
X29689Y17988D01*
X29683Y17989D01*
Y18341D01*
X28533D01*
Y17291D01*
X29683D01*
Y17643D01*
X29689Y17644D01*
X29710Y17644D01*
X29721Y17649D01*
X30717D01*
Y17340D01*
X31069D01*
X31070Y17335D01*
X31070Y17313D01*
X31075Y17302D01*
Y8744D01*
X31075Y8744D01*
X31088Y8680D01*
X31124Y8626D01*
X31880Y7870D01*
X31934Y7834D01*
X31997Y7822D01*
X33066D01*
X33066Y7822D01*
X34027D01*
X34091Y7834D01*
X34145Y7870D01*
X37481Y11207D01*
X37517Y11261D01*
X37530Y11325D01*
Y14722D01*
X37536Y14727D01*
X37663Y14659D01*
Y14429D01*
X39121D01*
Y15137D01*
X38463D01*
X38410Y15264D01*
X38510Y15363D01*
X38546Y15418D01*
X38559Y15481D01*
Y15661D01*
X38564Y15672D01*
X38564Y15693D01*
X38565Y15699D01*
X39121D01*
Y16171D01*
X39675Y16726D01*
X39793Y16677D01*
Y1000D01*
Y922D01*
X39762Y769D01*
X39703Y624D01*
X39616Y495D01*
X39505Y384D01*
X39375Y297D01*
X39231Y238D01*
X39078Y207D01*
X922D01*
X769Y238D01*
X624Y297D01*
X495Y384D01*
X384Y495D01*
X297Y624D01*
X238Y769D01*
X207Y922D01*
Y1000D01*
Y59000D01*
Y59078D01*
X238Y59231D01*
X297Y59375D01*
X384Y59505D01*
X495Y59616D01*
X624Y59702D01*
X769Y59762D01*
X922Y59793D01*
X5000D01*
X5079Y59808D01*
X5146Y59853D01*
X5191Y59921D01*
X5207Y60000D01*
Y60176D01*
X5276Y60523D01*
X5411Y60849D01*
X5607Y61143D01*
X5857Y61392D01*
X6151Y61589D01*
X6477Y61724D01*
X6823Y61793D01*
X33177D01*
X33523Y61724D01*
D02*
G37*
G36*
X35619Y56081D02*
X35673Y56045D01*
X35736Y56032D01*
X39516D01*
Y25402D01*
X39398Y25353D01*
X38570Y26181D01*
X38516Y26217D01*
X38453Y26230D01*
X37435D01*
X36465Y27200D01*
X36463Y27208D01*
X36396Y27306D01*
X36392Y27322D01*
Y27892D01*
X34642D01*
Y27092D01*
X36022D01*
X36023Y27092D01*
X36028Y27092D01*
X36067D01*
X36070Y27091D01*
X36165Y27010D01*
X36164Y26991D01*
X36115Y26892D01*
X34642D01*
Y26837D01*
X28949D01*
X24393Y31393D01*
X24339Y31429D01*
X24275Y31442D01*
X22477D01*
X22451Y31569D01*
X22521Y31597D01*
X22727Y31756D01*
X22886Y31962D01*
X22985Y32203D01*
X23019Y32461D01*
X22985Y32719D01*
X22886Y32960D01*
X22727Y33167D01*
X22521Y33325D01*
X22280Y33425D01*
X22022Y33459D01*
X21764Y33425D01*
X21523Y33325D01*
X21316Y33167D01*
X21158Y32960D01*
X21058Y32719D01*
X21024Y32461D01*
X21058Y32203D01*
X21158Y31962D01*
X21316Y31756D01*
X21523Y31597D01*
X21592Y31569D01*
X21567Y31442D01*
X6310D01*
X5577Y32175D01*
Y33757D01*
X5564Y33820D01*
X5528Y33874D01*
X3973Y35430D01*
X4027Y35500D01*
X4125Y35737D01*
X4158Y35992D01*
X4125Y36246D01*
X4027Y36484D01*
X3870Y36687D01*
X3667Y36843D01*
X3550Y36892D01*
X3575Y37019D01*
X4216D01*
X4280Y37032D01*
X4334Y37068D01*
X6013Y38746D01*
X6444D01*
X6469Y38619D01*
X6283Y38542D01*
X6076Y38383D01*
X5918Y38177D01*
X5818Y37936D01*
X5784Y37678D01*
X5818Y37420D01*
X5918Y37179D01*
X6076Y36973D01*
X6283Y36814D01*
X6524Y36715D01*
X6782Y36681D01*
X7040Y36715D01*
X7281Y36814D01*
X7487Y36973D01*
X7646Y37179D01*
X7745Y37420D01*
X7779Y37678D01*
X7745Y37936D01*
X7646Y38177D01*
X7487Y38383D01*
X7281Y38542D01*
X7094Y38619D01*
X7120Y38746D01*
X7696D01*
X7760Y38759D01*
X7814Y38795D01*
X11474Y42454D01*
X21046D01*
X21058Y42363D01*
X21158Y42122D01*
X21316Y41916D01*
X21523Y41757D01*
X21764Y41658D01*
X22022Y41624D01*
X22280Y41658D01*
X22521Y41757D01*
X22727Y41916D01*
X22886Y42122D01*
X22985Y42363D01*
X23019Y42621D01*
X22985Y42879D01*
X22886Y43120D01*
X22727Y43327D01*
X22521Y43485D01*
X22280Y43585D01*
X22022Y43619D01*
X21764Y43585D01*
X21523Y43485D01*
X21316Y43327D01*
X21158Y43120D01*
X21058Y42879D01*
X21046Y42788D01*
X11405D01*
X11341Y42775D01*
X11287Y42739D01*
X7627Y39079D01*
X6832D01*
X6823Y39207D01*
X7040Y39235D01*
X7281Y39335D01*
X7487Y39493D01*
X7646Y39700D01*
X7745Y39940D01*
X7779Y40199D01*
X7745Y40457D01*
X7646Y40697D01*
X7487Y40904D01*
X7281Y41062D01*
X7040Y41162D01*
X6782Y41196D01*
X6524Y41162D01*
X6283Y41062D01*
X6076Y40904D01*
X5918Y40697D01*
X5818Y40457D01*
X5784Y40199D01*
X5805Y40045D01*
X5696Y39918D01*
X5374D01*
Y44120D01*
X5361Y44184D01*
X5325Y44238D01*
X3973Y45590D01*
X4027Y45660D01*
X4125Y45897D01*
X4158Y46152D01*
X4156Y46169D01*
X4240Y46264D01*
X6031D01*
X6075Y46138D01*
X5967Y46055D01*
X5783Y45816D01*
X5668Y45538D01*
X5646Y45366D01*
X6782D01*
X7918D01*
X7895Y45538D01*
X7780Y45816D01*
X7597Y46055D01*
X7489Y46138D01*
X7532Y46264D01*
X21852D01*
X21860Y46138D01*
X21764Y46125D01*
X21523Y46025D01*
X21316Y45867D01*
X21158Y45660D01*
X21058Y45419D01*
X21024Y45161D01*
X21058Y44903D01*
X21158Y44662D01*
X21316Y44456D01*
X21523Y44297D01*
X21764Y44198D01*
X22022Y44164D01*
X22280Y44198D01*
X22521Y44297D01*
X22727Y44456D01*
X22886Y44662D01*
X22985Y44903D01*
X23019Y45161D01*
X22985Y45419D01*
X22886Y45660D01*
X22727Y45867D01*
X22521Y46025D01*
X22280Y46125D01*
X22183Y46138D01*
X22191Y46264D01*
X22860D01*
X22924Y46277D01*
X22978Y46313D01*
X24707Y48042D01*
X27546D01*
X27550Y48040D01*
X27596Y47925D01*
Y47351D01*
X27590Y47339D01*
X27590Y47318D01*
X27589Y47313D01*
X26862D01*
Y44313D01*
X28662D01*
Y47313D01*
X27935D01*
X27934Y47318D01*
X27934Y47339D01*
X27929Y47351D01*
Y47925D01*
X27974Y48040D01*
X27978Y48042D01*
X33335D01*
X33345Y48038D01*
X33366Y48037D01*
X33382Y48035D01*
X33398Y48032D01*
X33412Y48028D01*
X33426Y48023D01*
X33439Y48017D01*
X33452Y48010D01*
X33464Y48001D01*
X33477Y47991D01*
X33492Y47977D01*
X33504Y47972D01*
X36663Y44813D01*
Y42802D01*
X34967D01*
Y42238D01*
X30438Y37708D01*
X22997D01*
X22985Y37799D01*
X22886Y38040D01*
X22727Y38247D01*
X22521Y38405D01*
X22280Y38505D01*
X22022Y38539D01*
X21764Y38505D01*
X21523Y38405D01*
X21316Y38247D01*
X21158Y38040D01*
X21058Y37799D01*
X21024Y37541D01*
X21058Y37283D01*
X21158Y37042D01*
X21316Y36836D01*
X21523Y36677D01*
X21764Y36578D01*
X22022Y36544D01*
X22280Y36578D01*
X22521Y36677D01*
X22727Y36836D01*
X22886Y37042D01*
X22985Y37283D01*
X22997Y37375D01*
X30507D01*
X30570Y37387D01*
X30624Y37423D01*
X34850Y41649D01*
X34967Y41600D01*
Y41238D01*
X33156Y39426D01*
X33120Y39372D01*
X33107Y39309D01*
Y38411D01*
X32699D01*
Y37361D01*
X33849D01*
Y38411D01*
X33441D01*
Y39240D01*
X34696Y40495D01*
X34813Y40446D01*
Y39848D01*
X35715D01*
Y40402D01*
X35842D01*
Y40529D01*
X36871D01*
Y40956D01*
X36825D01*
X36717Y41002D01*
Y41566D01*
X36948Y41797D01*
X36984Y41851D01*
X36997Y41915D01*
Y44882D01*
X36984Y44946D01*
X36948Y45000D01*
X33739Y48208D01*
X33735Y48219D01*
X33721Y48235D01*
X33711Y48247D01*
X33702Y48260D01*
X33695Y48273D01*
X33689Y48286D01*
X33684Y48300D01*
X33680Y48314D01*
X33677Y48329D01*
X33675Y48345D01*
X33674Y48366D01*
X33669Y48377D01*
Y48648D01*
X33851Y48830D01*
X34972D01*
Y48538D01*
X36695D01*
X36780Y48435D01*
X36744Y48358D01*
X36698Y48346D01*
X36628Y48345D01*
X36625Y48343D01*
X36622Y48344D01*
X36616Y48344D01*
X36613Y48342D01*
X36609Y48343D01*
X36605Y48343D01*
X36603Y48341D01*
X36083D01*
X36083Y48341D01*
X36083Y48341D01*
X36067Y48338D01*
X34972D01*
Y47538D01*
X36722D01*
Y48002D01*
X36727Y48002D01*
X36749Y48003D01*
X36760Y48008D01*
X36871D01*
X36935Y48020D01*
X36989Y48056D01*
X37100Y48168D01*
X37136Y48222D01*
X37149Y48286D01*
Y49492D01*
X37136Y49556D01*
X37100Y49610D01*
X35523Y51187D01*
Y52532D01*
X35528Y52543D01*
X35529Y52565D01*
X35530Y52570D01*
X35882D01*
Y53489D01*
X35882Y53520D01*
X35957Y53616D01*
X36036D01*
Y54118D01*
X35357D01*
X34678D01*
Y53616D01*
X34757D01*
X34832Y53520D01*
X34832Y53489D01*
Y52570D01*
X35184D01*
X35185Y52564D01*
X35185Y52543D01*
X35190Y52532D01*
Y51118D01*
X35203Y51054D01*
X35239Y51000D01*
X36811Y49428D01*
X36721Y49338D01*
X36689Y49338D01*
X34972D01*
Y49163D01*
X33782D01*
X33718Y49151D01*
X33664Y49114D01*
X33385Y48835D01*
X33349Y48781D01*
X33336Y48717D01*
Y48483D01*
X33300Y48412D01*
X33228Y48376D01*
X27788D01*
X27783Y48379D01*
X27769Y48376D01*
X27756D01*
X27741Y48379D01*
X27737Y48376D01*
X24638D01*
X24574Y48363D01*
X24520Y48327D01*
X22791Y46598D01*
X22191D01*
X22183Y46725D01*
X22280Y46738D01*
X22521Y46837D01*
X22727Y46996D01*
X22886Y47202D01*
X22985Y47443D01*
X23019Y47701D01*
X22985Y47959D01*
X22886Y48200D01*
X22830Y48273D01*
X23359Y48803D01*
X23395Y48857D01*
X23408Y48920D01*
Y52125D01*
X24453Y53170D01*
X25577D01*
Y52843D01*
X25577Y52812D01*
X25502Y52716D01*
X25423D01*
Y52164D01*
X26152D01*
X26881D01*
Y52716D01*
X26881D01*
X26831Y52843D01*
X26842Y52864D01*
X26851Y52868D01*
X28176D01*
X28660Y52384D01*
X28714Y52348D01*
X28778Y52335D01*
X29790D01*
X29853Y52348D01*
X29907Y52384D01*
X30121Y52598D01*
X30698D01*
Y54348D01*
X29898D01*
Y52865D01*
X29814Y52799D01*
X29698Y52849D01*
Y54348D01*
X29470D01*
X29470Y54353D01*
X29469Y54375D01*
X29464Y54386D01*
Y54903D01*
X29452Y54967D01*
X29415Y55021D01*
X28537Y55900D01*
Y56310D01*
X28648Y56435D01*
X28770Y56435D01*
X28816Y56327D01*
Y56281D01*
X29243D01*
Y57310D01*
X29497D01*
Y56281D01*
X29924D01*
Y56327D01*
X29970Y56435D01*
X30051Y56435D01*
X30770Y56435D01*
X30816Y56327D01*
Y56281D01*
X31243D01*
Y57310D01*
X31370D01*
Y57437D01*
X31924D01*
Y58228D01*
X31924Y58339D01*
X32045Y58355D01*
X33345D01*
X35619Y56081D01*
D02*
G37*
G36*
X29362Y54347D02*
X29364Y54325D01*
X29367Y54306D01*
X29371Y54289D01*
X29377Y54274D01*
X29384Y54263D01*
X29392Y54254D01*
X29402Y54247D01*
X29413Y54243D01*
X29425Y54242D01*
X29171D01*
X29183Y54243D01*
X29193Y54247D01*
X29203Y54254D01*
X29211Y54263D01*
X29218Y54274D01*
X29224Y54289D01*
X29228Y54306D01*
X29232Y54325D01*
X29233Y54347D01*
X29234Y54372D01*
X29361D01*
X29362Y54347D01*
D02*
G37*
G36*
X26622Y53150D02*
X26626Y53139D01*
X26633Y53130D01*
X26642Y53122D01*
X26653Y53115D01*
X26668Y53109D01*
X26685Y53104D01*
X26704Y53101D01*
X26726Y53099D01*
X26751Y53099D01*
Y52972D01*
X26726Y52971D01*
X26705Y52969D01*
X26686Y52967D01*
X26669Y52963D01*
X26655Y52958D01*
X26644Y52951D01*
X26635Y52944D01*
X26629Y52936D01*
X26625Y52926D01*
X26624Y52915D01*
X26620Y53162D01*
X26622Y53150D01*
D02*
G37*
G36*
X27970Y56435D02*
X28198D01*
X28198Y56430D01*
X28199Y56408D01*
X28204Y56397D01*
Y55831D01*
X28216Y55767D01*
X28253Y55713D01*
X29131Y54834D01*
Y54386D01*
X29126Y54375D01*
X29125Y54353D01*
X29125Y54348D01*
X28898D01*
Y52798D01*
X28771Y52745D01*
X28363Y53153D01*
X28309Y53189D01*
X28245Y53202D01*
X26765D01*
X26753Y53207D01*
X26732Y53207D01*
X26727Y53208D01*
Y53862D01*
X25577D01*
Y53504D01*
X24384D01*
X24320Y53491D01*
X24266Y53455D01*
X23123Y52312D01*
X23087Y52258D01*
X23074Y52194D01*
Y50617D01*
X22947Y50591D01*
X22886Y50740D01*
X22727Y50947D01*
X22521Y51105D01*
X22280Y51205D01*
X22022Y51239D01*
X21764Y51205D01*
X21523Y51105D01*
X21316Y50947D01*
X21158Y50740D01*
X21058Y50499D01*
X21024Y50241D01*
X21058Y49983D01*
X21158Y49742D01*
X21316Y49536D01*
X21523Y49377D01*
X21764Y49278D01*
X22022Y49244D01*
X22280Y49278D01*
X22521Y49377D01*
X22727Y49536D01*
X22886Y49742D01*
X22947Y49891D01*
X23074Y49866D01*
Y48989D01*
X22594Y48509D01*
X22521Y48565D01*
X22280Y48665D01*
X22022Y48699D01*
X21764Y48665D01*
X21523Y48565D01*
X21316Y48407D01*
X21158Y48200D01*
X21058Y47959D01*
X21024Y47701D01*
X21058Y47443D01*
X21158Y47202D01*
X21316Y46996D01*
X21523Y46837D01*
X21764Y46738D01*
X21860Y46725D01*
X21852Y46598D01*
X4046D01*
X4027Y46644D01*
X3870Y46847D01*
X3667Y47003D01*
X3430Y47102D01*
X3175Y47135D01*
X3051Y47119D01*
X2991Y47239D01*
X4585Y48833D01*
X6457D01*
X6482Y48706D01*
X6283Y48624D01*
X6076Y48465D01*
X5918Y48259D01*
X5818Y48018D01*
X5784Y47760D01*
X5818Y47502D01*
X5918Y47261D01*
X6076Y47055D01*
X6283Y46896D01*
X6524Y46796D01*
X6782Y46762D01*
X7040Y46796D01*
X7281Y46896D01*
X7487Y47055D01*
X7646Y47261D01*
X7745Y47502D01*
X7779Y47760D01*
X7745Y48018D01*
X7646Y48259D01*
X7487Y48465D01*
X7281Y48624D01*
X7081Y48706D01*
X7107Y48833D01*
X13465D01*
X13529Y48846D01*
X13583Y48882D01*
X18539Y53838D01*
X18687Y53986D01*
X23876D01*
X23940Y53999D01*
X23994Y54035D01*
X26866Y56907D01*
X27970D01*
Y56435D01*
D02*
G37*
G36*
X35472Y52675D02*
X35461Y52671D01*
X35451Y52664D01*
X35443Y52655D01*
X35436Y52643D01*
X35430Y52629D01*
X35426Y52612D01*
X35423Y52593D01*
X35421Y52571D01*
X35420Y52546D01*
X35293D01*
X35293Y52571D01*
X35291Y52593D01*
X35288Y52612D01*
X35283Y52629D01*
X35277Y52643D01*
X35270Y52655D01*
X35262Y52664D01*
X35253Y52671D01*
X35242Y52675D01*
X35230Y52676D01*
X35484D01*
X35472Y52675D01*
D02*
G37*
G36*
X33566Y48362D02*
X33567Y48337D01*
X33570Y48313D01*
X33574Y48290D01*
X33580Y48267D01*
X33589Y48245D01*
X33598Y48223D01*
X33610Y48203D01*
X33624Y48183D01*
X33639Y48164D01*
X33656Y48146D01*
X33566Y48056D01*
X33548Y48073D01*
X33529Y48088D01*
X33509Y48102D01*
X33488Y48113D01*
X33467Y48123D01*
X33445Y48131D01*
X33422Y48138D01*
X33399Y48142D01*
X33374Y48145D01*
X33349Y48146D01*
X33312Y48273D01*
X33336Y48274D01*
X33358Y48278D01*
X33377Y48284D01*
X33393Y48293D01*
X33407Y48304D01*
X33419Y48318D01*
X33428Y48335D01*
X33434Y48354D01*
X33438Y48376D01*
X33439Y48400D01*
X33566Y48362D01*
D02*
G37*
G36*
X36746Y48111D02*
X36721Y48110D01*
X36699Y48108D01*
X36680Y48105D01*
X36663Y48101D01*
X36649Y48095D01*
X36637Y48088D01*
X36628Y48080D01*
X36621Y48070D01*
X36617Y48059D01*
X36616Y48047D01*
X36619Y48235D01*
X36620Y48235D01*
X36624Y48236D01*
X36630Y48236D01*
X36700Y48238D01*
X36746Y48238D01*
Y48111D01*
D02*
G37*
G36*
X27953Y48146D02*
X27929Y48144D01*
X27907Y48141D01*
X27888Y48134D01*
X27871Y48125D01*
X27857Y48114D01*
X27846Y48100D01*
X27837Y48083D01*
X27831Y48064D01*
X27827Y48043D01*
X27826Y48019D01*
X27699D01*
X27697Y48043D01*
X27694Y48064D01*
X27687Y48083D01*
X27678Y48100D01*
X27667Y48114D01*
X27653Y48125D01*
X27636Y48134D01*
X27617Y48141D01*
X27596Y48144D01*
X27572Y48146D01*
X27762Y48273D01*
X27953Y48146D01*
D02*
G37*
G36*
X27826Y47312D02*
X27828Y47290D01*
X27831Y47270D01*
X27836Y47253D01*
X27842Y47239D01*
X27849Y47227D01*
X27857Y47218D01*
X27866Y47212D01*
X27877Y47208D01*
X27889Y47207D01*
X27635D01*
X27647Y47208D01*
X27658Y47212D01*
X27668Y47218D01*
X27676Y47227D01*
X27683Y47239D01*
X27689Y47253D01*
X27693Y47270D01*
X27696Y47290D01*
X27698Y47312D01*
X27699Y47337D01*
X27826D01*
X27826Y47312D01*
D02*
G37*
G36*
X6076Y39493D02*
X6283Y39335D01*
X6524Y39235D01*
X6740Y39207D01*
X6732Y39079D01*
X5944D01*
X5880Y39067D01*
X5826Y39031D01*
X4147Y37352D01*
X3610D01*
X3584Y37479D01*
X3744Y37546D01*
X3980Y37727D01*
X4161Y37962D01*
X4275Y38237D01*
X4297Y38405D01*
X3175D01*
X2053D01*
X2075Y38237D01*
X2189Y37962D01*
X2370Y37727D01*
X2606Y37546D01*
X2766Y37479D01*
X2740Y37352D01*
X2311D01*
X2248Y37340D01*
X2194Y37303D01*
X1762Y36872D01*
X1726Y36818D01*
X1713Y36754D01*
Y35306D01*
X1726Y35242D01*
X1762Y35188D01*
X2269Y34681D01*
X2323Y34645D01*
X2387Y34632D01*
X3461D01*
X3641Y34451D01*
X3569Y34344D01*
X3430Y34402D01*
X3175Y34435D01*
X2920Y34402D01*
X2683Y34303D01*
X2480Y34147D01*
X2323Y33944D01*
X2225Y33706D01*
X2192Y33452D01*
X2225Y33197D01*
X2323Y32960D01*
X2480Y32756D01*
X2683Y32600D01*
X2920Y32502D01*
X3175Y32468D01*
X3430Y32502D01*
X3667Y32600D01*
X3870Y32756D01*
X4027Y32960D01*
X4125Y33197D01*
X4158Y33452D01*
X4125Y33706D01*
X4067Y33846D01*
X4175Y33918D01*
X4735Y33357D01*
Y19660D01*
X4733Y19655D01*
X4735Y19641D01*
Y19628D01*
X4733Y19613D01*
X4735Y19609D01*
Y15915D01*
X4731Y15904D01*
X4730Y15882D01*
X4729Y15877D01*
X4308D01*
Y14391D01*
X3625D01*
X3614Y14396D01*
X3592Y14396D01*
X3587Y14397D01*
Y14824D01*
X3210D01*
X3209Y14829D01*
X3209Y14851D01*
X3204Y14862D01*
Y21234D01*
X4436Y22466D01*
X4472Y22520D01*
X4485Y22584D01*
Y31775D01*
X4472Y31839D01*
X4436Y31893D01*
X4131Y32198D01*
X4077Y32234D01*
X4013Y32247D01*
X2739D01*
X1513Y33473D01*
Y38895D01*
X2203Y39584D01*
X2483D01*
X2526Y39457D01*
X2370Y39337D01*
X2189Y39101D01*
X2075Y38827D01*
X2053Y38659D01*
X3175D01*
X4297D01*
X4275Y38827D01*
X4161Y39101D01*
X3980Y39337D01*
X3824Y39457D01*
X3867Y39584D01*
X5887D01*
X5951Y39597D01*
X5981Y39617D01*
X6076Y39493D01*
D02*
G37*
G36*
X1868Y39721D02*
X1228Y39081D01*
X1192Y39027D01*
X1179Y38964D01*
Y33404D01*
X1192Y33340D01*
X1228Y33286D01*
X2552Y31962D01*
X2606Y31926D01*
X2670Y31913D01*
X2714D01*
X2739Y31787D01*
X2683Y31763D01*
X2613Y31710D01*
X1005Y33318D01*
Y39838D01*
X1819D01*
X1868Y39721D01*
D02*
G37*
G36*
X36279Y27313D02*
X36274Y27303D01*
X36272Y27291D01*
X36275Y27276D01*
X36282Y27260D01*
X36293Y27241D01*
X36308Y27219D01*
X36327Y27195D01*
X36378Y27141D01*
X36279Y27061D01*
X36247Y27092D01*
X36163Y27162D01*
X36140Y27177D01*
X36118Y27189D01*
X36099Y27196D01*
X36082Y27200D01*
X36067Y27200D01*
X36054Y27195D01*
X36289Y27320D01*
X36279Y27313D01*
D02*
G37*
G36*
X29262Y20358D02*
X29245Y20340D01*
X29229Y20321D01*
X29216Y20301D01*
X29204Y20280D01*
X29194Y20259D01*
X29186Y20237D01*
X29180Y20214D01*
X29175Y20191D01*
X29173Y20166D01*
X29172Y20141D01*
X29045D01*
X29044Y20166D01*
X29041Y20191D01*
X29037Y20214D01*
X29031Y20237D01*
X29022Y20259D01*
X29013Y20280D01*
X29001Y20301D01*
X28987Y20321D01*
X28972Y20340D01*
X28955Y20358D01*
X29019Y20474D01*
X29037Y20458D01*
X29055Y20445D01*
X29072Y20436D01*
X29090Y20431D01*
X29108Y20429D01*
X29126Y20431D01*
X29144Y20436D01*
X29162Y20445D01*
X29180Y20458D01*
X29198Y20474D01*
X29262Y20358D01*
D02*
G37*
G36*
X36201Y20128D02*
X36179Y20118D01*
X36087Y20082D01*
X36085Y20084D01*
X35652Y20080D01*
X35681Y20081D01*
X35737Y20086D01*
X35765Y20090D01*
X35818Y20101D01*
X35844Y20109D01*
X35894Y20126D01*
X35918Y20137D01*
X36201Y20128D01*
D02*
G37*
G36*
X29173Y19640D02*
X29174Y19618D01*
X29178Y19598D01*
X29182Y19582D01*
X29188Y19567D01*
X29195Y19556D01*
X29203Y19546D01*
X29213Y19540D01*
X29223Y19536D01*
X29235Y19535D01*
X28981D01*
X28993Y19536D01*
X29004Y19540D01*
X29014Y19546D01*
X29022Y19556D01*
X29029Y19567D01*
X29035Y19582D01*
X29039Y19598D01*
X29042Y19618D01*
X29044Y19640D01*
X29045Y19665D01*
X29172D01*
X29173Y19640D01*
D02*
G37*
G36*
X34439Y20387D02*
X35795D01*
X35883Y20260D01*
X35875Y20236D01*
X35854Y20227D01*
X35811Y20212D01*
X35792Y20206D01*
X35746Y20197D01*
X35725Y20194D01*
X35675Y20189D01*
X35649Y20189D01*
X35644Y20187D01*
X34439D01*
Y19953D01*
X34326D01*
X34262Y19941D01*
X34208Y19904D01*
X33797Y19493D01*
X31803D01*
X31791Y19498D01*
X31790Y19498D01*
X31788Y19498D01*
X31661Y19495D01*
X31657Y19493D01*
X31554D01*
X31537Y19490D01*
X30717D01*
Y18615D01*
X30319D01*
X30062Y18872D01*
X30035Y18890D01*
X30007Y18908D01*
X30007Y18908D01*
X30007Y18908D01*
X29944Y18921D01*
X29683D01*
Y19641D01*
X29281D01*
X29281Y19646D01*
X29280Y19668D01*
X29275Y19679D01*
Y20127D01*
X29280Y20137D01*
X29281Y20158D01*
X29283Y20174D01*
X29285Y20190D01*
X29289Y20204D01*
X29294Y20218D01*
X29301Y20231D01*
X29308Y20244D01*
X29317Y20256D01*
X29327Y20269D01*
X29341Y20284D01*
X29345Y20296D01*
X29559Y20510D01*
X34439D01*
Y20387D01*
D02*
G37*
G36*
X4967Y19801D02*
X4971Y19779D01*
X4977Y19760D01*
X4986Y19743D01*
X4997Y19729D01*
X5011Y19718D01*
X5028Y19709D01*
X5047Y19703D01*
X5069Y19699D01*
X5093Y19698D01*
Y19571D01*
X5069Y19569D01*
X5047Y19566D01*
X5028Y19559D01*
X5011Y19550D01*
X4997Y19539D01*
X4986Y19525D01*
X4977Y19508D01*
X4971Y19489D01*
X4967Y19468D01*
X4966Y19444D01*
X4839Y19634D01*
X4966Y19825D01*
X4967Y19801D01*
D02*
G37*
G36*
X31791Y19263D02*
X31766Y19262D01*
X31744Y19260D01*
X31725Y19257D01*
X31708Y19253D01*
X31694Y19247D01*
X31682Y19240D01*
X31673Y19232D01*
X31666Y19222D01*
X31662Y19212D01*
X31661Y19199D01*
X31664Y19387D01*
X31791Y19390D01*
Y19263D01*
D02*
G37*
G36*
X29579Y17931D02*
X29583Y17920D01*
X29589Y17910D01*
X29598Y17902D01*
X29610Y17895D01*
X29624Y17889D01*
X29641Y17885D01*
X29661Y17882D01*
X29683Y17880D01*
X29707Y17879D01*
Y17752D01*
X29683Y17752D01*
X29661Y17750D01*
X29641Y17747D01*
X29624Y17742D01*
X29610Y17736D01*
X29598Y17729D01*
X29589Y17721D01*
X29583Y17712D01*
X29579Y17701D01*
X29577Y17689D01*
Y17943D01*
X29579Y17931D01*
D02*
G37*
G36*
X31357Y17445D02*
X31346Y17441D01*
X31337Y17434D01*
X31328Y17425D01*
X31321Y17414D01*
X31316Y17399D01*
X31311Y17382D01*
X31308Y17363D01*
X31306Y17341D01*
X31306Y17316D01*
X31178D01*
X31178Y17341D01*
X31176Y17363D01*
X31173Y17382D01*
X31168Y17399D01*
X31163Y17414D01*
X31156Y17425D01*
X31147Y17434D01*
X31138Y17441D01*
X31127Y17445D01*
X31115Y17446D01*
X31369D01*
X31357Y17445D01*
D02*
G37*
G36*
X4966Y15876D02*
X4968Y15854D01*
X4971Y15835D01*
X4976Y15818D01*
X4982Y15804D01*
X4989Y15792D01*
X4997Y15783D01*
X5006Y15776D01*
X5017Y15772D01*
X5029Y15771D01*
X4775D01*
X4787Y15772D01*
X4798Y15776D01*
X4808Y15783D01*
X4816Y15792D01*
X4823Y15804D01*
X4829Y15818D01*
X4833Y15835D01*
X4836Y15854D01*
X4838Y15876D01*
X4839Y15901D01*
X4966D01*
X4966Y15876D01*
D02*
G37*
G36*
X38507Y15801D02*
X38496Y15797D01*
X38487Y15790D01*
X38478Y15782D01*
X38471Y15770D01*
X38466Y15756D01*
X38461Y15740D01*
X38458Y15721D01*
X38456Y15699D01*
X38456Y15675D01*
X38329D01*
X38328Y15699D01*
X38326Y15721D01*
X38323Y15740D01*
X38318Y15756D01*
X38313Y15770D01*
X38306Y15782D01*
X38297Y15790D01*
X38288Y15797D01*
X38277Y15801D01*
X38265Y15802D01*
X38519D01*
X38507Y15801D01*
D02*
G37*
G36*
X3101Y14823D02*
X3103Y14801D01*
X3106Y14782D01*
X3111Y14765D01*
X3117Y14750D01*
X3124Y14739D01*
X3132Y14730D01*
X3141Y14723D01*
X3152Y14719D01*
X3164Y14718D01*
X2910D01*
X2922Y14719D01*
X2933Y14723D01*
X2943Y14730D01*
X2951Y14739D01*
X2958Y14750D01*
X2964Y14765D01*
X2968Y14782D01*
X2971Y14801D01*
X2973Y14823D01*
X2974Y14848D01*
X3101D01*
X3101Y14823D01*
D02*
G37*
G36*
X3482Y14339D02*
X3486Y14328D01*
X3493Y14319D01*
X3502Y14310D01*
X3514Y14303D01*
X3528Y14298D01*
X3545Y14293D01*
X3564Y14290D01*
X3586Y14288D01*
X3611Y14288D01*
Y14160D01*
X3586Y14160D01*
X3564Y14158D01*
X3545Y14155D01*
X3528Y14150D01*
X3514Y14145D01*
X3502Y14138D01*
X3493Y14129D01*
X3486Y14120D01*
X3482Y14109D01*
X3481Y14097D01*
Y14351D01*
X3482Y14339D01*
D02*
G37*
G36*
X3152Y13729D02*
X3141Y13725D01*
X3132Y13718D01*
X3124Y13709D01*
X3117Y13698D01*
X3111Y13683D01*
X3106Y13666D01*
X3103Y13647D01*
X3101Y13625D01*
X3101Y13600D01*
X2974D01*
X2973Y13625D01*
X2971Y13647D01*
X2968Y13666D01*
X2964Y13683D01*
X2958Y13698D01*
X2951Y13709D01*
X2943Y13718D01*
X2933Y13725D01*
X2922Y13729D01*
X2910Y13730D01*
X3164D01*
X3152Y13729D01*
D02*
G37*
G36*
X12231Y11968D02*
X12095Y11965D01*
X12097Y11966D01*
X12099Y11968D01*
X12101Y11972D01*
X12103Y11977D01*
X12104Y11985D01*
X12105Y11993D01*
X12107Y12015D01*
X12107Y12044D01*
X12234D01*
X12231Y11968D01*
D02*
G37*
G36*
X11648Y12070D02*
X11650Y12048D01*
X11653Y12028D01*
X11658Y12012D01*
X11664Y11997D01*
X11671Y11986D01*
X11679Y11976D01*
X11688Y11970D01*
X11699Y11966D01*
X11711Y11965D01*
X11457D01*
X11469Y11966D01*
X11480Y11970D01*
X11490Y11976D01*
X11498Y11986D01*
X11505Y11997D01*
X11511Y12012D01*
X11515Y12028D01*
X11518Y12048D01*
X11520Y12070D01*
X11521Y12095D01*
X11648D01*
X11648Y12070D01*
D02*
G37*
G36*
X10648D02*
X10650Y12048D01*
X10653Y12028D01*
X10658Y12012D01*
X10664Y11997D01*
X10671Y11986D01*
X10679Y11976D01*
X10688Y11970D01*
X10699Y11966D01*
X10711Y11965D01*
X10457D01*
X10469Y11966D01*
X10480Y11970D01*
X10490Y11976D01*
X10498Y11986D01*
X10505Y11997D01*
X10511Y12012D01*
X10515Y12028D01*
X10518Y12048D01*
X10520Y12070D01*
X10521Y12095D01*
X10648D01*
X10648Y12070D01*
D02*
G37*
G36*
X9000Y13864D02*
Y13424D01*
X8968Y13418D01*
X8914Y13381D01*
X8404Y12871D01*
X8368Y12817D01*
X8355Y12753D01*
Y12191D01*
X7942Y11778D01*
X7637D01*
X7574Y11766D01*
X7493Y11770D01*
X7456Y11824D01*
X7324Y11956D01*
X7270Y11993D01*
X7206Y12005D01*
X5773D01*
X5709Y11993D01*
X5655Y11956D01*
X4788Y11089D01*
X3587D01*
Y11522D01*
X3210D01*
X3209Y11527D01*
X3209Y11549D01*
X3204Y11560D01*
Y12191D01*
X3191Y12255D01*
X3155Y12309D01*
X3101Y12363D01*
Y12732D01*
X3155Y12786D01*
X3191Y12840D01*
X3204Y12904D01*
Y13586D01*
X3209Y13597D01*
X3209Y13619D01*
X3210Y13624D01*
X3587D01*
Y14051D01*
X3592Y14052D01*
X3614Y14052D01*
X3625Y14057D01*
X5727D01*
X5790Y14070D01*
X5845Y14106D01*
X5919Y14181D01*
X5955Y14235D01*
X5960Y14258D01*
X6058Y14327D01*
X7408D01*
Y14936D01*
X7929D01*
X9000Y13864D01*
D02*
G37*
G36*
X3101Y11521D02*
X3103Y11499D01*
X3106Y11480D01*
X3111Y11463D01*
X3117Y11448D01*
X3124Y11437D01*
X3132Y11428D01*
X3141Y11421D01*
X3152Y11417D01*
X3164Y11416D01*
X2910D01*
X2922Y11417D01*
X2933Y11421D01*
X2943Y11428D01*
X2951Y11437D01*
X2958Y11448D01*
X2964Y11463D01*
X2968Y11480D01*
X2971Y11499D01*
X2973Y11521D01*
X2974Y11546D01*
X3101D01*
X3101Y11521D01*
D02*
G37*
G36*
X32561Y11289D02*
X32607Y11249D01*
X32628Y11235D01*
X32647Y11224D01*
X32664Y11216D01*
X32679Y11212D01*
X32693Y11212D01*
X32705Y11214D01*
X32715Y11221D01*
X32524Y11058D01*
X32532Y11067D01*
X32536Y11078D01*
X32536Y11091D01*
X32532Y11106D01*
X32525Y11123D01*
X32514Y11142D01*
X32499Y11163D01*
X32480Y11186D01*
X32432Y11238D01*
X32535Y11314D01*
X32561Y11289D01*
D02*
G37*
G36*
X9000Y12830D02*
Y12450D01*
X9208D01*
Y11096D01*
X8859D01*
Y10512D01*
X8525D01*
Y10750D01*
X7579D01*
X7547Y10786D01*
X7498Y10877D01*
X7505Y10913D01*
Y10929D01*
X7518Y10947D01*
X7632Y11023D01*
X7637Y11022D01*
X8012D01*
X8076Y11034D01*
X8130Y11070D01*
X8166Y11124D01*
X8178Y11188D01*
Y11542D01*
X8640Y12004D01*
X8676Y12058D01*
X8689Y12122D01*
Y12684D01*
X8883Y12878D01*
X9000Y12830D01*
D02*
G37*
G36*
X13704Y10961D02*
X13708Y10950D01*
X13715Y10940D01*
X13724Y10932D01*
X13736Y10925D01*
X13750Y10919D01*
X13767Y10915D01*
X13786Y10912D01*
X13808Y10910D01*
X13833Y10909D01*
Y10782D01*
X13808Y10782D01*
X13786Y10780D01*
X13767Y10777D01*
X13750Y10772D01*
X13736Y10766D01*
X13724Y10759D01*
X13715Y10751D01*
X13708Y10742D01*
X13704Y10731D01*
X13703Y10719D01*
Y10973D01*
X13704Y10961D01*
D02*
G37*
G36*
X33771Y8548D02*
X33775Y8537D01*
X33781Y8527D01*
X33790Y8519D01*
X33802Y8512D01*
X33816Y8506D01*
X33833Y8502D01*
X33853Y8499D01*
X33875Y8497D01*
X33900Y8496D01*
Y8369D01*
X33875Y8369D01*
X33853Y8367D01*
X33833Y8364D01*
X33816Y8359D01*
X33802Y8353D01*
X33790Y8346D01*
X33781Y8338D01*
X33775Y8329D01*
X33771Y8318D01*
X33770Y8306D01*
Y8560D01*
X33771Y8548D01*
D02*
G37*
G36*
X14511Y8596D02*
X14575Y8583D01*
X16556D01*
X17087Y8053D01*
X17038Y7935D01*
X15883D01*
Y7177D01*
X15734D01*
X14369Y8542D01*
X14457Y8632D01*
X14511Y8596D01*
D02*
G37*
G36*
X11199Y7226D02*
X11188Y7222D01*
X11179Y7215D01*
X11171Y7206D01*
X11164Y7194D01*
X11158Y7180D01*
X11153Y7163D01*
X11150Y7144D01*
X11148Y7122D01*
X11148Y7097D01*
X11021D01*
X11020Y7122D01*
X11018Y7144D01*
X11015Y7163D01*
X11011Y7180D01*
X11005Y7194D01*
X10998Y7206D01*
X10990Y7215D01*
X10980Y7222D01*
X10969Y7226D01*
X10957Y7227D01*
X11211D01*
X11199Y7226D01*
D02*
G37*
G36*
X31003Y2939D02*
X31005Y2917D01*
X31008Y2898D01*
X31012Y2881D01*
X31018Y2866D01*
X31025Y2855D01*
X31033Y2846D01*
X31043Y2839D01*
X31054Y2835D01*
X31066Y2834D01*
X30812D01*
X30824Y2835D01*
X30834Y2839D01*
X30844Y2846D01*
X30852Y2855D01*
X30859Y2866D01*
X30865Y2881D01*
X30869Y2898D01*
X30873Y2917D01*
X30874Y2939D01*
X30875Y2964D01*
X31002D01*
X31003Y2939D01*
D02*
G37*
G36*
X27539Y2940D02*
Y2232D01*
X21753D01*
X21087Y2898D01*
X21105Y2965D01*
X21143Y3021D01*
X27445D01*
X27539Y2940D01*
D02*
G37*
G36*
Y1259D02*
X22269D01*
X21756Y1771D01*
X21809Y1898D01*
X27539D01*
Y1259D01*
D02*
G37*
G36*
X17283Y6085D02*
X17283Y5958D01*
Y5842D01*
X17296Y5778D01*
X17332Y5724D01*
X22012Y1044D01*
X21960Y917D01*
X21224D01*
X16173Y5968D01*
X16221Y6085D01*
X17283D01*
D02*
G37*
%LPC*%
G36*
X33370Y60835D02*
X31970D01*
Y58835D01*
X33370D01*
Y60835D01*
D02*
G37*
G36*
X27770D02*
X26370D01*
Y58835D01*
X27770D01*
Y60835D01*
D02*
G37*
G36*
X1500Y59660D02*
X1200Y59620D01*
X920Y59505D01*
X680Y59320D01*
X496Y59080D01*
X380Y58800D01*
X340Y58500D01*
X380Y58200D01*
X496Y57920D01*
X680Y57680D01*
X920Y57495D01*
X1200Y57380D01*
X1500Y57340D01*
X1800Y57380D01*
X2080Y57495D01*
X2320Y57680D01*
X2505Y57920D01*
X2621Y58200D01*
X2660Y58500D01*
X2621Y58800D01*
X2505Y59080D01*
X2320Y59320D01*
X2080Y59505D01*
X1800Y59620D01*
X1500Y59660D01*
D02*
G37*
G36*
X6782Y56319D02*
X6524Y56285D01*
X6283Y56185D01*
X6076Y56027D01*
X5918Y55820D01*
X5818Y55579D01*
X5784Y55321D01*
X5818Y55063D01*
X5918Y54822D01*
X6076Y54616D01*
X6283Y54457D01*
X6524Y54358D01*
X6782Y54324D01*
X7040Y54358D01*
X7281Y54457D01*
X7487Y54616D01*
X7646Y54822D01*
X7745Y55063D01*
X7779Y55321D01*
X7745Y55579D01*
X7646Y55820D01*
X7487Y56027D01*
X7281Y56185D01*
X7040Y56285D01*
X6782Y56319D01*
D02*
G37*
G36*
Y53798D02*
X6524Y53764D01*
X6283Y53665D01*
X6076Y53506D01*
X5918Y53300D01*
X5818Y53059D01*
X5784Y52801D01*
X5818Y52543D01*
X5918Y52302D01*
X6076Y52095D01*
X6283Y51937D01*
X6524Y51837D01*
X6782Y51803D01*
X7040Y51837D01*
X7281Y51937D01*
X7487Y52095D01*
X7646Y52302D01*
X7745Y52543D01*
X7779Y52801D01*
X7745Y53059D01*
X7646Y53300D01*
X7487Y53506D01*
X7281Y53665D01*
X7040Y53764D01*
X6782Y53798D01*
D02*
G37*
G36*
X4297Y43485D02*
X3302D01*
Y42490D01*
X3470Y42512D01*
X3744Y42626D01*
X3980Y42807D01*
X4161Y43042D01*
X4275Y43317D01*
X4297Y43485D01*
D02*
G37*
G36*
X3048D02*
X2053D01*
X2075Y43317D01*
X2189Y43042D01*
X2370Y42807D01*
X2606Y42626D01*
X2880Y42512D01*
X3048Y42490D01*
Y43485D01*
D02*
G37*
G36*
X6782Y28594D02*
X6524Y28560D01*
X6283Y28460D01*
X6076Y28301D01*
X5918Y28095D01*
X5818Y27854D01*
X5784Y27596D01*
X5818Y27338D01*
X5918Y27097D01*
X6076Y26891D01*
X6283Y26732D01*
X6524Y26633D01*
X6782Y26599D01*
X7040Y26633D01*
X7281Y26732D01*
X7487Y26891D01*
X7646Y27097D01*
X7745Y27338D01*
X7779Y27596D01*
X7745Y27854D01*
X7646Y28095D01*
X7487Y28301D01*
X7281Y28460D01*
X7040Y28560D01*
X6782Y28594D01*
D02*
G37*
G36*
X36546Y25365D02*
X35644D01*
Y24938D01*
X36546D01*
Y25365D01*
D02*
G37*
G36*
X35390D02*
X34488D01*
Y24938D01*
X35390D01*
Y25365D01*
D02*
G37*
G36*
X6782Y26073D02*
X6524Y26039D01*
X6283Y25940D01*
X6076Y25781D01*
X5918Y25574D01*
X5818Y25334D01*
X5784Y25076D01*
X5818Y24817D01*
X5918Y24577D01*
X6076Y24370D01*
X6283Y24212D01*
X6524Y24112D01*
X6782Y24078D01*
X7040Y24112D01*
X7281Y24212D01*
X7487Y24370D01*
X7646Y24577D01*
X7745Y24817D01*
X7779Y25076D01*
X7745Y25334D01*
X7646Y25574D01*
X7487Y25781D01*
X7281Y25940D01*
X7040Y26039D01*
X6782Y26073D01*
D02*
G37*
G36*
X22022Y25839D02*
X21764Y25805D01*
X21523Y25705D01*
X21316Y25547D01*
X21158Y25340D01*
X21058Y25099D01*
X21024Y24841D01*
X21058Y24583D01*
X21158Y24342D01*
X21316Y24136D01*
X21523Y23977D01*
X21764Y23878D01*
X22022Y23844D01*
X22280Y23878D01*
X22521Y23977D01*
X22727Y24136D01*
X22886Y24342D01*
X22985Y24583D01*
X23019Y24841D01*
X22985Y25099D01*
X22886Y25340D01*
X22727Y25547D01*
X22521Y25705D01*
X22280Y25805D01*
X22022Y25839D01*
D02*
G37*
G36*
X39042Y24892D02*
X37042D01*
Y23492D01*
X39042D01*
Y24892D01*
D02*
G37*
G36*
X6782Y23553D02*
X6524Y23519D01*
X6283Y23419D01*
X6076Y23261D01*
X5918Y23054D01*
X5818Y22813D01*
X5784Y22555D01*
X5818Y22297D01*
X5918Y22056D01*
X6076Y21850D01*
X6283Y21691D01*
X6524Y21592D01*
X6782Y21558D01*
X7040Y21592D01*
X7281Y21691D01*
X7487Y21850D01*
X7646Y22056D01*
X7745Y22297D01*
X7779Y22555D01*
X7745Y22813D01*
X7646Y23054D01*
X7487Y23261D01*
X7281Y23419D01*
X7040Y23519D01*
X6782Y23553D01*
D02*
G37*
G36*
X38838Y22787D02*
X36838D01*
Y21387D01*
X38838D01*
Y22787D01*
D02*
G37*
G36*
X22022Y23299D02*
X21764Y23265D01*
X21523Y23165D01*
X21316Y23007D01*
X21158Y22800D01*
X21058Y22559D01*
X21024Y22301D01*
X21058Y22043D01*
X21158Y21802D01*
X21316Y21596D01*
X21523Y21437D01*
X21764Y21338D01*
X22022Y21304D01*
X22280Y21338D01*
X22521Y21437D01*
X22727Y21596D01*
X22886Y21802D01*
X22985Y22043D01*
X23019Y22301D01*
X22985Y22559D01*
X22886Y22800D01*
X22727Y23007D01*
X22521Y23165D01*
X22280Y23265D01*
X22022Y23299D01*
D02*
G37*
G36*
X36343Y18660D02*
X35441D01*
Y18233D01*
X36343D01*
Y18660D01*
D02*
G37*
G36*
X35187D02*
X34285D01*
Y18233D01*
X35187D01*
Y18660D01*
D02*
G37*
G36*
X33876Y16407D02*
X32418D01*
Y15699D01*
X33876D01*
Y16407D01*
D02*
G37*
G36*
Y15137D02*
X32418D01*
Y14429D01*
X33876D01*
Y15137D01*
D02*
G37*
G36*
X1560Y14978D02*
X983D01*
Y14351D01*
X1560D01*
Y14978D01*
D02*
G37*
G36*
Y14097D02*
X983D01*
Y13470D01*
X1560D01*
Y14097D01*
D02*
G37*
G36*
X39121Y13867D02*
X37663D01*
Y13159D01*
X39121D01*
Y13867D01*
D02*
G37*
G36*
X33876D02*
X32418D01*
Y13159D01*
X33876D01*
Y13867D01*
D02*
G37*
G36*
X1694Y13122D02*
X1267D01*
Y12675D01*
X1694D01*
Y13122D01*
D02*
G37*
G36*
Y12421D02*
X1267D01*
Y11974D01*
X1694D01*
Y12421D01*
D02*
G37*
G36*
X39121Y12597D02*
X37663D01*
Y11889D01*
X39121D01*
Y12597D01*
D02*
G37*
G36*
X33876D02*
X32418D01*
Y11889D01*
X33876D01*
Y12597D01*
D02*
G37*
G36*
X1560Y11676D02*
X983D01*
Y11049D01*
X1560D01*
Y11676D01*
D02*
G37*
G36*
X39121Y11327D02*
X37663D01*
Y10619D01*
X39121D01*
Y11327D01*
D02*
G37*
G36*
X19526Y11264D02*
X18799D01*
Y10312D01*
X19526D01*
Y11264D01*
D02*
G37*
G36*
X18545D02*
X17818D01*
Y10312D01*
X18545D01*
Y11264D01*
D02*
G37*
G36*
X1560Y10795D02*
X983D01*
Y10168D01*
X1560D01*
Y10795D01*
D02*
G37*
G36*
X39121Y10057D02*
X37663D01*
Y9349D01*
X39121D01*
Y10057D01*
D02*
G37*
G36*
X19526Y10058D02*
X18799D01*
Y9106D01*
X19526D01*
Y10058D01*
D02*
G37*
G36*
X27216Y9969D02*
X26289D01*
Y8442D01*
X27216D01*
Y9969D01*
D02*
G37*
G36*
X26035D02*
X25108D01*
Y8442D01*
X26035D01*
Y9969D01*
D02*
G37*
G36*
X6833Y8548D02*
X6406D01*
Y8101D01*
X6833D01*
Y8548D01*
D02*
G37*
G36*
X39121Y8787D02*
X37663D01*
Y8079D01*
X39121D01*
Y8787D01*
D02*
G37*
G36*
X9257Y8219D02*
X8705D01*
Y7942D01*
X9257D01*
Y8219D01*
D02*
G37*
G36*
X5170Y9606D02*
X4120D01*
Y8456D01*
X4478D01*
Y7845D01*
X4314D01*
Y7999D01*
X3887D01*
Y7425D01*
Y6851D01*
X4314D01*
Y7005D01*
X5040D01*
Y7845D01*
X4812D01*
Y8456D01*
X5170D01*
Y9606D01*
D02*
G37*
G36*
X3633Y7999D02*
X3206D01*
Y7552D01*
X3633D01*
Y7999D01*
D02*
G37*
G36*
X34030Y7671D02*
X33274D01*
Y7290D01*
X34030D01*
Y7671D01*
D02*
G37*
G36*
X33020D02*
X32264D01*
Y7290D01*
X33020D01*
Y7671D01*
D02*
G37*
G36*
X19510Y8089D02*
Y7137D01*
X20237D01*
Y8089D01*
X19510D01*
D02*
G37*
G36*
X3633Y7298D02*
X3206D01*
Y6851D01*
X3633D01*
Y7298D01*
D02*
G37*
G36*
X39121Y7517D02*
X37663D01*
Y6809D01*
X39121D01*
Y7517D01*
D02*
G37*
G36*
X27216Y8188D02*
X26289D01*
Y6661D01*
X27216D01*
Y8188D01*
D02*
G37*
G36*
X26035D02*
X25108D01*
Y6661D01*
X26035D01*
Y8188D01*
D02*
G37*
G36*
X34030Y7036D02*
X33274D01*
Y6655D01*
X34030D01*
Y7036D01*
D02*
G37*
G36*
X33020D02*
X32264D01*
Y6655D01*
X33020D01*
Y7036D01*
D02*
G37*
G36*
X20237Y6883D02*
X19510D01*
Y5931D01*
X20237D01*
Y6883D01*
D02*
G37*
G36*
X15446Y5869D02*
X15385D01*
Y5461D01*
X15768D01*
Y5547D01*
X15744Y5670D01*
X15674Y5775D01*
X15569Y5845D01*
X15446Y5869D01*
D02*
G37*
G36*
X7865Y6070D02*
X7138D01*
Y5343D01*
X7865D01*
Y6070D01*
D02*
G37*
G36*
X6884D02*
X6157D01*
Y5343D01*
X6884D01*
Y6070D01*
D02*
G37*
G36*
X15768Y5207D02*
X15385D01*
Y4799D01*
X15446D01*
X15569Y4823D01*
X15674Y4893D01*
X15744Y4998D01*
X15768Y5122D01*
Y5207D01*
D02*
G37*
G36*
X13642Y5133D02*
X13582D01*
Y4724D01*
X13965D01*
Y4810D01*
X13940Y4933D01*
X13870Y5038D01*
X13766Y5108D01*
X13642Y5133D01*
D02*
G37*
G36*
X7865Y5089D02*
X7138D01*
Y4362D01*
X7865D01*
Y5089D01*
D02*
G37*
G36*
X6884D02*
X6157D01*
Y4362D01*
X6884D01*
Y5089D01*
D02*
G37*
G36*
X13965Y4470D02*
X13582D01*
Y4062D01*
X13642D01*
X13766Y4087D01*
X13870Y4157D01*
X13940Y4261D01*
X13965Y4385D01*
Y4470D01*
D02*
G37*
G36*
X32939Y5590D02*
X31539D01*
Y3590D01*
X32939D01*
Y5590D01*
D02*
G37*
G36*
X27339D02*
X25939D01*
Y3590D01*
X27339D01*
Y5590D01*
D02*
G37*
G36*
X38500Y2660D02*
X38200Y2621D01*
X37920Y2505D01*
X37680Y2320D01*
X37495Y2080D01*
X37380Y1800D01*
X37340Y1500D01*
X37380Y1200D01*
X37495Y920D01*
X37680Y680D01*
X37920Y496D01*
X38200Y380D01*
X38500Y340D01*
X38800Y380D01*
X39080Y496D01*
X39320Y680D01*
X39505Y920D01*
X39620Y1200D01*
X39660Y1500D01*
X39620Y1800D01*
X39505Y2080D01*
X39320Y2320D01*
X39080Y2505D01*
X38800Y2621D01*
X38500Y2660D01*
D02*
G37*
G36*
X1500D02*
X1200Y2621D01*
X920Y2505D01*
X680Y2320D01*
X496Y2080D01*
X380Y1800D01*
X340Y1500D01*
X380Y1200D01*
X496Y920D01*
X680Y680D01*
X920Y496D01*
X1200Y380D01*
X1500Y340D01*
X1800Y380D01*
X2080Y496D01*
X2320Y680D01*
X2505Y920D01*
X2621Y1200D01*
X2660Y1500D01*
X2621Y1800D01*
X2505Y2080D01*
X2320Y2320D01*
X2080Y2505D01*
X1800Y2621D01*
X1500Y2660D01*
D02*
G37*
G36*
X31924Y57183D02*
X31497D01*
Y56281D01*
X31924D01*
Y57183D01*
D02*
G37*
G36*
X36036Y54874D02*
X35484D01*
Y54372D01*
X36036D01*
Y54874D01*
D02*
G37*
G36*
X35230D02*
X34678D01*
Y54372D01*
X35230D01*
Y54874D01*
D02*
G37*
G36*
X26881Y51910D02*
X26279D01*
Y51358D01*
X26881D01*
Y51910D01*
D02*
G37*
G36*
X26025D02*
X25423D01*
Y51358D01*
X26025D01*
Y51910D01*
D02*
G37*
G36*
X32298Y51948D02*
X30898D01*
Y49948D01*
X32298D01*
Y51948D01*
D02*
G37*
G36*
X28698D02*
X27298D01*
Y49948D01*
X28698D01*
Y51948D01*
D02*
G37*
G36*
X39372Y50938D02*
X37372D01*
Y49538D01*
X39372D01*
Y50938D01*
D02*
G37*
G36*
Y47338D02*
X37372D01*
Y45938D01*
X39372D01*
Y47338D01*
D02*
G37*
G36*
X7918Y45112D02*
X6909D01*
Y44103D01*
X7080Y44126D01*
X7358Y44241D01*
X7597Y44424D01*
X7780Y44663D01*
X7895Y44941D01*
X7918Y45112D01*
D02*
G37*
G36*
X6655D02*
X5646D01*
X5668Y44941D01*
X5783Y44663D01*
X5967Y44424D01*
X6205Y44241D01*
X6483Y44126D01*
X6655Y44103D01*
Y45112D01*
D02*
G37*
G36*
X39367Y44402D02*
X37367D01*
Y43002D01*
X39367D01*
Y44402D01*
D02*
G37*
G36*
X6909Y43855D02*
Y42846D01*
X7918D01*
X7895Y43017D01*
X7780Y43295D01*
X7597Y43534D01*
X7358Y43717D01*
X7080Y43833D01*
X6909Y43855D01*
D02*
G37*
G36*
X6655D02*
X6483Y43833D01*
X6205Y43717D01*
X5967Y43534D01*
X5783Y43295D01*
X5668Y43017D01*
X5646Y42846D01*
X6655D01*
Y43855D01*
D02*
G37*
G36*
X28816Y43167D02*
X27889D01*
Y41640D01*
X28816D01*
Y43167D01*
D02*
G37*
G36*
X27635D02*
X26708D01*
Y41640D01*
X27635D01*
Y43167D01*
D02*
G37*
G36*
X7918Y42592D02*
X6909D01*
Y41583D01*
X7080Y41605D01*
X7358Y41721D01*
X7597Y41904D01*
X7780Y42143D01*
X7895Y42421D01*
X7918Y42592D01*
D02*
G37*
G36*
X6655D02*
X5646D01*
X5668Y42421D01*
X5783Y42143D01*
X5967Y41904D01*
X6205Y41721D01*
X6483Y41605D01*
X6655Y41583D01*
Y42592D01*
D02*
G37*
G36*
X28816Y41386D02*
X27889D01*
Y39859D01*
X28816D01*
Y41386D01*
D02*
G37*
G36*
X27635D02*
X26708D01*
Y39859D01*
X27635D01*
Y41386D01*
D02*
G37*
G36*
X36871Y40275D02*
X35969D01*
Y39848D01*
X36871D01*
Y40275D01*
D02*
G37*
G36*
X22022Y41079D02*
X21764Y41045D01*
X21523Y40945D01*
X21316Y40787D01*
X21158Y40580D01*
X21058Y40339D01*
X21024Y40081D01*
X21058Y39823D01*
X21158Y39582D01*
X21316Y39376D01*
X21523Y39217D01*
X21764Y39118D01*
X22022Y39084D01*
X22280Y39118D01*
X22521Y39217D01*
X22727Y39376D01*
X22886Y39582D01*
X22985Y39823D01*
X23019Y40081D01*
X22985Y40339D01*
X22886Y40580D01*
X22727Y40787D01*
X22521Y40945D01*
X22280Y41045D01*
X22022Y41079D01*
D02*
G37*
G36*
X39367Y39802D02*
X37367D01*
Y38402D01*
X39367D01*
Y39802D01*
D02*
G37*
G36*
X39321Y37265D02*
X37321D01*
Y35865D01*
X39321D01*
Y37265D01*
D02*
G37*
G36*
X33849Y37111D02*
X32699D01*
Y36061D01*
X33613D01*
X33747Y35927D01*
X33758Y35920D01*
X33766Y35909D01*
X33877Y35798D01*
X33931Y35762D01*
X33995Y35749D01*
X34829D01*
X34921Y35665D01*
X34921Y35622D01*
Y35330D01*
X24292D01*
X24228Y35317D01*
X24174Y35281D01*
X22918Y34025D01*
X22574D01*
X22548Y34080D01*
X22540Y34152D01*
X22727Y34296D01*
X22886Y34502D01*
X22985Y34743D01*
X23019Y35001D01*
X22985Y35259D01*
X22886Y35500D01*
X22727Y35707D01*
X22521Y35865D01*
X22280Y35965D01*
X22022Y35999D01*
X21764Y35965D01*
X21523Y35865D01*
X21316Y35707D01*
X21158Y35500D01*
X21058Y35259D01*
X21024Y35001D01*
X21058Y34743D01*
X21158Y34502D01*
X21316Y34296D01*
X21504Y34152D01*
X21496Y34080D01*
X21469Y34025D01*
X8150D01*
X7590Y34586D01*
X7646Y34659D01*
X7745Y34899D01*
X7779Y35158D01*
X7745Y35416D01*
X7646Y35656D01*
X7487Y35863D01*
X7281Y36022D01*
X7040Y36121D01*
X6782Y36155D01*
X6524Y36121D01*
X6283Y36022D01*
X6076Y35863D01*
X5918Y35656D01*
X5818Y35416D01*
X5784Y35158D01*
X5818Y34899D01*
X5918Y34659D01*
X6076Y34452D01*
X6283Y34294D01*
X6524Y34194D01*
X6782Y34160D01*
X7040Y34194D01*
X7281Y34294D01*
X7354Y34350D01*
X7963Y33740D01*
X8017Y33704D01*
X8081Y33692D01*
X22987D01*
X23051Y33704D01*
X23105Y33740D01*
X24361Y34996D01*
X34831D01*
X34854Y34974D01*
X34825Y34823D01*
X34813Y34819D01*
X34767D01*
Y34392D01*
X35796D01*
Y34138D01*
X34767D01*
Y33711D01*
X34813D01*
X34921Y33665D01*
Y32865D01*
X36671D01*
Y33413D01*
X36673Y33418D01*
X36671Y33423D01*
Y33436D01*
X36671Y33437D01*
X36671Y33437D01*
Y33448D01*
X36674Y33452D01*
X36711Y33495D01*
X36736Y33521D01*
X36740Y33532D01*
X37356Y34148D01*
X37392Y34202D01*
X37405Y34266D01*
Y35431D01*
X37392Y35495D01*
X37356Y35549D01*
X36872Y36033D01*
X36818Y36070D01*
X36754Y36082D01*
X34064D01*
X34002Y36145D01*
X33990Y36152D01*
X33983Y36163D01*
X33849Y36297D01*
Y37111D01*
D02*
G37*
G36*
X6782Y33634D02*
X6524Y33601D01*
X6283Y33501D01*
X6076Y33342D01*
X5918Y33136D01*
X5818Y32895D01*
X5784Y32637D01*
X5818Y32379D01*
X5918Y32138D01*
X6076Y31932D01*
X6283Y31773D01*
X6524Y31673D01*
X6782Y31639D01*
X7040Y31673D01*
X7281Y31773D01*
X7487Y31932D01*
X7646Y32138D01*
X7745Y32379D01*
X7779Y32637D01*
X7745Y32895D01*
X7646Y33136D01*
X7487Y33342D01*
X7281Y33501D01*
X7040Y33601D01*
X6782Y33634D01*
D02*
G37*
G36*
X39321Y32665D02*
X37321D01*
Y31265D01*
X39321D01*
Y32665D01*
D02*
G37*
G36*
X39042Y29492D02*
X37042D01*
Y28092D01*
X39042D01*
Y29492D01*
D02*
G37*
%LPD*%
G36*
X36658Y33596D02*
X36631Y33568D01*
X36589Y33519D01*
X36574Y33498D01*
X36562Y33479D01*
X36555Y33462D01*
X36552Y33447D01*
X36552Y33435D01*
X36557Y33424D01*
X36565Y33416D01*
X36354Y33559D01*
X36366Y33554D01*
X36380Y33553D01*
X36396Y33556D01*
X36415Y33564D01*
X36436Y33575D01*
X36460Y33591D01*
X36486Y33611D01*
X36545Y33664D01*
X36579Y33696D01*
X36658Y33596D01*
D02*
G37*
%LPC*%
G36*
X22022Y53779D02*
X21764Y53745D01*
X21523Y53645D01*
X21316Y53487D01*
X21158Y53280D01*
X21058Y53039D01*
X21024Y52781D01*
X21058Y52523D01*
X21158Y52282D01*
X21316Y52076D01*
X21523Y51917D01*
X21764Y51818D01*
X22022Y51784D01*
X22280Y51818D01*
X22521Y51917D01*
X22727Y52076D01*
X22886Y52282D01*
X22985Y52523D01*
X23019Y52781D01*
X22985Y53039D01*
X22886Y53280D01*
X22727Y53487D01*
X22521Y53645D01*
X22280Y53745D01*
X22022Y53779D01*
D02*
G37*
%LPD*%
D11*
X6625Y10100D02*
X7300Y9425D01*
X9305D02*
X9384Y9346D01*
X7300Y9425D02*
X9305D01*
X3037Y9338D02*
Y10922D01*
Y9338D02*
X3345Y9031D01*
X4645Y7430D02*
Y9031D01*
X4640Y7425D02*
X4645Y7430D01*
X6625Y10200D02*
X7339Y10913D01*
X6625Y10150D02*
Y10200D01*
X7339Y10913D02*
Y11706D01*
X4857Y10922D02*
X5773Y11839D01*
X7206D02*
X7339Y11706D01*
X3037Y10922D02*
X4857D01*
X5773Y11839D02*
X7206D01*
X6292Y9158D02*
X7377D01*
X5900Y9550D02*
Y10773D01*
Y9550D02*
X6292Y9158D01*
X5966Y10840D02*
X6803D01*
X5900Y10773D02*
X5966Y10840D01*
X6925Y10962D02*
Y11400D01*
X7840Y8675D02*
Y8695D01*
X7377Y9158D02*
X7840Y8695D01*
X6803Y10840D02*
X6925Y10962D01*
X7840Y8675D02*
X8938D01*
X9109Y8846D01*
X9384D01*
X6625Y10100D02*
Y10150D01*
X7975D02*
X8171Y10346D01*
X9384D01*
Y9346D02*
Y9846D01*
X10084Y11546D02*
X10125Y11587D01*
X9032Y13264D02*
X9718D01*
X8522Y12122D02*
Y12753D01*
X7825Y11425D02*
X8522Y12122D01*
X7825Y11400D02*
Y11425D01*
X8522Y12753D02*
X9032Y13264D01*
X9718D02*
X10125Y12856D01*
Y11587D02*
Y12856D01*
X9375Y10855D02*
Y12825D01*
Y10855D02*
X9384Y10846D01*
X6733Y15102D02*
X7998D01*
X9375Y13725D01*
X22022Y29753D02*
X30350Y21425D01*
X36426D02*
X36525Y21326D01*
X30350Y21425D02*
X36426D01*
X22022Y29753D02*
Y29921D01*
X6241Y31275D02*
X24275D01*
X5410Y32106D02*
X6241Y31275D01*
X24275D02*
X28880Y26670D01*
X4516Y49000D02*
X13465D01*
X18421Y53956D01*
X2007Y46490D02*
X4516Y49000D01*
X2670Y32080D02*
X4013D01*
X1346Y33404D02*
Y38964D01*
Y33404D02*
X2670Y32080D01*
X1346Y38964D02*
X2134Y39751D01*
X5207D01*
X9333Y13725D02*
X9375D01*
X7011Y3216D02*
X11209D01*
X11084Y6391D02*
X11275Y6200D01*
X11209Y3216D02*
X11275Y3283D01*
Y6200D01*
X11600Y4145D02*
Y7630D01*
Y4145D02*
X12079Y3666D01*
Y3008D02*
Y3666D01*
Y3008D02*
X12154Y2934D01*
X11584Y7646D02*
X11600Y7630D01*
X13286Y9344D02*
X13981D01*
X16625Y8750D02*
X17450Y7925D01*
X13981Y9344D02*
X14575Y8750D01*
X16625D01*
X14583Y10846D02*
X15012Y11275D01*
X17206D02*
X17272Y11209D01*
Y9753D02*
Y11209D01*
X15012Y11275D02*
X17206D01*
X13559Y8346D02*
X21155Y750D01*
X29400D01*
X29843Y1969D02*
X29939Y2065D01*
X29843Y1193D02*
Y1969D01*
X29400Y750D02*
X29843Y1193D01*
X13829Y8846D02*
X15665Y7010D01*
X13284Y8846D02*
X13829D01*
X15665Y7010D02*
X16583D01*
X17450Y5842D02*
Y7925D01*
Y5842D02*
X22200Y1092D01*
X13284Y9346D02*
X13286Y9344D01*
X13284Y9846D02*
X13979D01*
X14605Y9220D02*
X15181D01*
X13979Y9846D02*
X14605Y9220D01*
X16930D02*
X17850Y8300D01*
Y5899D02*
Y8300D01*
Y5899D02*
X21684Y2065D01*
X15204Y9197D02*
X16540D01*
X15181Y9220D02*
X15204Y9197D01*
X16540D02*
X16563Y9220D01*
X16930D01*
X18275Y6033D02*
Y8750D01*
X17272Y9753D02*
X18275Y8750D01*
Y6033D02*
X21120Y3188D01*
X10261Y4216D02*
X10338Y4294D01*
Y6501D01*
X10084Y6932D02*
Y7646D01*
X10084Y6755D02*
Y6932D01*
Y6755D02*
X10338Y6501D01*
X12600Y7117D02*
X14172Y5545D01*
X12600Y7117D02*
Y7630D01*
X14172Y5545D02*
X14172D01*
X14358Y5359D01*
Y5334D02*
Y5359D01*
X12584Y7646D02*
X12600Y7630D01*
X12084Y6705D02*
X12555Y6235D01*
X12084Y6705D02*
Y7646D01*
X12555Y4597D02*
Y6235D01*
X6333Y15077D02*
X6520Y14889D01*
X6520D02*
X6594Y14815D01*
X6520Y14889D02*
X6733Y15102D01*
X6520Y14889D02*
X6520D01*
X6433Y14802D02*
X6520Y14889D01*
X5801Y15859D02*
X6528Y16586D01*
X5801Y14298D02*
Y15859D01*
X6528Y16586D02*
X15011D01*
X36317Y41402D02*
X36830Y41915D01*
Y44882D01*
X35367Y41402D02*
X36317D01*
X33274Y37886D02*
Y39309D01*
X35367Y41402D01*
X33884Y36027D02*
X33995Y35916D01*
X36754D02*
X37238Y35431D01*
X33995Y35916D02*
X36754D01*
X33324Y36586D02*
X33865Y36045D01*
X39682Y16968D02*
Y56124D01*
X39608Y56199D02*
X39682Y56124D01*
X38453Y26063D02*
X39421Y25095D01*
X38767Y16053D02*
X39682Y16968D01*
X39421Y17069D02*
Y25095D01*
X35736Y56199D02*
X39608D01*
X38849Y16497D02*
X39421Y17069D01*
X913Y40005D02*
X4521D01*
X4902Y40386D02*
Y43891D01*
X4521Y40005D02*
X4902Y40386D01*
X5207Y39751D02*
X5887D01*
X5207D02*
Y44120D01*
X3175Y46152D02*
X5207Y44120D01*
X3861Y44933D02*
X4902Y43891D01*
Y19634D02*
Y33426D01*
Y15183D02*
Y19634D01*
X7214D01*
X7391Y19456D01*
X21684Y2065D02*
X27939D01*
X22200Y1092D02*
X28441D01*
X5727Y14224D02*
X5801Y14298D01*
X3037Y14224D02*
X5727D01*
X2387Y34799D02*
X3530D01*
X4902Y33426D01*
X5944Y38913D02*
X7696D01*
X11405Y42621D01*
X22022D01*
X4216Y37186D02*
X5944Y38913D01*
X1880Y36754D02*
X2311Y37186D01*
X4216D01*
X1880Y35306D02*
X2387Y34799D01*
X1880Y35306D02*
Y36754D01*
X4902Y15183D02*
X4983Y15102D01*
X4013Y32080D02*
X4318Y31775D01*
X838Y33249D02*
X3175Y30912D01*
X838Y33249D02*
Y39931D01*
X3037Y14224D02*
Y21303D01*
X838Y39931D02*
X913Y40005D01*
X3175Y35992D02*
X5410Y33757D01*
Y32106D02*
Y33757D01*
X11584Y12397D02*
X13614Y14427D01*
X27762Y48209D02*
X33503D01*
X24638D02*
X27762D01*
Y45813D02*
Y48209D01*
X26128Y12580D02*
X26162Y12615D01*
X19017Y12580D02*
X26128D01*
X11084Y6391D02*
Y7646D01*
X30353Y58522D02*
X33414D01*
X28702D02*
X30353D01*
X30370Y57310D02*
Y58504D01*
X30353Y58522D02*
X30370Y58504D01*
X28370Y57255D02*
X28413Y57298D01*
Y57335D01*
X28370Y57310D02*
X28607Y57546D01*
Y58427D01*
X28702Y58522D01*
X28413Y57335D02*
X28612Y57534D01*
X28370Y57082D02*
X28607Y56845D01*
X28370Y57082D02*
Y57255D01*
Y55831D02*
Y57082D01*
Y55831D02*
X29298Y54903D01*
Y53473D02*
Y54903D01*
X37238Y34266D02*
Y35431D01*
X36508Y33535D02*
X37238Y34266D01*
X36508Y33501D02*
Y33535D01*
X33274Y36586D02*
X33324D01*
X35796Y33265D02*
X36271D01*
X36508Y33501D01*
X35695Y35163D02*
X35796Y35265D01*
X24292Y35163D02*
X35695D01*
X22987Y33858D02*
X24292Y35163D01*
X8081Y33858D02*
X22987D01*
X10123Y8384D02*
X11334Y9596D01*
X10323Y10607D02*
X11334Y9596D01*
X9384Y8346D02*
X9423Y8384D01*
X10123D01*
X12795Y12668D02*
X15773D01*
X12171Y11632D02*
Y12044D01*
X12084Y11546D02*
X12171Y11632D01*
Y12044D02*
X12795Y12668D01*
X30645Y3188D02*
X30645Y3188D01*
X30864D01*
X30939Y2065D02*
Y3113D01*
X30864Y3188D02*
X30939Y3113D01*
X21120Y3188D02*
X30645D01*
X28441Y1092D02*
X28939Y1590D01*
Y2065D01*
X6335Y40199D02*
X6782D01*
X5887Y39751D02*
X6335Y40199D01*
X6782Y35158D02*
X8081Y33858D01*
X33503Y48209D02*
X36830Y44882D01*
X3454Y46431D02*
X22860D01*
X4318Y22584D02*
Y31775D01*
X3037Y21303D02*
X4318Y22584D01*
X2845Y44933D02*
X3861D01*
X2007Y45771D02*
Y46490D01*
Y45771D02*
X2845Y44933D01*
X33503Y48209D02*
Y48717D01*
X33782Y48997D02*
X35788D01*
X33503Y48717D02*
X33782Y48997D01*
X3175Y46152D02*
X3454Y46431D01*
X22860D02*
X24638Y48209D01*
X22022Y37541D02*
X30507D01*
X35367Y42402D01*
X35842D01*
X35788Y48997D02*
X35847Y48938D01*
X10584Y11546D02*
Y13734D01*
X11582Y14732D01*
X15011Y16586D02*
X19017Y12580D01*
X10084Y7646D02*
X10584D01*
X11584Y11546D02*
Y12397D01*
X13284Y10846D02*
X14583D01*
X13720Y10185D02*
X15872D01*
X13559Y10346D02*
X13720Y10185D01*
X13284Y8346D02*
X13559D01*
X13284Y10346D02*
X13559D01*
X3037Y10922D02*
Y12191D01*
X2701Y12528D02*
X3037Y12191D01*
X2701Y12528D02*
Y12548D01*
X3037Y12904D02*
Y14224D01*
X2701Y12568D02*
X3037Y12904D01*
X2701Y12548D02*
Y12568D01*
X18421Y53956D02*
X18618Y54153D01*
X28880Y26670D02*
X34826D01*
X35004Y26492D01*
X37685Y16497D02*
X38849D01*
X32111Y11648D02*
Y18374D01*
X32772Y10973D02*
X33147D01*
X32111Y11648D02*
X32582Y11177D01*
Y11163D02*
X32772Y10973D01*
X32582Y11163D02*
Y11177D01*
X31242Y8744D02*
X31997Y7988D01*
X31242Y8744D02*
Y17815D01*
X33066Y7988D02*
X34027D01*
X31997Y7988D02*
X33066D01*
X28190Y57074D02*
X28370Y57255D01*
Y57310D01*
X26152Y53035D02*
X28245D01*
X30298Y53010D02*
Y53473D01*
X28778Y52502D02*
X29790D01*
X30298Y53010D01*
X28245Y53035D02*
X28778Y52502D01*
X33414Y58522D02*
X35736Y56199D01*
X18618Y54153D02*
X23876D01*
X22022Y47701D02*
X23241Y48920D01*
Y52194D01*
X24384Y53337D01*
X26152D01*
Y53035D02*
Y53337D01*
X31241Y17816D02*
X31242Y17815D01*
X29108Y17816D02*
X31241D01*
X34027Y7988D02*
X37363Y11325D01*
Y14906D01*
X37756Y15299D01*
X38209D01*
X38392Y15481D01*
Y16053D01*
X38767D01*
X23876Y54153D02*
X26797Y57074D01*
X28190D01*
X36525Y20349D02*
Y21326D01*
X35314Y19787D02*
X36525Y20349D01*
X31242Y19015D02*
X31554Y19326D01*
X33866D01*
X34326Y19787D01*
X35314D01*
X31242Y19015D02*
X31554Y18703D01*
X31782D01*
X32111Y18374D01*
X34691Y20676D02*
X34801Y20787D01*
X29490Y20676D02*
X34691D01*
X29108Y20295D02*
X29490Y20676D01*
X29108Y19116D02*
Y20295D01*
X22022Y27381D02*
X29108Y20295D01*
Y19116D02*
X29470Y18754D01*
X29944D01*
X30249Y18449D01*
X31678D01*
X31857Y18269D01*
Y9937D02*
Y18269D01*
Y9937D02*
X32092Y9703D01*
X33147D01*
X35847Y47938D02*
X36083Y48174D01*
X36871D01*
X36982Y48286D01*
Y49492D01*
X35357Y51118D02*
X36982Y49492D01*
X35357Y51118D02*
Y53045D01*
X33147Y8433D02*
X34112D01*
X37109Y11430D01*
Y15592D01*
X37573Y16056D01*
Y16386D01*
X37685Y16497D01*
X37366Y26063D02*
X38453D01*
X36228Y27201D02*
X37366Y26063D01*
X36228Y27201D02*
Y27256D01*
X35992Y27492D02*
X36228Y27256D01*
X35517Y27492D02*
X35992D01*
D15*
X7011Y5216D02*
D03*
Y3216D02*
D03*
D16*
X10261Y4216D02*
D03*
D17*
X7975Y10150D02*
D03*
X6625D02*
D03*
X1687Y10922D02*
D03*
X3037D02*
D03*
Y14224D02*
D03*
X1687D02*
D03*
D18*
X27762Y41513D02*
D03*
Y45813D02*
D03*
X26162Y8315D02*
D03*
Y12615D02*
D03*
D19*
X9375Y12825D02*
D03*
Y13725D02*
D03*
D20*
X13455Y4597D02*
D03*
X12555D02*
D03*
X7825Y11400D02*
D03*
X6925D02*
D03*
X15258Y5334D02*
D03*
X14358D02*
D03*
D21*
X16583Y7010D02*
D03*
X19383D02*
D03*
X15872Y10185D02*
D03*
X18672D02*
D03*
D22*
X4983Y15102D02*
D03*
X6733D02*
D03*
D23*
X31242Y19015D02*
D03*
Y17815D02*
D03*
X35357Y53045D02*
D03*
Y54245D02*
D03*
D24*
X33274Y36586D02*
D03*
Y37886D02*
D03*
X26152Y53337D02*
D03*
Y52037D02*
D03*
X29108Y17816D02*
D03*
Y19116D02*
D03*
D25*
X11334Y9596D02*
D03*
D26*
X12584Y7646D02*
D03*
X12084D02*
D03*
X11584D02*
D03*
X11084D02*
D03*
X10584D02*
D03*
X10084D02*
D03*
Y11546D02*
D03*
X10584D02*
D03*
X11084D02*
D03*
X11584D02*
D03*
X12084D02*
D03*
X12584D02*
D03*
D27*
X9384Y8346D02*
D03*
Y8846D02*
D03*
Y9346D02*
D03*
Y9846D02*
D03*
Y10346D02*
D03*
Y10846D02*
D03*
X13284D02*
D03*
Y10346D02*
D03*
Y9846D02*
D03*
Y9346D02*
D03*
Y8846D02*
D03*
Y8346D02*
D03*
D28*
X30939Y2065D02*
D03*
X28939D02*
D03*
X27939D02*
D03*
X29939D02*
D03*
X30370Y57310D02*
D03*
X28370D02*
D03*
X29370D02*
D03*
X31370D02*
D03*
X30298Y53473D02*
D03*
X29298D02*
D03*
D29*
X26639Y4590D02*
D03*
X32239D02*
D03*
X32670Y59835D02*
D03*
X27070D02*
D03*
X27998Y50948D02*
D03*
X31598D02*
D03*
D30*
X35842Y42402D02*
D03*
Y41402D02*
D03*
Y40402D02*
D03*
D31*
X38367Y43702D02*
D03*
Y39102D02*
D03*
D32*
X35796Y34265D02*
D03*
Y35265D02*
D03*
Y33265D02*
D03*
X35517Y26492D02*
D03*
Y27492D02*
D03*
Y25492D02*
D03*
X35314Y19787D02*
D03*
Y20787D02*
D03*
Y18787D02*
D03*
X35847Y48938D02*
D03*
Y47938D02*
D03*
D33*
X38321Y36565D02*
D03*
Y31965D02*
D03*
X38042Y28792D02*
D03*
Y24192D02*
D03*
X37838Y22087D02*
D03*
Y17487D02*
D03*
X38372Y46638D02*
D03*
Y50238D02*
D03*
D34*
X38392Y16053D02*
D03*
Y14783D02*
D03*
Y13513D02*
D03*
Y12243D02*
D03*
Y10973D02*
D03*
Y9703D02*
D03*
Y8433D02*
D03*
Y7163D02*
D03*
X33147D02*
D03*
Y8433D02*
D03*
Y9703D02*
D03*
Y10973D02*
D03*
Y12243D02*
D03*
Y13513D02*
D03*
Y14783D02*
D03*
Y16053D02*
D03*
D35*
X3760Y7425D02*
D03*
X4640D02*
D03*
X6960Y8675D02*
D03*
X7840D02*
D03*
X1821Y12548D02*
D03*
X2701D02*
D03*
D36*
X4645Y9031D02*
D03*
X3345D02*
D03*
D62*
X3175Y28372D02*
D03*
Y30912D02*
D03*
Y33452D02*
D03*
Y46152D02*
D03*
Y43612D02*
D03*
Y41072D02*
D03*
Y38532D02*
D03*
Y35992D02*
D03*
D63*
X6782Y22555D02*
D03*
Y25076D02*
D03*
Y27596D02*
D03*
Y30117D02*
D03*
Y32637D02*
D03*
Y35158D02*
D03*
Y37678D02*
D03*
Y40199D02*
D03*
Y42719D02*
D03*
Y45239D02*
D03*
Y47760D02*
D03*
Y50280D02*
D03*
Y52801D02*
D03*
Y55321D02*
D03*
X22022Y22301D02*
D03*
Y24841D02*
D03*
Y27381D02*
D03*
Y29921D02*
D03*
Y32461D02*
D03*
Y35001D02*
D03*
Y37541D02*
D03*
Y40081D02*
D03*
Y42621D02*
D03*
Y45161D02*
D03*
Y50241D02*
D03*
Y52781D02*
D03*
Y55321D02*
D03*
Y47701D02*
D03*
D64*
X38500Y1500D02*
D03*
X1500D02*
D03*
Y58500D02*
D03*
X38500D02*
D03*
D65*
X10338Y6452D02*
D03*
X33604Y18237D02*
D03*
D66*
X12154Y2934D02*
D03*
X7391Y19456D02*
D03*
X13614Y14427D02*
D03*
X11582Y14732D02*
D03*
X15773Y12668D02*
D03*
M02*
