G04*
G04 #@! TF.GenerationSoftware,Altium Limited,Altium Designer,20.1.14 (287)*
G04*
G04 Layer_Color=16711935*
%FSLAX43Y43*%
%MOMM*%
G71*
G04*
G04 #@! TF.SameCoordinates,2B19F274-0338-4189-8154-59E22298D11E*
G04*
G04*
G04 #@! TF.FilePolarity,Positive*
G04*
G01*
G75*
%ADD11C,0.127*%
%ADD67C,0.000*%
%ADD68C,0.100*%
D11*
X30362Y43663D02*
G03*
X30362Y43663I-2600J0D01*
G01*
X28473Y43134D02*
G03*
X27051Y43134I-711J-711D01*
G01*
X35465Y16612D02*
G03*
X36074Y16612I305J0D01*
G01*
X6354Y18085D02*
G03*
X6354Y18085I-1909J0D01*
G01*
X24147D02*
G03*
X24147Y18085I-1922J0D01*
G01*
X24765Y49835D02*
G03*
X22225Y51613I-2159J-381D01*
G01*
X4445D02*
G03*
X1905Y49835I-381J-2159D01*
G01*
Y18085D02*
G03*
X4445Y15545I2540J0D01*
G01*
X22225D02*
G03*
X24765Y18085I0J2540D01*
G01*
X22592Y19253D02*
G03*
X22592Y19253I-1205J0D01*
G01*
X8615Y19507D02*
G03*
X8615Y19507I-1198J0D01*
G01*
X8567Y58623D02*
G03*
X8567Y58623I-1150J0D01*
G01*
X22479D02*
G03*
X22479Y58623I-1092J0D01*
G01*
X23292Y58496D02*
G03*
X21260Y60528I-2032J0D01*
G01*
Y17348D02*
G03*
X23292Y19380I0J2032D01*
G01*
X5512D02*
G03*
X7544Y17348I2032J0D01*
G01*
Y60528D02*
G03*
X5512Y58496I0J-2032D01*
G01*
X28762Y10465D02*
G03*
X28762Y10465I-2600J0D01*
G01*
X26873Y9936D02*
G03*
X25451Y9936I-711J-711D01*
G01*
X24460Y40284D02*
X25959D01*
X24460D02*
Y45695D01*
X29743Y40386D02*
X30988D01*
Y41986D02*
Y45847D01*
X26365Y39878D02*
X29235D01*
X25959Y40284D02*
X26365Y39878D01*
X27762Y43993D02*
Y45339D01*
X27076Y43903D02*
X27762D01*
X28448D01*
X27762Y42062D02*
Y43409D01*
X26060Y44475D02*
X26518D01*
X26289Y44247D02*
Y44704D01*
X24943Y44933D02*
X26543Y46533D01*
X28905D02*
X30556Y44882D01*
X29007Y40411D02*
X30556Y41961D01*
X24943Y42012D02*
X26543Y40411D01*
X24943Y42012D02*
Y44933D01*
X30556Y41961D02*
Y44882D01*
X24460Y45695D02*
X25733Y46967D01*
X26178Y47413D01*
X29235Y39878D02*
X29743Y40386D01*
X30988D02*
Y41199D01*
Y41986D01*
X26543Y40411D02*
X29007D01*
X26543Y46533D02*
X28905D01*
X29422Y47413D02*
X30988Y45847D01*
X26178Y47413D02*
X29422D01*
X33992Y6604D02*
Y16612D01*
X35465D01*
X36074D01*
X37548D01*
Y6604D02*
Y16612D01*
X33992Y6604D02*
X37548D01*
X32239Y16535D02*
X33941D01*
X32239Y15570D02*
Y16535D01*
Y15570D02*
X33941D01*
X32239Y15265D02*
X33941D01*
X32239Y14300D02*
Y15265D01*
Y14300D02*
X33941D01*
X32239Y13995D02*
X33941D01*
X32239Y13030D02*
Y13995D01*
Y13030D02*
X33941D01*
X32239Y12725D02*
X33941D01*
X32239Y11760D02*
Y12725D01*
Y11760D02*
X33941D01*
X32239Y11455D02*
X33941D01*
X32239Y10490D02*
Y11455D01*
Y10490D02*
X33941D01*
X32239Y10185D02*
X33941D01*
X32239Y9220D02*
Y10185D01*
Y9220D02*
X33941D01*
X32239Y8941D02*
X33941D01*
X32239Y7976D02*
Y8941D01*
Y7976D02*
X33941D01*
X32239Y7645D02*
X33941D01*
X32239Y6680D02*
Y7645D01*
Y6680D02*
X33941D01*
X37598D02*
X39300D01*
Y7645D01*
X37598D02*
X39300D01*
X37598Y7976D02*
X39300D01*
Y8941D01*
X37598D02*
X39300D01*
X37598Y9220D02*
X39300D01*
Y10185D01*
X37598D02*
X39300D01*
X37598Y10490D02*
X39300D01*
Y11455D01*
X37598D02*
X39300D01*
X37598Y11760D02*
X39300D01*
Y12725D01*
X37598D02*
X39300D01*
X37598Y13030D02*
X39300D01*
Y13995D01*
X37598D02*
X39300D01*
X37598Y14300D02*
X39300D01*
Y15265D01*
X37598D02*
X39300D01*
X37598Y15570D02*
X39300D01*
Y16535D01*
X37598D02*
X39300D01*
X4445Y51613D02*
X22225D01*
X1905Y18085D02*
Y49835D01*
X4445Y15545D02*
X9271D01*
X9525Y15799D01*
X17145D01*
X17399Y15545D01*
X22225D01*
X24765Y18085D02*
Y49835D01*
X23292Y19380D02*
Y58496D01*
X7544Y17348D02*
X21260D01*
X5512Y19380D02*
Y58496D01*
X7544Y60528D02*
X11862D01*
X12116Y60274D01*
X16942D01*
X17196Y60528D01*
X21260D01*
X22860Y7087D02*
X24359D01*
X22860D02*
Y12497D01*
X28143Y7188D02*
X29388D01*
Y8788D02*
Y12649D01*
X24765Y6680D02*
X27635D01*
X24359Y7087D02*
X24765Y6680D01*
X26162Y10795D02*
Y12141D01*
X25476Y10705D02*
X26162D01*
X26848D01*
X26162Y8865D02*
Y10211D01*
X24460Y11278D02*
X24917D01*
X24689Y11049D02*
Y11506D01*
X23343Y11735D02*
X24943Y13335D01*
X27305D02*
X28956Y11684D01*
X27407Y7214D02*
X28956Y8763D01*
X23343Y8814D02*
X24943Y7214D01*
X23343Y8814D02*
Y11735D01*
X28956Y8763D02*
Y11684D01*
X22860Y12497D02*
X24133Y13769D01*
X24578Y14215D01*
X27635Y6680D02*
X28143Y7188D01*
X29388D02*
Y8001D01*
Y8788D01*
X24943Y7214D02*
X27407D01*
X24943Y13335D02*
X27305D01*
X27822Y14215D02*
X29388Y12649D01*
X24578Y14215D02*
X27822D01*
D67*
X0Y1000D02*
G03*
X1000Y0I1000J0D01*
G01*
X39000D02*
G03*
X40000Y1000I0J1000D01*
G01*
X35000Y60000D02*
G03*
X33000Y62000I-2000J0D01*
G01*
X7000D02*
G03*
X5000Y60000I0J-2000D01*
G01*
X1000D02*
G03*
X0Y59000I0J-1000D01*
G01*
X40000Y58293D02*
G03*
X38293Y60000I-1707J-0D01*
G01*
X7000Y62000D02*
X33000D01*
X1000Y60000D02*
X5000D01*
X35000D02*
X38293D01*
X40000Y1000D02*
Y58293D01*
X1000Y0D02*
X39000D01*
X0Y1000D02*
Y59000D01*
D68*
X36061Y15064D02*
X35478D01*
X35362Y14947D01*
Y14714D01*
X35478Y14597D01*
X36061D01*
X35362Y14364D02*
Y14131D01*
Y14247D01*
X36061D01*
X35945Y14364D01*
X23522Y15154D02*
X23439Y15237D01*
X23272D01*
X23189Y15154D01*
Y15071D01*
X23272Y14987D01*
X23439D01*
X23522Y14904D01*
Y14821D01*
X23439Y14738D01*
X23272D01*
X23189Y14821D01*
X23688Y15237D02*
X24022D01*
X23855D01*
Y14738D01*
X24521Y15237D02*
X24188D01*
Y14738D01*
X24521D01*
X24188Y14987D02*
X24355D01*
X24688Y14738D02*
Y15237D01*
X24938D01*
X25021Y15154D01*
Y14987D01*
X24938Y14904D01*
X24688D01*
X25188Y14654D02*
X25521D01*
X26021Y15154D02*
X25938Y15237D01*
X25771D01*
X25688Y15154D01*
Y14821D01*
X25771Y14738D01*
X25938D01*
X26021Y14821D01*
X26188Y14738D02*
Y15071D01*
X26354Y15237D01*
X26521Y15071D01*
Y14738D01*
Y14987D01*
X26188D01*
X26687Y14738D02*
Y15237D01*
X26937D01*
X27021Y15154D01*
Y14987D01*
X26937Y14904D01*
X26687D01*
X27187Y14738D02*
X27354D01*
X27271D01*
Y15237D01*
X27187Y15154D01*
X25122Y48352D02*
X25039Y48435D01*
X24872D01*
X24789Y48352D01*
Y48269D01*
X24872Y48185D01*
X25039D01*
X25122Y48102D01*
Y48019D01*
X25039Y47935D01*
X24872D01*
X24789Y48019D01*
X25289Y48435D02*
X25622D01*
X25455D01*
Y47935D01*
X26122Y48435D02*
X25788D01*
Y47935D01*
X26122D01*
X25788Y48185D02*
X25955D01*
X26288Y47935D02*
Y48435D01*
X26538D01*
X26622Y48352D01*
Y48185D01*
X26538Y48102D01*
X26288D01*
X26788Y47852D02*
X27121D01*
X27621Y48352D02*
X27538Y48435D01*
X27371D01*
X27288Y48352D01*
Y48019D01*
X27371Y47935D01*
X27538D01*
X27621Y48019D01*
X27788Y47935D02*
Y48269D01*
X27954Y48435D01*
X28121Y48269D01*
Y47935D01*
Y48185D01*
X27788D01*
X28288Y47935D02*
Y48435D01*
X28538D01*
X28621Y48352D01*
Y48185D01*
X28538Y48102D01*
X28288D01*
X29121Y47935D02*
X28787D01*
X29121Y48269D01*
Y48352D01*
X29037Y48435D01*
X28871D01*
X28787Y48352D01*
M02*
