G04*
G04 #@! TF.GenerationSoftware,Altium Limited,Altium Designer,20.1.14 (287)*
G04*
G04 Layer_Color=8388736*
%FSLAX43Y43*%
%MOMM*%
G71*
G04*
G04 #@! TF.SameCoordinates,2B19F274-0338-4189-8154-59E22298D11E*
G04*
G04*
G04 #@! TF.FilePolarity,Negative*
G04*
G01*
G75*
%ADD30R,1.550X0.600*%
%ADD31R,1.800X1.200*%
%ADD37R,1.327X1.327*%
%ADD38R,1.627X1.727*%
%ADD39R,1.027X1.127*%
%ADD40R,1.727X2.927*%
%ADD41R,0.677X0.677*%
G04:AMPARAMS|DCode=42|XSize=0.677mm|YSize=0.627mm|CornerRadius=0.126mm|HoleSize=0mm|Usage=FLASHONLY|Rotation=90.000|XOffset=0mm|YOffset=0mm|HoleType=Round|Shape=RoundedRectangle|*
%AMROUNDEDRECTD42*
21,1,0.677,0.375,0,0,90.0*
21,1,0.425,0.627,0,0,90.0*
1,1,0.252,0.188,0.213*
1,1,0.252,0.188,-0.213*
1,1,0.252,-0.188,-0.213*
1,1,0.252,-0.188,0.213*
%
%ADD42ROUNDEDRECTD42*%
%ADD43R,1.327X1.777*%
%ADD44R,1.277X1.477*%
%ADD45R,0.977X0.877*%
%ADD46R,1.077X0.977*%
%ADD47R,2.677X2.677*%
%ADD48R,0.427X0.977*%
%ADD49R,0.977X0.427*%
%ADD50R,0.727X1.677*%
%ADD51R,1.327X1.927*%
%ADD52R,1.677X0.727*%
%ADD53R,1.927X1.327*%
%ADD54R,1.384X0.635*%
%ADD55R,0.727X0.767*%
%ADD56R,0.977X1.077*%
%ADD57C,1.877*%
%ADD58C,1.905*%
%ADD59C,2.227*%
%ADD60C,0.727*%
%ADD61C,1.397*%
D30*
X35842Y42402D02*
D03*
Y41402D02*
D03*
Y40402D02*
D03*
D31*
X38367Y43702D02*
D03*
Y39102D02*
D03*
D37*
X7011Y5216D02*
D03*
Y3216D02*
D03*
D38*
X10261Y4216D02*
D03*
D39*
X7975Y10150D02*
D03*
X6625D02*
D03*
X1687Y10922D02*
D03*
X3037D02*
D03*
Y14224D02*
D03*
X1687D02*
D03*
D40*
X27762Y41513D02*
D03*
Y45813D02*
D03*
X26162Y8315D02*
D03*
Y12615D02*
D03*
D41*
X9375Y12825D02*
D03*
Y13725D02*
D03*
D42*
X13455Y4597D02*
D03*
X12555D02*
D03*
X7825Y11400D02*
D03*
X6925D02*
D03*
X15258Y5334D02*
D03*
X14358D02*
D03*
D43*
X16583Y7010D02*
D03*
X19383D02*
D03*
X15872Y10185D02*
D03*
X18672D02*
D03*
D44*
X4983Y15102D02*
D03*
X6733D02*
D03*
D45*
X31242Y19015D02*
D03*
Y17815D02*
D03*
X35357Y53045D02*
D03*
Y54245D02*
D03*
D46*
X33274Y36586D02*
D03*
Y37886D02*
D03*
X26152Y53337D02*
D03*
Y52037D02*
D03*
X29108Y17816D02*
D03*
Y19116D02*
D03*
D47*
X11334Y9596D02*
D03*
D48*
X12584Y7646D02*
D03*
X12084D02*
D03*
X11584D02*
D03*
X11084D02*
D03*
X10584D02*
D03*
X10084D02*
D03*
Y11546D02*
D03*
X10584D02*
D03*
X11084D02*
D03*
X11584D02*
D03*
X12084D02*
D03*
X12584D02*
D03*
D49*
X9384Y8346D02*
D03*
Y8846D02*
D03*
Y9346D02*
D03*
Y9846D02*
D03*
Y10346D02*
D03*
Y10846D02*
D03*
X13284D02*
D03*
Y10346D02*
D03*
Y9846D02*
D03*
Y9346D02*
D03*
Y8846D02*
D03*
Y8346D02*
D03*
D50*
X30939Y2065D02*
D03*
X28939D02*
D03*
X27939D02*
D03*
X29939D02*
D03*
X30370Y57310D02*
D03*
X28370D02*
D03*
X29370D02*
D03*
X31370D02*
D03*
X30298Y53473D02*
D03*
X29298D02*
D03*
D51*
X26639Y4590D02*
D03*
X32239D02*
D03*
X32670Y59835D02*
D03*
X27070D02*
D03*
X27998Y50948D02*
D03*
X31598D02*
D03*
D52*
X35796Y34265D02*
D03*
Y35265D02*
D03*
Y33265D02*
D03*
X35517Y26492D02*
D03*
Y27492D02*
D03*
Y25492D02*
D03*
X35314Y19787D02*
D03*
Y20787D02*
D03*
Y18787D02*
D03*
X35847Y48938D02*
D03*
Y47938D02*
D03*
D53*
X38321Y36565D02*
D03*
Y31965D02*
D03*
X38042Y28792D02*
D03*
Y24192D02*
D03*
X37838Y22087D02*
D03*
Y17487D02*
D03*
X38372Y46638D02*
D03*
Y50238D02*
D03*
D54*
X38392Y16053D02*
D03*
Y14783D02*
D03*
Y13513D02*
D03*
Y12243D02*
D03*
Y10973D02*
D03*
Y9703D02*
D03*
Y8433D02*
D03*
Y7163D02*
D03*
X33147D02*
D03*
Y8433D02*
D03*
Y9703D02*
D03*
Y10973D02*
D03*
Y12243D02*
D03*
Y13513D02*
D03*
Y14783D02*
D03*
Y16053D02*
D03*
D55*
X3760Y7425D02*
D03*
X4640D02*
D03*
X6960Y8675D02*
D03*
X7840D02*
D03*
X1821Y12548D02*
D03*
X2701D02*
D03*
D56*
X4645Y9031D02*
D03*
X3345D02*
D03*
D57*
X3175Y28372D02*
D03*
Y30912D02*
D03*
Y33452D02*
D03*
Y46152D02*
D03*
Y43612D02*
D03*
Y41072D02*
D03*
Y38532D02*
D03*
Y35992D02*
D03*
D58*
X6782Y22555D02*
D03*
Y25076D02*
D03*
Y27596D02*
D03*
Y30117D02*
D03*
Y32637D02*
D03*
Y35158D02*
D03*
Y37678D02*
D03*
Y40199D02*
D03*
Y42719D02*
D03*
Y45239D02*
D03*
Y47760D02*
D03*
Y50280D02*
D03*
Y52801D02*
D03*
Y55321D02*
D03*
X22022Y22301D02*
D03*
Y24841D02*
D03*
Y27381D02*
D03*
Y29921D02*
D03*
Y32461D02*
D03*
Y35001D02*
D03*
Y37541D02*
D03*
Y40081D02*
D03*
Y42621D02*
D03*
Y45161D02*
D03*
Y50241D02*
D03*
Y52781D02*
D03*
Y55321D02*
D03*
Y47701D02*
D03*
D59*
X38500Y1500D02*
D03*
X1500D02*
D03*
Y58500D02*
D03*
X38500D02*
D03*
D60*
X10338Y6452D02*
D03*
X33604Y18237D02*
D03*
D61*
X12154Y2934D02*
D03*
X7391Y19456D02*
D03*
X13614Y14427D02*
D03*
X11582Y14732D02*
D03*
X15773Y12668D02*
D03*
M02*
