G04*
G04 #@! TF.GenerationSoftware,Altium Limited,Altium Designer,20.2.5 (213)*
G04*
G04 Layer_Color=255*
%FSLAX43Y43*%
%MOMM*%
G71*
G04*
G04 #@! TF.SameCoordinates,5171A944-556C-47A8-97AE-1EF1437A18D6*
G04*
G04*
G04 #@! TF.FilePolarity,Positive*
G04*
G01*
G75*
%ADD15R,2.800X1.600*%
%ADD16R,0.550X0.550*%
G04:AMPARAMS|DCode=17|XSize=0.55mm|YSize=0.5mm|CornerRadius=0.063mm|HoleSize=0mm|Usage=FLASHONLY|Rotation=0.000|XOffset=0mm|YOffset=0mm|HoleType=Round|Shape=RoundedRectangle|*
%AMROUNDEDRECTD17*
21,1,0.550,0.375,0,0,0.0*
21,1,0.425,0.500,0,0,0.0*
1,1,0.125,0.213,-0.188*
1,1,0.125,-0.213,-0.188*
1,1,0.125,-0.213,0.188*
1,1,0.125,0.213,0.188*
%
%ADD17ROUNDEDRECTD17*%
%ADD18R,1.650X1.200*%
%ADD19R,1.150X1.350*%
%ADD20R,0.850X0.750*%
%ADD21R,0.950X0.850*%
%ADD22R,2.550X2.550*%
%ADD23R,0.300X0.850*%
%ADD24R,0.850X0.300*%
%ADD25R,1.550X0.600*%
%ADD26R,1.800X1.200*%
%ADD27R,0.600X1.550*%
%ADD28R,1.200X1.800*%
%ADD29R,1.257X0.508*%
%ADD30R,1.000X0.900*%
%ADD31R,0.600X0.640*%
%ADD32R,1.200X1.200*%
%ADD33R,1.500X1.600*%
%ADD34R,0.850X0.950*%
%ADD60C,1.750*%
%ADD61C,1.778*%
%ADD62C,2.100*%
D15*
X27060Y50394D02*
D03*
X31360D02*
D03*
X6725Y10950D02*
D03*
X2425D02*
D03*
D16*
X13250Y12375D02*
D03*
Y13275D02*
D03*
D17*
X17725Y3975D02*
D03*
Y4875D02*
D03*
X9200Y5775D02*
D03*
Y4875D02*
D03*
X4175Y5275D02*
D03*
Y6175D02*
D03*
X10850Y10825D02*
D03*
Y11725D02*
D03*
X18925Y3975D02*
D03*
Y4875D02*
D03*
D18*
X22479Y5658D02*
D03*
Y8458D02*
D03*
X22625Y14250D02*
D03*
Y11450D02*
D03*
D19*
X9650Y14350D02*
D03*
X11400D02*
D03*
D20*
X35357Y54245D02*
D03*
Y53045D02*
D03*
D21*
X32156Y38674D02*
D03*
Y37374D02*
D03*
X30124Y33081D02*
D03*
Y34381D02*
D03*
X28296Y33081D02*
D03*
Y34381D02*
D03*
X7650Y4875D02*
D03*
Y6175D02*
D03*
D22*
X17125Y9675D02*
D03*
D23*
X18375Y7725D02*
D03*
X17875D02*
D03*
X17375D02*
D03*
X16875D02*
D03*
X16375D02*
D03*
X15875D02*
D03*
Y11625D02*
D03*
X16375D02*
D03*
X16875D02*
D03*
X17375D02*
D03*
X17875D02*
D03*
X18375D02*
D03*
D24*
X15175Y8425D02*
D03*
Y8925D02*
D03*
Y9425D02*
D03*
Y9925D02*
D03*
Y10425D02*
D03*
Y10925D02*
D03*
X19075D02*
D03*
Y10425D02*
D03*
Y9925D02*
D03*
Y9425D02*
D03*
Y8925D02*
D03*
Y8425D02*
D03*
D25*
X38162Y11225D02*
D03*
Y9225D02*
D03*
Y8225D02*
D03*
Y10225D02*
D03*
X35720Y40504D02*
D03*
Y42504D02*
D03*
Y41504D02*
D03*
X35847Y47938D02*
D03*
Y48938D02*
D03*
X35517Y25492D02*
D03*
Y27492D02*
D03*
Y26492D02*
D03*
X35314Y18787D02*
D03*
Y20787D02*
D03*
Y19787D02*
D03*
X35796Y33265D02*
D03*
Y35265D02*
D03*
Y34265D02*
D03*
D26*
X35638Y6925D02*
D03*
Y12525D02*
D03*
X38245Y39204D02*
D03*
Y43804D02*
D03*
X38372Y50238D02*
D03*
Y46638D02*
D03*
X38042Y24192D02*
D03*
Y28792D02*
D03*
X37838Y17487D02*
D03*
Y22087D02*
D03*
X38321Y31965D02*
D03*
Y36565D02*
D03*
D27*
X29888Y55377D02*
D03*
X27888D02*
D03*
X28888D02*
D03*
X30888D02*
D03*
X28325Y43088D02*
D03*
X29325D02*
D03*
D28*
X32188Y57902D02*
D03*
X26588D02*
D03*
X30625Y45613D02*
D03*
X27025D02*
D03*
D29*
X31649Y31309D02*
D03*
Y30039D02*
D03*
Y28769D02*
D03*
Y27499D02*
D03*
Y26229D02*
D03*
Y24959D02*
D03*
Y23689D02*
D03*
Y22419D02*
D03*
X26404D02*
D03*
Y23689D02*
D03*
Y24959D02*
D03*
Y26229D02*
D03*
Y27499D02*
D03*
Y28769D02*
D03*
Y30039D02*
D03*
Y31309D02*
D03*
D30*
X5828Y4837D02*
D03*
Y6187D02*
D03*
X12825Y10550D02*
D03*
Y9200D02*
D03*
X2526Y6187D02*
D03*
Y4837D02*
D03*
D31*
X12040Y6925D02*
D03*
X11160D02*
D03*
D32*
X15850Y2925D02*
D03*
Y4925D02*
D03*
D33*
X12600Y3925D02*
D03*
D34*
X27930Y40081D02*
D03*
X26630D02*
D03*
D60*
X3175Y35992D02*
D03*
Y38532D02*
D03*
Y41072D02*
D03*
Y43612D02*
D03*
Y46152D02*
D03*
Y33452D02*
D03*
Y30912D02*
D03*
Y28372D02*
D03*
D61*
X22022Y47701D02*
D03*
Y55321D02*
D03*
Y52781D02*
D03*
Y50241D02*
D03*
Y45161D02*
D03*
Y42621D02*
D03*
Y40081D02*
D03*
Y37541D02*
D03*
Y35001D02*
D03*
Y32461D02*
D03*
Y29921D02*
D03*
Y27381D02*
D03*
Y24841D02*
D03*
Y22301D02*
D03*
X6782Y55321D02*
D03*
Y52801D02*
D03*
Y50280D02*
D03*
Y47760D02*
D03*
Y45239D02*
D03*
Y42719D02*
D03*
Y40199D02*
D03*
Y37678D02*
D03*
Y35158D02*
D03*
Y32637D02*
D03*
Y30117D02*
D03*
Y27596D02*
D03*
Y25076D02*
D03*
Y22555D02*
D03*
D62*
X38500Y1500D02*
D03*
X1500D02*
D03*
Y58500D02*
D03*
X38500D02*
D03*
M02*
