G04*
G04 #@! TF.GenerationSoftware,Altium Limited,Altium Designer,20.2.5 (213)*
G04*
G04 Layer_Color=32768*
%FSLAX43Y43*%
%MOMM*%
G71*
G04*
G04 #@! TF.SameCoordinates,5171A944-556C-47A8-97AE-1EF1437A18D6*
G04*
G04*
G04 #@! TF.FilePolarity,Positive*
G04*
G01*
G75*
G36*
X17981Y5520D02*
X17981Y5517D01*
Y5513D01*
X17981Y5508D01*
X17980Y5502D01*
X17980Y5496D01*
X17979Y5490D01*
X17979Y5484D01*
X17977Y5471D01*
X17976Y5465D01*
X17974Y5459D01*
X17973Y5453D01*
X17971Y5447D01*
Y5447D01*
X17970Y5446D01*
X17970Y5445D01*
X17969Y5443D01*
X17968Y5441D01*
X17966Y5438D01*
X17964Y5435D01*
X17962Y5432D01*
X17960Y5429D01*
X17957Y5425D01*
X17954Y5422D01*
X17951Y5418D01*
X17947Y5415D01*
X17943Y5411D01*
X17939Y5408D01*
X17934Y5405D01*
X17934Y5405D01*
X17933Y5404D01*
X17932Y5403D01*
X17930Y5402D01*
X17927Y5401D01*
X17924Y5400D01*
X17921Y5398D01*
X17917Y5397D01*
X17913Y5395D01*
X17909Y5394D01*
X17904Y5392D01*
X17899Y5391D01*
X17894Y5390D01*
X17888Y5389D01*
X17882Y5389D01*
X17877Y5389D01*
X17876D01*
X17875D01*
X17873Y5389D01*
X17870D01*
X17866Y5390D01*
X17862Y5390D01*
X17858Y5391D01*
X17853Y5392D01*
X17847Y5393D01*
X17842Y5395D01*
X17836Y5397D01*
X17830Y5400D01*
X17824Y5403D01*
X17819Y5407D01*
X17813Y5411D01*
X17808Y5415D01*
X17808Y5416D01*
X17807Y5416D01*
X17805Y5418D01*
X17803Y5420D01*
X17801Y5423D01*
X17799Y5427D01*
X17796Y5431D01*
X17793Y5435D01*
X17790Y5441D01*
X17787Y5447D01*
X17784Y5454D01*
X17781Y5461D01*
X17779Y5469D01*
X17776Y5477D01*
X17774Y5487D01*
X17772Y5497D01*
Y5496D01*
X17772Y5496D01*
X17772Y5495D01*
X17771Y5493D01*
X17770Y5492D01*
X17769Y5490D01*
X17766Y5485D01*
X17764Y5480D01*
X17760Y5475D01*
X17757Y5471D01*
X17753Y5466D01*
X17753Y5466D01*
X17752Y5465D01*
X17751Y5464D01*
X17750Y5462D01*
X17747Y5460D01*
X17745Y5458D01*
X17743Y5456D01*
X17739Y5453D01*
X17736Y5450D01*
X17732Y5446D01*
X17728Y5443D01*
X17723Y5439D01*
X17718Y5436D01*
X17713Y5432D01*
X17702Y5424D01*
X17598Y5358D01*
Y5421D01*
X17678Y5472D01*
X17678Y5472D01*
X17679Y5473D01*
X17681Y5474D01*
X17683Y5476D01*
X17686Y5478D01*
X17690Y5480D01*
X17693Y5482D01*
X17697Y5485D01*
X17706Y5491D01*
X17715Y5497D01*
X17723Y5503D01*
X17727Y5506D01*
X17730Y5509D01*
X17731Y5509D01*
X17731Y5509D01*
X17732Y5510D01*
X17733Y5511D01*
X17737Y5514D01*
X17741Y5517D01*
X17745Y5521D01*
X17749Y5526D01*
X17753Y5530D01*
X17756Y5534D01*
X17756Y5535D01*
X17757Y5536D01*
X17759Y5539D01*
X17760Y5542D01*
X17762Y5545D01*
X17764Y5549D01*
X17765Y5553D01*
X17766Y5557D01*
Y5558D01*
X17767Y5559D01*
X17767Y5561D01*
X17767Y5564D01*
X17768Y5568D01*
X17768Y5573D01*
X17768Y5579D01*
Y5644D01*
X17598D01*
Y5695D01*
X17981D01*
Y5520D01*
D02*
G37*
G36*
X17715Y5329D02*
X17718Y5328D01*
X17722Y5328D01*
X17726Y5327D01*
X17731Y5326D01*
X17735Y5326D01*
X17741Y5324D01*
X17746Y5323D01*
X17751Y5321D01*
X17756Y5319D01*
X17761Y5316D01*
X17766Y5313D01*
X17771Y5310D01*
X17772Y5310D01*
X17772Y5309D01*
X17774Y5308D01*
X17775Y5307D01*
X17777Y5305D01*
X17780Y5302D01*
X17782Y5299D01*
X17785Y5296D01*
X17788Y5292D01*
X17791Y5289D01*
X17794Y5284D01*
X17797Y5279D01*
X17799Y5274D01*
X17801Y5268D01*
X17804Y5262D01*
X17806Y5256D01*
Y5256D01*
X17806Y5257D01*
X17807Y5259D01*
X17808Y5261D01*
X17809Y5263D01*
X17810Y5266D01*
X17812Y5269D01*
X17813Y5272D01*
X17818Y5279D01*
X17823Y5287D01*
X17829Y5294D01*
X17833Y5297D01*
X17836Y5299D01*
X17836Y5300D01*
X17837Y5300D01*
X17838Y5301D01*
X17840Y5302D01*
X17842Y5303D01*
X17844Y5304D01*
X17847Y5305D01*
X17850Y5306D01*
X17853Y5308D01*
X17857Y5309D01*
X17860Y5310D01*
X17865Y5311D01*
X17874Y5313D01*
X17879Y5313D01*
X17884Y5313D01*
X17884D01*
X17886D01*
X17888Y5313D01*
X17891Y5313D01*
X17894Y5313D01*
X17898Y5312D01*
X17903Y5311D01*
X17908Y5310D01*
X17914Y5308D01*
X17919Y5306D01*
X17925Y5304D01*
X17931Y5301D01*
X17937Y5297D01*
X17943Y5294D01*
X17948Y5289D01*
X17954Y5284D01*
X17954Y5283D01*
X17955Y5282D01*
X17957Y5281D01*
X17958Y5278D01*
X17961Y5275D01*
X17963Y5271D01*
X17966Y5267D01*
X17968Y5262D01*
X17971Y5257D01*
X17973Y5251D01*
X17976Y5244D01*
X17978Y5237D01*
X17980Y5230D01*
X17981Y5221D01*
X17982Y5213D01*
X17983Y5204D01*
Y5201D01*
X17982Y5199D01*
X17982Y5195D01*
X17982Y5191D01*
X17981Y5186D01*
X17980Y5181D01*
X17979Y5175D01*
X17977Y5168D01*
X17975Y5162D01*
X17973Y5155D01*
X17970Y5148D01*
X17967Y5142D01*
X17963Y5135D01*
X17958Y5129D01*
X17953Y5123D01*
X17953Y5123D01*
X17952Y5122D01*
X17950Y5120D01*
X17948Y5118D01*
X17945Y5116D01*
X17942Y5113D01*
X17938Y5111D01*
X17934Y5108D01*
X17929Y5105D01*
X17923Y5102D01*
X17917Y5099D01*
X17911Y5097D01*
X17904Y5095D01*
X17897Y5094D01*
X17890Y5093D01*
X17882Y5092D01*
X17882D01*
X17881D01*
X17880D01*
X17878Y5093D01*
X17876Y5093D01*
X17873Y5093D01*
X17870Y5093D01*
X17867Y5094D01*
X17859Y5096D01*
X17852Y5098D01*
X17848Y5100D01*
X17844Y5102D01*
X17840Y5104D01*
X17836Y5106D01*
X17836Y5107D01*
X17835Y5107D01*
X17834Y5108D01*
X17833Y5109D01*
X17831Y5111D01*
X17829Y5112D01*
X17827Y5114D01*
X17825Y5117D01*
X17823Y5120D01*
X17820Y5123D01*
X17818Y5127D01*
X17815Y5130D01*
X17813Y5135D01*
X17810Y5139D01*
X17808Y5144D01*
X17806Y5149D01*
Y5149D01*
X17805Y5147D01*
X17805Y5146D01*
X17803Y5143D01*
X17802Y5140D01*
X17801Y5137D01*
X17799Y5133D01*
X17797Y5129D01*
X17794Y5125D01*
X17792Y5120D01*
X17788Y5116D01*
X17785Y5111D01*
X17782Y5107D01*
X17777Y5103D01*
X17773Y5099D01*
X17769Y5095D01*
X17768Y5095D01*
X17767Y5094D01*
X17766Y5093D01*
X17764Y5092D01*
X17762Y5091D01*
X17759Y5089D01*
X17755Y5088D01*
X17751Y5086D01*
X17747Y5084D01*
X17743Y5082D01*
X17737Y5081D01*
X17732Y5079D01*
X17726Y5078D01*
X17720Y5077D01*
X17714Y5077D01*
X17707Y5076D01*
X17707D01*
X17705D01*
X17703Y5077D01*
X17699Y5077D01*
X17695Y5078D01*
X17690Y5078D01*
X17685Y5080D01*
X17679Y5081D01*
X17672Y5083D01*
X17666Y5085D01*
X17659Y5088D01*
X17652Y5091D01*
X17645Y5095D01*
X17638Y5100D01*
X17631Y5105D01*
X17625Y5111D01*
X17625Y5112D01*
X17623Y5113D01*
X17622Y5115D01*
X17620Y5118D01*
X17617Y5121D01*
X17614Y5126D01*
X17611Y5130D01*
X17608Y5136D01*
X17605Y5142D01*
X17602Y5149D01*
X17599Y5157D01*
X17597Y5165D01*
X17595Y5173D01*
X17593Y5183D01*
X17592Y5193D01*
X17592Y5203D01*
Y5205D01*
X17592Y5208D01*
X17592Y5212D01*
X17593Y5217D01*
X17593Y5222D01*
X17594Y5229D01*
X17596Y5235D01*
X17598Y5243D01*
X17600Y5250D01*
X17602Y5258D01*
X17606Y5265D01*
X17610Y5273D01*
X17614Y5281D01*
X17619Y5287D01*
X17625Y5294D01*
X17625Y5295D01*
X17627Y5296D01*
X17628Y5298D01*
X17631Y5300D01*
X17635Y5302D01*
X17638Y5305D01*
X17643Y5308D01*
X17648Y5312D01*
X17654Y5315D01*
X17660Y5318D01*
X17667Y5321D01*
X17674Y5323D01*
X17682Y5326D01*
X17691Y5328D01*
X17700Y5329D01*
X17709Y5329D01*
X17709D01*
X17710D01*
X17712D01*
X17715Y5329D01*
D02*
G37*
G36*
X9202Y4691D02*
X9206Y4691D01*
X9210Y4690D01*
X9216Y4690D01*
X9222Y4689D01*
X9228Y4687D01*
X9235Y4686D01*
X9242Y4684D01*
X9249Y4681D01*
X9257Y4678D01*
X9265Y4675D01*
X9272Y4671D01*
X9280Y4666D01*
X9287Y4661D01*
X9287Y4660D01*
X9289Y4659D01*
X9291Y4657D01*
X9294Y4654D01*
X9298Y4650D01*
X9302Y4646D01*
X9306Y4641D01*
X9310Y4634D01*
X9315Y4628D01*
X9319Y4620D01*
X9323Y4612D01*
X9326Y4603D01*
X9329Y4593D01*
X9331Y4583D01*
X9333Y4572D01*
X9333Y4560D01*
Y4558D01*
X9333Y4555D01*
X9333Y4551D01*
X9333Y4547D01*
X9332Y4542D01*
X9331Y4536D01*
X9330Y4530D01*
X9328Y4523D01*
X9326Y4516D01*
X9324Y4509D01*
X9321Y4502D01*
X9318Y4495D01*
X9314Y4488D01*
X9309Y4481D01*
X9304Y4475D01*
X9304Y4474D01*
X9303Y4473D01*
X9301Y4472D01*
X9299Y4469D01*
X9296Y4467D01*
X9292Y4464D01*
X9288Y4461D01*
X9284Y4458D01*
X9278Y4454D01*
X9272Y4451D01*
X9266Y4448D01*
X9259Y4445D01*
X9252Y4442D01*
X9244Y4440D01*
X9235Y4438D01*
X9226Y4437D01*
X9222Y4486D01*
X9223D01*
X9224Y4487D01*
X9226Y4487D01*
X9228Y4487D01*
X9231Y4488D01*
X9235Y4489D01*
X9239Y4490D01*
X9243Y4492D01*
X9251Y4495D01*
X9256Y4497D01*
X9261Y4499D01*
X9265Y4502D01*
X9269Y4505D01*
X9273Y4508D01*
X9277Y4512D01*
X9277Y4512D01*
X9277Y4512D01*
X9278Y4513D01*
X9279Y4515D01*
X9281Y4517D01*
X9282Y4520D01*
X9284Y4522D01*
X9285Y4525D01*
X9287Y4528D01*
X9289Y4532D01*
X9290Y4536D01*
X9292Y4541D01*
X9293Y4545D01*
X9294Y4550D01*
X9294Y4555D01*
X9295Y4560D01*
Y4562D01*
X9294Y4563D01*
Y4566D01*
X9294Y4569D01*
X9293Y4572D01*
X9292Y4576D01*
X9291Y4580D01*
X9290Y4585D01*
X9289Y4589D01*
X9286Y4594D01*
X9284Y4599D01*
X9281Y4604D01*
X9277Y4609D01*
X9274Y4613D01*
X9269Y4618D01*
X9269Y4618D01*
X9268Y4619D01*
X9266Y4620D01*
X9264Y4621D01*
X9262Y4623D01*
X9259Y4625D01*
X9255Y4628D01*
X9251Y4630D01*
X9246Y4632D01*
X9241Y4634D01*
X9236Y4636D01*
X9230Y4638D01*
X9223Y4639D01*
X9216Y4640D01*
X9209Y4641D01*
X9201Y4641D01*
X9201D01*
X9200D01*
X9197Y4641D01*
X9195D01*
X9191Y4641D01*
X9187Y4640D01*
X9183Y4639D01*
X9178Y4639D01*
X9173Y4637D01*
X9168Y4636D01*
X9163Y4634D01*
X9157Y4632D01*
X9152Y4629D01*
X9147Y4626D01*
X9142Y4623D01*
X9138Y4619D01*
X9137Y4618D01*
X9137Y4618D01*
X9135Y4616D01*
X9134Y4615D01*
X9132Y4612D01*
X9130Y4610D01*
X9128Y4607D01*
X9126Y4603D01*
X9124Y4599D01*
X9122Y4594D01*
X9120Y4590D01*
X9118Y4584D01*
X9117Y4579D01*
X9115Y4572D01*
X9115Y4566D01*
X9114Y4559D01*
Y4557D01*
X9115Y4556D01*
Y4554D01*
X9115Y4551D01*
X9115Y4549D01*
X9116Y4546D01*
X9117Y4539D01*
X9119Y4532D01*
X9121Y4525D01*
X9125Y4518D01*
Y4518D01*
X9125Y4517D01*
X9126Y4517D01*
X9127Y4515D01*
X9129Y4512D01*
X9132Y4508D01*
X9136Y4503D01*
X9140Y4499D01*
X9146Y4494D01*
X9151Y4490D01*
X9146Y4445D01*
X8949Y4482D01*
Y4673D01*
X8994D01*
Y4520D01*
X9097Y4499D01*
X9097Y4500D01*
X9096Y4501D01*
X9095Y4503D01*
X9093Y4505D01*
X9091Y4508D01*
X9089Y4512D01*
X9087Y4517D01*
X9085Y4521D01*
X9083Y4526D01*
X9080Y4532D01*
X9078Y4538D01*
X9077Y4544D01*
X9075Y4551D01*
X9074Y4557D01*
X9073Y4565D01*
X9073Y4572D01*
Y4574D01*
X9073Y4577D01*
X9073Y4580D01*
X9074Y4584D01*
X9075Y4589D01*
X9076Y4595D01*
X9077Y4601D01*
X9079Y4608D01*
X9081Y4615D01*
X9084Y4621D01*
X9088Y4629D01*
X9092Y4636D01*
X9096Y4643D01*
X9102Y4650D01*
X9108Y4657D01*
X9108Y4657D01*
X9109Y4658D01*
X9111Y4660D01*
X9114Y4662D01*
X9117Y4665D01*
X9122Y4668D01*
X9127Y4671D01*
X9132Y4674D01*
X9138Y4677D01*
X9145Y4680D01*
X9152Y4683D01*
X9160Y4686D01*
X9169Y4688D01*
X9178Y4690D01*
X9187Y4691D01*
X9197Y4691D01*
X9197D01*
X9198D01*
X9199D01*
X9199D01*
X9202Y4691D01*
D02*
G37*
G36*
X9206Y4394D02*
X9207Y4393D01*
X9208Y4393D01*
X9210Y4393D01*
X9212Y4392D01*
X9216Y4391D01*
X9221Y4389D01*
X9227Y4387D01*
X9233Y4384D01*
X9241Y4381D01*
X9248Y4377D01*
X9256Y4373D01*
X9264Y4368D01*
X9272Y4363D01*
X9280Y4357D01*
X9287Y4351D01*
X9294Y4344D01*
X9301Y4336D01*
X9301Y4336D01*
X9302Y4334D01*
X9304Y4332D01*
X9306Y4329D01*
X9308Y4325D01*
X9311Y4320D01*
X9314Y4314D01*
X9317Y4308D01*
X9320Y4301D01*
X9323Y4293D01*
X9326Y4285D01*
X9328Y4276D01*
X9330Y4267D01*
X9332Y4257D01*
X9333Y4246D01*
X9333Y4235D01*
Y4231D01*
X9333Y4229D01*
Y4225D01*
X9333Y4219D01*
X9332Y4213D01*
X9331Y4206D01*
X9330Y4199D01*
X9329Y4191D01*
X9327Y4183D01*
X9325Y4175D01*
X9323Y4166D01*
X9320Y4158D01*
X9316Y4150D01*
X9313Y4142D01*
X9308Y4134D01*
X9308Y4134D01*
X9307Y4133D01*
X9305Y4131D01*
X9303Y4128D01*
X9301Y4124D01*
X9298Y4121D01*
X9294Y4117D01*
X9290Y4112D01*
X9285Y4108D01*
X9279Y4103D01*
X9273Y4098D01*
X9267Y4093D01*
X9260Y4088D01*
X9252Y4084D01*
X9244Y4079D01*
X9235Y4075D01*
X9235D01*
X9235Y4075D01*
X9233Y4074D01*
X9231Y4073D01*
X9227Y4072D01*
X9223Y4070D01*
X9217Y4069D01*
X9211Y4067D01*
X9205Y4065D01*
X9197Y4063D01*
X9189Y4061D01*
X9181Y4060D01*
X9172Y4058D01*
X9163Y4057D01*
X9153Y4056D01*
X9143Y4055D01*
X9133Y4055D01*
X9132D01*
X9132D01*
X9131D01*
X9130D01*
X9128D01*
X9127Y4055D01*
X9123D01*
X9117Y4056D01*
X9111Y4056D01*
X9104Y4057D01*
X9097Y4058D01*
X9089Y4059D01*
X9081Y4061D01*
X9072Y4062D01*
X9063Y4065D01*
X9054Y4067D01*
X9045Y4070D01*
X9037Y4074D01*
X9028Y4078D01*
X9028Y4078D01*
X9026Y4079D01*
X9024Y4080D01*
X9021Y4082D01*
X9017Y4084D01*
X9013Y4087D01*
X9008Y4091D01*
X9003Y4095D01*
X8998Y4099D01*
X8992Y4104D01*
X8986Y4109D01*
X8981Y4115D01*
X8975Y4121D01*
X8970Y4128D01*
X8965Y4135D01*
X8960Y4143D01*
X8960Y4143D01*
X8959Y4145D01*
X8958Y4147D01*
X8957Y4150D01*
X8955Y4154D01*
X8953Y4159D01*
X8951Y4164D01*
X8949Y4170D01*
X8947Y4177D01*
X8945Y4184D01*
X8942Y4192D01*
X8941Y4200D01*
X8939Y4208D01*
X8938Y4217D01*
X8937Y4226D01*
X8937Y4236D01*
Y4240D01*
X8937Y4241D01*
X8938Y4245D01*
X8938Y4250D01*
X8939Y4256D01*
X8940Y4262D01*
X8941Y4270D01*
X8942Y4277D01*
X8944Y4285D01*
X8947Y4293D01*
X8950Y4301D01*
X8953Y4309D01*
X8957Y4317D01*
X8961Y4325D01*
X8967Y4332D01*
X8967Y4333D01*
X8968Y4334D01*
X8970Y4336D01*
X8972Y4339D01*
X8975Y4342D01*
X8979Y4346D01*
X8983Y4350D01*
X8988Y4354D01*
X8993Y4358D01*
X8999Y4363D01*
X9006Y4368D01*
X9014Y4372D01*
X9022Y4376D01*
X9030Y4380D01*
X9039Y4384D01*
X9049Y4387D01*
X9061Y4337D01*
X9060Y4337D01*
X9059Y4337D01*
X9057Y4336D01*
X9054Y4335D01*
X9050Y4334D01*
X9047Y4332D01*
X9042Y4330D01*
X9037Y4327D01*
X9032Y4325D01*
X9027Y4322D01*
X9022Y4319D01*
X9017Y4315D01*
X9012Y4311D01*
X9008Y4307D01*
X9004Y4303D01*
X9000Y4298D01*
X8999Y4298D01*
X8999Y4297D01*
X8998Y4296D01*
X8997Y4294D01*
X8995Y4291D01*
X8994Y4288D01*
X8992Y4285D01*
X8990Y4281D01*
X8988Y4276D01*
X8987Y4272D01*
X8985Y4267D01*
X8984Y4261D01*
X8982Y4255D01*
X8981Y4249D01*
X8981Y4242D01*
X8981Y4235D01*
Y4231D01*
X8981Y4227D01*
X8981Y4224D01*
X8982Y4219D01*
X8982Y4214D01*
X8983Y4209D01*
X8985Y4203D01*
X8986Y4197D01*
X8988Y4191D01*
X8990Y4185D01*
X8992Y4179D01*
X8995Y4173D01*
X8998Y4167D01*
X9002Y4161D01*
X9002Y4160D01*
X9003Y4159D01*
X9004Y4158D01*
X9006Y4156D01*
X9008Y4154D01*
X9011Y4151D01*
X9014Y4148D01*
X9017Y4144D01*
X9021Y4141D01*
X9025Y4137D01*
X9030Y4134D01*
X9035Y4131D01*
X9040Y4128D01*
X9046Y4124D01*
X9052Y4122D01*
X9059Y4119D01*
X9059D01*
X9060Y4119D01*
X9062Y4118D01*
X9065Y4117D01*
X9068Y4116D01*
X9072Y4115D01*
X9076Y4115D01*
X9081Y4113D01*
X9087Y4112D01*
X9092Y4111D01*
X9099Y4110D01*
X9105Y4109D01*
X9118Y4108D01*
X9125Y4108D01*
X9132Y4107D01*
X9133D01*
X9135D01*
X9137D01*
X9141Y4108D01*
X9145Y4108D01*
X9150Y4108D01*
X9155Y4108D01*
X9161Y4109D01*
X9168Y4110D01*
X9175Y4111D01*
X9189Y4113D01*
X9196Y4115D01*
X9204Y4117D01*
X9211Y4119D01*
X9218Y4121D01*
X9218Y4122D01*
X9219Y4122D01*
X9221Y4123D01*
X9223Y4124D01*
X9226Y4126D01*
X9230Y4128D01*
X9234Y4130D01*
X9238Y4132D01*
X9242Y4135D01*
X9247Y4139D01*
X9251Y4142D01*
X9256Y4146D01*
X9260Y4151D01*
X9264Y4155D01*
X9268Y4160D01*
X9272Y4166D01*
X9272Y4166D01*
X9273Y4167D01*
X9274Y4169D01*
X9275Y4171D01*
X9276Y4174D01*
X9278Y4177D01*
X9279Y4181D01*
X9281Y4185D01*
X9283Y4190D01*
X9284Y4195D01*
X9286Y4200D01*
X9287Y4206D01*
X9288Y4212D01*
X9289Y4218D01*
X9290Y4224D01*
X9290Y4231D01*
Y4233D01*
X9290Y4235D01*
Y4238D01*
X9289Y4242D01*
X9289Y4246D01*
X9288Y4251D01*
X9287Y4256D01*
X9285Y4261D01*
X9284Y4267D01*
X9282Y4273D01*
X9280Y4279D01*
X9277Y4285D01*
X9274Y4291D01*
X9270Y4297D01*
X9266Y4303D01*
X9265Y4303D01*
X9264Y4304D01*
X9263Y4306D01*
X9261Y4308D01*
X9258Y4310D01*
X9255Y4313D01*
X9251Y4316D01*
X9247Y4319D01*
X9242Y4322D01*
X9237Y4326D01*
X9231Y4329D01*
X9224Y4332D01*
X9217Y4336D01*
X9210Y4339D01*
X9202Y4341D01*
X9193Y4343D01*
X9205Y4394D01*
X9206D01*
X9206Y4394D01*
D02*
G37*
G36*
X4248Y6995D02*
X4252D01*
X4258Y6994D01*
X4264Y6994D01*
X4271Y6993D01*
X4278Y6992D01*
X4286Y6991D01*
X4294Y6989D01*
X4303Y6988D01*
X4312Y6985D01*
X4321Y6983D01*
X4330Y6980D01*
X4338Y6976D01*
X4347Y6972D01*
X4347Y6972D01*
X4349Y6971D01*
X4351Y6970D01*
X4354Y6968D01*
X4358Y6966D01*
X4362Y6963D01*
X4367Y6959D01*
X4372Y6955D01*
X4377Y6951D01*
X4383Y6946D01*
X4389Y6941D01*
X4394Y6935D01*
X4400Y6929D01*
X4405Y6922D01*
X4410Y6915D01*
X4415Y6907D01*
X4415Y6907D01*
X4416Y6905D01*
X4417Y6903D01*
X4418Y6900D01*
X4420Y6896D01*
X4422Y6891D01*
X4424Y6886D01*
X4426Y6880D01*
X4428Y6873D01*
X4430Y6866D01*
X4433Y6858D01*
X4434Y6850D01*
X4436Y6842D01*
X4437Y6833D01*
X4438Y6824D01*
X4438Y6814D01*
Y6810D01*
X4438Y6809D01*
X4437Y6805D01*
X4437Y6800D01*
X4436Y6794D01*
X4435Y6788D01*
X4434Y6780D01*
X4433Y6773D01*
X4431Y6765D01*
X4428Y6757D01*
X4425Y6749D01*
X4422Y6741D01*
X4418Y6733D01*
X4414Y6725D01*
X4408Y6718D01*
X4408Y6717D01*
X4407Y6716D01*
X4405Y6714D01*
X4403Y6711D01*
X4400Y6708D01*
X4396Y6704D01*
X4392Y6700D01*
X4387Y6696D01*
X4382Y6692D01*
X4376Y6687D01*
X4369Y6682D01*
X4361Y6678D01*
X4353Y6674D01*
X4345Y6670D01*
X4336Y6666D01*
X4326Y6663D01*
X4314Y6713D01*
X4315Y6713D01*
X4316Y6713D01*
X4318Y6714D01*
X4321Y6715D01*
X4325Y6716D01*
X4328Y6718D01*
X4333Y6720D01*
X4338Y6723D01*
X4343Y6725D01*
X4348Y6728D01*
X4353Y6731D01*
X4358Y6735D01*
X4363Y6739D01*
X4367Y6742D01*
X4371Y6747D01*
X4375Y6752D01*
X4376Y6752D01*
X4376Y6753D01*
X4377Y6754D01*
X4378Y6756D01*
X4380Y6759D01*
X4381Y6762D01*
X4383Y6765D01*
X4385Y6769D01*
X4387Y6774D01*
X4388Y6778D01*
X4390Y6783D01*
X4391Y6789D01*
X4393Y6795D01*
X4394Y6801D01*
X4394Y6808D01*
X4394Y6815D01*
Y6819D01*
X4394Y6823D01*
X4394Y6826D01*
X4393Y6831D01*
X4393Y6836D01*
X4392Y6841D01*
X4390Y6847D01*
X4389Y6853D01*
X4387Y6859D01*
X4385Y6865D01*
X4383Y6871D01*
X4380Y6877D01*
X4377Y6883D01*
X4373Y6889D01*
X4373Y6890D01*
X4372Y6891D01*
X4371Y6892D01*
X4369Y6894D01*
X4367Y6896D01*
X4364Y6899D01*
X4361Y6902D01*
X4358Y6906D01*
X4354Y6909D01*
X4350Y6912D01*
X4345Y6916D01*
X4340Y6919D01*
X4335Y6922D01*
X4329Y6926D01*
X4323Y6928D01*
X4316Y6931D01*
X4316D01*
X4315Y6931D01*
X4313Y6932D01*
X4310Y6933D01*
X4307Y6934D01*
X4303Y6935D01*
X4299Y6935D01*
X4294Y6937D01*
X4288Y6938D01*
X4282Y6939D01*
X4276Y6940D01*
X4270Y6941D01*
X4257Y6942D01*
X4250Y6942D01*
X4243Y6943D01*
X4242D01*
X4240D01*
X4238D01*
X4234Y6942D01*
X4230Y6942D01*
X4225Y6942D01*
X4220Y6942D01*
X4214Y6941D01*
X4207Y6940D01*
X4200Y6939D01*
X4186Y6937D01*
X4179Y6935D01*
X4171Y6933D01*
X4164Y6931D01*
X4157Y6929D01*
X4157Y6928D01*
X4156Y6928D01*
X4154Y6927D01*
X4152Y6926D01*
X4148Y6924D01*
X4145Y6922D01*
X4141Y6920D01*
X4137Y6918D01*
X4133Y6915D01*
X4128Y6911D01*
X4124Y6908D01*
X4119Y6904D01*
X4115Y6899D01*
X4111Y6895D01*
X4107Y6890D01*
X4103Y6884D01*
X4103Y6884D01*
X4102Y6883D01*
X4101Y6881D01*
X4100Y6879D01*
X4099Y6876D01*
X4097Y6873D01*
X4096Y6869D01*
X4094Y6865D01*
X4092Y6860D01*
X4091Y6855D01*
X4089Y6850D01*
X4088Y6844D01*
X4087Y6838D01*
X4086Y6832D01*
X4085Y6826D01*
X4085Y6819D01*
Y6817D01*
X4085Y6815D01*
Y6812D01*
X4086Y6808D01*
X4086Y6804D01*
X4087Y6799D01*
X4088Y6794D01*
X4090Y6789D01*
X4091Y6783D01*
X4093Y6777D01*
X4095Y6771D01*
X4098Y6765D01*
X4101Y6759D01*
X4105Y6753D01*
X4109Y6747D01*
X4110Y6747D01*
X4111Y6746D01*
X4112Y6744D01*
X4114Y6742D01*
X4117Y6740D01*
X4120Y6737D01*
X4124Y6734D01*
X4128Y6731D01*
X4133Y6728D01*
X4138Y6724D01*
X4144Y6721D01*
X4151Y6718D01*
X4158Y6714D01*
X4165Y6711D01*
X4173Y6709D01*
X4182Y6707D01*
X4170Y6656D01*
X4169D01*
X4169Y6656D01*
X4168Y6657D01*
X4167Y6657D01*
X4165Y6657D01*
X4163Y6658D01*
X4159Y6659D01*
X4154Y6661D01*
X4148Y6663D01*
X4142Y6666D01*
X4134Y6669D01*
X4127Y6673D01*
X4119Y6677D01*
X4111Y6682D01*
X4103Y6687D01*
X4095Y6693D01*
X4088Y6699D01*
X4081Y6706D01*
X4074Y6714D01*
X4074Y6714D01*
X4073Y6716D01*
X4071Y6718D01*
X4069Y6721D01*
X4067Y6725D01*
X4064Y6730D01*
X4061Y6736D01*
X4058Y6742D01*
X4055Y6749D01*
X4052Y6757D01*
X4049Y6765D01*
X4047Y6774D01*
X4045Y6783D01*
X4043Y6793D01*
X4042Y6804D01*
X4042Y6815D01*
Y6819D01*
X4042Y6821D01*
Y6825D01*
X4042Y6831D01*
X4043Y6837D01*
X4044Y6844D01*
X4045Y6851D01*
X4046Y6859D01*
X4048Y6867D01*
X4050Y6875D01*
X4052Y6884D01*
X4055Y6892D01*
X4059Y6900D01*
X4062Y6908D01*
X4067Y6916D01*
X4067Y6916D01*
X4068Y6917D01*
X4070Y6919D01*
X4072Y6922D01*
X4074Y6926D01*
X4077Y6929D01*
X4081Y6933D01*
X4085Y6938D01*
X4090Y6942D01*
X4096Y6947D01*
X4102Y6952D01*
X4108Y6957D01*
X4115Y6962D01*
X4123Y6966D01*
X4131Y6971D01*
X4140Y6975D01*
X4140D01*
X4140Y6975D01*
X4142Y6976D01*
X4144Y6977D01*
X4148Y6978D01*
X4152Y6979D01*
X4158Y6981D01*
X4164Y6983D01*
X4170Y6985D01*
X4178Y6987D01*
X4186Y6989D01*
X4194Y6990D01*
X4203Y6992D01*
X4212Y6993D01*
X4222Y6994D01*
X4232Y6995D01*
X4242Y6995D01*
X4243D01*
X4243D01*
X4244D01*
X4245D01*
X4247D01*
X4248Y6995D01*
D02*
G37*
G36*
X4155Y6566D02*
X4155D01*
X4154Y6565D01*
X4152Y6565D01*
X4149Y6564D01*
X4145Y6563D01*
X4142Y6562D01*
X4138Y6561D01*
X4133Y6559D01*
X4124Y6555D01*
X4114Y6551D01*
X4109Y6548D01*
X4105Y6545D01*
X4101Y6542D01*
X4098Y6538D01*
X4097Y6538D01*
X4097Y6537D01*
X4096Y6536D01*
X4095Y6535D01*
X4093Y6533D01*
X4092Y6530D01*
X4090Y6528D01*
X4089Y6525D01*
X4087Y6522D01*
X4086Y6518D01*
X4084Y6514D01*
X4083Y6510D01*
X4082Y6506D01*
X4081Y6501D01*
X4080Y6496D01*
X4080Y6491D01*
Y6489D01*
X4080Y6488D01*
Y6485D01*
X4081Y6482D01*
X4081Y6479D01*
X4082Y6475D01*
X4083Y6471D01*
X4084Y6467D01*
X4086Y6462D01*
X4088Y6458D01*
X4090Y6453D01*
X4093Y6448D01*
X4096Y6443D01*
X4099Y6439D01*
X4103Y6435D01*
X4103Y6434D01*
X4104Y6434D01*
X4105Y6432D01*
X4107Y6431D01*
X4109Y6429D01*
X4112Y6427D01*
X4115Y6425D01*
X4119Y6423D01*
X4123Y6421D01*
X4127Y6419D01*
X4132Y6417D01*
X4137Y6415D01*
X4142Y6414D01*
X4148Y6413D01*
X4154Y6412D01*
X4160Y6412D01*
X4160D01*
X4161D01*
X4163D01*
X4165Y6412D01*
X4168Y6412D01*
X4171Y6413D01*
X4175Y6413D01*
X4179Y6414D01*
X4183Y6416D01*
X4187Y6417D01*
X4192Y6419D01*
X4196Y6421D01*
X4201Y6423D01*
X4205Y6426D01*
X4209Y6429D01*
X4213Y6433D01*
X4214Y6433D01*
X4214Y6434D01*
X4215Y6435D01*
X4217Y6437D01*
X4218Y6439D01*
X4220Y6441D01*
X4222Y6444D01*
X4224Y6448D01*
X4226Y6451D01*
X4228Y6455D01*
X4229Y6460D01*
X4231Y6465D01*
X4232Y6470D01*
X4233Y6475D01*
X4234Y6481D01*
X4234Y6487D01*
Y6489D01*
X4234Y6492D01*
X4234Y6496D01*
X4233Y6501D01*
X4232Y6506D01*
X4231Y6513D01*
X4229Y6520D01*
X4271Y6515D01*
Y6514D01*
X4270Y6513D01*
Y6512D01*
X4270Y6509D01*
Y6504D01*
X4270Y6502D01*
X4271Y6499D01*
X4271Y6496D01*
X4271Y6493D01*
X4272Y6489D01*
X4273Y6485D01*
X4274Y6481D01*
X4277Y6472D01*
X4278Y6467D01*
X4281Y6462D01*
X4283Y6458D01*
X4286Y6453D01*
X4286Y6453D01*
X4286Y6452D01*
X4287Y6451D01*
X4289Y6449D01*
X4290Y6448D01*
X4292Y6445D01*
X4295Y6443D01*
X4297Y6441D01*
X4301Y6439D01*
X4304Y6437D01*
X4308Y6435D01*
X4313Y6433D01*
X4317Y6431D01*
X4323Y6430D01*
X4328Y6429D01*
X4334Y6429D01*
X4334D01*
X4335D01*
X4336D01*
X4338Y6429D01*
X4340Y6430D01*
X4343Y6430D01*
X4346Y6430D01*
X4349Y6431D01*
X4356Y6434D01*
X4359Y6435D01*
X4363Y6437D01*
X4366Y6439D01*
X4370Y6441D01*
X4373Y6444D01*
X4377Y6447D01*
X4377Y6447D01*
X4377Y6448D01*
X4378Y6448D01*
X4379Y6450D01*
X4381Y6452D01*
X4382Y6454D01*
X4384Y6456D01*
X4385Y6459D01*
X4387Y6462D01*
X4388Y6465D01*
X4390Y6469D01*
X4391Y6473D01*
X4392Y6478D01*
X4393Y6482D01*
X4394Y6487D01*
X4394Y6492D01*
Y6495D01*
X4394Y6496D01*
X4393Y6499D01*
X4393Y6502D01*
X4392Y6505D01*
X4392Y6508D01*
X4390Y6515D01*
X4388Y6519D01*
X4386Y6523D01*
X4384Y6527D01*
X4382Y6530D01*
X4379Y6534D01*
X4376Y6538D01*
X4376Y6538D01*
X4376Y6538D01*
X4374Y6539D01*
X4373Y6541D01*
X4371Y6542D01*
X4369Y6544D01*
X4366Y6545D01*
X4364Y6547D01*
X4360Y6549D01*
X4356Y6551D01*
X4352Y6553D01*
X4347Y6555D01*
X4342Y6557D01*
X4337Y6558D01*
X4331Y6560D01*
X4325Y6561D01*
X4333Y6608D01*
X4333D01*
X4334D01*
X4335Y6607D01*
X4338Y6607D01*
X4341Y6606D01*
X4345Y6605D01*
X4350Y6604D01*
X4354Y6602D01*
X4360Y6600D01*
X4366Y6597D01*
X4372Y6595D01*
X4378Y6591D01*
X4384Y6588D01*
X4390Y6584D01*
X4396Y6579D01*
X4402Y6574D01*
X4407Y6569D01*
X4407Y6569D01*
X4408Y6568D01*
X4409Y6566D01*
X4411Y6563D01*
X4413Y6560D01*
X4415Y6557D01*
X4417Y6553D01*
X4420Y6548D01*
X4422Y6543D01*
X4424Y6537D01*
X4426Y6531D01*
X4428Y6524D01*
X4430Y6517D01*
X4431Y6509D01*
X4432Y6501D01*
X4433Y6493D01*
Y6490D01*
X4432Y6488D01*
Y6485D01*
X4432Y6481D01*
X4431Y6478D01*
X4431Y6474D01*
X4430Y6470D01*
X4429Y6465D01*
X4427Y6455D01*
X4425Y6450D01*
X4423Y6445D01*
X4421Y6440D01*
X4419Y6435D01*
X4419Y6435D01*
X4418Y6434D01*
X4418Y6433D01*
X4417Y6431D01*
X4415Y6429D01*
X4413Y6426D01*
X4412Y6423D01*
X4409Y6420D01*
X4404Y6414D01*
X4398Y6407D01*
X4390Y6401D01*
X4386Y6398D01*
X4382Y6395D01*
X4382Y6394D01*
X4381Y6394D01*
X4380Y6393D01*
X4378Y6393D01*
X4376Y6391D01*
X4373Y6390D01*
X4371Y6389D01*
X4367Y6388D01*
X4364Y6386D01*
X4360Y6385D01*
X4352Y6383D01*
X4343Y6381D01*
X4338Y6381D01*
X4333Y6381D01*
X4333D01*
X4332D01*
X4330D01*
X4329Y6381D01*
X4327D01*
X4324Y6381D01*
X4321Y6382D01*
X4318Y6382D01*
X4311Y6384D01*
X4303Y6386D01*
X4299Y6388D01*
X4295Y6390D01*
X4291Y6392D01*
X4287Y6394D01*
X4287Y6394D01*
X4287Y6395D01*
X4286Y6396D01*
X4284Y6397D01*
X4282Y6398D01*
X4281Y6400D01*
X4278Y6402D01*
X4276Y6404D01*
X4273Y6407D01*
X4271Y6410D01*
X4268Y6413D01*
X4265Y6416D01*
X4263Y6420D01*
X4260Y6424D01*
X4258Y6429D01*
X4255Y6434D01*
Y6433D01*
X4255Y6432D01*
X4255Y6430D01*
X4254Y6428D01*
X4253Y6425D01*
X4251Y6422D01*
X4250Y6418D01*
X4248Y6414D01*
X4246Y6410D01*
X4244Y6406D01*
X4241Y6401D01*
X4238Y6397D01*
X4235Y6393D01*
X4231Y6388D01*
X4227Y6384D01*
X4223Y6381D01*
X4222Y6380D01*
X4222Y6380D01*
X4220Y6379D01*
X4218Y6378D01*
X4216Y6376D01*
X4213Y6375D01*
X4210Y6373D01*
X4206Y6371D01*
X4201Y6370D01*
X4197Y6368D01*
X4192Y6366D01*
X4186Y6365D01*
X4180Y6363D01*
X4174Y6363D01*
X4168Y6362D01*
X4161Y6362D01*
X4160D01*
X4159D01*
X4156Y6362D01*
X4153Y6362D01*
X4148Y6363D01*
X4143Y6364D01*
X4138Y6365D01*
X4132Y6367D01*
X4125Y6368D01*
X4118Y6371D01*
X4111Y6374D01*
X4104Y6377D01*
X4097Y6381D01*
X4090Y6386D01*
X4083Y6392D01*
X4076Y6399D01*
X4076Y6399D01*
X4075Y6400D01*
X4073Y6402D01*
X4070Y6405D01*
X4068Y6409D01*
X4065Y6413D01*
X4062Y6418D01*
X4059Y6424D01*
X4055Y6430D01*
X4052Y6437D01*
X4049Y6445D01*
X4047Y6453D01*
X4044Y6462D01*
X4042Y6471D01*
X4041Y6481D01*
X4041Y6491D01*
Y6493D01*
X4041Y6496D01*
X4042Y6499D01*
X4042Y6504D01*
X4043Y6509D01*
X4044Y6514D01*
X4045Y6520D01*
X4046Y6527D01*
X4048Y6534D01*
X4051Y6541D01*
X4054Y6548D01*
X4057Y6555D01*
X4061Y6562D01*
X4066Y6569D01*
X4071Y6575D01*
X4071Y6575D01*
X4072Y6576D01*
X4074Y6578D01*
X4077Y6580D01*
X4080Y6583D01*
X4083Y6586D01*
X4087Y6589D01*
X4092Y6592D01*
X4097Y6595D01*
X4103Y6599D01*
X4110Y6602D01*
X4117Y6605D01*
X4124Y6607D01*
X4132Y6610D01*
X4140Y6612D01*
X4149Y6613D01*
X4155Y6566D01*
D02*
G37*
G36*
X10885Y10570D02*
X10977D01*
Y10522D01*
X10885D01*
Y10356D01*
X10842D01*
X10594Y10531D01*
Y10570D01*
X10842D01*
Y10621D01*
X10885D01*
Y10570D01*
D02*
G37*
G36*
X10977Y10279D02*
X10897Y10228D01*
X10897Y10228D01*
X10896Y10227D01*
X10894Y10226D01*
X10892Y10224D01*
X10889Y10222D01*
X10885Y10220D01*
X10882Y10218D01*
X10878Y10215D01*
X10869Y10209D01*
X10860Y10203D01*
X10852Y10197D01*
X10848Y10194D01*
X10845Y10191D01*
X10844Y10191D01*
X10844Y10191D01*
X10843Y10190D01*
X10842Y10189D01*
X10838Y10186D01*
X10834Y10183D01*
X10830Y10179D01*
X10826Y10174D01*
X10822Y10170D01*
X10819Y10166D01*
X10819Y10165D01*
X10818Y10164D01*
X10816Y10161D01*
X10815Y10158D01*
X10813Y10155D01*
X10811Y10151D01*
X10810Y10147D01*
X10809Y10143D01*
Y10142D01*
X10808Y10141D01*
X10808Y10139D01*
X10808Y10136D01*
X10807Y10132D01*
X10807Y10127D01*
X10807Y10121D01*
Y10056D01*
X10977D01*
Y10005D01*
X10594D01*
Y10180D01*
X10594Y10183D01*
Y10187D01*
X10594Y10192D01*
X10595Y10198D01*
X10595Y10204D01*
X10596Y10210D01*
X10596Y10216D01*
X10598Y10229D01*
X10599Y10235D01*
X10601Y10241D01*
X10602Y10247D01*
X10604Y10253D01*
Y10253D01*
X10605Y10254D01*
X10605Y10255D01*
X10606Y10257D01*
X10607Y10259D01*
X10609Y10262D01*
X10611Y10265D01*
X10613Y10268D01*
X10615Y10271D01*
X10618Y10275D01*
X10621Y10278D01*
X10624Y10282D01*
X10628Y10285D01*
X10632Y10289D01*
X10636Y10292D01*
X10641Y10295D01*
X10641Y10295D01*
X10642Y10296D01*
X10643Y10297D01*
X10645Y10298D01*
X10648Y10299D01*
X10651Y10300D01*
X10654Y10302D01*
X10658Y10303D01*
X10662Y10305D01*
X10666Y10306D01*
X10671Y10308D01*
X10676Y10309D01*
X10681Y10310D01*
X10687Y10311D01*
X10693Y10311D01*
X10698Y10311D01*
X10699D01*
X10700D01*
X10702Y10311D01*
X10705D01*
X10709Y10310D01*
X10713Y10310D01*
X10717Y10309D01*
X10722Y10308D01*
X10728Y10307D01*
X10733Y10305D01*
X10739Y10303D01*
X10745Y10300D01*
X10751Y10297D01*
X10756Y10293D01*
X10762Y10289D01*
X10767Y10285D01*
X10767Y10284D01*
X10768Y10284D01*
X10770Y10282D01*
X10772Y10280D01*
X10774Y10277D01*
X10776Y10273D01*
X10779Y10269D01*
X10782Y10265D01*
X10785Y10259D01*
X10788Y10253D01*
X10791Y10246D01*
X10794Y10239D01*
X10796Y10231D01*
X10799Y10223D01*
X10801Y10213D01*
X10803Y10203D01*
Y10204D01*
X10803Y10204D01*
X10803Y10205D01*
X10804Y10207D01*
X10805Y10208D01*
X10806Y10210D01*
X10809Y10215D01*
X10811Y10220D01*
X10815Y10225D01*
X10818Y10229D01*
X10822Y10234D01*
X10822Y10234D01*
X10823Y10235D01*
X10824Y10236D01*
X10825Y10238D01*
X10828Y10240D01*
X10830Y10242D01*
X10832Y10244D01*
X10836Y10247D01*
X10839Y10250D01*
X10843Y10254D01*
X10847Y10257D01*
X10852Y10261D01*
X10857Y10264D01*
X10862Y10268D01*
X10873Y10276D01*
X10977Y10342D01*
Y10279D01*
D02*
G37*
G36*
X19181Y5520D02*
X19181Y5517D01*
Y5513D01*
X19181Y5508D01*
X19180Y5502D01*
X19180Y5496D01*
X19179Y5490D01*
X19179Y5484D01*
X19177Y5471D01*
X19176Y5465D01*
X19174Y5459D01*
X19173Y5453D01*
X19171Y5447D01*
Y5447D01*
X19170Y5446D01*
X19170Y5445D01*
X19169Y5443D01*
X19168Y5441D01*
X19166Y5438D01*
X19164Y5435D01*
X19162Y5432D01*
X19160Y5429D01*
X19157Y5425D01*
X19154Y5422D01*
X19151Y5418D01*
X19147Y5415D01*
X19143Y5411D01*
X19139Y5408D01*
X19134Y5405D01*
X19134Y5405D01*
X19133Y5404D01*
X19132Y5403D01*
X19130Y5402D01*
X19127Y5401D01*
X19124Y5400D01*
X19121Y5398D01*
X19117Y5397D01*
X19113Y5395D01*
X19109Y5394D01*
X19104Y5392D01*
X19099Y5391D01*
X19094Y5390D01*
X19088Y5389D01*
X19082Y5389D01*
X19077Y5389D01*
X19076D01*
X19075D01*
X19073Y5389D01*
X19070D01*
X19066Y5390D01*
X19062Y5390D01*
X19058Y5391D01*
X19053Y5392D01*
X19047Y5393D01*
X19042Y5395D01*
X19036Y5397D01*
X19030Y5400D01*
X19024Y5403D01*
X19019Y5407D01*
X19013Y5411D01*
X19008Y5415D01*
X19008Y5416D01*
X19007Y5416D01*
X19005Y5418D01*
X19003Y5420D01*
X19001Y5423D01*
X18999Y5427D01*
X18996Y5431D01*
X18993Y5435D01*
X18990Y5441D01*
X18987Y5447D01*
X18984Y5454D01*
X18981Y5461D01*
X18979Y5469D01*
X18976Y5477D01*
X18974Y5487D01*
X18972Y5497D01*
Y5496D01*
X18972Y5496D01*
X18972Y5495D01*
X18971Y5493D01*
X18970Y5492D01*
X18969Y5490D01*
X18966Y5485D01*
X18964Y5480D01*
X18960Y5475D01*
X18957Y5471D01*
X18953Y5466D01*
X18953Y5466D01*
X18952Y5465D01*
X18951Y5464D01*
X18950Y5462D01*
X18948Y5460D01*
X18945Y5458D01*
X18943Y5456D01*
X18939Y5453D01*
X18936Y5450D01*
X18932Y5446D01*
X18928Y5443D01*
X18923Y5439D01*
X18918Y5436D01*
X18913Y5432D01*
X18902Y5424D01*
X18798Y5358D01*
Y5421D01*
X18878Y5472D01*
X18878Y5472D01*
X18879Y5473D01*
X18881Y5474D01*
X18883Y5476D01*
X18886Y5478D01*
X18890Y5480D01*
X18893Y5482D01*
X18897Y5485D01*
X18906Y5491D01*
X18915Y5497D01*
X18923Y5503D01*
X18927Y5506D01*
X18930Y5509D01*
X18931Y5509D01*
X18931Y5509D01*
X18932Y5510D01*
X18933Y5511D01*
X18937Y5514D01*
X18941Y5517D01*
X18945Y5521D01*
X18949Y5526D01*
X18953Y5530D01*
X18956Y5534D01*
X18956Y5535D01*
X18957Y5536D01*
X18959Y5539D01*
X18960Y5542D01*
X18962Y5545D01*
X18964Y5549D01*
X18965Y5553D01*
X18966Y5557D01*
Y5558D01*
X18967Y5559D01*
X18967Y5561D01*
X18967Y5564D01*
X18968Y5568D01*
X18968Y5573D01*
X18968Y5579D01*
Y5644D01*
X18798D01*
Y5695D01*
X19181D01*
Y5520D01*
D02*
G37*
G36*
X19176Y5077D02*
X19140D01*
X19139Y5078D01*
X19138Y5079D01*
X19135Y5081D01*
X19132Y5084D01*
X19129Y5087D01*
X19124Y5091D01*
X19118Y5095D01*
X19112Y5100D01*
X19105Y5105D01*
X19097Y5111D01*
X19089Y5117D01*
X19080Y5123D01*
X19070Y5130D01*
X19059Y5136D01*
X19048Y5143D01*
X19036Y5150D01*
X19036D01*
X19035Y5150D01*
X19034Y5151D01*
X19033Y5152D01*
X19032Y5152D01*
X19030Y5153D01*
X19028Y5155D01*
X19025Y5156D01*
X19022Y5157D01*
X19019Y5159D01*
X19012Y5162D01*
X19004Y5166D01*
X18995Y5170D01*
X18986Y5175D01*
X18975Y5179D01*
X18964Y5184D01*
X18953Y5188D01*
X18941Y5193D01*
X18929Y5197D01*
X18916Y5201D01*
X18903Y5205D01*
X18903Y5206D01*
X18901Y5206D01*
X18899Y5207D01*
X18895Y5207D01*
X18890Y5209D01*
X18885Y5210D01*
X18879Y5211D01*
X18872Y5213D01*
X18864Y5214D01*
X18856Y5216D01*
X18848Y5217D01*
X18838Y5219D01*
X18829Y5220D01*
X18819Y5221D01*
X18809Y5222D01*
X18798Y5223D01*
Y5272D01*
X18799D01*
X18800D01*
X18803Y5271D01*
X18806D01*
X18810Y5271D01*
X18816Y5271D01*
X18822Y5270D01*
X18828Y5269D01*
X18836Y5268D01*
X18845Y5267D01*
X18853Y5266D01*
X18863Y5264D01*
X18873Y5262D01*
X18884Y5260D01*
X18895Y5257D01*
X18907Y5254D01*
X18907D01*
X18908Y5254D01*
X18909Y5254D01*
X18910Y5253D01*
X18912Y5253D01*
X18913Y5252D01*
X18916Y5252D01*
X18918Y5251D01*
X18924Y5249D01*
X18931Y5247D01*
X18938Y5245D01*
X18947Y5242D01*
X18956Y5238D01*
X18965Y5235D01*
X18976Y5231D01*
X18986Y5227D01*
X18997Y5222D01*
X19008Y5217D01*
X19019Y5211D01*
X19031Y5206D01*
X19031D01*
X19031Y5205D01*
X19032Y5205D01*
X19033Y5204D01*
X19035Y5203D01*
X19036Y5202D01*
X19041Y5200D01*
X19046Y5197D01*
X19052Y5194D01*
X19058Y5189D01*
X19065Y5185D01*
X19073Y5180D01*
X19081Y5175D01*
X19090Y5169D01*
X19098Y5163D01*
X19115Y5151D01*
X19123Y5144D01*
X19131Y5138D01*
Y5325D01*
X19176D01*
Y5077D01*
D02*
G37*
%LPC*%
G36*
X17939Y5644D02*
X17812D01*
Y5530D01*
X17813Y5527D01*
Y5523D01*
X17813Y5520D01*
X17813Y5516D01*
X17814Y5507D01*
X17815Y5498D01*
X17817Y5489D01*
X17818Y5485D01*
X17819Y5481D01*
Y5481D01*
X17819Y5480D01*
X17820Y5479D01*
X17821Y5478D01*
X17821Y5476D01*
X17822Y5475D01*
X17825Y5470D01*
X17828Y5465D01*
X17832Y5460D01*
X17837Y5456D01*
X17842Y5451D01*
X17842D01*
X17843Y5451D01*
X17844Y5451D01*
X17845Y5450D01*
X17846Y5449D01*
X17848Y5448D01*
X17852Y5446D01*
X17857Y5444D01*
X17863Y5443D01*
X17870Y5442D01*
X17877Y5441D01*
X17877D01*
X17878D01*
X17879D01*
X17881Y5441D01*
X17883Y5442D01*
X17886Y5442D01*
X17889Y5443D01*
X17892Y5444D01*
X17896Y5445D01*
X17899Y5446D01*
X17903Y5447D01*
X17907Y5449D01*
X17911Y5452D01*
X17914Y5454D01*
X17918Y5457D01*
X17921Y5461D01*
X17921Y5461D01*
X17922Y5462D01*
X17923Y5463D01*
X17924Y5465D01*
X17925Y5467D01*
X17927Y5470D01*
X17928Y5473D01*
X17930Y5476D01*
X17932Y5480D01*
X17933Y5485D01*
X17935Y5490D01*
X17936Y5496D01*
X17937Y5502D01*
X17938Y5508D01*
X17939Y5516D01*
X17939Y5523D01*
Y5644D01*
D02*
G37*
G36*
X17885Y5265D02*
X17885D01*
X17884D01*
X17883D01*
X17881Y5265D01*
X17878Y5264D01*
X17876Y5264D01*
X17873Y5264D01*
X17870Y5263D01*
X17863Y5261D01*
X17859Y5260D01*
X17855Y5258D01*
X17852Y5256D01*
X17848Y5253D01*
X17844Y5251D01*
X17841Y5248D01*
X17841Y5248D01*
X17840Y5247D01*
X17839Y5246D01*
X17838Y5245D01*
X17837Y5243D01*
X17836Y5241D01*
X17834Y5238D01*
X17833Y5236D01*
X17831Y5233D01*
X17829Y5229D01*
X17828Y5225D01*
X17827Y5221D01*
X17826Y5217D01*
X17825Y5212D01*
X17824Y5207D01*
X17824Y5202D01*
Y5200D01*
X17824Y5198D01*
X17824Y5196D01*
X17825Y5193D01*
X17825Y5190D01*
X17826Y5187D01*
X17828Y5180D01*
X17829Y5176D01*
X17831Y5172D01*
X17833Y5169D01*
X17835Y5165D01*
X17838Y5161D01*
X17841Y5158D01*
X17841Y5158D01*
X17842Y5157D01*
X17842Y5157D01*
X17844Y5155D01*
X17846Y5154D01*
X17847Y5153D01*
X17850Y5151D01*
X17852Y5149D01*
X17855Y5148D01*
X17859Y5146D01*
X17866Y5143D01*
X17870Y5142D01*
X17874Y5142D01*
X17878Y5141D01*
X17883Y5141D01*
X17883D01*
X17884D01*
X17885D01*
X17887Y5141D01*
X17889Y5141D01*
X17892Y5142D01*
X17895Y5142D01*
X17898Y5143D01*
X17904Y5145D01*
X17908Y5147D01*
X17912Y5148D01*
X17916Y5150D01*
X17919Y5153D01*
X17923Y5156D01*
X17926Y5159D01*
X17926Y5159D01*
X17927Y5160D01*
X17928Y5161D01*
X17929Y5162D01*
X17930Y5164D01*
X17932Y5166D01*
X17933Y5168D01*
X17935Y5171D01*
X17937Y5174D01*
X17938Y5177D01*
X17940Y5181D01*
X17941Y5185D01*
X17942Y5189D01*
X17943Y5194D01*
X17944Y5198D01*
X17944Y5203D01*
Y5206D01*
X17944Y5207D01*
X17943Y5210D01*
X17943Y5212D01*
X17942Y5215D01*
X17942Y5219D01*
X17940Y5226D01*
X17938Y5229D01*
X17936Y5233D01*
X17934Y5237D01*
X17932Y5241D01*
X17929Y5244D01*
X17926Y5248D01*
X17926Y5248D01*
X17926Y5248D01*
X17925Y5249D01*
X17923Y5250D01*
X17922Y5252D01*
X17920Y5253D01*
X17917Y5255D01*
X17915Y5256D01*
X17912Y5258D01*
X17909Y5260D01*
X17902Y5262D01*
X17898Y5263D01*
X17894Y5264D01*
X17890Y5265D01*
X17885Y5265D01*
D02*
G37*
G36*
X17708Y5281D02*
X17708D01*
X17708D01*
X17707D01*
X17705Y5280D01*
X17703D01*
X17701Y5280D01*
X17699Y5280D01*
X17696Y5279D01*
X17690Y5278D01*
X17684Y5277D01*
X17677Y5274D01*
X17670Y5271D01*
X17669D01*
X17669Y5271D01*
X17668Y5270D01*
X17667Y5269D01*
X17665Y5268D01*
X17663Y5267D01*
X17659Y5264D01*
X17654Y5260D01*
X17649Y5255D01*
X17645Y5250D01*
X17641Y5243D01*
Y5243D01*
X17640Y5242D01*
X17640Y5241D01*
X17639Y5240D01*
X17638Y5238D01*
X17637Y5236D01*
X17636Y5233D01*
X17636Y5231D01*
X17634Y5225D01*
X17632Y5218D01*
X17631Y5210D01*
X17630Y5202D01*
Y5201D01*
X17631Y5199D01*
Y5197D01*
X17631Y5194D01*
X17632Y5191D01*
X17632Y5187D01*
X17633Y5183D01*
X17634Y5179D01*
X17636Y5174D01*
X17637Y5170D01*
X17640Y5165D01*
X17642Y5160D01*
X17645Y5155D01*
X17648Y5151D01*
X17652Y5147D01*
X17652Y5147D01*
X17653Y5146D01*
X17654Y5145D01*
X17656Y5143D01*
X17658Y5142D01*
X17661Y5140D01*
X17664Y5138D01*
X17667Y5136D01*
X17671Y5134D01*
X17675Y5132D01*
X17679Y5130D01*
X17684Y5128D01*
X17690Y5127D01*
X17695Y5126D01*
X17701Y5125D01*
X17707Y5125D01*
X17707D01*
X17708D01*
X17710Y5125D01*
X17713D01*
X17716Y5126D01*
X17719Y5126D01*
X17723Y5127D01*
X17727Y5128D01*
X17731Y5129D01*
X17736Y5130D01*
X17740Y5132D01*
X17745Y5135D01*
X17750Y5137D01*
X17754Y5140D01*
X17759Y5144D01*
X17763Y5148D01*
X17763Y5148D01*
X17764Y5149D01*
X17765Y5150D01*
X17767Y5152D01*
X17768Y5154D01*
X17770Y5157D01*
X17772Y5160D01*
X17774Y5163D01*
X17776Y5167D01*
X17778Y5171D01*
X17780Y5176D01*
X17782Y5181D01*
X17784Y5186D01*
X17785Y5192D01*
X17785Y5198D01*
X17785Y5204D01*
Y5207D01*
X17785Y5210D01*
X17785Y5212D01*
X17784Y5216D01*
X17784Y5219D01*
X17783Y5224D01*
X17782Y5228D01*
X17780Y5232D01*
X17778Y5237D01*
X17776Y5241D01*
X17774Y5246D01*
X17770Y5250D01*
X17767Y5255D01*
X17763Y5259D01*
X17763Y5259D01*
X17762Y5260D01*
X17761Y5261D01*
X17759Y5262D01*
X17757Y5264D01*
X17755Y5266D01*
X17752Y5268D01*
X17748Y5270D01*
X17744Y5272D01*
X17740Y5274D01*
X17736Y5276D01*
X17731Y5277D01*
X17726Y5279D01*
X17720Y5280D01*
X17715Y5280D01*
X17708Y5281D01*
D02*
G37*
G36*
X10842Y10522D02*
X10669D01*
X10842Y10402D01*
Y10522D01*
D02*
G37*
G36*
X10698Y10259D02*
X10698D01*
X10697D01*
X10696D01*
X10694Y10259D01*
X10692Y10258D01*
X10689Y10258D01*
X10686Y10257D01*
X10683Y10256D01*
X10679Y10255D01*
X10676Y10254D01*
X10672Y10253D01*
X10668Y10251D01*
X10664Y10248D01*
X10661Y10246D01*
X10657Y10243D01*
X10654Y10239D01*
X10654Y10239D01*
X10653Y10238D01*
X10652Y10237D01*
X10651Y10235D01*
X10650Y10233D01*
X10648Y10230D01*
X10647Y10227D01*
X10645Y10224D01*
X10643Y10220D01*
X10642Y10215D01*
X10640Y10210D01*
X10639Y10204D01*
X10638Y10198D01*
X10637Y10192D01*
X10636Y10184D01*
X10636Y10177D01*
Y10056D01*
X10763D01*
Y10170D01*
X10762Y10173D01*
Y10177D01*
X10762Y10180D01*
X10762Y10184D01*
X10761Y10193D01*
X10760Y10202D01*
X10758Y10211D01*
X10757Y10215D01*
X10756Y10219D01*
Y10219D01*
X10756Y10220D01*
X10755Y10221D01*
X10754Y10222D01*
X10754Y10224D01*
X10753Y10225D01*
X10750Y10230D01*
X10747Y10235D01*
X10743Y10240D01*
X10738Y10244D01*
X10733Y10249D01*
X10733D01*
X10732Y10249D01*
X10731Y10249D01*
X10730Y10250D01*
X10729Y10251D01*
X10727Y10252D01*
X10723Y10254D01*
X10718Y10256D01*
X10712Y10257D01*
X10705Y10258D01*
X10698Y10259D01*
D02*
G37*
G36*
X19139Y5644D02*
X19012D01*
Y5530D01*
X19013Y5527D01*
Y5523D01*
X19013Y5520D01*
X19013Y5516D01*
X19014Y5507D01*
X19015Y5498D01*
X19017Y5489D01*
X19018Y5485D01*
X19019Y5481D01*
Y5481D01*
X19019Y5480D01*
X19020Y5479D01*
X19021Y5478D01*
X19021Y5476D01*
X19022Y5475D01*
X19025Y5470D01*
X19028Y5465D01*
X19032Y5460D01*
X19037Y5456D01*
X19042Y5451D01*
X19042D01*
X19043Y5451D01*
X19044Y5451D01*
X19045Y5450D01*
X19046Y5449D01*
X19048Y5448D01*
X19052Y5446D01*
X19057Y5444D01*
X19063Y5443D01*
X19070Y5442D01*
X19077Y5441D01*
X19077D01*
X19078D01*
X19079D01*
X19081Y5441D01*
X19083Y5442D01*
X19086Y5442D01*
X19089Y5443D01*
X19092Y5444D01*
X19096Y5445D01*
X19099Y5446D01*
X19103Y5447D01*
X19107Y5449D01*
X19111Y5452D01*
X19114Y5454D01*
X19118Y5457D01*
X19121Y5461D01*
X19121Y5461D01*
X19122Y5462D01*
X19123Y5463D01*
X19124Y5465D01*
X19125Y5467D01*
X19127Y5470D01*
X19128Y5473D01*
X19130Y5476D01*
X19132Y5480D01*
X19133Y5485D01*
X19135Y5490D01*
X19136Y5496D01*
X19137Y5502D01*
X19138Y5508D01*
X19139Y5516D01*
X19139Y5523D01*
Y5644D01*
D02*
G37*
%LPD*%
M02*
