G04*
G04 #@! TF.GenerationSoftware,Altium Limited,Altium Designer,20.2.5 (213)*
G04*
G04 Layer_Color=16711935*
%FSLAX43Y43*%
%MOMM*%
G71*
G04*
G04 #@! TF.SameCoordinates,5171A944-556C-47A8-97AE-1EF1437A18D6*
G04*
G04*
G04 #@! TF.FilePolarity,Negative*
G04*
G01*
G75*
%ADD55C,1.877*%
%ADD56C,1.905*%
%ADD57C,2.227*%
%ADD58C,0.827*%
D55*
X36830Y35992D02*
D03*
Y38532D02*
D03*
Y41072D02*
D03*
Y43612D02*
D03*
Y46152D02*
D03*
Y33452D02*
D03*
Y30912D02*
D03*
Y28372D02*
D03*
D56*
X17983Y47701D02*
D03*
Y55321D02*
D03*
Y52781D02*
D03*
Y50241D02*
D03*
Y45161D02*
D03*
Y42621D02*
D03*
Y40081D02*
D03*
Y37541D02*
D03*
Y35001D02*
D03*
Y32461D02*
D03*
Y29921D02*
D03*
Y27381D02*
D03*
Y24841D02*
D03*
Y22301D02*
D03*
X33223Y55321D02*
D03*
Y52801D02*
D03*
Y50280D02*
D03*
Y47760D02*
D03*
Y45239D02*
D03*
Y42719D02*
D03*
Y40199D02*
D03*
Y37678D02*
D03*
Y35158D02*
D03*
Y32637D02*
D03*
Y30117D02*
D03*
Y27596D02*
D03*
Y25076D02*
D03*
Y22555D02*
D03*
D57*
X1505Y1500D02*
D03*
X38505D02*
D03*
Y58500D02*
D03*
X1505D02*
D03*
D58*
X24384Y32944D02*
D03*
X22911Y6121D02*
D03*
X28296Y9322D02*
D03*
X9906Y31217D02*
D03*
X23139Y32918D02*
D03*
X2353Y25492D02*
D03*
X30353Y12624D02*
D03*
M02*
