G04*
G04 #@! TF.GenerationSoftware,Altium Limited,Altium Designer,20.1.14 (287)*
G04*
G04 Layer_Color=32768*
%FSLAX43Y43*%
%MOMM*%
G71*
G04*
G04 #@! TF.SameCoordinates,2B19F274-0338-4189-8154-59E22298D11E*
G04*
G04*
G04 #@! TF.FilePolarity,Positive*
G04*
G01*
G75*
%ADD13C,0.200*%
%ADD68C,0.100*%
%ADD69C,0.050*%
D13*
X25391Y635D02*
X33487D01*
Y5994D01*
X25391D02*
X33487D01*
X25391Y635D02*
Y5994D01*
X29439Y2692D02*
Y3962D01*
X28804Y3327D02*
X30074D01*
X29235Y58572D02*
X30505D01*
X29870Y57937D02*
Y59207D01*
X25822Y55880D02*
Y61239D01*
X33918D01*
Y55880D02*
Y61239D01*
X25822Y55880D02*
X33918D01*
X39367Y38402D02*
Y44402D01*
X34967Y38402D02*
X39367D01*
X34967D02*
Y44402D01*
X39367D01*
X34367Y30717D02*
Y37813D01*
Y30717D02*
X39726D01*
Y37813D01*
X34367D02*
X39726D01*
X36424Y34265D02*
X37694D01*
X37059Y33630D02*
Y34900D01*
X29163Y52210D02*
X30433D01*
X29798Y51575D02*
Y52845D01*
X32846Y49543D02*
Y54902D01*
X26750Y49543D02*
X32846D01*
X26750D02*
Y54902D01*
X32846D01*
X34087Y22944D02*
Y30040D01*
Y22944D02*
X39446D01*
Y30040D01*
X34087D02*
X39446D01*
X36144Y26492D02*
X37414D01*
X36779Y25857D02*
Y27127D01*
X33884Y16239D02*
Y23335D01*
Y16239D02*
X39243D01*
Y23335D01*
X33884D02*
X39243D01*
X35941Y19787D02*
X37211D01*
X36576Y19152D02*
Y20422D01*
X37109Y47803D02*
Y49073D01*
X36474Y48438D02*
X37744D01*
X34417Y51486D02*
X39776D01*
Y45390D02*
Y51486D01*
X34417Y45390D02*
X39776D01*
X34417D02*
Y51486D01*
D68*
X8111Y4216D02*
X9111D01*
X8611Y3716D02*
Y4716D01*
X7300Y9675D02*
Y10625D01*
X6825Y10150D02*
X7775D01*
X9375Y13000D02*
Y13550D01*
X9100Y13275D02*
X9650D01*
X17983Y6510D02*
Y7510D01*
X17483Y7010D02*
X18483D01*
X5358Y15102D02*
X6358D01*
X5858Y14602D02*
Y15602D01*
X30767Y18415D02*
X31717D01*
X31242Y17940D02*
Y18890D01*
X33274Y36761D02*
Y37711D01*
X32799Y37236D02*
X33749D01*
X37617Y40742D02*
Y42062D01*
X36957Y41402D02*
X38277D01*
X2362Y10447D02*
Y11397D01*
X1887Y10922D02*
X2837D01*
X4200Y7165D02*
Y7685D01*
X3940Y7425D02*
X4460D01*
X35357Y53170D02*
Y54120D01*
X34882Y53645D02*
X35832D01*
X26152Y52212D02*
Y53162D01*
X25677Y52687D02*
X26627D01*
X28633Y18466D02*
X29583D01*
X29108Y17991D02*
Y18941D01*
X7400Y8415D02*
Y8935D01*
X7140Y8675D02*
X7660D01*
X2261Y12288D02*
Y12808D01*
X2001Y12548D02*
X2521D01*
X1887Y14224D02*
X2837D01*
X2362Y13749D02*
Y14699D01*
X17272Y9685D02*
Y10685D01*
X16772Y10185D02*
X17772D01*
X3995Y8556D02*
Y9506D01*
X3520Y9031D02*
X4470D01*
D69*
X6311Y5916D02*
X11111D01*
X6311Y2516D02*
Y5916D01*
Y2516D02*
X11111D01*
Y5916D01*
X5950Y9400D02*
X8650D01*
X5950Y10900D02*
X8650D01*
Y9400D02*
Y10900D01*
X5950Y9400D02*
Y10900D01*
X8925Y12375D02*
X9825D01*
X8925Y14175D02*
X9825D01*
X8925Y12375D02*
Y14175D01*
X9825Y12375D02*
Y14175D01*
X15733Y8110D02*
X20233D01*
X15733Y5910D02*
X20233D01*
X15733D02*
Y8110D01*
X20233Y5910D02*
Y8110D01*
X4158Y14152D02*
Y16052D01*
X7558Y14152D02*
Y16052D01*
X4158D02*
X7558D01*
X4158Y14152D02*
X7558D01*
X31842Y17315D02*
Y19515D01*
X30642Y17315D02*
Y19515D01*
X31842D01*
X30642Y17315D02*
X31842D01*
X32524Y35886D02*
X34024D01*
X32524Y38586D02*
X34024D01*
X32524Y35886D02*
Y38586D01*
X34024Y35886D02*
Y38586D01*
X13959Y6971D02*
Y12221D01*
X8709D02*
X13959D01*
X8709Y6971D02*
Y12221D01*
Y6971D02*
X13959D01*
X1012Y11672D02*
X3712D01*
X1012Y10172D02*
X3712D01*
X1012D02*
Y11672D01*
X3712Y10172D02*
Y11672D01*
X3250Y7925D02*
X5150D01*
X3250Y6925D02*
X5150D01*
X3250D02*
Y7925D01*
X5150Y6925D02*
Y7925D01*
X34757Y52545D02*
X35957D01*
X34757Y54745D02*
X35957D01*
X34757Y52545D02*
Y54745D01*
X35957Y52545D02*
Y54745D01*
X25402Y51337D02*
X26902D01*
X25402Y54037D02*
X26902D01*
X25402Y51337D02*
Y54037D01*
X26902Y51337D02*
Y54037D01*
X28358Y17116D02*
Y19816D01*
X29858Y17116D02*
Y19816D01*
X28358Y17116D02*
X29858D01*
X28358Y19816D02*
X29858D01*
X6450Y9175D02*
X8350D01*
X6450Y8175D02*
X8350Y8175D01*
X6450Y8175D02*
Y9175D01*
X8350Y8175D02*
Y9175D01*
X1311Y13048D02*
X3211D01*
X1311Y12048D02*
X3211D01*
X1311D02*
Y13048D01*
X3211Y12048D02*
Y13048D01*
X3712Y13474D02*
Y14974D01*
X1012Y13474D02*
Y14974D01*
Y13474D02*
X3712D01*
X1012Y14974D02*
X3712D01*
X15022Y11285D02*
X19522D01*
X15022Y9085D02*
X19522D01*
X15022D02*
Y11285D01*
X19522Y9085D02*
Y11285D01*
X2645Y8281D02*
X5345D01*
X2645Y9781D02*
X5345D01*
Y8281D02*
Y9781D01*
X2645Y8281D02*
Y9781D01*
M02*
