G04*
G04 #@! TF.GenerationSoftware,Altium Limited,Altium Designer,20.1.14 (287)*
G04*
G04 Layer_Color=8421504*
%FSLAX43Y43*%
%MOMM*%
G71*
G04*
G04 #@! TF.SameCoordinates,2B19F274-0338-4189-8154-59E22298D11E*
G04*
G04*
G04 #@! TF.FilePolarity,Positive*
G04*
G01*
G75*
%ADD15R,1.200X1.200*%
%ADD16R,1.500X1.600*%
%ADD17R,0.900X1.000*%
%ADD18R,1.600X2.800*%
%ADD19R,0.550X0.550*%
G04:AMPARAMS|DCode=20|XSize=0.55mm|YSize=0.5mm|CornerRadius=0.063mm|HoleSize=0mm|Usage=FLASHONLY|Rotation=90.000|XOffset=0mm|YOffset=0mm|HoleType=Round|Shape=RoundedRectangle|*
%AMROUNDEDRECTD20*
21,1,0.550,0.375,0,0,90.0*
21,1,0.425,0.500,0,0,90.0*
1,1,0.125,0.188,0.213*
1,1,0.125,0.188,-0.213*
1,1,0.125,-0.188,-0.213*
1,1,0.125,-0.188,0.213*
%
%ADD20ROUNDEDRECTD20*%
%ADD21R,1.200X1.650*%
%ADD22R,1.150X1.350*%
%ADD23R,0.850X0.750*%
%ADD24R,0.950X0.850*%
%ADD25R,2.550X2.550*%
%ADD26R,0.300X0.850*%
%ADD27R,0.850X0.300*%
%ADD28R,0.600X1.550*%
%ADD29R,1.200X1.800*%
%ADD30R,1.550X0.600*%
%ADD31R,1.800X1.200*%
%ADD32R,1.550X0.600*%
%ADD33R,1.800X1.200*%
%ADD34R,1.257X0.508*%
%ADD35R,0.600X0.640*%
%ADD36R,0.850X0.950*%
D15*
X7011Y5216D02*
D03*
Y3216D02*
D03*
D16*
X10261Y4216D02*
D03*
D17*
X7975Y10150D02*
D03*
X6625D02*
D03*
X1687Y10922D02*
D03*
X3037D02*
D03*
Y14224D02*
D03*
X1687D02*
D03*
D18*
X27762Y41513D02*
D03*
Y45813D02*
D03*
X26162Y8315D02*
D03*
Y12615D02*
D03*
D19*
X9375Y12825D02*
D03*
Y13725D02*
D03*
D20*
X13455Y4597D02*
D03*
X12555D02*
D03*
X7825Y11400D02*
D03*
X6925D02*
D03*
X15258Y5334D02*
D03*
X14358D02*
D03*
D21*
X16583Y7010D02*
D03*
X19383D02*
D03*
X15872Y10185D02*
D03*
X18672D02*
D03*
D22*
X4983Y15102D02*
D03*
X6733D02*
D03*
D23*
X31242Y19015D02*
D03*
Y17815D02*
D03*
X35357Y53045D02*
D03*
Y54245D02*
D03*
D24*
X33274Y36586D02*
D03*
Y37886D02*
D03*
X26152Y53337D02*
D03*
Y52037D02*
D03*
X29108Y17816D02*
D03*
Y19116D02*
D03*
D25*
X11334Y9596D02*
D03*
D26*
X12584Y7646D02*
D03*
X12084D02*
D03*
X11584D02*
D03*
X11084D02*
D03*
X10584D02*
D03*
X10084D02*
D03*
Y11546D02*
D03*
X10584D02*
D03*
X11084D02*
D03*
X11584D02*
D03*
X12084D02*
D03*
X12584D02*
D03*
D27*
X9384Y8346D02*
D03*
Y8846D02*
D03*
Y9346D02*
D03*
Y9846D02*
D03*
Y10346D02*
D03*
Y10846D02*
D03*
X13284D02*
D03*
Y10346D02*
D03*
Y9846D02*
D03*
Y9346D02*
D03*
Y8846D02*
D03*
Y8346D02*
D03*
D28*
X30939Y2065D02*
D03*
X28939D02*
D03*
X27939D02*
D03*
X29939D02*
D03*
X30370Y57310D02*
D03*
X28370D02*
D03*
X29370D02*
D03*
X31370D02*
D03*
X30298Y53473D02*
D03*
X29298D02*
D03*
D29*
X26639Y4590D02*
D03*
X32239D02*
D03*
X32670Y59835D02*
D03*
X27070D02*
D03*
X27998Y50948D02*
D03*
X31598D02*
D03*
D30*
X35842Y42402D02*
D03*
Y41402D02*
D03*
Y40402D02*
D03*
D31*
X38367Y43702D02*
D03*
Y39102D02*
D03*
D32*
X35796Y34265D02*
D03*
Y35265D02*
D03*
Y33265D02*
D03*
X35517Y26492D02*
D03*
Y27492D02*
D03*
Y25492D02*
D03*
X35314Y19787D02*
D03*
Y20787D02*
D03*
Y18787D02*
D03*
X35847Y48938D02*
D03*
Y47938D02*
D03*
D33*
X38321Y36565D02*
D03*
Y31965D02*
D03*
X38042Y28792D02*
D03*
Y24192D02*
D03*
X37838Y22087D02*
D03*
Y17487D02*
D03*
X38372Y46638D02*
D03*
Y50238D02*
D03*
D34*
X38392Y16053D02*
D03*
Y14783D02*
D03*
Y13513D02*
D03*
Y12243D02*
D03*
Y10973D02*
D03*
Y9703D02*
D03*
Y8433D02*
D03*
Y7163D02*
D03*
X33147D02*
D03*
Y8433D02*
D03*
Y9703D02*
D03*
Y10973D02*
D03*
Y12243D02*
D03*
Y13513D02*
D03*
Y14783D02*
D03*
Y16053D02*
D03*
D35*
X3760Y7425D02*
D03*
X4640D02*
D03*
X6960Y8675D02*
D03*
X7840D02*
D03*
X1821Y12548D02*
D03*
X2701D02*
D03*
D36*
X4645Y9031D02*
D03*
X3345D02*
D03*
M02*
