G04*
G04 #@! TF.GenerationSoftware,Altium Limited,Altium Designer,20.1.14 (287)*
G04*
G04 Layer_Color=16711935*
%FSLAX43Y43*%
%MOMM*%
G71*
G04*
G04 #@! TF.SameCoordinates,2B19F274-0338-4189-8154-59E22298D11E*
G04*
G04*
G04 #@! TF.FilePolarity,Positive*
G04*
G01*
G75*
%ADD68C,0.100*%
D68*
X7061Y5716D02*
X10161D01*
Y2716D02*
Y5716D01*
X7061Y2716D02*
X10161D01*
X7061D02*
Y5716D01*
X6425Y9675D02*
X8175D01*
X6425Y10625D02*
X8175D01*
Y9675D02*
Y10625D01*
X6425Y9675D02*
Y10625D01*
X9100Y12750D02*
X9650D01*
X9100Y13800D02*
X9650D01*
X9100Y12750D02*
Y13800D01*
X9650Y12750D02*
Y13800D01*
X16358Y7835D02*
X19608D01*
X16358Y6185D02*
X19608D01*
X16358D02*
Y7835D01*
X19608Y6185D02*
Y7835D01*
X4758Y14427D02*
Y15777D01*
X6958Y14427D02*
Y15777D01*
X4758D02*
X6958D01*
X4758Y14427D02*
X6958D01*
X31717Y17540D02*
Y19290D01*
X30767Y17540D02*
Y19290D01*
X31717D01*
X30767Y17540D02*
X31717D01*
X32799Y36361D02*
X33749D01*
X32799Y38111D02*
X33749D01*
X32799Y36361D02*
Y38111D01*
X33749Y36361D02*
Y38111D01*
X12834Y7596D02*
X13334Y8096D01*
Y7596D02*
Y11596D01*
X9334D02*
X13334D01*
X9334Y7596D02*
Y11596D01*
Y7596D02*
X13334D01*
X1487Y11397D02*
X3237D01*
X1487Y10447D02*
X3237D01*
X1487D02*
Y11397D01*
X3237Y10447D02*
Y11397D01*
X3685Y7685D02*
X4715D01*
X3685Y7165D02*
X4715D01*
X3685D02*
Y7685D01*
X4715Y7165D02*
Y7685D01*
X34882Y52770D02*
X35832D01*
X34882Y54520D02*
X35832D01*
X34882Y52770D02*
Y54520D01*
X35832Y52770D02*
Y54520D01*
X25677Y51812D02*
X26627D01*
X25677Y53562D02*
X26627D01*
X25677Y51812D02*
Y53562D01*
X26627Y51812D02*
Y53562D01*
X28633Y17591D02*
Y19341D01*
X29583Y17591D02*
Y19341D01*
X28633Y17591D02*
X29583D01*
X28633Y19341D02*
X29583D01*
X6885Y8935D02*
X7915D01*
X6885Y8415D02*
X7915D01*
X6885D02*
Y8935D01*
X7915Y8415D02*
Y8935D01*
X1746Y12808D02*
X2776D01*
X1746Y12288D02*
X2776D01*
X1746D02*
Y12808D01*
X2776Y12288D02*
Y12808D01*
X3237Y13749D02*
Y14699D01*
X1487Y13749D02*
Y14699D01*
Y13749D02*
X3237D01*
X1487Y14699D02*
X3237D01*
X15647Y11010D02*
X18897D01*
X15647Y9360D02*
X18897D01*
X15647D02*
Y11010D01*
X18897Y9360D02*
Y11010D01*
X3120Y8556D02*
X4870D01*
X3120Y9506D02*
X4870D01*
Y8556D02*
Y9506D01*
X3120Y8556D02*
Y9506D01*
M02*
