G04*
G04 #@! TF.GenerationSoftware,Altium Limited,Altium Designer,20.1.14 (287)*
G04*
G04 Layer_Color=32768*
%FSLAX43Y43*%
%MOMM*%
G71*
G04*
G04 #@! TF.SameCoordinates,2B19F274-0338-4189-8154-59E22298D11E*
G04*
G04*
G04 #@! TF.FilePolarity,Positive*
G04*
G01*
G75*
G36*
X11913Y4853D02*
X11917D01*
X11922Y4853D01*
X11927Y4853D01*
X11934Y4852D01*
X11940Y4852D01*
X11946Y4851D01*
X11959Y4849D01*
X11965Y4848D01*
X11971Y4847D01*
X11977Y4845D01*
X11982Y4843D01*
X11983D01*
X11983Y4843D01*
X11985Y4842D01*
X11987Y4841D01*
X11989Y4840D01*
X11991Y4838D01*
X11994Y4837D01*
X11998Y4835D01*
X12001Y4832D01*
X12004Y4830D01*
X12008Y4827D01*
X12012Y4823D01*
X12015Y4820D01*
X12019Y4816D01*
X12022Y4811D01*
X12025Y4807D01*
X12025Y4806D01*
X12026Y4805D01*
X12026Y4804D01*
X12027Y4802D01*
X12029Y4800D01*
X12030Y4797D01*
X12032Y4793D01*
X12033Y4790D01*
X12034Y4785D01*
X12036Y4781D01*
X12037Y4776D01*
X12039Y4771D01*
X12040Y4766D01*
X12040Y4761D01*
X12041Y4755D01*
X12041Y4749D01*
Y4748D01*
Y4747D01*
X12041Y4745D01*
Y4742D01*
X12040Y4739D01*
X12040Y4735D01*
X12039Y4730D01*
X12038Y4725D01*
X12036Y4720D01*
X12035Y4714D01*
X12032Y4708D01*
X12030Y4703D01*
X12027Y4697D01*
X12023Y4691D01*
X12019Y4686D01*
X12014Y4680D01*
X12014Y4680D01*
X12013Y4679D01*
X12012Y4678D01*
X12009Y4676D01*
X12007Y4674D01*
X12003Y4671D01*
X11999Y4668D01*
X11994Y4665D01*
X11989Y4662D01*
X11983Y4659D01*
X11976Y4656D01*
X11969Y4653D01*
X11961Y4651D01*
X11952Y4648D01*
X11943Y4646D01*
X11933Y4645D01*
X11933D01*
X11934Y4644D01*
X11935Y4644D01*
X11936Y4643D01*
X11938Y4642D01*
X11940Y4641D01*
X11944Y4639D01*
X11949Y4636D01*
X11954Y4633D01*
X11959Y4629D01*
X11963Y4626D01*
X11964Y4625D01*
X11965Y4625D01*
X11966Y4623D01*
X11967Y4622D01*
X11969Y4620D01*
X11972Y4618D01*
X11974Y4615D01*
X11977Y4612D01*
X11980Y4608D01*
X11983Y4604D01*
X11987Y4600D01*
X11991Y4596D01*
X11994Y4591D01*
X11998Y4586D01*
X12006Y4575D01*
X12072Y4470D01*
X12008D01*
X11958Y4550D01*
X11957Y4550D01*
X11957Y4552D01*
X11955Y4553D01*
X11954Y4556D01*
X11952Y4559D01*
X11950Y4562D01*
X11947Y4566D01*
X11945Y4570D01*
X11939Y4578D01*
X11933Y4587D01*
X11927Y4595D01*
X11924Y4599D01*
X11921Y4603D01*
X11921Y4603D01*
X11921Y4604D01*
X11920Y4604D01*
X11919Y4606D01*
X11916Y4609D01*
X11913Y4613D01*
X11908Y4617D01*
X11904Y4622D01*
X11900Y4625D01*
X11895Y4628D01*
X11895Y4629D01*
X11893Y4630D01*
X11891Y4631D01*
X11888Y4632D01*
X11885Y4634D01*
X11881Y4636D01*
X11877Y4637D01*
X11872Y4639D01*
X11872D01*
X11871Y4639D01*
X11869Y4639D01*
X11866Y4640D01*
X11862Y4640D01*
X11857Y4640D01*
X11851Y4641D01*
X11785D01*
Y4470D01*
X11735D01*
Y4854D01*
X11910D01*
X11913Y4853D01*
D02*
G37*
G36*
X12231Y4855D02*
X12235Y4854D01*
X12239Y4854D01*
X12244Y4853D01*
X12249Y4852D01*
X12255Y4851D01*
X12261Y4850D01*
X12268Y4848D01*
X12275Y4846D01*
X12281Y4843D01*
X12288Y4839D01*
X12295Y4835D01*
X12301Y4831D01*
X12307Y4826D01*
X12307Y4825D01*
X12308Y4824D01*
X12310Y4823D01*
X12311Y4820D01*
X12314Y4818D01*
X12316Y4814D01*
X12319Y4810D01*
X12322Y4806D01*
X12325Y4801D01*
X12328Y4795D01*
X12330Y4790D01*
X12333Y4784D01*
X12335Y4777D01*
X12336Y4770D01*
X12337Y4762D01*
X12338Y4755D01*
Y4754D01*
Y4754D01*
Y4752D01*
X12337Y4750D01*
X12337Y4748D01*
X12337Y4745D01*
X12336Y4742D01*
X12336Y4739D01*
X12334Y4732D01*
X12332Y4724D01*
X12330Y4720D01*
X12328Y4716D01*
X12326Y4712D01*
X12323Y4708D01*
X12323Y4708D01*
X12323Y4708D01*
X12322Y4707D01*
X12321Y4705D01*
X12319Y4704D01*
X12317Y4702D01*
X12315Y4700D01*
X12313Y4697D01*
X12310Y4695D01*
X12307Y4692D01*
X12303Y4690D01*
X12300Y4687D01*
X12295Y4685D01*
X12291Y4682D01*
X12286Y4680D01*
X12281Y4678D01*
X12281D01*
X12282Y4677D01*
X12284Y4677D01*
X12287Y4676D01*
X12290Y4675D01*
X12293Y4673D01*
X12297Y4671D01*
X12301Y4669D01*
X12305Y4667D01*
X12310Y4664D01*
X12314Y4661D01*
X12318Y4658D01*
X12323Y4654D01*
X12327Y4650D01*
X12331Y4646D01*
X12335Y4641D01*
X12335Y4641D01*
X12336Y4640D01*
X12336Y4638D01*
X12338Y4637D01*
X12339Y4634D01*
X12341Y4631D01*
X12342Y4628D01*
X12344Y4624D01*
X12346Y4619D01*
X12347Y4615D01*
X12349Y4610D01*
X12351Y4604D01*
X12352Y4599D01*
X12352Y4593D01*
X12353Y4586D01*
X12353Y4580D01*
Y4579D01*
Y4578D01*
X12353Y4575D01*
X12353Y4571D01*
X12352Y4567D01*
X12351Y4563D01*
X12350Y4557D01*
X12349Y4551D01*
X12347Y4545D01*
X12345Y4538D01*
X12342Y4531D01*
X12339Y4524D01*
X12334Y4517D01*
X12330Y4511D01*
X12325Y4504D01*
X12318Y4497D01*
X12318Y4497D01*
X12317Y4496D01*
X12315Y4494D01*
X12312Y4492D01*
X12309Y4490D01*
X12304Y4487D01*
X12300Y4484D01*
X12294Y4481D01*
X12288Y4478D01*
X12281Y4475D01*
X12273Y4472D01*
X12265Y4469D01*
X12256Y4467D01*
X12247Y4465D01*
X12237Y4464D01*
X12227Y4464D01*
X12225D01*
X12222Y4464D01*
X12218Y4465D01*
X12213Y4465D01*
X12207Y4466D01*
X12201Y4467D01*
X12194Y4468D01*
X12187Y4470D01*
X12180Y4472D01*
X12172Y4475D01*
X12164Y4478D01*
X12157Y4482D01*
X12149Y4486D01*
X12142Y4492D01*
X12135Y4498D01*
X12135Y4498D01*
X12134Y4499D01*
X12132Y4501D01*
X12130Y4504D01*
X12127Y4507D01*
X12124Y4511D01*
X12121Y4515D01*
X12118Y4521D01*
X12115Y4526D01*
X12112Y4533D01*
X12109Y4540D01*
X12106Y4547D01*
X12104Y4555D01*
X12102Y4563D01*
X12101Y4572D01*
X12101Y4581D01*
Y4582D01*
Y4583D01*
Y4585D01*
X12101Y4588D01*
X12101Y4591D01*
X12102Y4594D01*
X12102Y4599D01*
X12103Y4603D01*
X12104Y4608D01*
X12106Y4613D01*
X12107Y4618D01*
X12109Y4623D01*
X12111Y4628D01*
X12114Y4634D01*
X12116Y4639D01*
X12120Y4644D01*
X12120Y4644D01*
X12120Y4645D01*
X12122Y4646D01*
X12123Y4648D01*
X12125Y4650D01*
X12128Y4652D01*
X12130Y4655D01*
X12133Y4658D01*
X12137Y4660D01*
X12141Y4663D01*
X12146Y4666D01*
X12151Y4669D01*
X12156Y4671D01*
X12161Y4674D01*
X12168Y4676D01*
X12174Y4678D01*
X12174D01*
X12173Y4679D01*
X12171Y4679D01*
X12169Y4680D01*
X12167Y4681D01*
X12164Y4682D01*
X12161Y4684D01*
X12158Y4686D01*
X12150Y4690D01*
X12143Y4695D01*
X12136Y4702D01*
X12133Y4705D01*
X12130Y4708D01*
X12130Y4709D01*
X12130Y4709D01*
X12129Y4710D01*
X12128Y4712D01*
X12127Y4714D01*
X12126Y4716D01*
X12125Y4719D01*
X12124Y4722D01*
X12122Y4725D01*
X12121Y4729D01*
X12120Y4733D01*
X12119Y4737D01*
X12117Y4746D01*
X12117Y4751D01*
X12116Y4756D01*
Y4757D01*
Y4758D01*
X12117Y4760D01*
X12117Y4763D01*
X12117Y4767D01*
X12118Y4771D01*
X12119Y4775D01*
X12120Y4780D01*
X12122Y4786D01*
X12124Y4792D01*
X12126Y4797D01*
X12129Y4803D01*
X12132Y4809D01*
X12136Y4815D01*
X12141Y4821D01*
X12146Y4826D01*
X12146Y4827D01*
X12148Y4828D01*
X12149Y4829D01*
X12152Y4831D01*
X12155Y4833D01*
X12158Y4836D01*
X12163Y4838D01*
X12168Y4841D01*
X12173Y4843D01*
X12179Y4846D01*
X12186Y4848D01*
X12193Y4851D01*
X12200Y4852D01*
X12209Y4854D01*
X12217Y4855D01*
X12226Y4855D01*
X12228D01*
X12231Y4855D01*
D02*
G37*
G36*
X6670Y11408D02*
X6721D01*
Y11365D01*
X6670D01*
Y11273D01*
X6622D01*
Y11365D01*
X6456D01*
Y11408D01*
X6631Y11656D01*
X6670D01*
Y11408D01*
D02*
G37*
G36*
X6283Y11656D02*
X6287D01*
X6292Y11656D01*
X6298Y11655D01*
X6304Y11655D01*
X6310Y11654D01*
X6316Y11654D01*
X6329Y11652D01*
X6335Y11651D01*
X6341Y11649D01*
X6347Y11648D01*
X6353Y11646D01*
X6353D01*
X6354Y11645D01*
X6355Y11645D01*
X6357Y11644D01*
X6359Y11643D01*
X6362Y11641D01*
X6365Y11639D01*
X6368Y11637D01*
X6371Y11635D01*
X6375Y11632D01*
X6378Y11629D01*
X6382Y11626D01*
X6385Y11622D01*
X6389Y11618D01*
X6392Y11614D01*
X6395Y11609D01*
X6395Y11609D01*
X6396Y11608D01*
X6397Y11607D01*
X6398Y11605D01*
X6399Y11602D01*
X6400Y11599D01*
X6402Y11596D01*
X6403Y11592D01*
X6405Y11588D01*
X6406Y11584D01*
X6408Y11579D01*
X6409Y11574D01*
X6410Y11569D01*
X6411Y11563D01*
X6411Y11557D01*
X6411Y11552D01*
Y11551D01*
Y11550D01*
X6411Y11548D01*
Y11545D01*
X6410Y11541D01*
X6410Y11537D01*
X6409Y11533D01*
X6408Y11528D01*
X6406Y11522D01*
X6405Y11517D01*
X6403Y11511D01*
X6400Y11505D01*
X6397Y11499D01*
X6393Y11494D01*
X6389Y11488D01*
X6385Y11483D01*
X6384Y11483D01*
X6384Y11482D01*
X6382Y11480D01*
X6380Y11478D01*
X6377Y11476D01*
X6373Y11474D01*
X6369Y11471D01*
X6365Y11468D01*
X6359Y11465D01*
X6353Y11462D01*
X6346Y11459D01*
X6339Y11456D01*
X6331Y11454D01*
X6323Y11451D01*
X6313Y11449D01*
X6303Y11447D01*
X6304D01*
X6304Y11447D01*
X6305Y11447D01*
X6307Y11446D01*
X6308Y11445D01*
X6310Y11444D01*
X6315Y11441D01*
X6320Y11439D01*
X6325Y11435D01*
X6329Y11432D01*
X6334Y11428D01*
X6334Y11428D01*
X6335Y11427D01*
X6336Y11426D01*
X6338Y11425D01*
X6339Y11422D01*
X6342Y11420D01*
X6344Y11418D01*
X6347Y11414D01*
X6350Y11411D01*
X6354Y11407D01*
X6357Y11403D01*
X6361Y11398D01*
X6364Y11393D01*
X6368Y11388D01*
X6376Y11377D01*
X6442Y11273D01*
X6379D01*
X6328Y11353D01*
X6328Y11353D01*
X6327Y11354D01*
X6326Y11356D01*
X6324Y11358D01*
X6322Y11361D01*
X6320Y11365D01*
X6318Y11368D01*
X6315Y11372D01*
X6309Y11381D01*
X6303Y11390D01*
X6297Y11398D01*
X6294Y11402D01*
X6291Y11405D01*
X6291Y11406D01*
X6291Y11406D01*
X6290Y11407D01*
X6289Y11408D01*
X6286Y11412D01*
X6283Y11416D01*
X6279Y11420D01*
X6274Y11424D01*
X6270Y11428D01*
X6266Y11431D01*
X6265Y11431D01*
X6264Y11432D01*
X6261Y11434D01*
X6258Y11435D01*
X6255Y11437D01*
X6251Y11439D01*
X6247Y11440D01*
X6243Y11441D01*
X6242D01*
X6241Y11442D01*
X6239Y11442D01*
X6236Y11442D01*
X6232Y11443D01*
X6227Y11443D01*
X6221Y11443D01*
X6156D01*
Y11273D01*
X6105D01*
Y11656D01*
X6280D01*
X6283Y11656D01*
D02*
G37*
G36*
X14156Y5549D02*
X14156Y5548D01*
X14154Y5547D01*
X14152Y5544D01*
X14150Y5541D01*
X14146Y5538D01*
X14142Y5533D01*
X14138Y5527D01*
X14133Y5521D01*
X14128Y5514D01*
X14122Y5506D01*
X14116Y5498D01*
X14110Y5489D01*
X14103Y5479D01*
X14097Y5468D01*
X14090Y5457D01*
X14083Y5445D01*
Y5445D01*
X14083Y5444D01*
X14083Y5443D01*
X14082Y5442D01*
X14081Y5441D01*
X14080Y5439D01*
X14079Y5437D01*
X14078Y5434D01*
X14076Y5431D01*
X14074Y5428D01*
X14071Y5421D01*
X14067Y5413D01*
X14063Y5404D01*
X14058Y5395D01*
X14054Y5384D01*
X14049Y5373D01*
X14045Y5362D01*
X14040Y5350D01*
X14036Y5338D01*
X14032Y5325D01*
X14028Y5312D01*
X14028Y5312D01*
X14027Y5310D01*
X14027Y5307D01*
X14026Y5304D01*
X14025Y5299D01*
X14023Y5294D01*
X14022Y5288D01*
X14020Y5281D01*
X14019Y5273D01*
X14017Y5265D01*
X14016Y5257D01*
X14014Y5247D01*
X14013Y5238D01*
X14012Y5228D01*
X14011Y5218D01*
X14010Y5207D01*
X13962D01*
Y5208D01*
Y5209D01*
X13962Y5212D01*
Y5215D01*
X13962Y5219D01*
X13963Y5225D01*
X13963Y5231D01*
X13964Y5237D01*
X13965Y5245D01*
X13966Y5254D01*
X13967Y5262D01*
X13969Y5272D01*
X13971Y5282D01*
X13973Y5293D01*
X13976Y5304D01*
X13979Y5316D01*
Y5316D01*
X13979Y5317D01*
X13980Y5318D01*
X13980Y5319D01*
X13980Y5321D01*
X13981Y5322D01*
X13981Y5325D01*
X13982Y5327D01*
X13984Y5333D01*
X13986Y5340D01*
X13989Y5347D01*
X13991Y5356D01*
X13995Y5365D01*
X13998Y5374D01*
X14002Y5385D01*
X14007Y5395D01*
X14011Y5406D01*
X14017Y5417D01*
X14022Y5428D01*
X14028Y5440D01*
Y5440D01*
X14028Y5440D01*
X14029Y5441D01*
X14029Y5442D01*
X14030Y5444D01*
X14031Y5445D01*
X14033Y5450D01*
X14036Y5455D01*
X14040Y5461D01*
X14044Y5467D01*
X14048Y5474D01*
X14053Y5482D01*
X14058Y5490D01*
X14064Y5499D01*
X14070Y5507D01*
X14082Y5524D01*
X14089Y5532D01*
X14096Y5540D01*
X13908D01*
Y5585D01*
X14156D01*
Y5549D01*
D02*
G37*
G36*
X13716Y5590D02*
X13721D01*
X13726Y5590D01*
X13731Y5589D01*
X13737Y5589D01*
X13743Y5588D01*
X13749Y5588D01*
X13762Y5586D01*
X13769Y5585D01*
X13775Y5583D01*
X13780Y5582D01*
X13786Y5580D01*
X13786D01*
X13787Y5579D01*
X13788Y5579D01*
X13790Y5578D01*
X13792Y5577D01*
X13795Y5575D01*
X13798Y5573D01*
X13801Y5571D01*
X13804Y5569D01*
X13808Y5566D01*
X13811Y5563D01*
X13815Y5560D01*
X13818Y5556D01*
X13822Y5552D01*
X13825Y5548D01*
X13828Y5543D01*
X13829Y5543D01*
X13829Y5542D01*
X13830Y5541D01*
X13831Y5539D01*
X13832Y5536D01*
X13833Y5533D01*
X13835Y5530D01*
X13836Y5526D01*
X13838Y5522D01*
X13839Y5518D01*
X13841Y5513D01*
X13842Y5508D01*
X13843Y5503D01*
X13844Y5497D01*
X13844Y5491D01*
X13844Y5486D01*
Y5485D01*
Y5484D01*
X13844Y5482D01*
Y5479D01*
X13844Y5475D01*
X13843Y5471D01*
X13842Y5467D01*
X13841Y5462D01*
X13840Y5456D01*
X13838Y5451D01*
X13836Y5445D01*
X13833Y5439D01*
X13830Y5433D01*
X13827Y5428D01*
X13823Y5422D01*
X13818Y5417D01*
X13818Y5417D01*
X13817Y5416D01*
X13815Y5414D01*
X13813Y5412D01*
X13810Y5410D01*
X13806Y5408D01*
X13803Y5405D01*
X13798Y5402D01*
X13792Y5399D01*
X13787Y5396D01*
X13780Y5393D01*
X13772Y5390D01*
X13764Y5388D01*
X13756Y5385D01*
X13746Y5383D01*
X13736Y5381D01*
X13737D01*
X13737Y5381D01*
X13738Y5381D01*
X13740Y5380D01*
X13741Y5379D01*
X13743Y5378D01*
X13748Y5375D01*
X13753Y5373D01*
X13758Y5369D01*
X13762Y5366D01*
X13767Y5362D01*
X13767Y5362D01*
X13768Y5361D01*
X13769Y5360D01*
X13771Y5359D01*
X13773Y5357D01*
X13775Y5354D01*
X13778Y5352D01*
X13780Y5348D01*
X13783Y5345D01*
X13787Y5341D01*
X13790Y5337D01*
X13794Y5332D01*
X13798Y5327D01*
X13801Y5322D01*
X13809Y5311D01*
X13875Y5207D01*
X13812D01*
X13761Y5287D01*
X13761Y5287D01*
X13760Y5288D01*
X13759Y5290D01*
X13757Y5292D01*
X13756Y5295D01*
X13753Y5299D01*
X13751Y5302D01*
X13748Y5306D01*
X13743Y5315D01*
X13736Y5324D01*
X13730Y5332D01*
X13727Y5336D01*
X13725Y5339D01*
X13724Y5340D01*
X13724Y5340D01*
X13723Y5341D01*
X13722Y5342D01*
X13719Y5346D01*
X13716Y5350D01*
X13712Y5354D01*
X13708Y5358D01*
X13703Y5362D01*
X13699Y5365D01*
X13698Y5365D01*
X13697Y5366D01*
X13695Y5368D01*
X13692Y5369D01*
X13688Y5371D01*
X13684Y5373D01*
X13680Y5374D01*
X13676Y5375D01*
X13676D01*
X13674Y5376D01*
X13672Y5376D01*
X13669Y5376D01*
X13665Y5377D01*
X13660Y5377D01*
X13654Y5377D01*
X13589D01*
Y5207D01*
X13538D01*
Y5590D01*
X13713D01*
X13716Y5590D01*
D02*
G37*
%LPC*%
G36*
X11906Y4811D02*
X11785D01*
Y4685D01*
X11900D01*
X11903Y4685D01*
X11906D01*
X11910Y4685D01*
X11914Y4686D01*
X11923Y4686D01*
X11932Y4688D01*
X11941Y4689D01*
X11945Y4690D01*
X11949Y4692D01*
X11949D01*
X11949Y4692D01*
X11950Y4692D01*
X11952Y4693D01*
X11954Y4694D01*
X11955Y4695D01*
X11960Y4697D01*
X11965Y4700D01*
X11970Y4704D01*
X11974Y4709D01*
X11978Y4715D01*
Y4715D01*
X11979Y4715D01*
X11979Y4716D01*
X11980Y4717D01*
X11981Y4719D01*
X11982Y4721D01*
X11984Y4725D01*
X11985Y4730D01*
X11987Y4736D01*
X11988Y4742D01*
X11989Y4749D01*
Y4749D01*
Y4750D01*
Y4751D01*
X11988Y4753D01*
X11988Y4756D01*
X11988Y4758D01*
X11987Y4761D01*
X11986Y4765D01*
X11985Y4768D01*
X11984Y4772D01*
X11982Y4775D01*
X11980Y4779D01*
X11978Y4783D01*
X11975Y4787D01*
X11972Y4790D01*
X11969Y4793D01*
X11968Y4794D01*
X11968Y4794D01*
X11967Y4795D01*
X11965Y4796D01*
X11963Y4798D01*
X11960Y4799D01*
X11957Y4801D01*
X11954Y4802D01*
X11950Y4804D01*
X11945Y4806D01*
X11940Y4807D01*
X11934Y4808D01*
X11928Y4810D01*
X11921Y4810D01*
X11914Y4811D01*
X11906Y4811D01*
D02*
G37*
G36*
X12227Y4816D02*
X12224D01*
X12222Y4816D01*
X12220Y4816D01*
X12217Y4815D01*
X12214Y4815D01*
X12211Y4814D01*
X12204Y4812D01*
X12200Y4811D01*
X12197Y4809D01*
X12193Y4807D01*
X12189Y4805D01*
X12186Y4802D01*
X12182Y4799D01*
X12182Y4798D01*
X12181Y4798D01*
X12181Y4797D01*
X12179Y4796D01*
X12178Y4794D01*
X12177Y4792D01*
X12175Y4790D01*
X12174Y4787D01*
X12172Y4784D01*
X12170Y4781D01*
X12168Y4774D01*
X12166Y4771D01*
X12166Y4766D01*
X12165Y4762D01*
X12165Y4758D01*
Y4758D01*
Y4757D01*
Y4755D01*
X12165Y4753D01*
X12165Y4751D01*
X12166Y4748D01*
X12166Y4745D01*
X12167Y4742D01*
X12169Y4735D01*
X12170Y4731D01*
X12172Y4728D01*
X12174Y4724D01*
X12176Y4720D01*
X12179Y4717D01*
X12182Y4713D01*
X12182Y4713D01*
X12183Y4713D01*
X12184Y4712D01*
X12185Y4711D01*
X12187Y4710D01*
X12189Y4708D01*
X12191Y4707D01*
X12194Y4705D01*
X12197Y4703D01*
X12201Y4702D01*
X12204Y4700D01*
X12209Y4699D01*
X12213Y4698D01*
X12217Y4697D01*
X12222Y4697D01*
X12227Y4696D01*
X12230D01*
X12232Y4697D01*
X12234Y4697D01*
X12237Y4697D01*
X12240Y4698D01*
X12243Y4699D01*
X12250Y4700D01*
X12254Y4702D01*
X12258Y4704D01*
X12261Y4705D01*
X12265Y4708D01*
X12268Y4710D01*
X12272Y4713D01*
X12272Y4713D01*
X12272Y4714D01*
X12273Y4715D01*
X12274Y4716D01*
X12276Y4718D01*
X12277Y4720D01*
X12279Y4722D01*
X12280Y4725D01*
X12282Y4728D01*
X12284Y4731D01*
X12286Y4738D01*
X12287Y4742D01*
X12288Y4746D01*
X12289Y4751D01*
X12289Y4755D01*
Y4755D01*
Y4756D01*
Y4758D01*
X12289Y4759D01*
X12289Y4762D01*
X12288Y4764D01*
X12288Y4767D01*
X12287Y4770D01*
X12285Y4777D01*
X12283Y4780D01*
X12282Y4784D01*
X12279Y4788D01*
X12277Y4792D01*
X12274Y4795D01*
X12271Y4798D01*
X12271Y4799D01*
X12270Y4799D01*
X12269Y4800D01*
X12268Y4801D01*
X12266Y4803D01*
X12264Y4804D01*
X12262Y4806D01*
X12259Y4807D01*
X12256Y4809D01*
X12253Y4811D01*
X12249Y4812D01*
X12245Y4813D01*
X12241Y4815D01*
X12236Y4815D01*
X12232Y4816D01*
X12227Y4816D01*
D02*
G37*
G36*
X12226Y4658D02*
X12222D01*
X12220Y4658D01*
X12217Y4657D01*
X12214Y4657D01*
X12210Y4656D01*
X12206Y4655D01*
X12202Y4654D01*
X12198Y4653D01*
X12193Y4651D01*
X12189Y4648D01*
X12184Y4646D01*
X12179Y4643D01*
X12175Y4640D01*
X12171Y4636D01*
X12171Y4635D01*
X12170Y4635D01*
X12169Y4633D01*
X12168Y4632D01*
X12166Y4630D01*
X12164Y4627D01*
X12162Y4624D01*
X12160Y4621D01*
X12158Y4617D01*
X12156Y4613D01*
X12154Y4608D01*
X12153Y4603D01*
X12151Y4598D01*
X12150Y4593D01*
X12150Y4587D01*
X12149Y4581D01*
Y4581D01*
Y4580D01*
Y4579D01*
X12150Y4578D01*
Y4576D01*
X12150Y4574D01*
X12150Y4571D01*
X12150Y4569D01*
X12151Y4563D01*
X12153Y4556D01*
X12156Y4549D01*
X12159Y4542D01*
Y4542D01*
X12159Y4541D01*
X12160Y4540D01*
X12160Y4539D01*
X12161Y4537D01*
X12163Y4536D01*
X12166Y4531D01*
X12170Y4527D01*
X12174Y4522D01*
X12180Y4517D01*
X12187Y4513D01*
X12187D01*
X12188Y4512D01*
X12189Y4512D01*
X12190Y4511D01*
X12192Y4511D01*
X12194Y4510D01*
X12196Y4509D01*
X12199Y4508D01*
X12205Y4506D01*
X12212Y4504D01*
X12219Y4503D01*
X12227Y4503D01*
X12229D01*
X12231Y4503D01*
X12233D01*
X12236Y4503D01*
X12239Y4504D01*
X12243Y4505D01*
X12247Y4506D01*
X12251Y4507D01*
X12256Y4508D01*
X12260Y4510D01*
X12265Y4512D01*
X12270Y4514D01*
X12274Y4517D01*
X12279Y4521D01*
X12283Y4524D01*
X12283Y4525D01*
X12284Y4525D01*
X12285Y4527D01*
X12286Y4528D01*
X12288Y4530D01*
X12290Y4533D01*
X12292Y4536D01*
X12294Y4539D01*
X12296Y4543D01*
X12298Y4547D01*
X12300Y4552D01*
X12302Y4557D01*
X12303Y4562D01*
X12304Y4568D01*
X12305Y4573D01*
X12305Y4579D01*
Y4580D01*
Y4581D01*
X12305Y4583D01*
Y4585D01*
X12304Y4588D01*
X12304Y4591D01*
X12303Y4595D01*
X12302Y4599D01*
X12301Y4604D01*
X12299Y4608D01*
X12297Y4613D01*
X12295Y4617D01*
X12293Y4622D01*
X12290Y4627D01*
X12286Y4631D01*
X12282Y4635D01*
X12282Y4636D01*
X12281Y4637D01*
X12280Y4638D01*
X12278Y4639D01*
X12276Y4641D01*
X12273Y4643D01*
X12270Y4645D01*
X12267Y4647D01*
X12263Y4649D01*
X12259Y4651D01*
X12254Y4653D01*
X12249Y4654D01*
X12244Y4656D01*
X12238Y4657D01*
X12232Y4658D01*
X12226Y4658D01*
D02*
G37*
G36*
X6622Y11581D02*
X6502Y11408D01*
X6622D01*
Y11581D01*
D02*
G37*
G36*
X6277Y11614D02*
X6156D01*
Y11487D01*
X6270D01*
X6273Y11488D01*
X6277D01*
X6280Y11488D01*
X6284Y11488D01*
X6293Y11489D01*
X6302Y11490D01*
X6311Y11492D01*
X6315Y11493D01*
X6319Y11494D01*
X6319D01*
X6320Y11494D01*
X6321Y11495D01*
X6322Y11496D01*
X6324Y11496D01*
X6325Y11497D01*
X6330Y11500D01*
X6335Y11503D01*
X6340Y11507D01*
X6344Y11512D01*
X6349Y11517D01*
Y11517D01*
X6349Y11518D01*
X6349Y11519D01*
X6350Y11520D01*
X6351Y11521D01*
X6352Y11523D01*
X6354Y11527D01*
X6356Y11532D01*
X6357Y11538D01*
X6358Y11545D01*
X6359Y11552D01*
Y11552D01*
Y11553D01*
Y11554D01*
X6359Y11556D01*
X6358Y11558D01*
X6358Y11561D01*
X6357Y11564D01*
X6356Y11567D01*
X6355Y11571D01*
X6354Y11574D01*
X6353Y11578D01*
X6351Y11582D01*
X6348Y11586D01*
X6346Y11589D01*
X6343Y11593D01*
X6339Y11596D01*
X6339Y11596D01*
X6338Y11597D01*
X6337Y11598D01*
X6335Y11599D01*
X6333Y11600D01*
X6330Y11602D01*
X6327Y11603D01*
X6324Y11605D01*
X6320Y11607D01*
X6315Y11608D01*
X6310Y11610D01*
X6304Y11611D01*
X6298Y11612D01*
X6292Y11613D01*
X6284Y11614D01*
X6277Y11614D01*
D02*
G37*
G36*
X13710Y5548D02*
X13589D01*
Y5421D01*
X13703D01*
X13706Y5422D01*
X13710D01*
X13713Y5422D01*
X13718Y5422D01*
X13726Y5423D01*
X13735Y5424D01*
X13744Y5426D01*
X13748Y5427D01*
X13752Y5428D01*
X13752D01*
X13753Y5428D01*
X13754Y5429D01*
X13755Y5430D01*
X13757Y5430D01*
X13759Y5431D01*
X13763Y5434D01*
X13768Y5437D01*
X13773Y5441D01*
X13778Y5446D01*
X13782Y5451D01*
Y5451D01*
X13782Y5452D01*
X13783Y5453D01*
X13783Y5454D01*
X13784Y5455D01*
X13785Y5457D01*
X13787Y5461D01*
X13789Y5466D01*
X13790Y5472D01*
X13792Y5479D01*
X13792Y5486D01*
Y5486D01*
Y5487D01*
Y5488D01*
X13792Y5490D01*
X13792Y5492D01*
X13791Y5495D01*
X13790Y5498D01*
X13790Y5501D01*
X13788Y5505D01*
X13787Y5508D01*
X13786Y5512D01*
X13784Y5516D01*
X13781Y5520D01*
X13779Y5523D01*
X13776Y5527D01*
X13772Y5530D01*
X13772Y5530D01*
X13771Y5531D01*
X13770Y5532D01*
X13769Y5533D01*
X13766Y5534D01*
X13764Y5536D01*
X13761Y5537D01*
X13757Y5539D01*
X13753Y5541D01*
X13748Y5542D01*
X13743Y5544D01*
X13738Y5545D01*
X13731Y5546D01*
X13725Y5547D01*
X13718Y5548D01*
X13710Y5548D01*
D02*
G37*
%LPD*%
M02*
