G04*
G04 #@! TF.GenerationSoftware,Altium Limited,Altium Designer,20.2.5 (213)*
G04*
G04 Layer_Color=16711935*
%FSLAX43Y43*%
%MOMM*%
G71*
G04*
G04 #@! TF.SameCoordinates,5171A944-556C-47A8-97AE-1EF1437A18D6*
G04*
G04*
G04 #@! TF.FilePolarity,Positive*
G04*
G01*
G75*
%ADD10C,0.127*%
%ADD64C,0.000*%
%ADD65C,0.100*%
D10*
X31810Y50394D02*
G03*
X31810Y50394I-2600J0D01*
G01*
X28681Y49682D02*
G03*
X28681Y51105I-711J711D01*
G01*
X28722Y31868D02*
G03*
X29331Y31868I305J0D01*
G01*
X22225Y15545D02*
G03*
X24765Y18085I0J2540D01*
G01*
X1905D02*
G03*
X4445Y15545I2540J0D01*
G01*
Y51613D02*
G03*
X1905Y49835I-381J-2159D01*
G01*
X24765D02*
G03*
X22225Y51613I-2159J-381D01*
G01*
X24147Y18085D02*
G03*
X24147Y18085I-1922J0D01*
G01*
X6354D02*
G03*
X6354Y18085I-1909J0D01*
G01*
X7544Y60528D02*
G03*
X5512Y58496I0J-2032D01*
G01*
Y19380D02*
G03*
X7544Y17348I2032J0D01*
G01*
X21260D02*
G03*
X23292Y19380I0J2032D01*
G01*
Y58496D02*
G03*
X21260Y60528I-2032J0D01*
G01*
X22479Y58623D02*
G03*
X22479Y58623I-1092J0D01*
G01*
X8567D02*
G03*
X8567Y58623I-1150J0D01*
G01*
X8615Y19507D02*
G03*
X8615Y19507I-1198J0D01*
G01*
X22592Y19253D02*
G03*
X22592Y19253I-1205J0D01*
G01*
X4046Y10239D02*
G03*
X4046Y11661I-711J711D01*
G01*
X7175Y10950D02*
G03*
X7175Y10950I-2600J0D01*
G01*
X25832Y52197D02*
Y53696D01*
X31242D01*
X25933Y47168D02*
Y48412D01*
X27534Y47168D02*
X31394D01*
X25425Y48920D02*
Y51791D01*
X25832Y52197D01*
X29540Y50394D02*
X30886D01*
X29450D02*
Y51079D01*
Y49708D02*
Y50394D01*
X27610D02*
X28956D01*
X30023Y51638D02*
Y52095D01*
X29794Y51867D02*
X30251D01*
X30480Y53213D02*
X32080Y51613D01*
X30429Y47600D02*
X32080Y49251D01*
X25959Y49149D02*
X27508Y47600D01*
X25959Y51613D02*
X27559Y53213D01*
X30480D01*
X27508Y47600D02*
X30429D01*
X31242Y53696D02*
X32515Y52423D01*
X32960Y51978D01*
X25425Y48920D02*
X25933Y48412D01*
Y47168D02*
X26746D01*
X27534D01*
X25959Y49149D02*
Y51613D01*
X32080Y49251D02*
Y51613D01*
X31394Y47168D02*
X32960Y48733D01*
Y51978D01*
X27249Y21860D02*
Y31868D01*
X28722D01*
X29331D01*
X30805D01*
Y21860D02*
Y31868D01*
X27249Y21860D02*
X30805D01*
X25496Y31791D02*
X27198D01*
X25496Y30826D02*
Y31791D01*
Y30826D02*
X27198D01*
X25496Y30521D02*
X27198D01*
X25496Y29556D02*
Y30521D01*
Y29556D02*
X27198D01*
X25496Y29251D02*
X27198D01*
X25496Y28286D02*
Y29251D01*
Y28286D02*
X27198D01*
X25496Y27981D02*
X27198D01*
X25496Y27016D02*
Y27981D01*
Y27016D02*
X27198D01*
X25496Y26711D02*
X27198D01*
X25496Y25746D02*
Y26711D01*
Y25746D02*
X27198D01*
X25496Y25441D02*
X27198D01*
X25496Y24476D02*
Y25441D01*
Y24476D02*
X27198D01*
X25496Y24197D02*
X27198D01*
X25496Y23232D02*
Y24197D01*
Y23232D02*
X27198D01*
X25496Y22901D02*
X27198D01*
X25496Y21936D02*
Y22901D01*
Y21936D02*
X27198D01*
X30855D02*
X32557D01*
Y22901D01*
X30855D02*
X32557D01*
X30855Y23232D02*
X32557D01*
Y24197D01*
X30855D02*
X32557D01*
X30855Y24476D02*
X32557D01*
Y25441D01*
X30855D02*
X32557D01*
X30855Y25746D02*
X32557D01*
Y26711D01*
X30855D02*
X32557D01*
X30855Y27016D02*
X32557D01*
Y27981D01*
X30855D02*
X32557D01*
X30855Y28286D02*
X32557D01*
Y29251D01*
X30855D02*
X32557D01*
X30855Y29556D02*
X32557D01*
Y30521D01*
X30855D02*
X32557D01*
X30855Y30826D02*
X32557D01*
Y31791D01*
X30855D02*
X32557D01*
X24765Y18085D02*
Y49835D01*
X17399Y15545D02*
X22225D01*
X17145Y15799D02*
X17399Y15545D01*
X9525Y15799D02*
X17145D01*
X9271Y15545D02*
X9525Y15799D01*
X4445Y15545D02*
X9271D01*
X1905Y18085D02*
Y49835D01*
X4445Y51613D02*
X22225D01*
X17196Y60528D02*
X21260D01*
X16942Y60274D02*
X17196Y60528D01*
X12116Y60274D02*
X16942D01*
X11862Y60528D02*
X12116Y60274D01*
X7544Y60528D02*
X11862D01*
X5512Y19380D02*
Y58496D01*
X7544Y17348D02*
X21260D01*
X23292Y19380D02*
Y58496D01*
X8325Y9290D02*
Y12534D01*
X6759Y7724D02*
X8325Y9290D01*
X7445Y9807D02*
Y12169D01*
X1324Y9705D02*
Y12169D01*
X2111Y7724D02*
X2899D01*
X1298D02*
X2111D01*
X790Y9477D02*
X1298Y8969D01*
X7880Y12979D02*
X8325Y12534D01*
X6607Y14252D02*
X7880Y12979D01*
X2873Y8156D02*
X5794D01*
X2924Y13769D02*
X5845D01*
X1324Y12169D02*
X2924Y13769D01*
X1324Y9705D02*
X2873Y8156D01*
X5794D02*
X7445Y9807D01*
X5845Y13769D02*
X7445Y12169D01*
X5159Y12423D02*
X5616D01*
X5388Y12195D02*
Y12652D01*
X2975Y10950D02*
X4321D01*
X4815Y10264D02*
Y10950D01*
Y11636D01*
X4905Y10950D02*
X6251D01*
X790Y12347D02*
X1197Y12753D01*
X790Y9477D02*
Y12347D01*
X2899Y7724D02*
X6759D01*
X1298D02*
Y8969D01*
X1197Y14252D02*
X6607D01*
X1197Y12753D02*
Y14252D01*
D64*
X0Y1000D02*
G03*
X1000Y0I1000J0D01*
G01*
X39000D02*
G03*
X40000Y1000I0J1000D01*
G01*
X35000Y60000D02*
G03*
X33000Y62000I-2000J0D01*
G01*
X7000D02*
G03*
X5000Y60000I0J-2000D01*
G01*
X1000D02*
G03*
X0Y59000I0J-1000D01*
G01*
X40000Y58293D02*
G03*
X38293Y60000I-1707J-0D01*
G01*
X7000Y62000D02*
X33000D01*
X1000Y60000D02*
X5000D01*
X35000D02*
X38293D01*
X40000Y1000D02*
Y58293D01*
X1000Y0D02*
X39000D01*
X0Y1000D02*
Y59000D01*
D65*
X9264Y13590D02*
X9348Y13673D01*
Y13840D01*
X9264Y13923D01*
X9181D01*
X9098Y13840D01*
Y13673D01*
X9014Y13590D01*
X8931D01*
X8848Y13673D01*
Y13840D01*
X8931Y13923D01*
X9348Y13424D02*
Y13090D01*
Y13257D01*
X8848D01*
X9348Y12591D02*
Y12924D01*
X8848D01*
Y12591D01*
X9098Y12924D02*
Y12757D01*
X8848Y12424D02*
X9348D01*
Y12174D01*
X9264Y12091D01*
X9098D01*
X9014Y12174D01*
Y12424D01*
X8764Y11924D02*
Y11591D01*
X9264Y11091D02*
X9348Y11174D01*
Y11341D01*
X9264Y11424D01*
X8931D01*
X8848Y11341D01*
Y11174D01*
X8931Y11091D01*
X8848Y10924D02*
X9181D01*
X9348Y10758D01*
X9181Y10591D01*
X8848D01*
X9098D01*
Y10924D01*
X8848Y10425D02*
X9348D01*
Y10175D01*
X9264Y10091D01*
X9098D01*
X9014Y10175D01*
Y10425D01*
X8848Y9925D02*
Y9758D01*
Y9841D01*
X9348D01*
X9264Y9925D01*
X29318Y30320D02*
X28735D01*
X28619Y30203D01*
Y29970D01*
X28735Y29853D01*
X29318D01*
X28619Y29620D02*
Y29387D01*
Y29503D01*
X29318D01*
X29202Y29620D01*
X33899Y53034D02*
X33983Y53117D01*
Y53284D01*
X33899Y53367D01*
X33816D01*
X33733Y53284D01*
Y53117D01*
X33649Y53034D01*
X33566D01*
X33483Y53117D01*
Y53284D01*
X33566Y53367D01*
X33983Y52867D02*
Y52534D01*
Y52701D01*
X33483D01*
X33983Y52034D02*
Y52367D01*
X33483D01*
Y52034D01*
X33733Y52367D02*
Y52201D01*
X33483Y51868D02*
X33983D01*
Y51618D01*
X33899Y51534D01*
X33733D01*
X33649Y51618D01*
Y51868D01*
X33399Y51368D02*
Y51034D01*
X33899Y50535D02*
X33983Y50618D01*
Y50785D01*
X33899Y50868D01*
X33566D01*
X33483Y50785D01*
Y50618D01*
X33566Y50535D01*
X33483Y50368D02*
X33816D01*
X33983Y50201D01*
X33816Y50035D01*
X33483D01*
X33733D01*
Y50368D01*
X33483Y49868D02*
X33983D01*
Y49618D01*
X33899Y49535D01*
X33733D01*
X33649Y49618D01*
Y49868D01*
X33483Y49035D02*
Y49368D01*
X33816Y49035D01*
X33899D01*
X33983Y49118D01*
Y49285D01*
X33899Y49368D01*
M02*
