G04*
G04 #@! TF.GenerationSoftware,Altium Limited,Altium Designer,20.1.14 (287)*
G04*
G04 Layer_Color=128*
%FSLAX43Y43*%
%MOMM*%
G71*
G04*
G04 #@! TF.SameCoordinates,2B19F274-0338-4189-8154-59E22298D11E*
G04*
G04*
G04 #@! TF.FilePolarity,Positive*
G04*
G01*
G75*
%ADD70C,0.051*%
D70*
X2675Y28372D02*
X3675D01*
X3175Y27872D02*
Y28872D01*
X2675Y30912D02*
X3675D01*
X3175Y30412D02*
Y31412D01*
X2675Y33452D02*
X3675D01*
X3175Y32952D02*
Y33952D01*
X2675Y46152D02*
X3675D01*
X3175Y45652D02*
Y46652D01*
X2675Y43612D02*
X3675D01*
X3175Y43112D02*
Y44112D01*
X2675Y41072D02*
X3675D01*
X3175Y40572D02*
Y41572D01*
X2675Y38532D02*
X3675D01*
X3175Y38032D02*
Y39032D01*
X2675Y35992D02*
X3675D01*
X3175Y35492D02*
Y36492D01*
X6332Y22555D02*
X7232D01*
X6782Y22105D02*
Y23005D01*
X6332Y25076D02*
X7232D01*
X6782Y24626D02*
Y25526D01*
X6332Y27596D02*
X7232D01*
X6782Y27146D02*
Y28046D01*
X6332Y30117D02*
X7232D01*
X6782Y29667D02*
Y30566D01*
X6332Y32637D02*
X7232D01*
X6782Y32187D02*
Y33087D01*
X6332Y35158D02*
X7232D01*
X6782Y34708D02*
Y35608D01*
X6332Y37678D02*
X7232D01*
X6782Y37228D02*
Y38128D01*
X6332Y40199D02*
X7232D01*
X6782Y39749D02*
Y40649D01*
X6332Y42719D02*
X7232D01*
X6782Y42269D02*
Y43169D01*
X6332Y45239D02*
X7232D01*
X6782Y44789D02*
Y45689D01*
X6332Y47760D02*
X7232D01*
X6782Y47310D02*
Y48210D01*
X6332Y50280D02*
X7232D01*
X6782Y49830D02*
Y50730D01*
X6332Y52801D02*
X7232D01*
X6782Y52351D02*
Y53251D01*
X6332Y55321D02*
X7232D01*
X6782Y54871D02*
Y55771D01*
X21572Y22301D02*
X22472D01*
X22022Y21851D02*
Y22751D01*
X21572Y24841D02*
X22472D01*
X22022Y24391D02*
Y25291D01*
X21572Y27381D02*
X22472D01*
X22022Y26931D02*
Y27831D01*
X21572Y29921D02*
X22472D01*
X22022Y29471D02*
Y30371D01*
X21572Y32461D02*
X22472D01*
X22022Y32011D02*
Y32911D01*
X21572Y35001D02*
X22472D01*
X22022Y34551D02*
Y35451D01*
X21572Y37541D02*
X22472D01*
X22022Y37091D02*
Y37991D01*
X21572Y40081D02*
X22472D01*
X22022Y39631D02*
Y40531D01*
X21572Y42621D02*
X22472D01*
X22022Y42171D02*
Y43071D01*
X21572Y45161D02*
X22472D01*
X22022Y44711D02*
Y45611D01*
X21572Y50241D02*
X22472D01*
X22022Y49791D02*
Y50691D01*
X21572Y52781D02*
X22472D01*
X22022Y52331D02*
Y53231D01*
X21572Y55321D02*
X22472D01*
X22022Y54871D02*
Y55771D01*
X21572Y47701D02*
X22472D01*
X22022Y47251D02*
Y48151D01*
X37450Y1500D02*
X39550D01*
X38500Y450D02*
Y2550D01*
X450Y1500D02*
X2550D01*
X1500Y450D02*
Y2550D01*
X450Y58500D02*
X2550D01*
X1500Y57450D02*
Y59550D01*
X37450Y58500D02*
X39550D01*
X38500Y57450D02*
Y59550D01*
X10183Y6452D02*
X10493D01*
X10338Y6297D02*
Y6607D01*
X11804Y2934D02*
X12504D01*
X12154Y2584D02*
Y3284D01*
X7041Y19456D02*
X7741D01*
X7391Y19106D02*
Y19806D01*
X13259Y14427D02*
X13970D01*
X13614Y14072D02*
Y14783D01*
X11227Y14732D02*
X11938D01*
X11582Y14376D02*
Y15088D01*
X15418Y12668D02*
X16129D01*
X15773Y12312D02*
Y13023D01*
X33449Y18237D02*
X33759D01*
X33604Y18082D02*
Y18392D01*
M02*
