G04*
G04 #@! TF.GenerationSoftware,Altium Limited,Altium Designer,20.1.14 (287)*
G04*
G04 Layer_Color=8388736*
%FSLAX43Y43*%
%MOMM*%
G71*
G04*
G04 #@! TF.SameCoordinates,2B19F274-0338-4189-8154-59E22298D11E*
G04*
G04*
G04 #@! TF.FilePolarity,Positive*
G04*
G01*
G75*
%ADD13C,0.200*%
G36*
X37502Y41402D02*
X37509D01*
X37517Y41401D01*
X37528Y41400D01*
X37539Y41399D01*
X37552Y41397D01*
X37564Y41395D01*
X37578Y41393D01*
X37593Y41390D01*
X37608Y41386D01*
X37623Y41382D01*
X37638Y41377D01*
X37652Y41371D01*
X37666Y41364D01*
X37667Y41364D01*
X37669Y41362D01*
X37673Y41360D01*
X37679Y41357D01*
X37685Y41353D01*
X37692Y41348D01*
X37700Y41342D01*
X37708Y41336D01*
X37717Y41329D01*
X37727Y41321D01*
X37736Y41312D01*
X37745Y41302D01*
X37755Y41292D01*
X37763Y41280D01*
X37772Y41268D01*
X37779Y41255D01*
X37780Y41255D01*
X37781Y41252D01*
X37783Y41249D01*
X37785Y41243D01*
X37789Y41236D01*
X37792Y41229D01*
X37795Y41219D01*
X37799Y41210D01*
X37803Y41199D01*
X37806Y41187D01*
X37810Y41174D01*
X37812Y41160D01*
X37815Y41146D01*
X37816Y41131D01*
X37818Y41116D01*
X37818Y41100D01*
Y41094D01*
X37818Y41091D01*
X37817Y41084D01*
X37817Y41076D01*
X37816Y41066D01*
X37814Y41056D01*
X37812Y41044D01*
X37810Y41031D01*
X37806Y41018D01*
X37803Y41005D01*
X37797Y40992D01*
X37792Y40978D01*
X37785Y40964D01*
X37778Y40951D01*
X37769Y40939D01*
X37769Y40938D01*
X37767Y40936D01*
X37764Y40932D01*
X37760Y40928D01*
X37755Y40923D01*
X37749Y40917D01*
X37742Y40910D01*
X37734Y40903D01*
X37724Y40895D01*
X37714Y40887D01*
X37703Y40880D01*
X37691Y40873D01*
X37677Y40865D01*
X37663Y40859D01*
X37648Y40852D01*
X37632Y40847D01*
X37612Y40930D01*
X37613Y40931D01*
X37615Y40931D01*
X37619Y40933D01*
X37624Y40935D01*
X37629Y40937D01*
X37636Y40940D01*
X37643Y40943D01*
X37651Y40947D01*
X37659Y40951D01*
X37668Y40956D01*
X37676Y40961D01*
X37685Y40967D01*
X37693Y40974D01*
X37700Y40980D01*
X37707Y40988D01*
X37714Y40996D01*
X37714Y40996D01*
X37715Y40998D01*
X37717Y41000D01*
X37719Y41003D01*
X37721Y41007D01*
X37724Y41012D01*
X37727Y41018D01*
X37730Y41025D01*
X37733Y41032D01*
X37736Y41040D01*
X37738Y41049D01*
X37741Y41058D01*
X37743Y41068D01*
X37744Y41079D01*
X37745Y41090D01*
X37746Y41102D01*
Y41109D01*
X37745Y41114D01*
X37745Y41120D01*
X37744Y41128D01*
X37743Y41136D01*
X37741Y41145D01*
X37739Y41155D01*
X37737Y41164D01*
X37734Y41175D01*
X37731Y41185D01*
X37727Y41195D01*
X37722Y41206D01*
X37717Y41216D01*
X37710Y41225D01*
X37710Y41226D01*
X37709Y41228D01*
X37706Y41230D01*
X37704Y41233D01*
X37700Y41237D01*
X37696Y41242D01*
X37691Y41247D01*
X37685Y41253D01*
X37679Y41258D01*
X37672Y41264D01*
X37664Y41270D01*
X37655Y41275D01*
X37646Y41281D01*
X37637Y41286D01*
X37626Y41291D01*
X37615Y41295D01*
X37615D01*
X37613Y41296D01*
X37609Y41297D01*
X37605Y41298D01*
X37600Y41299D01*
X37593Y41301D01*
X37586Y41303D01*
X37577Y41304D01*
X37569Y41306D01*
X37559Y41308D01*
X37549Y41310D01*
X37538Y41311D01*
X37516Y41314D01*
X37504Y41314D01*
X37492Y41315D01*
X37491D01*
X37489D01*
X37485D01*
X37479Y41314D01*
X37472Y41314D01*
X37463Y41313D01*
X37454Y41313D01*
X37444Y41312D01*
X37433Y41310D01*
X37422Y41309D01*
X37398Y41304D01*
X37386Y41302D01*
X37374Y41299D01*
X37362Y41295D01*
X37350Y41291D01*
X37350Y41291D01*
X37347Y41290D01*
X37344Y41289D01*
X37340Y41286D01*
X37335Y41284D01*
X37329Y41281D01*
X37323Y41277D01*
X37316Y41273D01*
X37309Y41268D01*
X37301Y41262D01*
X37294Y41256D01*
X37286Y41250D01*
X37279Y41243D01*
X37272Y41235D01*
X37265Y41226D01*
X37259Y41217D01*
X37259Y41217D01*
X37258Y41215D01*
X37257Y41212D01*
X37255Y41208D01*
X37252Y41204D01*
X37250Y41198D01*
X37247Y41192D01*
X37245Y41185D01*
X37241Y41177D01*
X37239Y41169D01*
X37236Y41159D01*
X37234Y41150D01*
X37232Y41140D01*
X37231Y41130D01*
X37230Y41119D01*
X37229Y41108D01*
Y41105D01*
X37230Y41102D01*
Y41096D01*
X37231Y41090D01*
X37232Y41083D01*
X37233Y41075D01*
X37234Y41067D01*
X37237Y41058D01*
X37240Y41048D01*
X37243Y41038D01*
X37246Y41028D01*
X37251Y41017D01*
X37257Y41007D01*
X37263Y40998D01*
X37270Y40988D01*
X37270Y40987D01*
X37272Y40985D01*
X37274Y40983D01*
X37278Y40980D01*
X37282Y40976D01*
X37287Y40971D01*
X37294Y40966D01*
X37301Y40961D01*
X37309Y40955D01*
X37318Y40950D01*
X37328Y40944D01*
X37339Y40939D01*
X37350Y40933D01*
X37363Y40929D01*
X37377Y40924D01*
X37392Y40921D01*
X37370Y40836D01*
X37370D01*
X37369Y40837D01*
X37368Y40837D01*
X37366Y40838D01*
X37363Y40838D01*
X37360Y40839D01*
X37353Y40841D01*
X37344Y40844D01*
X37335Y40848D01*
X37324Y40853D01*
X37312Y40858D01*
X37299Y40864D01*
X37286Y40871D01*
X37273Y40879D01*
X37259Y40888D01*
X37246Y40898D01*
X37234Y40908D01*
X37222Y40920D01*
X37211Y40932D01*
X37211Y40933D01*
X37209Y40936D01*
X37206Y40939D01*
X37203Y40945D01*
X37199Y40951D01*
X37194Y40960D01*
X37189Y40969D01*
X37184Y40979D01*
X37179Y40991D01*
X37174Y41004D01*
X37169Y41018D01*
X37165Y41033D01*
X37162Y41049D01*
X37159Y41065D01*
X37157Y41083D01*
X37157Y41102D01*
Y41108D01*
X37157Y41112D01*
Y41119D01*
X37158Y41127D01*
X37159Y41138D01*
X37160Y41149D01*
X37162Y41161D01*
X37164Y41175D01*
X37167Y41188D01*
X37171Y41202D01*
X37174Y41216D01*
X37179Y41230D01*
X37185Y41244D01*
X37191Y41257D01*
X37199Y41270D01*
X37199Y41271D01*
X37201Y41273D01*
X37203Y41276D01*
X37207Y41280D01*
X37211Y41286D01*
X37216Y41292D01*
X37222Y41299D01*
X37230Y41306D01*
X37238Y41314D01*
X37247Y41322D01*
X37257Y41330D01*
X37268Y41339D01*
X37280Y41347D01*
X37292Y41354D01*
X37306Y41362D01*
X37320Y41368D01*
X37321D01*
X37321Y41369D01*
X37324Y41370D01*
X37328Y41371D01*
X37334Y41373D01*
X37342Y41376D01*
X37350Y41379D01*
X37361Y41382D01*
X37372Y41385D01*
X37384Y41388D01*
X37398Y41391D01*
X37411Y41394D01*
X37427Y41397D01*
X37442Y41399D01*
X37458Y41401D01*
X37475Y41402D01*
X37492Y41402D01*
X37492D01*
X37493D01*
X37495D01*
X37497D01*
X37499D01*
X37502Y41402D01*
D02*
G37*
G36*
X37631Y40665D02*
X37374D01*
X37373D01*
X37371D01*
X37368D01*
X37364D01*
X37359D01*
X37353Y40665D01*
X37347D01*
X37340D01*
X37326Y40664D01*
X37313Y40663D01*
X37307Y40663D01*
X37301Y40662D01*
X37295Y40661D01*
X37291Y40660D01*
X37290D01*
X37289Y40660D01*
X37288Y40660D01*
X37286Y40659D01*
X37283Y40658D01*
X37280Y40657D01*
X37273Y40654D01*
X37265Y40649D01*
X37257Y40644D01*
X37249Y40637D01*
X37242Y40629D01*
Y40629D01*
X37241Y40628D01*
X37241Y40627D01*
X37240Y40625D01*
X37238Y40623D01*
X37237Y40620D01*
X37234Y40612D01*
X37230Y40604D01*
X37228Y40594D01*
X37226Y40582D01*
X37225Y40570D01*
Y40567D01*
X37225Y40564D01*
Y40561D01*
X37226Y40557D01*
X37226Y40553D01*
X37227Y40549D01*
X37229Y40538D01*
X37232Y40527D01*
X37237Y40515D01*
X37243Y40504D01*
Y40503D01*
X37244Y40502D01*
X37245Y40501D01*
X37246Y40499D01*
X37250Y40493D01*
X37256Y40487D01*
X37263Y40479D01*
X37271Y40472D01*
X37281Y40465D01*
X37292Y40460D01*
X37292D01*
X37293Y40459D01*
X37295Y40458D01*
X37298Y40458D01*
X37301Y40457D01*
X37305Y40456D01*
X37309Y40455D01*
X37315Y40453D01*
X37321Y40452D01*
X37328Y40451D01*
X37335Y40450D01*
X37343Y40449D01*
X37352Y40448D01*
X37362Y40447D01*
X37372Y40447D01*
X37382D01*
X37631D01*
Y40368D01*
X37167D01*
Y40439D01*
X37235D01*
X37234Y40439D01*
X37232Y40441D01*
X37228Y40444D01*
X37223Y40448D01*
X37217Y40454D01*
X37211Y40461D01*
X37203Y40468D01*
X37197Y40477D01*
X37189Y40487D01*
X37182Y40498D01*
X37175Y40510D01*
X37169Y40523D01*
X37165Y40538D01*
X37160Y40553D01*
X37158Y40569D01*
X37157Y40586D01*
Y40590D01*
X37158Y40593D01*
Y40596D01*
X37158Y40600D01*
X37159Y40605D01*
X37159Y40611D01*
X37161Y40623D01*
X37164Y40636D01*
X37167Y40649D01*
X37172Y40662D01*
Y40663D01*
X37173Y40664D01*
X37174Y40666D01*
X37175Y40668D01*
X37177Y40671D01*
X37179Y40674D01*
X37183Y40682D01*
X37189Y40691D01*
X37196Y40700D01*
X37203Y40708D01*
X37212Y40715D01*
X37212D01*
X37213Y40716D01*
X37214Y40716D01*
X37216Y40718D01*
X37218Y40719D01*
X37221Y40721D01*
X37228Y40724D01*
X37237Y40728D01*
X37247Y40733D01*
X37258Y40736D01*
X37270Y40739D01*
X37271D01*
X37271D01*
X37273Y40740D01*
X37275Y40740D01*
X37277D01*
X37281Y40740D01*
X37284Y40741D01*
X37289Y40741D01*
X37293Y40742D01*
X37299Y40742D01*
X37305Y40743D01*
X37311D01*
X37318Y40743D01*
X37326Y40744D01*
X37334D01*
X37344D01*
X37631D01*
Y40665D01*
D02*
G37*
G36*
Y40175D02*
X37560D01*
X37560Y40175D01*
X37562Y40174D01*
X37564Y40172D01*
X37568Y40170D01*
X37572Y40168D01*
X37577Y40165D01*
X37587Y40159D01*
X37597Y40151D01*
X37608Y40143D01*
X37613Y40139D01*
X37618Y40134D01*
X37622Y40130D01*
X37625Y40126D01*
Y40125D01*
X37626Y40125D01*
X37626Y40123D01*
X37628Y40121D01*
X37630Y40117D01*
X37633Y40111D01*
X37636Y40103D01*
X37639Y40095D01*
X37641Y40085D01*
X37641Y40075D01*
Y40071D01*
X37641Y40068D01*
X37640Y40065D01*
X37640Y40060D01*
X37639Y40056D01*
X37638Y40050D01*
X37637Y40044D01*
X37635Y40038D01*
X37631Y40024D01*
X37628Y40017D01*
X37624Y40010D01*
X37620Y40002D01*
X37616Y39994D01*
X37543Y40022D01*
Y40023D01*
X37544Y40023D01*
X37545Y40025D01*
X37546Y40027D01*
X37547Y40029D01*
X37548Y40033D01*
X37552Y40040D01*
X37555Y40048D01*
X37557Y40058D01*
X37559Y40069D01*
X37560Y40079D01*
Y40084D01*
X37559Y40089D01*
X37558Y40095D01*
X37556Y40102D01*
X37553Y40109D01*
X37549Y40117D01*
X37544Y40125D01*
X37543Y40126D01*
X37541Y40128D01*
X37538Y40132D01*
X37533Y40136D01*
X37527Y40141D01*
X37520Y40146D01*
X37511Y40151D01*
X37501Y40154D01*
X37501D01*
X37499Y40155D01*
X37497Y40156D01*
X37494Y40156D01*
X37490Y40157D01*
X37485Y40158D01*
X37480Y40159D01*
X37474Y40161D01*
X37467Y40162D01*
X37460Y40163D01*
X37453Y40164D01*
X37445Y40165D01*
X37428Y40167D01*
X37410Y40167D01*
X37167D01*
Y40246D01*
X37631D01*
Y40175D01*
D02*
G37*
G36*
Y39877D02*
X37560D01*
X37560Y39877D01*
X37562Y39876D01*
X37564Y39875D01*
X37568Y39873D01*
X37572Y39870D01*
X37577Y39868D01*
X37587Y39861D01*
X37597Y39853D01*
X37608Y39845D01*
X37613Y39841D01*
X37618Y39837D01*
X37622Y39832D01*
X37625Y39828D01*
Y39827D01*
X37626Y39827D01*
X37626Y39826D01*
X37628Y39824D01*
X37630Y39819D01*
X37633Y39813D01*
X37636Y39805D01*
X37639Y39797D01*
X37641Y39788D01*
X37641Y39778D01*
Y39773D01*
X37641Y39771D01*
X37640Y39767D01*
X37640Y39763D01*
X37639Y39758D01*
X37638Y39753D01*
X37637Y39747D01*
X37635Y39740D01*
X37631Y39727D01*
X37628Y39719D01*
X37624Y39712D01*
X37620Y39705D01*
X37616Y39697D01*
X37543Y39724D01*
Y39725D01*
X37544Y39726D01*
X37545Y39727D01*
X37546Y39729D01*
X37547Y39732D01*
X37548Y39735D01*
X37552Y39742D01*
X37555Y39751D01*
X37557Y39760D01*
X37559Y39771D01*
X37560Y39782D01*
Y39786D01*
X37559Y39791D01*
X37558Y39797D01*
X37556Y39804D01*
X37553Y39812D01*
X37549Y39820D01*
X37544Y39827D01*
X37543Y39828D01*
X37541Y39831D01*
X37538Y39834D01*
X37533Y39839D01*
X37527Y39844D01*
X37520Y39848D01*
X37511Y39853D01*
X37501Y39857D01*
X37501D01*
X37499Y39857D01*
X37497Y39858D01*
X37494Y39858D01*
X37490Y39859D01*
X37485Y39861D01*
X37480Y39862D01*
X37474Y39863D01*
X37467Y39864D01*
X37460Y39865D01*
X37453Y39866D01*
X37445Y39868D01*
X37428Y39869D01*
X37410Y39870D01*
X37167D01*
Y39948D01*
X37631D01*
Y39877D01*
D02*
G37*
G36*
X37403Y39675D02*
X37406D01*
X37410D01*
X37415Y39675D01*
X37424Y39674D01*
X37436Y39673D01*
X37448Y39671D01*
X37462Y39668D01*
X37476Y39665D01*
X37491Y39661D01*
X37506Y39656D01*
X37521Y39650D01*
X37536Y39643D01*
X37550Y39636D01*
X37564Y39626D01*
X37577Y39616D01*
X37577Y39615D01*
X37579Y39613D01*
X37583Y39610D01*
X37587Y39605D01*
X37592Y39599D01*
X37597Y39592D01*
X37603Y39583D01*
X37609Y39574D01*
X37615Y39563D01*
X37621Y39551D01*
X37626Y39539D01*
X37631Y39525D01*
X37635Y39509D01*
X37638Y39494D01*
X37640Y39477D01*
X37641Y39459D01*
Y39455D01*
X37641Y39451D01*
X37640Y39444D01*
X37639Y39436D01*
X37638Y39427D01*
X37636Y39417D01*
X37633Y39406D01*
X37630Y39394D01*
X37626Y39382D01*
X37621Y39369D01*
X37614Y39356D01*
X37607Y39343D01*
X37599Y39331D01*
X37589Y39319D01*
X37578Y39308D01*
X37577Y39307D01*
X37575Y39305D01*
X37571Y39302D01*
X37566Y39299D01*
X37560Y39294D01*
X37552Y39289D01*
X37543Y39284D01*
X37532Y39278D01*
X37520Y39273D01*
X37507Y39267D01*
X37492Y39263D01*
X37476Y39258D01*
X37459Y39254D01*
X37441Y39251D01*
X37421Y39249D01*
X37400Y39249D01*
X37399D01*
X37399D01*
X37397D01*
X37395D01*
X37392D01*
X37388D01*
X37384Y39249D01*
X37379D01*
Y39595D01*
X37378D01*
X37376Y39594D01*
X37372D01*
X37367Y39594D01*
X37360Y39593D01*
X37353Y39592D01*
X37345Y39590D01*
X37336Y39588D01*
X37326Y39586D01*
X37317Y39582D01*
X37307Y39579D01*
X37298Y39575D01*
X37288Y39570D01*
X37279Y39565D01*
X37270Y39559D01*
X37262Y39552D01*
X37262Y39551D01*
X37260Y39550D01*
X37258Y39548D01*
X37256Y39545D01*
X37253Y39541D01*
X37250Y39537D01*
X37246Y39531D01*
X37242Y39525D01*
X37238Y39519D01*
X37235Y39511D01*
X37231Y39503D01*
X37228Y39495D01*
X37226Y39485D01*
X37224Y39476D01*
X37222Y39466D01*
X37222Y39455D01*
Y39451D01*
X37222Y39447D01*
X37223Y39444D01*
X37223Y39440D01*
X37224Y39435D01*
X37225Y39429D01*
X37228Y39418D01*
X37232Y39405D01*
X37234Y39399D01*
X37237Y39393D01*
X37240Y39387D01*
X37245Y39381D01*
X37245Y39380D01*
X37246Y39380D01*
X37247Y39378D01*
X37249Y39376D01*
X37252Y39373D01*
X37254Y39370D01*
X37258Y39367D01*
X37262Y39363D01*
X37267Y39360D01*
X37272Y39355D01*
X37278Y39352D01*
X37285Y39348D01*
X37292Y39343D01*
X37300Y39340D01*
X37308Y39336D01*
X37318Y39332D01*
X37307Y39251D01*
X37306D01*
X37304Y39252D01*
X37300Y39254D01*
X37295Y39255D01*
X37289Y39257D01*
X37283Y39260D01*
X37275Y39263D01*
X37266Y39268D01*
X37258Y39272D01*
X37249Y39277D01*
X37240Y39283D01*
X37230Y39290D01*
X37221Y39297D01*
X37213Y39305D01*
X37204Y39313D01*
X37197Y39323D01*
X37196Y39323D01*
X37195Y39325D01*
X37193Y39328D01*
X37191Y39332D01*
X37187Y39337D01*
X37184Y39343D01*
X37180Y39350D01*
X37177Y39359D01*
X37173Y39368D01*
X37170Y39378D01*
X37166Y39389D01*
X37163Y39400D01*
X37161Y39413D01*
X37159Y39426D01*
X37158Y39441D01*
X37157Y39455D01*
Y39460D01*
X37158Y39462D01*
Y39465D01*
X37158Y39472D01*
X37159Y39481D01*
X37160Y39490D01*
X37162Y39502D01*
X37165Y39514D01*
X37168Y39526D01*
X37172Y39539D01*
X37178Y39553D01*
X37184Y39566D01*
X37191Y39580D01*
X37199Y39593D01*
X37209Y39605D01*
X37220Y39617D01*
X37221Y39617D01*
X37222Y39619D01*
X37226Y39622D01*
X37231Y39626D01*
X37238Y39631D01*
X37246Y39635D01*
X37254Y39641D01*
X37265Y39646D01*
X37277Y39652D01*
X37290Y39657D01*
X37304Y39662D01*
X37320Y39667D01*
X37337Y39670D01*
X37355Y39673D01*
X37375Y39675D01*
X37395Y39676D01*
X37396D01*
X37397D01*
X37398D01*
X37400D01*
X37403Y39675D01*
D02*
G37*
G36*
X37631Y39082D02*
X37565D01*
X37566Y39082D01*
X37568Y39080D01*
X37572Y39077D01*
X37577Y39073D01*
X37583Y39067D01*
X37589Y39061D01*
X37596Y39054D01*
X37603Y39045D01*
X37610Y39035D01*
X37617Y39024D01*
X37624Y39012D01*
X37629Y38999D01*
X37634Y38984D01*
X37638Y38969D01*
X37640Y38952D01*
X37641Y38935D01*
Y38928D01*
X37641Y38924D01*
X37640Y38920D01*
X37640Y38915D01*
X37639Y38909D01*
X37638Y38898D01*
X37635Y38885D01*
X37631Y38871D01*
X37626Y38858D01*
Y38858D01*
X37626Y38857D01*
X37625Y38855D01*
X37623Y38852D01*
X37622Y38849D01*
X37620Y38846D01*
X37615Y38838D01*
X37610Y38830D01*
X37603Y38821D01*
X37595Y38813D01*
X37586Y38805D01*
X37586D01*
X37585Y38804D01*
X37584Y38804D01*
X37582Y38803D01*
X37580Y38801D01*
X37577Y38799D01*
X37570Y38796D01*
X37562Y38792D01*
X37552Y38788D01*
X37540Y38784D01*
X37528Y38781D01*
X37528D01*
X37528D01*
X37526Y38780D01*
X37524Y38780D01*
X37522D01*
X37519Y38779D01*
X37515Y38779D01*
X37511Y38779D01*
X37506Y38778D01*
X37500Y38778D01*
X37494Y38777D01*
X37487D01*
X37479Y38777D01*
X37471Y38776D01*
X37462D01*
X37452D01*
X37167D01*
Y38855D01*
X37449D01*
X37449D01*
X37451D01*
X37454D01*
X37457D01*
X37461Y38855D01*
X37466D01*
X37471Y38856D01*
X37476D01*
X37488Y38857D01*
X37499Y38859D01*
X37511Y38861D01*
X37516Y38862D01*
X37521Y38864D01*
X37521D01*
X37522Y38865D01*
X37523Y38865D01*
X37525Y38866D01*
X37529Y38868D01*
X37534Y38871D01*
X37540Y38876D01*
X37547Y38882D01*
X37553Y38889D01*
X37559Y38897D01*
Y38897D01*
X37559Y38898D01*
X37560Y38899D01*
X37561Y38901D01*
X37564Y38906D01*
X37566Y38912D01*
X37569Y38920D01*
X37571Y38930D01*
X37573Y38940D01*
X37573Y38951D01*
Y38957D01*
X37573Y38960D01*
X37572Y38964D01*
X37571Y38969D01*
X37571Y38975D01*
X37569Y38981D01*
X37568Y38988D01*
X37565Y38995D01*
X37563Y39002D01*
X37560Y39009D01*
X37556Y39017D01*
X37552Y39024D01*
X37547Y39031D01*
X37541Y39038D01*
X37541Y39039D01*
X37540Y39040D01*
X37538Y39042D01*
X37535Y39044D01*
X37531Y39047D01*
X37527Y39050D01*
X37521Y39053D01*
X37514Y39056D01*
X37507Y39060D01*
X37498Y39063D01*
X37488Y39066D01*
X37477Y39069D01*
X37465Y39071D01*
X37451Y39073D01*
X37436Y39074D01*
X37420Y39074D01*
X37167D01*
Y39153D01*
X37631D01*
Y39082D01*
D02*
G37*
G36*
Y38641D02*
X37746D01*
X37793Y38563D01*
X37631D01*
Y38485D01*
X37570D01*
Y38563D01*
X37299D01*
X37298D01*
X37297D01*
X37295D01*
X37293D01*
X37288D01*
X37281Y38562D01*
X37274Y38562D01*
X37266Y38561D01*
X37260Y38560D01*
X37258Y38559D01*
X37256Y38559D01*
X37255D01*
X37254Y38558D01*
X37252Y38557D01*
X37250Y38556D01*
X37245Y38552D01*
X37243Y38549D01*
X37240Y38546D01*
Y38545D01*
X37240Y38544D01*
X37239Y38542D01*
X37238Y38539D01*
X37237Y38535D01*
X37236Y38530D01*
X37235Y38525D01*
X37235Y38519D01*
Y38514D01*
X37235Y38510D01*
Y38505D01*
X37236Y38499D01*
X37237Y38492D01*
X37238Y38485D01*
X37168Y38473D01*
Y38473D01*
X37168Y38474D01*
Y38476D01*
X37167Y38479D01*
X37167Y38481D01*
X37166Y38485D01*
X37165Y38493D01*
X37164Y38502D01*
X37162Y38512D01*
X37162Y38522D01*
X37161Y38533D01*
Y38540D01*
X37162Y38543D01*
X37162Y38547D01*
X37163Y38557D01*
X37165Y38567D01*
X37167Y38578D01*
X37170Y38589D01*
X37175Y38599D01*
Y38599D01*
X37175Y38600D01*
X37177Y38602D01*
X37180Y38607D01*
X37184Y38612D01*
X37189Y38617D01*
X37195Y38623D01*
X37202Y38628D01*
X37210Y38632D01*
X37210D01*
X37211Y38632D01*
X37212Y38633D01*
X37215Y38633D01*
X37217Y38634D01*
X37221Y38635D01*
X37225Y38636D01*
X37230Y38637D01*
X37236Y38638D01*
X37242Y38638D01*
X37250Y38639D01*
X37258Y38640D01*
X37268Y38640D01*
X37278Y38641D01*
X37290Y38641D01*
X37303D01*
X37570D01*
Y38700D01*
X37631D01*
Y38641D01*
D02*
G37*
G36*
X37410Y38188D02*
X37417Y38187D01*
X37424Y38187D01*
X37431Y38186D01*
X37440Y38185D01*
X37450Y38184D01*
X37460Y38183D01*
X37481Y38179D01*
X37492Y38176D01*
X37503Y38173D01*
X37514Y38170D01*
X37524Y38166D01*
X37525Y38165D01*
X37527Y38165D01*
X37530Y38163D01*
X37534Y38161D01*
X37538Y38159D01*
X37544Y38156D01*
X37550Y38152D01*
X37556Y38148D01*
X37563Y38144D01*
X37570Y38138D01*
X37577Y38133D01*
X37584Y38127D01*
X37592Y38120D01*
X37598Y38112D01*
X37605Y38105D01*
X37611Y38096D01*
X37611Y38096D01*
X37612Y38094D01*
X37613Y38092D01*
X37615Y38088D01*
X37618Y38084D01*
X37620Y38079D01*
X37623Y38073D01*
X37626Y38066D01*
X37629Y38059D01*
X37632Y38051D01*
X37634Y38042D01*
X37637Y38033D01*
X37638Y38024D01*
X37640Y38014D01*
X37641Y38004D01*
X37641Y37993D01*
Y37989D01*
X37641Y37986D01*
Y37983D01*
X37640Y37978D01*
X37640Y37973D01*
X37639Y37968D01*
X37637Y37957D01*
X37634Y37944D01*
X37629Y37931D01*
X37623Y37919D01*
Y37918D01*
X37622Y37917D01*
X37621Y37915D01*
X37620Y37913D01*
X37618Y37910D01*
X37616Y37907D01*
X37611Y37900D01*
X37604Y37891D01*
X37596Y37882D01*
X37587Y37873D01*
X37577Y37865D01*
X37807D01*
Y37787D01*
X37167D01*
Y37860D01*
X37226D01*
X37225Y37860D01*
X37223Y37861D01*
X37220Y37864D01*
X37215Y37868D01*
X37210Y37872D01*
X37204Y37878D01*
X37198Y37885D01*
X37192Y37892D01*
X37185Y37901D01*
X37179Y37911D01*
X37173Y37921D01*
X37168Y37933D01*
X37164Y37946D01*
X37160Y37959D01*
X37158Y37974D01*
X37157Y37989D01*
Y37995D01*
X37158Y37999D01*
X37158Y38004D01*
X37159Y38009D01*
X37160Y38016D01*
X37161Y38023D01*
X37163Y38031D01*
X37165Y38038D01*
X37167Y38047D01*
X37170Y38056D01*
X37173Y38064D01*
X37178Y38074D01*
X37182Y38082D01*
X37188Y38091D01*
X37188Y38092D01*
X37189Y38093D01*
X37191Y38096D01*
X37193Y38099D01*
X37197Y38103D01*
X37200Y38107D01*
X37205Y38112D01*
X37210Y38118D01*
X37215Y38123D01*
X37222Y38129D01*
X37229Y38135D01*
X37237Y38141D01*
X37245Y38147D01*
X37253Y38153D01*
X37263Y38158D01*
X37273Y38163D01*
X37273Y38163D01*
X37275Y38164D01*
X37278Y38165D01*
X37283Y38167D01*
X37288Y38169D01*
X37294Y38171D01*
X37301Y38173D01*
X37309Y38175D01*
X37318Y38178D01*
X37327Y38180D01*
X37338Y38182D01*
X37349Y38184D01*
X37361Y38186D01*
X37373Y38187D01*
X37386Y38188D01*
X37399Y38188D01*
X37399D01*
X37402D01*
X37405D01*
X37410Y38188D01*
D02*
G37*
G36*
X37631Y37592D02*
X37560D01*
X37560Y37592D01*
X37562Y37591D01*
X37564Y37590D01*
X37568Y37588D01*
X37572Y37585D01*
X37577Y37583D01*
X37587Y37576D01*
X37597Y37568D01*
X37608Y37560D01*
X37613Y37556D01*
X37618Y37552D01*
X37622Y37547D01*
X37625Y37543D01*
Y37542D01*
X37626Y37542D01*
X37626Y37541D01*
X37628Y37539D01*
X37630Y37534D01*
X37633Y37528D01*
X37636Y37520D01*
X37639Y37512D01*
X37641Y37503D01*
X37641Y37493D01*
Y37488D01*
X37641Y37486D01*
X37640Y37482D01*
X37640Y37478D01*
X37639Y37473D01*
X37638Y37468D01*
X37637Y37462D01*
X37635Y37455D01*
X37631Y37442D01*
X37628Y37434D01*
X37624Y37427D01*
X37620Y37419D01*
X37616Y37412D01*
X37543Y37439D01*
Y37440D01*
X37544Y37441D01*
X37545Y37442D01*
X37546Y37444D01*
X37547Y37447D01*
X37548Y37450D01*
X37552Y37457D01*
X37555Y37466D01*
X37557Y37475D01*
X37559Y37486D01*
X37560Y37497D01*
Y37501D01*
X37559Y37506D01*
X37558Y37512D01*
X37556Y37519D01*
X37553Y37527D01*
X37549Y37535D01*
X37544Y37542D01*
X37543Y37543D01*
X37541Y37546D01*
X37538Y37549D01*
X37533Y37554D01*
X37527Y37559D01*
X37520Y37563D01*
X37511Y37568D01*
X37501Y37572D01*
X37501D01*
X37499Y37572D01*
X37497Y37573D01*
X37494Y37573D01*
X37490Y37574D01*
X37485Y37576D01*
X37480Y37577D01*
X37474Y37578D01*
X37467Y37579D01*
X37460Y37580D01*
X37453Y37581D01*
X37445Y37583D01*
X37428Y37584D01*
X37410Y37584D01*
X37167D01*
Y37663D01*
X37631D01*
Y37592D01*
D02*
G37*
G36*
X37807Y37286D02*
X37717D01*
Y37364D01*
X37807D01*
Y37286D01*
D02*
G37*
G36*
X37631D02*
X37167D01*
Y37364D01*
X37631D01*
Y37286D01*
D02*
G37*
G36*
Y37131D02*
X37353Y37032D01*
X37353D01*
X37351Y37031D01*
X37349Y37030D01*
X37345Y37029D01*
X37341Y37027D01*
X37337Y37026D01*
X37331Y37024D01*
X37325Y37022D01*
X37318Y37020D01*
X37311Y37017D01*
X37295Y37012D01*
X37278Y37007D01*
X37260Y37002D01*
X37260D01*
X37262Y37002D01*
X37264Y37001D01*
X37266Y37000D01*
X37270Y36999D01*
X37274Y36998D01*
X37279Y36996D01*
X37285Y36994D01*
X37291Y36992D01*
X37297Y36990D01*
X37305Y36988D01*
X37313Y36985D01*
X37321Y36983D01*
X37330Y36979D01*
X37348Y36973D01*
X37631Y36870D01*
Y36789D01*
X37167Y36965D01*
Y37038D01*
X37631Y37214D01*
Y37131D01*
D02*
G37*
G36*
X37403Y36745D02*
X37406D01*
X37410D01*
X37415Y36745D01*
X37424Y36744D01*
X37436Y36742D01*
X37448Y36740D01*
X37462Y36738D01*
X37476Y36735D01*
X37491Y36731D01*
X37506Y36726D01*
X37521Y36720D01*
X37536Y36713D01*
X37550Y36705D01*
X37564Y36696D01*
X37577Y36685D01*
X37577Y36684D01*
X37579Y36683D01*
X37583Y36679D01*
X37587Y36674D01*
X37592Y36668D01*
X37597Y36661D01*
X37603Y36653D01*
X37609Y36643D01*
X37615Y36633D01*
X37621Y36621D01*
X37626Y36608D01*
X37631Y36594D01*
X37635Y36579D01*
X37638Y36563D01*
X37640Y36547D01*
X37641Y36529D01*
Y36525D01*
X37641Y36520D01*
X37640Y36514D01*
X37639Y36506D01*
X37638Y36497D01*
X37636Y36487D01*
X37633Y36475D01*
X37630Y36463D01*
X37626Y36451D01*
X37621Y36438D01*
X37614Y36426D01*
X37607Y36413D01*
X37599Y36401D01*
X37589Y36389D01*
X37578Y36377D01*
X37577Y36377D01*
X37575Y36375D01*
X37571Y36372D01*
X37566Y36368D01*
X37560Y36364D01*
X37552Y36359D01*
X37543Y36353D01*
X37532Y36348D01*
X37520Y36342D01*
X37507Y36337D01*
X37492Y36332D01*
X37476Y36328D01*
X37459Y36324D01*
X37441Y36321D01*
X37421Y36319D01*
X37400Y36318D01*
X37399D01*
X37399D01*
X37397D01*
X37395D01*
X37392D01*
X37388D01*
X37384Y36319D01*
X37379D01*
Y36665D01*
X37378D01*
X37376Y36664D01*
X37372D01*
X37367Y36663D01*
X37360Y36662D01*
X37353Y36661D01*
X37345Y36659D01*
X37336Y36658D01*
X37326Y36655D01*
X37317Y36652D01*
X37307Y36649D01*
X37298Y36645D01*
X37288Y36640D01*
X37279Y36635D01*
X37270Y36629D01*
X37262Y36622D01*
X37262Y36621D01*
X37260Y36620D01*
X37258Y36617D01*
X37256Y36615D01*
X37253Y36611D01*
X37250Y36606D01*
X37246Y36601D01*
X37242Y36595D01*
X37238Y36588D01*
X37235Y36581D01*
X37231Y36573D01*
X37228Y36564D01*
X37226Y36555D01*
X37224Y36545D01*
X37222Y36535D01*
X37222Y36524D01*
Y36520D01*
X37222Y36517D01*
X37223Y36513D01*
X37223Y36509D01*
X37224Y36504D01*
X37225Y36499D01*
X37228Y36487D01*
X37232Y36475D01*
X37234Y36469D01*
X37237Y36463D01*
X37240Y36457D01*
X37245Y36451D01*
X37245Y36450D01*
X37246Y36449D01*
X37247Y36448D01*
X37249Y36445D01*
X37252Y36443D01*
X37254Y36440D01*
X37258Y36437D01*
X37262Y36433D01*
X37267Y36429D01*
X37272Y36425D01*
X37278Y36421D01*
X37285Y36417D01*
X37292Y36413D01*
X37300Y36409D01*
X37308Y36406D01*
X37318Y36402D01*
X37307Y36321D01*
X37306D01*
X37304Y36322D01*
X37300Y36323D01*
X37295Y36325D01*
X37289Y36327D01*
X37283Y36330D01*
X37275Y36333D01*
X37266Y36337D01*
X37258Y36342D01*
X37249Y36347D01*
X37240Y36353D01*
X37230Y36359D01*
X37221Y36366D01*
X37213Y36374D01*
X37204Y36383D01*
X37197Y36392D01*
X37196Y36393D01*
X37195Y36395D01*
X37193Y36397D01*
X37191Y36402D01*
X37187Y36407D01*
X37184Y36413D01*
X37180Y36420D01*
X37177Y36428D01*
X37173Y36438D01*
X37170Y36447D01*
X37166Y36458D01*
X37163Y36470D01*
X37161Y36482D01*
X37159Y36496D01*
X37158Y36510D01*
X37157Y36525D01*
Y36530D01*
X37158Y36532D01*
Y36535D01*
X37158Y36542D01*
X37159Y36550D01*
X37160Y36560D01*
X37162Y36571D01*
X37165Y36583D01*
X37168Y36596D01*
X37172Y36609D01*
X37178Y36622D01*
X37184Y36636D01*
X37191Y36649D01*
X37199Y36662D01*
X37209Y36675D01*
X37220Y36686D01*
X37221Y36687D01*
X37222Y36689D01*
X37226Y36692D01*
X37231Y36696D01*
X37238Y36700D01*
X37246Y36705D01*
X37254Y36710D01*
X37265Y36716D01*
X37277Y36721D01*
X37290Y36727D01*
X37304Y36732D01*
X37320Y36736D01*
X37337Y36740D01*
X37355Y36743D01*
X37375Y36745D01*
X37395Y36745D01*
X37396D01*
X37397D01*
X37398D01*
X37400D01*
X37403Y36745D01*
D02*
G37*
G36*
X37631Y36152D02*
X37560D01*
X37560Y36152D01*
X37562Y36151D01*
X37564Y36150D01*
X37568Y36148D01*
X37572Y36145D01*
X37577Y36143D01*
X37587Y36136D01*
X37597Y36128D01*
X37608Y36120D01*
X37613Y36116D01*
X37618Y36112D01*
X37622Y36107D01*
X37625Y36103D01*
Y36102D01*
X37626Y36102D01*
X37626Y36101D01*
X37628Y36099D01*
X37630Y36094D01*
X37633Y36088D01*
X37636Y36080D01*
X37639Y36072D01*
X37641Y36063D01*
X37641Y36053D01*
Y36048D01*
X37641Y36046D01*
X37640Y36042D01*
X37640Y36038D01*
X37639Y36033D01*
X37638Y36028D01*
X37637Y36022D01*
X37635Y36015D01*
X37631Y36002D01*
X37628Y35994D01*
X37624Y35987D01*
X37620Y35979D01*
X37616Y35972D01*
X37543Y35999D01*
Y36000D01*
X37544Y36001D01*
X37545Y36002D01*
X37546Y36004D01*
X37547Y36007D01*
X37548Y36010D01*
X37552Y36017D01*
X37555Y36026D01*
X37557Y36035D01*
X37559Y36046D01*
X37560Y36057D01*
Y36061D01*
X37559Y36066D01*
X37558Y36072D01*
X37556Y36079D01*
X37553Y36087D01*
X37549Y36095D01*
X37544Y36102D01*
X37543Y36103D01*
X37541Y36106D01*
X37538Y36109D01*
X37533Y36114D01*
X37527Y36119D01*
X37520Y36123D01*
X37511Y36128D01*
X37501Y36132D01*
X37501D01*
X37499Y36132D01*
X37497Y36133D01*
X37494Y36133D01*
X37490Y36134D01*
X37485Y36136D01*
X37480Y36137D01*
X37474Y36138D01*
X37467Y36139D01*
X37460Y36140D01*
X37453Y36141D01*
X37445Y36143D01*
X37428Y36144D01*
X37410Y36144D01*
X37167D01*
Y36223D01*
X37631D01*
Y36152D01*
D02*
G37*
G36*
X37807Y35598D02*
X37717D01*
Y35676D01*
X37807D01*
Y35598D01*
D02*
G37*
G36*
X37631D02*
X37167D01*
Y35676D01*
X37631D01*
Y35598D01*
D02*
G37*
G36*
Y35408D02*
X37565D01*
X37566Y35407D01*
X37568Y35405D01*
X37572Y35402D01*
X37577Y35398D01*
X37583Y35393D01*
X37589Y35386D01*
X37596Y35379D01*
X37603Y35370D01*
X37610Y35360D01*
X37617Y35349D01*
X37624Y35337D01*
X37629Y35324D01*
X37634Y35310D01*
X37638Y35294D01*
X37640Y35278D01*
X37641Y35260D01*
Y35253D01*
X37641Y35250D01*
X37640Y35245D01*
X37640Y35240D01*
X37639Y35235D01*
X37638Y35223D01*
X37635Y35210D01*
X37631Y35197D01*
X37626Y35183D01*
Y35183D01*
X37626Y35182D01*
X37625Y35180D01*
X37623Y35177D01*
X37622Y35175D01*
X37620Y35171D01*
X37615Y35164D01*
X37610Y35155D01*
X37603Y35146D01*
X37595Y35138D01*
X37586Y35131D01*
X37586D01*
X37585Y35130D01*
X37584Y35129D01*
X37582Y35128D01*
X37580Y35127D01*
X37577Y35125D01*
X37570Y35121D01*
X37562Y35117D01*
X37552Y35113D01*
X37540Y35109D01*
X37528Y35106D01*
X37528D01*
X37528D01*
X37526Y35106D01*
X37524Y35105D01*
X37522D01*
X37519Y35105D01*
X37515Y35104D01*
X37511Y35104D01*
X37506Y35103D01*
X37500Y35103D01*
X37494Y35103D01*
X37487D01*
X37479Y35102D01*
X37471Y35102D01*
X37462D01*
X37452D01*
X37167D01*
Y35180D01*
X37449D01*
X37449D01*
X37451D01*
X37454D01*
X37457D01*
X37461Y35181D01*
X37466D01*
X37471Y35181D01*
X37476D01*
X37488Y35182D01*
X37499Y35184D01*
X37511Y35186D01*
X37516Y35188D01*
X37521Y35189D01*
X37521D01*
X37522Y35190D01*
X37523Y35190D01*
X37525Y35191D01*
X37529Y35194D01*
X37534Y35197D01*
X37540Y35201D01*
X37547Y35207D01*
X37553Y35214D01*
X37559Y35222D01*
Y35223D01*
X37559Y35223D01*
X37560Y35225D01*
X37561Y35226D01*
X37564Y35231D01*
X37566Y35237D01*
X37569Y35246D01*
X37571Y35255D01*
X37573Y35265D01*
X37573Y35277D01*
Y35282D01*
X37573Y35285D01*
X37572Y35290D01*
X37571Y35295D01*
X37571Y35300D01*
X37569Y35306D01*
X37568Y35313D01*
X37565Y35320D01*
X37563Y35327D01*
X37560Y35335D01*
X37556Y35342D01*
X37552Y35349D01*
X37547Y35357D01*
X37541Y35364D01*
X37541Y35364D01*
X37540Y35365D01*
X37538Y35367D01*
X37535Y35369D01*
X37531Y35372D01*
X37527Y35375D01*
X37521Y35378D01*
X37514Y35382D01*
X37507Y35385D01*
X37498Y35388D01*
X37488Y35391D01*
X37477Y35394D01*
X37465Y35397D01*
X37451Y35398D01*
X37436Y35399D01*
X37420Y35400D01*
X37167D01*
Y35478D01*
X37631D01*
Y35408D01*
D02*
G37*
G36*
Y34910D02*
X37571D01*
X37571Y34909D01*
X37572Y34909D01*
X37574Y34907D01*
X37577Y34905D01*
X37579Y34903D01*
X37583Y34900D01*
X37590Y34893D01*
X37599Y34885D01*
X37607Y34875D01*
X37616Y34864D01*
X37623Y34853D01*
Y34852D01*
X37624Y34851D01*
X37625Y34850D01*
X37626Y34847D01*
X37627Y34844D01*
X37629Y34840D01*
X37631Y34836D01*
X37632Y34831D01*
X37634Y34826D01*
X37636Y34820D01*
X37637Y34814D01*
X37638Y34807D01*
X37640Y34792D01*
X37641Y34776D01*
Y34770D01*
X37641Y34766D01*
X37640Y34760D01*
X37639Y34754D01*
X37638Y34748D01*
X37638Y34741D01*
X37636Y34733D01*
X37634Y34724D01*
X37631Y34716D01*
X37628Y34707D01*
X37625Y34698D01*
X37620Y34689D01*
X37616Y34680D01*
X37610Y34671D01*
X37610Y34671D01*
X37609Y34669D01*
X37607Y34667D01*
X37605Y34664D01*
X37601Y34660D01*
X37598Y34655D01*
X37593Y34651D01*
X37588Y34645D01*
X37583Y34640D01*
X37576Y34634D01*
X37569Y34629D01*
X37561Y34623D01*
X37553Y34617D01*
X37544Y34612D01*
X37534Y34607D01*
X37524Y34602D01*
X37524Y34602D01*
X37522Y34601D01*
X37519Y34600D01*
X37515Y34599D01*
X37509Y34597D01*
X37503Y34595D01*
X37496Y34593D01*
X37488Y34591D01*
X37479Y34588D01*
X37470Y34587D01*
X37460Y34585D01*
X37449Y34583D01*
X37438Y34582D01*
X37427Y34580D01*
X37415Y34580D01*
X37403Y34579D01*
X37402D01*
X37399D01*
X37396D01*
X37391Y34580D01*
X37385Y34580D01*
X37377Y34581D01*
X37369Y34582D01*
X37360Y34582D01*
X37350Y34584D01*
X37340Y34586D01*
X37319Y34590D01*
X37307Y34593D01*
X37296Y34596D01*
X37285Y34600D01*
X37275Y34605D01*
X37274Y34606D01*
X37272Y34606D01*
X37269Y34608D01*
X37265Y34610D01*
X37260Y34612D01*
X37255Y34616D01*
X37249Y34619D01*
X37242Y34624D01*
X37235Y34629D01*
X37228Y34634D01*
X37221Y34640D01*
X37214Y34647D01*
X37207Y34654D01*
X37200Y34662D01*
X37193Y34670D01*
X37187Y34679D01*
X37187Y34680D01*
X37186Y34681D01*
X37185Y34684D01*
X37183Y34687D01*
X37180Y34692D01*
X37178Y34697D01*
X37175Y34703D01*
X37172Y34710D01*
X37169Y34717D01*
X37167Y34725D01*
X37164Y34734D01*
X37162Y34742D01*
X37160Y34752D01*
X37159Y34761D01*
X37158Y34771D01*
X37157Y34781D01*
Y34785D01*
X37158Y34788D01*
Y34791D01*
X37158Y34795D01*
X37159Y34800D01*
X37159Y34805D01*
X37161Y34816D01*
X37164Y34827D01*
X37168Y34840D01*
X37173Y34852D01*
Y34852D01*
X37174Y34853D01*
X37175Y34855D01*
X37177Y34857D01*
X37178Y34860D01*
X37180Y34863D01*
X37185Y34870D01*
X37191Y34878D01*
X37198Y34887D01*
X37206Y34895D01*
X37215Y34903D01*
X36990D01*
Y34981D01*
X37631D01*
Y34910D01*
D02*
G37*
G36*
Y34407D02*
X37374D01*
X37373D01*
X37371D01*
X37368D01*
X37364D01*
X37359D01*
X37353Y34407D01*
X37347D01*
X37340D01*
X37326Y34406D01*
X37313Y34405D01*
X37307Y34405D01*
X37301Y34404D01*
X37295Y34404D01*
X37291Y34403D01*
X37290D01*
X37289Y34402D01*
X37288Y34402D01*
X37286Y34401D01*
X37283Y34400D01*
X37280Y34399D01*
X37273Y34396D01*
X37265Y34392D01*
X37257Y34386D01*
X37249Y34380D01*
X37242Y34371D01*
Y34371D01*
X37241Y34370D01*
X37241Y34369D01*
X37240Y34367D01*
X37238Y34365D01*
X37237Y34362D01*
X37234Y34355D01*
X37230Y34346D01*
X37228Y34336D01*
X37226Y34324D01*
X37225Y34312D01*
Y34309D01*
X37225Y34306D01*
Y34303D01*
X37226Y34299D01*
X37226Y34295D01*
X37227Y34291D01*
X37229Y34281D01*
X37232Y34269D01*
X37237Y34257D01*
X37243Y34246D01*
Y34245D01*
X37244Y34245D01*
X37245Y34243D01*
X37246Y34241D01*
X37250Y34235D01*
X37256Y34229D01*
X37263Y34221D01*
X37271Y34214D01*
X37281Y34208D01*
X37292Y34202D01*
X37292D01*
X37293Y34202D01*
X37295Y34201D01*
X37298Y34200D01*
X37301Y34199D01*
X37305Y34198D01*
X37309Y34197D01*
X37315Y34196D01*
X37321Y34194D01*
X37328Y34193D01*
X37335Y34192D01*
X37343Y34191D01*
X37352Y34190D01*
X37362Y34190D01*
X37372Y34189D01*
X37382D01*
X37631D01*
Y34110D01*
X37167D01*
Y34181D01*
X37235D01*
X37234Y34181D01*
X37232Y34183D01*
X37228Y34186D01*
X37223Y34190D01*
X37217Y34196D01*
X37211Y34203D01*
X37203Y34210D01*
X37197Y34220D01*
X37189Y34229D01*
X37182Y34240D01*
X37175Y34252D01*
X37169Y34265D01*
X37165Y34280D01*
X37160Y34295D01*
X37158Y34311D01*
X37157Y34328D01*
Y34332D01*
X37158Y34335D01*
Y34338D01*
X37158Y34343D01*
X37159Y34348D01*
X37159Y34353D01*
X37161Y34365D01*
X37164Y34378D01*
X37167Y34391D01*
X37172Y34404D01*
Y34405D01*
X37173Y34406D01*
X37174Y34408D01*
X37175Y34410D01*
X37177Y34413D01*
X37179Y34416D01*
X37183Y34424D01*
X37189Y34433D01*
X37196Y34442D01*
X37203Y34450D01*
X37212Y34457D01*
X37212D01*
X37213Y34458D01*
X37214Y34459D01*
X37216Y34460D01*
X37218Y34461D01*
X37221Y34463D01*
X37228Y34466D01*
X37237Y34471D01*
X37247Y34475D01*
X37258Y34478D01*
X37270Y34481D01*
X37271D01*
X37271D01*
X37273Y34482D01*
X37275Y34482D01*
X37277D01*
X37281Y34483D01*
X37284Y34483D01*
X37289Y34484D01*
X37293Y34484D01*
X37299Y34484D01*
X37305Y34485D01*
X37311D01*
X37318Y34485D01*
X37326Y34486D01*
X37334D01*
X37344D01*
X37631D01*
Y34407D01*
D02*
G37*
G36*
Y33973D02*
X37746D01*
X37793Y33894D01*
X37631D01*
Y33816D01*
X37570D01*
Y33894D01*
X37299D01*
X37298D01*
X37297D01*
X37295D01*
X37293D01*
X37288D01*
X37281Y33894D01*
X37274Y33893D01*
X37266Y33893D01*
X37260Y33892D01*
X37258Y33891D01*
X37256Y33890D01*
X37255D01*
X37254Y33889D01*
X37252Y33889D01*
X37250Y33887D01*
X37245Y33883D01*
X37243Y33880D01*
X37240Y33877D01*
Y33877D01*
X37240Y33875D01*
X37239Y33873D01*
X37238Y33870D01*
X37237Y33866D01*
X37236Y33862D01*
X37235Y33856D01*
X37235Y33850D01*
Y33845D01*
X37235Y33841D01*
Y33836D01*
X37236Y33830D01*
X37237Y33823D01*
X37238Y33816D01*
X37168Y33804D01*
Y33805D01*
X37168Y33806D01*
Y33808D01*
X37167Y33810D01*
X37167Y33813D01*
X37166Y33816D01*
X37165Y33824D01*
X37164Y33834D01*
X37162Y33844D01*
X37162Y33854D01*
X37161Y33864D01*
Y33871D01*
X37162Y33875D01*
X37162Y33879D01*
X37163Y33888D01*
X37165Y33899D01*
X37167Y33910D01*
X37170Y33920D01*
X37175Y33930D01*
Y33931D01*
X37175Y33931D01*
X37177Y33934D01*
X37180Y33938D01*
X37184Y33943D01*
X37189Y33949D01*
X37195Y33954D01*
X37202Y33959D01*
X37210Y33963D01*
X37210D01*
X37211Y33964D01*
X37212Y33964D01*
X37215Y33965D01*
X37217Y33966D01*
X37221Y33966D01*
X37225Y33967D01*
X37230Y33968D01*
X37236Y33969D01*
X37242Y33970D01*
X37250Y33970D01*
X37258Y33971D01*
X37268Y33972D01*
X37278Y33972D01*
X37290Y33973D01*
X37303D01*
X37570D01*
Y34031D01*
X37631D01*
Y33973D01*
D02*
G37*
%LPC*%
G36*
X37444Y39591D02*
Y39331D01*
X37444D01*
X37447Y39332D01*
X37449D01*
X37454Y39333D01*
X37458Y39333D01*
X37464Y39335D01*
X37470Y39336D01*
X37477Y39337D01*
X37491Y39341D01*
X37505Y39346D01*
X37519Y39353D01*
X37526Y39357D01*
X37531Y39361D01*
X37532Y39362D01*
X37533Y39363D01*
X37535Y39365D01*
X37538Y39368D01*
X37542Y39372D01*
X37546Y39376D01*
X37550Y39382D01*
X37554Y39388D01*
X37558Y39394D01*
X37562Y39402D01*
X37566Y39410D01*
X37570Y39418D01*
X37572Y39428D01*
X37575Y39438D01*
X37576Y39448D01*
X37577Y39459D01*
Y39464D01*
X37576Y39468D01*
X37576Y39473D01*
X37575Y39478D01*
X37573Y39484D01*
X37572Y39490D01*
X37570Y39498D01*
X37568Y39505D01*
X37564Y39513D01*
X37561Y39520D01*
X37557Y39528D01*
X37552Y39536D01*
X37546Y39543D01*
X37540Y39550D01*
X37540Y39551D01*
X37538Y39551D01*
X37536Y39553D01*
X37534Y39556D01*
X37530Y39559D01*
X37525Y39562D01*
X37520Y39565D01*
X37515Y39569D01*
X37508Y39573D01*
X37501Y39576D01*
X37493Y39580D01*
X37484Y39583D01*
X37475Y39586D01*
X37465Y39588D01*
X37455Y39590D01*
X37444Y39591D01*
D02*
G37*
G36*
X37399Y38107D02*
X37398D01*
X37398D01*
X37396D01*
X37395D01*
X37390Y38107D01*
X37384D01*
X37377Y38106D01*
X37368Y38105D01*
X37359Y38104D01*
X37349Y38103D01*
X37338Y38101D01*
X37327Y38098D01*
X37316Y38095D01*
X37305Y38092D01*
X37295Y38087D01*
X37284Y38082D01*
X37275Y38076D01*
X37266Y38070D01*
X37265Y38069D01*
X37264Y38068D01*
X37262Y38066D01*
X37259Y38063D01*
X37256Y38060D01*
X37252Y38056D01*
X37248Y38050D01*
X37244Y38045D01*
X37240Y38038D01*
X37236Y38032D01*
X37232Y38025D01*
X37229Y38017D01*
X37226Y38008D01*
X37224Y38000D01*
X37222Y37991D01*
X37222Y37982D01*
Y37979D01*
X37222Y37977D01*
Y37973D01*
X37223Y37969D01*
X37224Y37964D01*
X37226Y37958D01*
X37227Y37952D01*
X37229Y37945D01*
X37232Y37938D01*
X37235Y37930D01*
X37240Y37923D01*
X37244Y37915D01*
X37250Y37908D01*
X37256Y37901D01*
X37264Y37894D01*
X37264Y37894D01*
X37265Y37893D01*
X37268Y37891D01*
X37271Y37889D01*
X37276Y37886D01*
X37282Y37883D01*
X37288Y37879D01*
X37295Y37876D01*
X37304Y37873D01*
X37313Y37870D01*
X37324Y37866D01*
X37336Y37864D01*
X37348Y37861D01*
X37362Y37860D01*
X37376Y37859D01*
X37392Y37858D01*
X37393D01*
X37393D01*
X37394D01*
X37396D01*
X37401D01*
X37408Y37859D01*
X37416Y37859D01*
X37424Y37860D01*
X37434Y37861D01*
X37445Y37863D01*
X37456Y37865D01*
X37468Y37867D01*
X37479Y37870D01*
X37491Y37874D01*
X37502Y37878D01*
X37513Y37883D01*
X37522Y37889D01*
X37531Y37895D01*
X37532Y37896D01*
X37533Y37897D01*
X37535Y37899D01*
X37538Y37902D01*
X37542Y37905D01*
X37546Y37909D01*
X37549Y37915D01*
X37554Y37920D01*
X37558Y37926D01*
X37562Y37933D01*
X37566Y37940D01*
X37569Y37949D01*
X37572Y37957D01*
X37574Y37966D01*
X37576Y37976D01*
X37576Y37985D01*
Y37988D01*
X37576Y37990D01*
Y37994D01*
X37575Y37998D01*
X37574Y38004D01*
X37572Y38009D01*
X37571Y38016D01*
X37568Y38023D01*
X37565Y38030D01*
X37562Y38037D01*
X37558Y38044D01*
X37553Y38051D01*
X37547Y38059D01*
X37540Y38066D01*
X37533Y38073D01*
X37533Y38073D01*
X37531Y38074D01*
X37528Y38076D01*
X37525Y38078D01*
X37521Y38081D01*
X37515Y38084D01*
X37508Y38087D01*
X37500Y38090D01*
X37491Y38093D01*
X37482Y38096D01*
X37471Y38099D01*
X37458Y38102D01*
X37445Y38104D01*
X37431Y38106D01*
X37415Y38107D01*
X37399Y38107D01*
D02*
G37*
G36*
X37444Y36660D02*
Y36401D01*
X37444D01*
X37447Y36402D01*
X37449D01*
X37454Y36402D01*
X37458Y36403D01*
X37464Y36404D01*
X37470Y36405D01*
X37477Y36407D01*
X37491Y36411D01*
X37505Y36416D01*
X37519Y36423D01*
X37526Y36427D01*
X37531Y36431D01*
X37532Y36432D01*
X37533Y36433D01*
X37535Y36435D01*
X37538Y36438D01*
X37542Y36442D01*
X37546Y36446D01*
X37550Y36451D01*
X37554Y36457D01*
X37558Y36464D01*
X37562Y36471D01*
X37566Y36479D01*
X37570Y36488D01*
X37572Y36497D01*
X37575Y36507D01*
X37576Y36518D01*
X37577Y36529D01*
Y36534D01*
X37576Y36537D01*
X37576Y36543D01*
X37575Y36548D01*
X37573Y36554D01*
X37572Y36560D01*
X37570Y36567D01*
X37568Y36574D01*
X37564Y36582D01*
X37561Y36590D01*
X37557Y36598D01*
X37552Y36605D01*
X37546Y36613D01*
X37540Y36620D01*
X37540Y36620D01*
X37538Y36621D01*
X37536Y36623D01*
X37534Y36626D01*
X37530Y36629D01*
X37525Y36632D01*
X37520Y36635D01*
X37515Y36639D01*
X37508Y36642D01*
X37501Y36646D01*
X37493Y36649D01*
X37484Y36653D01*
X37475Y36655D01*
X37465Y36658D01*
X37455Y36659D01*
X37444Y36660D01*
D02*
G37*
G36*
X37397Y34910D02*
X37396D01*
X37396D01*
X37394D01*
X37393D01*
X37388Y34910D01*
X37382D01*
X37375Y34909D01*
X37366Y34908D01*
X37356Y34907D01*
X37347Y34906D01*
X37336Y34904D01*
X37325Y34901D01*
X37314Y34899D01*
X37303Y34895D01*
X37293Y34891D01*
X37283Y34886D01*
X37273Y34881D01*
X37264Y34874D01*
X37264Y34874D01*
X37263Y34872D01*
X37261Y34870D01*
X37258Y34868D01*
X37255Y34864D01*
X37251Y34860D01*
X37247Y34855D01*
X37243Y34850D01*
X37239Y34844D01*
X37235Y34837D01*
X37232Y34830D01*
X37228Y34822D01*
X37226Y34814D01*
X37224Y34805D01*
X37222Y34796D01*
X37222Y34787D01*
Y34784D01*
X37222Y34782D01*
X37223Y34778D01*
X37223Y34773D01*
X37224Y34768D01*
X37226Y34762D01*
X37228Y34756D01*
X37230Y34749D01*
X37233Y34742D01*
X37236Y34735D01*
X37240Y34727D01*
X37246Y34719D01*
X37252Y34712D01*
X37258Y34704D01*
X37266Y34698D01*
X37266Y34697D01*
X37268Y34696D01*
X37270Y34694D01*
X37274Y34692D01*
X37279Y34689D01*
X37285Y34686D01*
X37292Y34682D01*
X37300Y34679D01*
X37309Y34675D01*
X37319Y34672D01*
X37330Y34669D01*
X37343Y34666D01*
X37356Y34663D01*
X37371Y34661D01*
X37387Y34661D01*
X37403Y34660D01*
X37404D01*
X37404D01*
X37405D01*
X37407D01*
X37411D01*
X37417Y34661D01*
X37425Y34661D01*
X37433Y34662D01*
X37443Y34663D01*
X37453Y34665D01*
X37463Y34667D01*
X37474Y34669D01*
X37485Y34672D01*
X37496Y34675D01*
X37507Y34680D01*
X37517Y34685D01*
X37527Y34690D01*
X37535Y34697D01*
X37536Y34697D01*
X37537Y34698D01*
X37540Y34700D01*
X37542Y34703D01*
X37546Y34707D01*
X37549Y34711D01*
X37553Y34716D01*
X37558Y34721D01*
X37562Y34727D01*
X37566Y34734D01*
X37570Y34741D01*
X37573Y34749D01*
X37576Y34757D01*
X37578Y34766D01*
X37579Y34774D01*
X37580Y34784D01*
Y34786D01*
X37579Y34788D01*
X37579Y34792D01*
X37578Y34796D01*
X37577Y34802D01*
X37576Y34807D01*
X37574Y34813D01*
X37571Y34820D01*
X37568Y34827D01*
X37564Y34834D01*
X37560Y34842D01*
X37554Y34850D01*
X37548Y34857D01*
X37541Y34864D01*
X37533Y34872D01*
X37532Y34872D01*
X37530Y34874D01*
X37528Y34876D01*
X37524Y34878D01*
X37519Y34881D01*
X37513Y34884D01*
X37506Y34888D01*
X37498Y34891D01*
X37489Y34894D01*
X37479Y34898D01*
X37468Y34901D01*
X37455Y34904D01*
X37442Y34907D01*
X37428Y34908D01*
X37413Y34910D01*
X37397Y34910D01*
D02*
G37*
%LPD*%
D13*
X39367Y38402D02*
Y44402D01*
X34967Y38402D02*
X39367D01*
X34967D02*
Y44402D01*
X39367D01*
M02*
