G04*
G04 #@! TF.GenerationSoftware,Altium Limited,Altium Designer,20.1.14 (287)*
G04*
G04 Layer_Color=32896*
%FSLAX43Y43*%
%MOMM*%
G71*
G04*
G04 #@! TF.SameCoordinates,2B19F274-0338-4189-8154-59E22298D11E*
G04*
G04*
G04 #@! TF.FilePolarity,Positive*
G04*
G01*
G75*
%ADD11C,0.127*%
G36*
X27322Y51041D02*
X27318Y51033D01*
X27307Y51017D01*
X27296Y51003D01*
X27290Y50996D01*
X27284Y50990D01*
X27279Y50984D01*
X27273Y50979D01*
X27269Y50974D01*
X27265Y50970D01*
X27261Y50967D01*
X27259Y50964D01*
X27257Y50963D01*
X27257Y50962D01*
X27238Y50947D01*
X27218Y50932D01*
X27199Y50919D01*
X27189Y50914D01*
X27181Y50908D01*
X27173Y50904D01*
X27165Y50900D01*
X27158Y50896D01*
X27153Y50893D01*
X27148Y50891D01*
X27144Y50889D01*
X27143Y50888D01*
X27142Y50888D01*
Y50812D01*
X27156Y50817D01*
X27170Y50824D01*
X27184Y50830D01*
X27197Y50837D01*
X27202Y50840D01*
X27208Y50843D01*
X27212Y50845D01*
X27216Y50848D01*
X27219Y50849D01*
X27222Y50851D01*
X27224Y50851D01*
X27224Y50852D01*
X27241Y50862D01*
X27248Y50867D01*
X27255Y50872D01*
X27262Y50877D01*
X27268Y50881D01*
X27273Y50886D01*
X27279Y50889D01*
X27283Y50893D01*
X27287Y50896D01*
X27291Y50900D01*
X27294Y50902D01*
X27296Y50904D01*
X27298Y50905D01*
X27298Y50906D01*
X27299Y50906D01*
Y50406D01*
X27377D01*
Y51048D01*
X27327D01*
X27322Y51041D01*
D02*
G37*
G36*
X24643Y50406D02*
X24731D01*
X24865Y50894D01*
X24869Y50906D01*
X24872Y50919D01*
X24875Y50931D01*
X24878Y50943D01*
X24879Y50948D01*
X24881Y50953D01*
X24882Y50957D01*
X24883Y50961D01*
X24883Y50964D01*
X24884Y50967D01*
X24884Y50968D01*
Y50968D01*
X24885Y50965D01*
X24886Y50961D01*
X24888Y50956D01*
X24889Y50951D01*
X24891Y50945D01*
X24892Y50939D01*
X24896Y50926D01*
X24898Y50919D01*
X24900Y50913D01*
X24901Y50908D01*
X24902Y50903D01*
X24903Y50899D01*
X24904Y50896D01*
X24905Y50894D01*
Y50894D01*
X25039Y50406D01*
X25121D01*
X25297Y51046D01*
X25211D01*
X25111Y50635D01*
X25107Y50620D01*
X25104Y50606D01*
X25101Y50593D01*
X25098Y50580D01*
X25095Y50568D01*
X25092Y50556D01*
X25090Y50545D01*
X25088Y50536D01*
X25086Y50527D01*
X25084Y50519D01*
X25083Y50512D01*
X25081Y50506D01*
X25080Y50502D01*
X25079Y50498D01*
X25079Y50496D01*
Y50496D01*
X25073Y50536D01*
X25065Y50575D01*
X25061Y50595D01*
X25056Y50614D01*
X25052Y50631D01*
X25048Y50649D01*
X25044Y50664D01*
X25041Y50678D01*
X25037Y50691D01*
X25036Y50697D01*
X25035Y50702D01*
X25033Y50706D01*
X25032Y50710D01*
X25031Y50714D01*
X25030Y50716D01*
X25030Y50719D01*
X25030Y50721D01*
X25029Y50722D01*
Y50722D01*
X24938Y51046D01*
X24835D01*
X24714Y50614D01*
X24714Y50612D01*
X24713Y50610D01*
X24712Y50604D01*
X24710Y50597D01*
X24708Y50589D01*
X24705Y50580D01*
X24703Y50569D01*
X24698Y50549D01*
X24695Y50539D01*
X24693Y50529D01*
X24691Y50520D01*
X24689Y50512D01*
X24687Y50505D01*
X24687Y50502D01*
X24686Y50500D01*
X24686Y50498D01*
Y50497D01*
X24685Y50496D01*
Y50496D01*
X24681Y50520D01*
X24676Y50544D01*
X24674Y50555D01*
X24671Y50566D01*
X24669Y50576D01*
X24667Y50585D01*
X24665Y50594D01*
X24663Y50602D01*
X24662Y50609D01*
X24661Y50615D01*
X24659Y50620D01*
X24659Y50624D01*
X24658Y50625D01*
Y50626D01*
X24561Y51046D01*
X24474D01*
X24643Y50406D01*
D02*
G37*
G36*
X29363Y51057D02*
X29348Y51055D01*
X29333Y51053D01*
X29319Y51051D01*
X29305Y51048D01*
X29292Y51045D01*
X29280Y51041D01*
X29269Y51038D01*
X29259Y51034D01*
X29250Y51031D01*
X29242Y51028D01*
X29236Y51024D01*
X29230Y51022D01*
X29227Y51020D01*
X29224Y51019D01*
X29223Y51018D01*
X29210Y51011D01*
X29198Y51002D01*
X29187Y50993D01*
X29177Y50984D01*
X29167Y50975D01*
X29158Y50966D01*
X29150Y50956D01*
X29143Y50947D01*
X29136Y50939D01*
X29130Y50931D01*
X29126Y50924D01*
X29122Y50918D01*
X29119Y50912D01*
X29117Y50908D01*
X29115Y50906D01*
X29115Y50905D01*
X29108Y50891D01*
X29102Y50876D01*
X29097Y50862D01*
X29093Y50847D01*
X29089Y50832D01*
X29086Y50817D01*
X29084Y50803D01*
X29081Y50790D01*
X29080Y50778D01*
X29079Y50766D01*
X29078Y50756D01*
X29077Y50747D01*
Y50741D01*
X29077Y50738D01*
Y50735D01*
Y50734D01*
Y50732D01*
Y50731D01*
Y50731D01*
X29077Y50714D01*
X29078Y50697D01*
X29080Y50681D01*
X29082Y50666D01*
X29085Y50650D01*
X29087Y50637D01*
X29091Y50623D01*
X29094Y50611D01*
X29097Y50600D01*
X29100Y50589D01*
X29103Y50581D01*
X29105Y50573D01*
X29107Y50567D01*
X29109Y50563D01*
X29110Y50560D01*
X29111Y50560D01*
Y50559D01*
X29117Y50545D01*
X29124Y50531D01*
X29132Y50519D01*
X29140Y50507D01*
X29148Y50496D01*
X29157Y50486D01*
X29165Y50477D01*
X29173Y50469D01*
X29180Y50461D01*
X29187Y50455D01*
X29193Y50450D01*
X29198Y50446D01*
X29203Y50442D01*
X29206Y50440D01*
X29208Y50438D01*
X29209Y50438D01*
X29222Y50430D01*
X29235Y50424D01*
X29249Y50418D01*
X29263Y50413D01*
X29277Y50410D01*
X29291Y50406D01*
X29304Y50403D01*
X29318Y50401D01*
X29330Y50399D01*
X29341Y50398D01*
X29351Y50397D01*
X29360Y50396D01*
X29367D01*
X29370Y50396D01*
X29377D01*
X29396Y50396D01*
X29413Y50398D01*
X29430Y50401D01*
X29446Y50404D01*
X29461Y50408D01*
X29475Y50413D01*
X29488Y50418D01*
X29499Y50423D01*
X29510Y50428D01*
X29519Y50433D01*
X29528Y50438D01*
X29534Y50442D01*
X29540Y50445D01*
X29543Y50448D01*
X29546Y50450D01*
X29546Y50450D01*
X29559Y50461D01*
X29571Y50473D01*
X29581Y50485D01*
X29591Y50498D01*
X29600Y50512D01*
X29608Y50525D01*
X29614Y50538D01*
X29620Y50551D01*
X29626Y50563D01*
X29631Y50574D01*
X29634Y50583D01*
X29638Y50592D01*
X29640Y50599D01*
X29641Y50602D01*
X29641Y50605D01*
X29642Y50606D01*
X29642Y50608D01*
X29643Y50609D01*
Y50609D01*
X29558Y50631D01*
X29554Y50616D01*
X29550Y50602D01*
X29546Y50589D01*
X29540Y50578D01*
X29535Y50567D01*
X29529Y50557D01*
X29523Y50548D01*
X29518Y50539D01*
X29513Y50533D01*
X29508Y50526D01*
X29503Y50521D01*
X29499Y50517D01*
X29496Y50513D01*
X29493Y50511D01*
X29491Y50509D01*
X29491Y50509D01*
X29481Y50502D01*
X29472Y50496D01*
X29461Y50490D01*
X29451Y50485D01*
X29441Y50482D01*
X29431Y50478D01*
X29421Y50476D01*
X29412Y50473D01*
X29404Y50471D01*
X29395Y50471D01*
X29388Y50470D01*
X29382Y50469D01*
X29377D01*
X29374Y50468D01*
X29370D01*
X29360Y50469D01*
X29349Y50470D01*
X29339Y50471D01*
X29329Y50473D01*
X29320Y50475D01*
X29310Y50478D01*
X29302Y50480D01*
X29294Y50484D01*
X29287Y50486D01*
X29281Y50489D01*
X29275Y50491D01*
X29271Y50494D01*
X29267Y50496D01*
X29264Y50497D01*
X29262Y50498D01*
X29262Y50498D01*
X29252Y50504D01*
X29244Y50511D01*
X29236Y50518D01*
X29229Y50525D01*
X29222Y50533D01*
X29216Y50540D01*
X29211Y50548D01*
X29206Y50555D01*
X29202Y50562D01*
X29198Y50568D01*
X29195Y50574D01*
X29192Y50579D01*
X29190Y50583D01*
X29189Y50586D01*
X29188Y50588D01*
X29188Y50589D01*
X29184Y50600D01*
X29180Y50612D01*
X29177Y50625D01*
X29174Y50637D01*
X29170Y50661D01*
X29168Y50672D01*
X29167Y50683D01*
X29166Y50693D01*
X29166Y50702D01*
X29165Y50710D01*
X29165Y50717D01*
X29164Y50723D01*
Y50728D01*
Y50730D01*
Y50731D01*
X29165Y50743D01*
X29165Y50755D01*
X29167Y50777D01*
X29169Y50788D01*
X29171Y50798D01*
X29173Y50808D01*
X29174Y50816D01*
X29176Y50825D01*
X29178Y50832D01*
X29179Y50839D01*
X29181Y50844D01*
X29182Y50848D01*
X29183Y50851D01*
X29184Y50854D01*
Y50854D01*
X29188Y50865D01*
X29193Y50876D01*
X29198Y50885D01*
X29203Y50894D01*
X29209Y50903D01*
X29215Y50911D01*
X29221Y50918D01*
X29226Y50924D01*
X29232Y50930D01*
X29237Y50935D01*
X29241Y50939D01*
X29246Y50943D01*
X29249Y50945D01*
X29251Y50948D01*
X29253Y50949D01*
X29253Y50949D01*
X29263Y50955D01*
X29273Y50961D01*
X29283Y50966D01*
X29294Y50970D01*
X29304Y50973D01*
X29314Y50976D01*
X29324Y50978D01*
X29334Y50980D01*
X29343Y50982D01*
X29351Y50983D01*
X29358Y50984D01*
X29365Y50984D01*
X29370Y50985D01*
X29377D01*
X29389Y50984D01*
X29400Y50983D01*
X29411Y50982D01*
X29421Y50980D01*
X29430Y50977D01*
X29439Y50974D01*
X29447Y50972D01*
X29454Y50969D01*
X29461Y50966D01*
X29467Y50963D01*
X29472Y50960D01*
X29476Y50958D01*
X29479Y50955D01*
X29481Y50954D01*
X29483Y50953D01*
X29483Y50953D01*
X29491Y50946D01*
X29498Y50939D01*
X29505Y50931D01*
X29511Y50924D01*
X29517Y50915D01*
X29522Y50906D01*
X29528Y50898D01*
X29532Y50890D01*
X29535Y50882D01*
X29539Y50875D01*
X29542Y50868D01*
X29544Y50863D01*
X29546Y50857D01*
X29547Y50854D01*
X29548Y50852D01*
X29548Y50851D01*
X29632Y50870D01*
X29626Y50887D01*
X29620Y50902D01*
X29614Y50916D01*
X29606Y50930D01*
X29599Y50942D01*
X29591Y50953D01*
X29583Y50963D01*
X29576Y50973D01*
X29569Y50981D01*
X29562Y50988D01*
X29556Y50994D01*
X29551Y50999D01*
X29546Y51003D01*
X29543Y51006D01*
X29541Y51008D01*
X29540Y51008D01*
X29528Y51017D01*
X29515Y51024D01*
X29501Y51031D01*
X29487Y51036D01*
X29474Y51041D01*
X29461Y51045D01*
X29448Y51048D01*
X29435Y51051D01*
X29423Y51053D01*
X29412Y51054D01*
X29403Y51056D01*
X29395Y51056D01*
X29388Y51057D01*
X29385Y51057D01*
X29379D01*
X29363Y51057D01*
D02*
G37*
G36*
X23241Y50406D02*
X23326D01*
Y50667D01*
X23502D01*
X23514Y50667D01*
X23525Y50668D01*
X23536Y50669D01*
X23547Y50670D01*
X23557Y50672D01*
X23576Y50675D01*
X23593Y50680D01*
X23609Y50685D01*
X23622Y50690D01*
X23634Y50695D01*
X23645Y50700D01*
X23653Y50705D01*
X23661Y50710D01*
X23667Y50714D01*
X23671Y50718D01*
X23675Y50721D01*
X23676Y50722D01*
X23677Y50723D01*
X23686Y50734D01*
X23694Y50745D01*
X23701Y50757D01*
X23707Y50768D01*
X23712Y50780D01*
X23716Y50791D01*
X23720Y50802D01*
X23723Y50813D01*
X23725Y50823D01*
X23726Y50832D01*
X23728Y50840D01*
X23728Y50847D01*
X23729Y50853D01*
X23729Y50857D01*
Y50860D01*
Y50861D01*
X23728Y50878D01*
X23726Y50894D01*
X23725Y50902D01*
X23723Y50909D01*
X23721Y50916D01*
X23719Y50922D01*
X23718Y50928D01*
X23716Y50933D01*
X23714Y50937D01*
X23713Y50941D01*
X23712Y50944D01*
X23711Y50946D01*
X23710Y50948D01*
X23710Y50948D01*
X23702Y50962D01*
X23694Y50974D01*
X23685Y50985D01*
X23681Y50990D01*
X23677Y50994D01*
X23673Y50998D01*
X23670Y51001D01*
X23666Y51004D01*
X23664Y51005D01*
X23662Y51007D01*
X23660Y51009D01*
X23659Y51009D01*
X23658Y51010D01*
X23646Y51017D01*
X23633Y51023D01*
X23620Y51029D01*
X23607Y51033D01*
X23601Y51035D01*
X23596Y51036D01*
X23591Y51037D01*
X23587Y51038D01*
X23584Y51039D01*
X23582Y51039D01*
X23580Y51040D01*
X23579D01*
X23573Y51041D01*
X23566Y51042D01*
X23550Y51043D01*
X23534Y51045D01*
X23518Y51045D01*
X23511Y51046D01*
X23504D01*
X23498Y51046D01*
X23241D01*
Y50406D01*
D02*
G37*
G36*
X25377D02*
X25854D01*
Y50482D01*
X25462D01*
Y50699D01*
X25815D01*
Y50775D01*
X25462D01*
Y50971D01*
X25839D01*
Y51046D01*
X25377D01*
Y50406D01*
D02*
G37*
G36*
X25973D02*
X26057D01*
Y50691D01*
X26167D01*
X26176Y50690D01*
X26185Y50690D01*
X26191Y50689D01*
X26196Y50688D01*
X26200Y50688D01*
X26202Y50687D01*
X26202D01*
X26210Y50685D01*
X26217Y50683D01*
X26223Y50680D01*
X26229Y50677D01*
X26234Y50674D01*
X26237Y50672D01*
X26240Y50671D01*
X26241Y50670D01*
X26248Y50665D01*
X26256Y50659D01*
X26262Y50651D01*
X26269Y50644D01*
X26275Y50638D01*
X26280Y50632D01*
X26281Y50630D01*
X26283Y50629D01*
X26283Y50628D01*
X26284Y50627D01*
X26288Y50621D01*
X26293Y50615D01*
X26304Y50601D01*
X26314Y50586D01*
X26323Y50572D01*
X26328Y50565D01*
X26332Y50559D01*
X26336Y50554D01*
X26339Y50549D01*
X26341Y50545D01*
X26343Y50542D01*
X26344Y50540D01*
X26345Y50539D01*
X26429Y50406D01*
X26535D01*
X26425Y50580D01*
X26412Y50599D01*
X26406Y50607D01*
X26400Y50615D01*
X26394Y50623D01*
X26388Y50630D01*
X26382Y50636D01*
X26377Y50642D01*
X26372Y50648D01*
X26368Y50652D01*
X26364Y50656D01*
X26361Y50660D01*
X26358Y50662D01*
X26356Y50664D01*
X26355Y50665D01*
X26354Y50666D01*
X26347Y50672D01*
X26339Y50677D01*
X26331Y50683D01*
X26323Y50687D01*
X26315Y50692D01*
X26312Y50693D01*
X26309Y50695D01*
X26307Y50696D01*
X26305Y50697D01*
X26304Y50698D01*
X26304D01*
X26320Y50700D01*
X26336Y50704D01*
X26350Y50708D01*
X26364Y50712D01*
X26376Y50717D01*
X26387Y50722D01*
X26397Y50727D01*
X26406Y50732D01*
X26414Y50737D01*
X26421Y50741D01*
X26427Y50746D01*
X26431Y50749D01*
X26435Y50753D01*
X26438Y50755D01*
X26439Y50756D01*
X26440Y50757D01*
X26447Y50765D01*
X26454Y50775D01*
X26460Y50784D01*
X26465Y50794D01*
X26470Y50804D01*
X26473Y50814D01*
X26476Y50823D01*
X26478Y50832D01*
X26480Y50840D01*
X26482Y50847D01*
X26483Y50854D01*
X26483Y50860D01*
Y50865D01*
X26484Y50869D01*
Y50870D01*
Y50871D01*
X26483Y50881D01*
X26483Y50891D01*
X26482Y50900D01*
X26480Y50909D01*
X26478Y50917D01*
X26476Y50925D01*
X26473Y50932D01*
X26470Y50939D01*
X26468Y50945D01*
X26465Y50951D01*
X26463Y50956D01*
X26461Y50960D01*
X26459Y50963D01*
X26458Y50966D01*
X26458Y50967D01*
X26457Y50968D01*
X26452Y50975D01*
X26446Y50983D01*
X26440Y50989D01*
X26435Y50996D01*
X26429Y51001D01*
X26423Y51006D01*
X26417Y51011D01*
X26411Y51015D01*
X26406Y51018D01*
X26401Y51021D01*
X26397Y51023D01*
X26393Y51025D01*
X26390Y51027D01*
X26388Y51028D01*
X26386Y51029D01*
X26386D01*
X26377Y51032D01*
X26367Y51035D01*
X26357Y51037D01*
X26347Y51039D01*
X26325Y51042D01*
X26315Y51043D01*
X26305Y51044D01*
X26294Y51045D01*
X26286Y51045D01*
X26277Y51046D01*
X26270D01*
X26264Y51046D01*
X25973D01*
Y50406D01*
D02*
G37*
G36*
X24105Y51057D02*
X24093Y51056D01*
X24080Y51055D01*
X24069Y51053D01*
X24047Y51049D01*
X24025Y51043D01*
X24006Y51036D01*
X23988Y51029D01*
X23971Y51021D01*
X23956Y51012D01*
X23943Y51004D01*
X23931Y50996D01*
X23921Y50988D01*
X23912Y50981D01*
X23905Y50975D01*
X23903Y50973D01*
X23901Y50971D01*
X23899Y50969D01*
X23897Y50968D01*
X23897Y50968D01*
X23897Y50967D01*
X23889Y50958D01*
X23881Y50949D01*
X23875Y50940D01*
X23868Y50931D01*
X23857Y50911D01*
X23847Y50890D01*
X23839Y50869D01*
X23832Y50849D01*
X23826Y50828D01*
X23822Y50808D01*
X23818Y50790D01*
X23816Y50773D01*
X23815Y50765D01*
X23814Y50758D01*
X23813Y50751D01*
X23812Y50744D01*
X23812Y50738D01*
X23811Y50733D01*
Y50729D01*
X23811Y50725D01*
Y50722D01*
Y50720D01*
Y50718D01*
Y50718D01*
X23811Y50702D01*
X23812Y50687D01*
X23814Y50672D01*
X23817Y50657D01*
X23819Y50643D01*
X23823Y50631D01*
X23826Y50618D01*
X23829Y50606D01*
X23833Y50596D01*
X23836Y50587D01*
X23839Y50578D01*
X23842Y50571D01*
X23844Y50565D01*
X23846Y50561D01*
X23847Y50559D01*
X23848Y50558D01*
X23855Y50544D01*
X23863Y50531D01*
X23871Y50519D01*
X23880Y50508D01*
X23889Y50497D01*
X23897Y50487D01*
X23907Y50478D01*
X23915Y50470D01*
X23923Y50463D01*
X23931Y50457D01*
X23938Y50452D01*
X23944Y50447D01*
X23948Y50444D01*
X23952Y50441D01*
X23954Y50440D01*
X23955Y50439D01*
X23969Y50431D01*
X23983Y50425D01*
X23997Y50419D01*
X24011Y50414D01*
X24024Y50410D01*
X24038Y50406D01*
X24050Y50404D01*
X24063Y50401D01*
X24074Y50399D01*
X24085Y50398D01*
X24094Y50397D01*
X24102Y50397D01*
X24108Y50396D01*
X24113Y50396D01*
X24117D01*
X24132Y50396D01*
X24148Y50398D01*
X24162Y50399D01*
X24176Y50402D01*
X24190Y50405D01*
X24203Y50408D01*
X24215Y50412D01*
X24226Y50416D01*
X24236Y50419D01*
X24245Y50422D01*
X24253Y50426D01*
X24260Y50429D01*
X24265Y50431D01*
X24269Y50433D01*
X24271Y50435D01*
X24272Y50435D01*
X24285Y50443D01*
X24298Y50451D01*
X24309Y50460D01*
X24320Y50470D01*
X24330Y50479D01*
X24339Y50489D01*
X24348Y50498D01*
X24355Y50508D01*
X24362Y50516D01*
X24368Y50525D01*
X24373Y50532D01*
X24376Y50539D01*
X24380Y50544D01*
X24382Y50548D01*
X24383Y50550D01*
X24384Y50551D01*
X24391Y50566D01*
X24397Y50581D01*
X24402Y50595D01*
X24406Y50611D01*
X24410Y50625D01*
X24413Y50640D01*
X24416Y50654D01*
X24418Y50667D01*
X24420Y50679D01*
X24421Y50691D01*
X24422Y50700D01*
X24423Y50709D01*
Y50716D01*
X24423Y50719D01*
Y50721D01*
Y50723D01*
Y50724D01*
Y50725D01*
Y50725D01*
X24423Y50743D01*
X24422Y50760D01*
X24420Y50777D01*
X24417Y50792D01*
X24414Y50808D01*
X24411Y50821D01*
X24408Y50835D01*
X24405Y50847D01*
X24401Y50858D01*
X24398Y50868D01*
X24394Y50876D01*
X24392Y50883D01*
X24389Y50889D01*
X24387Y50894D01*
X24386Y50896D01*
X24386Y50897D01*
X24378Y50911D01*
X24370Y50924D01*
X24362Y50936D01*
X24353Y50947D01*
X24344Y50958D01*
X24335Y50968D01*
X24326Y50976D01*
X24317Y50984D01*
X24309Y50991D01*
X24301Y50998D01*
X24295Y51003D01*
X24289Y51007D01*
X24284Y51011D01*
X24280Y51013D01*
X24278Y51014D01*
X24277Y51015D01*
X24264Y51022D01*
X24250Y51029D01*
X24236Y51035D01*
X24222Y51039D01*
X24209Y51043D01*
X24195Y51047D01*
X24182Y51050D01*
X24170Y51052D01*
X24159Y51053D01*
X24149Y51055D01*
X24140Y51056D01*
X24132Y51057D01*
X24126D01*
X24121Y51057D01*
X24117D01*
X24105Y51057D01*
D02*
G37*
G36*
X27774Y51048D02*
X27762Y51047D01*
X27751Y51045D01*
X27739Y51042D01*
X27729Y51040D01*
X27720Y51036D01*
X27711Y51033D01*
X27703Y51030D01*
X27696Y51026D01*
X27690Y51023D01*
X27684Y51020D01*
X27679Y51017D01*
X27676Y51015D01*
X27673Y51013D01*
X27671Y51011D01*
X27671Y51011D01*
X27663Y51004D01*
X27655Y50996D01*
X27647Y50987D01*
X27641Y50979D01*
X27635Y50970D01*
X27629Y50961D01*
X27623Y50952D01*
X27619Y50943D01*
X27615Y50936D01*
X27611Y50928D01*
X27609Y50921D01*
X27606Y50916D01*
X27604Y50911D01*
X27603Y50907D01*
X27602Y50905D01*
X27602Y50904D01*
X27598Y50891D01*
X27594Y50876D01*
X27591Y50862D01*
X27588Y50846D01*
X27584Y50816D01*
X27583Y50801D01*
X27581Y50787D01*
X27580Y50773D01*
X27580Y50761D01*
X27580Y50750D01*
X27579Y50741D01*
Y50736D01*
X27579Y50733D01*
Y50729D01*
Y50727D01*
Y50724D01*
Y50723D01*
Y50722D01*
Y50722D01*
Y50705D01*
X27580Y50689D01*
X27580Y50674D01*
X27581Y50659D01*
X27583Y50644D01*
X27585Y50631D01*
X27586Y50618D01*
X27588Y50605D01*
X27591Y50593D01*
X27593Y50582D01*
X27596Y50570D01*
X27598Y50560D01*
X27601Y50550D01*
X27604Y50541D01*
X27607Y50532D01*
X27610Y50524D01*
X27613Y50516D01*
X27616Y50509D01*
X27619Y50502D01*
X27622Y50496D01*
X27624Y50490D01*
X27627Y50485D01*
X27629Y50481D01*
X27632Y50477D01*
X27634Y50473D01*
X27635Y50470D01*
X27637Y50467D01*
X27639Y50465D01*
X27640Y50464D01*
X27641Y50462D01*
X27641Y50462D01*
Y50461D01*
X27652Y50450D01*
X27663Y50440D01*
X27674Y50431D01*
X27686Y50423D01*
X27699Y50417D01*
X27711Y50412D01*
X27722Y50407D01*
X27734Y50404D01*
X27745Y50401D01*
X27755Y50399D01*
X27764Y50398D01*
X27772Y50397D01*
X27778Y50396D01*
X27783Y50396D01*
X27787D01*
X27800Y50396D01*
X27812Y50398D01*
X27824Y50399D01*
X27835Y50402D01*
X27845Y50404D01*
X27854Y50408D01*
X27863Y50411D01*
X27871Y50415D01*
X27878Y50418D01*
X27885Y50421D01*
X27890Y50424D01*
X27894Y50427D01*
X27898Y50430D01*
X27900Y50432D01*
X27902Y50433D01*
X27903Y50433D01*
X27911Y50441D01*
X27919Y50448D01*
X27926Y50457D01*
X27933Y50465D01*
X27939Y50475D01*
X27945Y50484D01*
X27950Y50492D01*
X27955Y50501D01*
X27959Y50508D01*
X27962Y50516D01*
X27965Y50523D01*
X27968Y50528D01*
X27970Y50533D01*
X27971Y50537D01*
X27972Y50539D01*
X27972Y50540D01*
X27976Y50553D01*
X27980Y50568D01*
X27983Y50582D01*
X27986Y50598D01*
X27990Y50628D01*
X27991Y50643D01*
X27993Y50657D01*
X27994Y50670D01*
X27994Y50682D01*
X27995Y50693D01*
X27995Y50703D01*
Y50707D01*
X27996Y50711D01*
Y50714D01*
Y50716D01*
Y50719D01*
Y50720D01*
Y50721D01*
Y50722D01*
Y50739D01*
X27995Y50755D01*
X27994Y50771D01*
X27993Y50785D01*
X27992Y50799D01*
X27991Y50811D01*
X27990Y50823D01*
X27988Y50833D01*
X27987Y50842D01*
X27985Y50850D01*
X27984Y50857D01*
X27983Y50863D01*
X27982Y50867D01*
X27981Y50870D01*
X27981Y50872D01*
Y50873D01*
X27978Y50883D01*
X27975Y50893D01*
X27972Y50902D01*
X27969Y50911D01*
X27965Y50919D01*
X27962Y50927D01*
X27959Y50935D01*
X27955Y50941D01*
X27953Y50947D01*
X27950Y50952D01*
X27947Y50957D01*
X27945Y50961D01*
X27943Y50963D01*
X27942Y50966D01*
X27941Y50967D01*
X27941Y50968D01*
X27931Y50981D01*
X27921Y50993D01*
X27910Y51004D01*
X27900Y51012D01*
X27895Y51016D01*
X27891Y51019D01*
X27887Y51022D01*
X27884Y51024D01*
X27881Y51025D01*
X27879Y51027D01*
X27878Y51028D01*
X27877D01*
X27870Y51031D01*
X27862Y51035D01*
X27847Y51040D01*
X27831Y51043D01*
X27818Y51046D01*
X27811Y51047D01*
X27806Y51047D01*
X27800Y51048D01*
X27796D01*
X27792Y51048D01*
X27787D01*
X27774Y51048D01*
D02*
G37*
G36*
X28271D02*
X28259Y51047D01*
X28247Y51045D01*
X28236Y51042D01*
X28226Y51040D01*
X28217Y51036D01*
X28208Y51033D01*
X28200Y51030D01*
X28192Y51026D01*
X28186Y51023D01*
X28181Y51020D01*
X28176Y51017D01*
X28173Y51015D01*
X28170Y51013D01*
X28168Y51011D01*
X28168Y51011D01*
X28160Y51004D01*
X28152Y50996D01*
X28144Y50987D01*
X28137Y50979D01*
X28131Y50970D01*
X28126Y50961D01*
X28120Y50952D01*
X28116Y50943D01*
X28112Y50936D01*
X28108Y50928D01*
X28106Y50921D01*
X28103Y50916D01*
X28101Y50911D01*
X28100Y50907D01*
X28099Y50905D01*
X28099Y50904D01*
X28094Y50891D01*
X28091Y50876D01*
X28088Y50862D01*
X28085Y50846D01*
X28081Y50816D01*
X28080Y50801D01*
X28078Y50787D01*
X28077Y50773D01*
X28077Y50761D01*
X28076Y50750D01*
X28076Y50741D01*
Y50736D01*
X28076Y50733D01*
Y50729D01*
Y50727D01*
Y50724D01*
Y50723D01*
Y50722D01*
Y50722D01*
Y50705D01*
X28076Y50689D01*
X28077Y50674D01*
X28078Y50659D01*
X28080Y50644D01*
X28082Y50631D01*
X28083Y50618D01*
X28085Y50605D01*
X28088Y50593D01*
X28090Y50582D01*
X28093Y50570D01*
X28095Y50560D01*
X28098Y50550D01*
X28101Y50541D01*
X28104Y50532D01*
X28107Y50524D01*
X28110Y50516D01*
X28113Y50509D01*
X28116Y50502D01*
X28119Y50496D01*
X28121Y50490D01*
X28124Y50485D01*
X28126Y50481D01*
X28129Y50477D01*
X28131Y50473D01*
X28132Y50470D01*
X28134Y50467D01*
X28136Y50465D01*
X28137Y50464D01*
X28138Y50462D01*
X28138Y50462D01*
Y50461D01*
X28149Y50450D01*
X28160Y50440D01*
X28171Y50431D01*
X28183Y50423D01*
X28196Y50417D01*
X28208Y50412D01*
X28219Y50407D01*
X28231Y50404D01*
X28242Y50401D01*
X28252Y50399D01*
X28261Y50398D01*
X28269Y50397D01*
X28275Y50396D01*
X28280Y50396D01*
X28284D01*
X28297Y50396D01*
X28309Y50398D01*
X28321Y50399D01*
X28332Y50402D01*
X28342Y50404D01*
X28351Y50408D01*
X28360Y50411D01*
X28368Y50415D01*
X28375Y50418D01*
X28382Y50421D01*
X28387Y50424D01*
X28391Y50427D01*
X28395Y50430D01*
X28397Y50432D01*
X28399Y50433D01*
X28400Y50433D01*
X28408Y50441D01*
X28416Y50448D01*
X28423Y50457D01*
X28430Y50465D01*
X28436Y50475D01*
X28442Y50484D01*
X28447Y50492D01*
X28452Y50501D01*
X28456Y50508D01*
X28459Y50516D01*
X28462Y50523D01*
X28465Y50528D01*
X28467Y50533D01*
X28468Y50537D01*
X28468Y50539D01*
X28469Y50540D01*
X28473Y50553D01*
X28477Y50568D01*
X28480Y50582D01*
X28483Y50598D01*
X28487Y50628D01*
X28488Y50643D01*
X28490Y50657D01*
X28491Y50670D01*
X28491Y50682D01*
X28492Y50693D01*
X28492Y50703D01*
Y50707D01*
X28493Y50711D01*
Y50714D01*
Y50716D01*
Y50719D01*
Y50720D01*
Y50721D01*
Y50722D01*
Y50739D01*
X28492Y50755D01*
X28491Y50771D01*
X28490Y50785D01*
X28489Y50799D01*
X28488Y50811D01*
X28486Y50823D01*
X28485Y50833D01*
X28484Y50842D01*
X28482Y50850D01*
X28481Y50857D01*
X28480Y50863D01*
X28479Y50867D01*
X28478Y50870D01*
X28478Y50872D01*
Y50873D01*
X28475Y50883D01*
X28472Y50893D01*
X28469Y50902D01*
X28466Y50911D01*
X28462Y50919D01*
X28459Y50927D01*
X28456Y50935D01*
X28452Y50941D01*
X28450Y50947D01*
X28447Y50952D01*
X28444Y50957D01*
X28442Y50961D01*
X28440Y50963D01*
X28439Y50966D01*
X28438Y50967D01*
X28438Y50968D01*
X28428Y50981D01*
X28418Y50993D01*
X28407Y51004D01*
X28397Y51012D01*
X28392Y51016D01*
X28388Y51019D01*
X28384Y51022D01*
X28381Y51024D01*
X28378Y51025D01*
X28376Y51027D01*
X28375Y51028D01*
X28374D01*
X28367Y51031D01*
X28359Y51035D01*
X28344Y51040D01*
X28328Y51043D01*
X28315Y51046D01*
X28308Y51047D01*
X28302Y51047D01*
X28297Y51048D01*
X28293D01*
X28289Y51048D01*
X28284D01*
X28271Y51048D01*
D02*
G37*
G36*
X28768D02*
X28756Y51047D01*
X28744Y51045D01*
X28733Y51042D01*
X28723Y51040D01*
X28713Y51036D01*
X28705Y51033D01*
X28697Y51030D01*
X28689Y51026D01*
X28683Y51023D01*
X28678Y51020D01*
X28673Y51017D01*
X28670Y51015D01*
X28667Y51013D01*
X28665Y51011D01*
X28665Y51011D01*
X28657Y51004D01*
X28649Y50996D01*
X28641Y50987D01*
X28634Y50979D01*
X28628Y50970D01*
X28623Y50961D01*
X28617Y50952D01*
X28613Y50943D01*
X28609Y50936D01*
X28605Y50928D01*
X28603Y50921D01*
X28600Y50916D01*
X28598Y50911D01*
X28597Y50907D01*
X28596Y50905D01*
X28596Y50904D01*
X28591Y50891D01*
X28588Y50876D01*
X28585Y50862D01*
X28582Y50846D01*
X28578Y50816D01*
X28577Y50801D01*
X28575Y50787D01*
X28574Y50773D01*
X28574Y50761D01*
X28573Y50750D01*
X28573Y50741D01*
Y50736D01*
X28572Y50733D01*
Y50729D01*
Y50727D01*
Y50724D01*
Y50723D01*
Y50722D01*
Y50722D01*
Y50705D01*
X28573Y50689D01*
X28574Y50674D01*
X28575Y50659D01*
X28577Y50644D01*
X28578Y50631D01*
X28580Y50618D01*
X28582Y50605D01*
X28584Y50593D01*
X28587Y50582D01*
X28590Y50570D01*
X28592Y50560D01*
X28595Y50550D01*
X28598Y50541D01*
X28601Y50532D01*
X28604Y50524D01*
X28607Y50516D01*
X28610Y50509D01*
X28613Y50502D01*
X28615Y50496D01*
X28618Y50490D01*
X28621Y50485D01*
X28623Y50481D01*
X28626Y50477D01*
X28627Y50473D01*
X28629Y50470D01*
X28631Y50467D01*
X28633Y50465D01*
X28634Y50464D01*
X28635Y50462D01*
X28635Y50462D01*
Y50461D01*
X28646Y50450D01*
X28657Y50440D01*
X28668Y50431D01*
X28680Y50423D01*
X28693Y50417D01*
X28705Y50412D01*
X28716Y50407D01*
X28728Y50404D01*
X28739Y50401D01*
X28749Y50399D01*
X28758Y50398D01*
X28766Y50397D01*
X28772Y50396D01*
X28777Y50396D01*
X28781D01*
X28794Y50396D01*
X28806Y50398D01*
X28817Y50399D01*
X28829Y50402D01*
X28839Y50404D01*
X28848Y50408D01*
X28857Y50411D01*
X28865Y50415D01*
X28872Y50418D01*
X28878Y50421D01*
X28884Y50424D01*
X28888Y50427D01*
X28892Y50430D01*
X28894Y50432D01*
X28896Y50433D01*
X28897Y50433D01*
X28905Y50441D01*
X28913Y50448D01*
X28920Y50457D01*
X28927Y50465D01*
X28933Y50475D01*
X28939Y50484D01*
X28944Y50492D01*
X28949Y50501D01*
X28952Y50508D01*
X28956Y50516D01*
X28959Y50523D01*
X28962Y50528D01*
X28964Y50533D01*
X28965Y50537D01*
X28965Y50539D01*
X28966Y50540D01*
X28970Y50553D01*
X28974Y50568D01*
X28977Y50582D01*
X28980Y50598D01*
X28984Y50628D01*
X28985Y50643D01*
X28987Y50657D01*
X28988Y50670D01*
X28988Y50682D01*
X28989Y50693D01*
X28989Y50703D01*
Y50707D01*
X28989Y50711D01*
Y50714D01*
Y50716D01*
Y50719D01*
Y50720D01*
Y50721D01*
Y50722D01*
Y50739D01*
X28989Y50755D01*
X28988Y50771D01*
X28987Y50785D01*
X28986Y50799D01*
X28985Y50811D01*
X28983Y50823D01*
X28982Y50833D01*
X28981Y50842D01*
X28979Y50850D01*
X28978Y50857D01*
X28977Y50863D01*
X28976Y50867D01*
X28975Y50870D01*
X28975Y50872D01*
Y50873D01*
X28972Y50883D01*
X28969Y50893D01*
X28966Y50902D01*
X28963Y50911D01*
X28959Y50919D01*
X28956Y50927D01*
X28952Y50935D01*
X28949Y50941D01*
X28946Y50947D01*
X28944Y50952D01*
X28941Y50957D01*
X28939Y50961D01*
X28937Y50963D01*
X28936Y50966D01*
X28935Y50967D01*
X28935Y50968D01*
X28925Y50981D01*
X28915Y50993D01*
X28904Y51004D01*
X28894Y51012D01*
X28889Y51016D01*
X28885Y51019D01*
X28881Y51022D01*
X28878Y51024D01*
X28875Y51025D01*
X28873Y51027D01*
X28872Y51028D01*
X28871D01*
X28864Y51031D01*
X28856Y51035D01*
X28841Y51040D01*
X28825Y51043D01*
X28811Y51046D01*
X28805Y51047D01*
X28799Y51047D01*
X28794Y51048D01*
X28790D01*
X28786Y51048D01*
X28781D01*
X28768Y51048D01*
D02*
G37*
G36*
X26534Y50229D02*
X27055D01*
Y50286D01*
X26534D01*
Y50229D01*
D02*
G37*
%LPC*%
G36*
X23326Y50971D02*
X23499D01*
X23509Y50970D01*
X23517D01*
X23525Y50970D01*
X23533Y50969D01*
X23539Y50969D01*
X23545Y50968D01*
X23550Y50968D01*
X23554Y50967D01*
X23558Y50967D01*
X23561Y50966D01*
X23564Y50966D01*
X23566Y50965D01*
X23567D01*
X23567Y50965D01*
X23568D01*
X23580Y50961D01*
X23590Y50955D01*
X23599Y50949D01*
X23607Y50943D01*
X23613Y50937D01*
X23618Y50931D01*
X23619Y50930D01*
X23621Y50928D01*
X23621Y50927D01*
Y50927D01*
X23625Y50921D01*
X23628Y50916D01*
X23633Y50904D01*
X23637Y50893D01*
X23639Y50882D01*
X23640Y50877D01*
X23641Y50873D01*
X23641Y50869D01*
Y50865D01*
X23642Y50862D01*
Y50860D01*
Y50859D01*
Y50858D01*
X23641Y50848D01*
X23640Y50839D01*
X23639Y50830D01*
X23636Y50821D01*
X23634Y50814D01*
X23631Y50807D01*
X23628Y50801D01*
X23625Y50795D01*
X23621Y50790D01*
X23618Y50785D01*
X23615Y50781D01*
X23613Y50778D01*
X23610Y50776D01*
X23609Y50774D01*
X23608Y50773D01*
X23607Y50772D01*
X23600Y50767D01*
X23592Y50762D01*
X23584Y50758D01*
X23574Y50755D01*
X23565Y50752D01*
X23555Y50749D01*
X23536Y50746D01*
X23527Y50745D01*
X23518Y50744D01*
X23511Y50743D01*
X23504Y50742D01*
X23498Y50742D01*
X23326D01*
Y50971D01*
D02*
G37*
G36*
X26057Y50975D02*
X26259D01*
X26272Y50975D01*
X26284Y50974D01*
X26295Y50973D01*
X26305Y50971D01*
X26315Y50968D01*
X26323Y50966D01*
X26331Y50963D01*
X26338Y50961D01*
X26344Y50958D01*
X26349Y50955D01*
X26354Y50953D01*
X26357Y50950D01*
X26360Y50949D01*
X26362Y50947D01*
X26363Y50946D01*
X26363Y50946D01*
X26369Y50940D01*
X26374Y50934D01*
X26378Y50928D01*
X26383Y50922D01*
X26386Y50916D01*
X26388Y50909D01*
X26391Y50903D01*
X26392Y50898D01*
X26394Y50892D01*
X26395Y50887D01*
X26396Y50883D01*
X26396Y50879D01*
X26397Y50876D01*
Y50873D01*
Y50872D01*
Y50871D01*
X26396Y50860D01*
X26394Y50849D01*
X26391Y50839D01*
X26388Y50831D01*
X26385Y50824D01*
X26384Y50821D01*
X26382Y50819D01*
X26381Y50817D01*
X26380Y50815D01*
X26379Y50814D01*
Y50814D01*
X26372Y50805D01*
X26365Y50797D01*
X26356Y50790D01*
X26348Y50785D01*
X26341Y50781D01*
X26338Y50779D01*
X26335Y50778D01*
X26333Y50777D01*
X26331Y50776D01*
X26330Y50776D01*
X26329D01*
X26323Y50774D01*
X26317Y50772D01*
X26302Y50769D01*
X26287Y50767D01*
X26272Y50765D01*
X26265Y50765D01*
X26259Y50765D01*
X26253D01*
X26249Y50764D01*
X26057D01*
Y50975D01*
D02*
G37*
G36*
X24113Y50984D02*
X24117D01*
X24129Y50984D01*
X24141Y50983D01*
X24152Y50981D01*
X24162Y50979D01*
X24172Y50977D01*
X24181Y50974D01*
X24190Y50971D01*
X24198Y50968D01*
X24206Y50965D01*
X24212Y50962D01*
X24218Y50959D01*
X24223Y50957D01*
X24227Y50955D01*
X24229Y50953D01*
X24231Y50952D01*
X24232Y50952D01*
X24241Y50945D01*
X24250Y50939D01*
X24258Y50931D01*
X24265Y50924D01*
X24272Y50917D01*
X24278Y50909D01*
X24284Y50902D01*
X24289Y50895D01*
X24294Y50888D01*
X24298Y50882D01*
X24301Y50876D01*
X24304Y50871D01*
X24306Y50867D01*
X24307Y50864D01*
X24308Y50862D01*
X24309Y50862D01*
X24313Y50851D01*
X24318Y50839D01*
X24321Y50827D01*
X24325Y50816D01*
X24327Y50804D01*
X24329Y50793D01*
X24331Y50782D01*
X24332Y50772D01*
X24333Y50762D01*
X24334Y50753D01*
X24335Y50746D01*
X24335Y50739D01*
X24336Y50733D01*
Y50729D01*
Y50727D01*
Y50726D01*
X24335Y50703D01*
X24333Y50682D01*
X24330Y50662D01*
X24326Y50644D01*
X24321Y50627D01*
X24316Y50611D01*
X24311Y50597D01*
X24305Y50584D01*
X24299Y50573D01*
X24293Y50563D01*
X24288Y50555D01*
X24283Y50548D01*
X24279Y50542D01*
X24277Y50539D01*
X24275Y50536D01*
X24274Y50535D01*
X24262Y50524D01*
X24249Y50513D01*
X24236Y50504D01*
X24223Y50496D01*
X24210Y50490D01*
X24197Y50484D01*
X24184Y50480D01*
X24172Y50477D01*
X24160Y50474D01*
X24150Y50472D01*
X24141Y50470D01*
X24132Y50469D01*
X24126Y50469D01*
X24123D01*
X24121Y50468D01*
X24117D01*
X24099Y50469D01*
X24083Y50471D01*
X24067Y50474D01*
X24053Y50478D01*
X24039Y50484D01*
X24026Y50489D01*
X24014Y50495D01*
X24003Y50502D01*
X23994Y50508D01*
X23985Y50514D01*
X23978Y50519D01*
X23971Y50524D01*
X23967Y50528D01*
X23963Y50532D01*
X23961Y50533D01*
X23960Y50534D01*
X23949Y50547D01*
X23940Y50561D01*
X23932Y50576D01*
X23925Y50591D01*
X23919Y50606D01*
X23914Y50621D01*
X23909Y50636D01*
X23906Y50650D01*
X23903Y50664D01*
X23902Y50676D01*
X23900Y50688D01*
X23899Y50698D01*
X23899Y50702D01*
Y50705D01*
Y50709D01*
X23898Y50711D01*
Y50714D01*
Y50715D01*
Y50716D01*
Y50716D01*
Y50730D01*
X23899Y50742D01*
X23900Y50755D01*
X23901Y50767D01*
X23903Y50778D01*
X23904Y50789D01*
X23909Y50809D01*
X23914Y50828D01*
X23919Y50845D01*
X23925Y50860D01*
X23931Y50874D01*
X23937Y50885D01*
X23943Y50895D01*
X23948Y50904D01*
X23953Y50910D01*
X23957Y50916D01*
X23960Y50919D01*
X23962Y50921D01*
X23963Y50922D01*
X23976Y50933D01*
X23989Y50943D01*
X24001Y50951D01*
X24014Y50958D01*
X24028Y50964D01*
X24040Y50969D01*
X24053Y50973D01*
X24065Y50976D01*
X24075Y50979D01*
X24086Y50981D01*
X24095Y50982D01*
X24103Y50983D01*
X24109Y50984D01*
X24113Y50984D01*
D02*
G37*
G36*
X27784Y50983D02*
X27786D01*
X27796Y50983D01*
X27806Y50981D01*
X27815Y50979D01*
X27824Y50975D01*
X27832Y50971D01*
X27839Y50967D01*
X27846Y50962D01*
X27853Y50957D01*
X27858Y50952D01*
X27863Y50948D01*
X27868Y50943D01*
X27871Y50939D01*
X27874Y50936D01*
X27876Y50933D01*
X27877Y50931D01*
X27878Y50931D01*
X27881Y50926D01*
X27884Y50920D01*
X27887Y50914D01*
X27890Y50907D01*
X27895Y50893D01*
X27899Y50876D01*
X27903Y50859D01*
X27906Y50842D01*
X27908Y50824D01*
X27910Y50807D01*
X27911Y50790D01*
X27913Y50774D01*
X27914Y50760D01*
Y50753D01*
X27914Y50747D01*
Y50741D01*
X27915Y50736D01*
Y50732D01*
Y50729D01*
Y50726D01*
Y50723D01*
Y50722D01*
Y50722D01*
Y50707D01*
X27914Y50693D01*
X27914Y50680D01*
X27913Y50667D01*
X27912Y50655D01*
X27911Y50644D01*
X27910Y50633D01*
X27909Y50623D01*
X27908Y50612D01*
X27906Y50603D01*
X27904Y50594D01*
X27903Y50586D01*
X27901Y50578D01*
X27899Y50571D01*
X27898Y50564D01*
X27896Y50558D01*
X27893Y50546D01*
X27889Y50537D01*
X27886Y50529D01*
X27884Y50523D01*
X27881Y50518D01*
X27879Y50515D01*
X27878Y50513D01*
X27878Y50512D01*
X27871Y50503D01*
X27863Y50495D01*
X27855Y50488D01*
X27848Y50482D01*
X27840Y50477D01*
X27833Y50473D01*
X27825Y50470D01*
X27819Y50467D01*
X27812Y50465D01*
X27806Y50463D01*
X27800Y50462D01*
X27796Y50461D01*
X27792Y50461D01*
X27789Y50460D01*
X27787D01*
X27777Y50461D01*
X27768Y50463D01*
X27758Y50465D01*
X27750Y50469D01*
X27742Y50472D01*
X27734Y50477D01*
X27727Y50482D01*
X27721Y50486D01*
X27715Y50491D01*
X27711Y50496D01*
X27706Y50500D01*
X27702Y50504D01*
X27700Y50508D01*
X27698Y50510D01*
X27696Y50512D01*
X27696Y50512D01*
X27693Y50517D01*
X27690Y50523D01*
X27687Y50529D01*
X27684Y50536D01*
X27679Y50551D01*
X27675Y50567D01*
X27671Y50584D01*
X27668Y50601D01*
X27666Y50619D01*
X27664Y50637D01*
X27663Y50653D01*
X27661Y50669D01*
X27660Y50684D01*
Y50690D01*
X27660Y50696D01*
Y50702D01*
Y50707D01*
X27659Y50711D01*
Y50715D01*
Y50718D01*
Y50720D01*
Y50721D01*
Y50722D01*
Y50736D01*
X27660Y50750D01*
X27660Y50763D01*
X27661Y50776D01*
X27662Y50788D01*
X27663Y50800D01*
X27665Y50811D01*
X27666Y50821D01*
X27667Y50832D01*
X27669Y50841D01*
X27671Y50851D01*
X27672Y50859D01*
X27674Y50867D01*
X27676Y50875D01*
X27677Y50882D01*
X27680Y50888D01*
X27684Y50900D01*
X27687Y50911D01*
X27690Y50919D01*
X27693Y50926D01*
X27696Y50931D01*
X27698Y50935D01*
X27699Y50937D01*
X27700Y50937D01*
X27706Y50945D01*
X27713Y50953D01*
X27720Y50959D01*
X27727Y50964D01*
X27734Y50968D01*
X27741Y50972D01*
X27748Y50975D01*
X27755Y50978D01*
X27762Y50980D01*
X27767Y50981D01*
X27773Y50982D01*
X27777Y50982D01*
X27781Y50983D01*
X27784Y50983D01*
D02*
G37*
G36*
X28281D02*
X28283D01*
X28293Y50983D01*
X28303Y50981D01*
X28312Y50979D01*
X28321Y50975D01*
X28329Y50971D01*
X28336Y50967D01*
X28343Y50962D01*
X28350Y50957D01*
X28355Y50952D01*
X28360Y50948D01*
X28364Y50943D01*
X28368Y50939D01*
X28371Y50936D01*
X28373Y50933D01*
X28374Y50931D01*
X28375Y50931D01*
X28378Y50926D01*
X28381Y50920D01*
X28384Y50914D01*
X28387Y50907D01*
X28392Y50893D01*
X28396Y50876D01*
X28400Y50859D01*
X28403Y50842D01*
X28405Y50824D01*
X28407Y50807D01*
X28408Y50790D01*
X28410Y50774D01*
X28411Y50760D01*
Y50753D01*
X28411Y50747D01*
Y50741D01*
X28412Y50736D01*
Y50732D01*
Y50729D01*
Y50726D01*
Y50723D01*
Y50722D01*
Y50722D01*
Y50707D01*
X28411Y50693D01*
X28411Y50680D01*
X28410Y50667D01*
X28409Y50655D01*
X28408Y50644D01*
X28407Y50633D01*
X28406Y50623D01*
X28405Y50612D01*
X28403Y50603D01*
X28401Y50594D01*
X28400Y50586D01*
X28398Y50578D01*
X28396Y50571D01*
X28395Y50564D01*
X28393Y50558D01*
X28390Y50546D01*
X28386Y50537D01*
X28383Y50529D01*
X28381Y50523D01*
X28378Y50518D01*
X28376Y50515D01*
X28375Y50513D01*
X28375Y50512D01*
X28368Y50503D01*
X28360Y50495D01*
X28352Y50488D01*
X28345Y50482D01*
X28337Y50477D01*
X28330Y50473D01*
X28322Y50470D01*
X28315Y50467D01*
X28309Y50465D01*
X28303Y50463D01*
X28297Y50462D01*
X28293Y50461D01*
X28289Y50461D01*
X28286Y50460D01*
X28284D01*
X28274Y50461D01*
X28265Y50463D01*
X28255Y50465D01*
X28247Y50469D01*
X28239Y50472D01*
X28231Y50477D01*
X28224Y50482D01*
X28218Y50486D01*
X28212Y50491D01*
X28208Y50496D01*
X28203Y50500D01*
X28199Y50504D01*
X28197Y50508D01*
X28195Y50510D01*
X28193Y50512D01*
X28193Y50512D01*
X28190Y50517D01*
X28186Y50523D01*
X28184Y50529D01*
X28181Y50536D01*
X28176Y50551D01*
X28172Y50567D01*
X28168Y50584D01*
X28165Y50601D01*
X28163Y50619D01*
X28161Y50637D01*
X28160Y50653D01*
X28158Y50669D01*
X28157Y50684D01*
Y50690D01*
X28157Y50696D01*
Y50702D01*
Y50707D01*
X28156Y50711D01*
Y50715D01*
Y50718D01*
Y50720D01*
Y50721D01*
Y50722D01*
Y50736D01*
X28157Y50750D01*
X28157Y50763D01*
X28158Y50776D01*
X28159Y50788D01*
X28160Y50800D01*
X28162Y50811D01*
X28163Y50821D01*
X28164Y50832D01*
X28166Y50841D01*
X28168Y50851D01*
X28169Y50859D01*
X28171Y50867D01*
X28173Y50875D01*
X28174Y50882D01*
X28177Y50888D01*
X28180Y50900D01*
X28184Y50911D01*
X28187Y50919D01*
X28190Y50926D01*
X28193Y50931D01*
X28195Y50935D01*
X28196Y50937D01*
X28197Y50937D01*
X28203Y50945D01*
X28210Y50953D01*
X28217Y50959D01*
X28224Y50964D01*
X28231Y50968D01*
X28238Y50972D01*
X28245Y50975D01*
X28252Y50978D01*
X28259Y50980D01*
X28264Y50981D01*
X28270Y50982D01*
X28274Y50982D01*
X28278Y50983D01*
X28281Y50983D01*
D02*
G37*
G36*
X28778D02*
X28780D01*
X28790Y50983D01*
X28800Y50981D01*
X28809Y50979D01*
X28817Y50975D01*
X28826Y50971D01*
X28833Y50967D01*
X28840Y50962D01*
X28847Y50957D01*
X28852Y50952D01*
X28857Y50948D01*
X28861Y50943D01*
X28865Y50939D01*
X28868Y50936D01*
X28870Y50933D01*
X28871Y50931D01*
X28872Y50931D01*
X28875Y50926D01*
X28878Y50920D01*
X28881Y50914D01*
X28884Y50907D01*
X28889Y50893D01*
X28893Y50876D01*
X28897Y50859D01*
X28900Y50842D01*
X28902Y50824D01*
X28904Y50807D01*
X28905Y50790D01*
X28907Y50774D01*
X28908Y50760D01*
Y50753D01*
X28908Y50747D01*
Y50741D01*
X28909Y50736D01*
Y50732D01*
Y50729D01*
Y50726D01*
Y50723D01*
Y50722D01*
Y50722D01*
Y50707D01*
X28908Y50693D01*
X28908Y50680D01*
X28907Y50667D01*
X28906Y50655D01*
X28905Y50644D01*
X28904Y50633D01*
X28903Y50623D01*
X28902Y50612D01*
X28900Y50603D01*
X28898Y50594D01*
X28897Y50586D01*
X28895Y50578D01*
X28893Y50571D01*
X28892Y50564D01*
X28890Y50558D01*
X28887Y50546D01*
X28883Y50537D01*
X28880Y50529D01*
X28878Y50523D01*
X28875Y50518D01*
X28873Y50515D01*
X28872Y50513D01*
X28872Y50512D01*
X28865Y50503D01*
X28857Y50495D01*
X28849Y50488D01*
X28842Y50482D01*
X28834Y50477D01*
X28827Y50473D01*
X28819Y50470D01*
X28812Y50467D01*
X28806Y50465D01*
X28800Y50463D01*
X28794Y50462D01*
X28790Y50461D01*
X28786Y50461D01*
X28783Y50460D01*
X28781D01*
X28771Y50461D01*
X28762Y50463D01*
X28752Y50465D01*
X28744Y50469D01*
X28736Y50472D01*
X28728Y50477D01*
X28721Y50482D01*
X28715Y50486D01*
X28709Y50491D01*
X28705Y50496D01*
X28700Y50500D01*
X28696Y50504D01*
X28694Y50508D01*
X28692Y50510D01*
X28690Y50512D01*
X28690Y50512D01*
X28687Y50517D01*
X28683Y50523D01*
X28681Y50529D01*
X28678Y50536D01*
X28673Y50551D01*
X28669Y50567D01*
X28665Y50584D01*
X28662Y50601D01*
X28660Y50619D01*
X28658Y50637D01*
X28657Y50653D01*
X28655Y50669D01*
X28654Y50684D01*
Y50690D01*
X28654Y50696D01*
Y50702D01*
Y50707D01*
X28653Y50711D01*
Y50715D01*
Y50718D01*
Y50720D01*
Y50721D01*
Y50722D01*
Y50736D01*
X28654Y50750D01*
X28654Y50763D01*
X28655Y50776D01*
X28656Y50788D01*
X28657Y50800D01*
X28658Y50811D01*
X28660Y50821D01*
X28661Y50832D01*
X28663Y50841D01*
X28664Y50851D01*
X28666Y50859D01*
X28668Y50867D01*
X28670Y50875D01*
X28671Y50882D01*
X28674Y50888D01*
X28677Y50900D01*
X28681Y50911D01*
X28684Y50919D01*
X28687Y50926D01*
X28690Y50931D01*
X28692Y50935D01*
X28693Y50937D01*
X28694Y50937D01*
X28700Y50945D01*
X28707Y50953D01*
X28713Y50959D01*
X28721Y50964D01*
X28728Y50968D01*
X28735Y50972D01*
X28742Y50975D01*
X28749Y50978D01*
X28756Y50980D01*
X28761Y50981D01*
X28767Y50982D01*
X28771Y50982D01*
X28775Y50983D01*
X28778Y50983D01*
D02*
G37*
%LPD*%
D11*
X15240Y18085D02*
G03*
X17780Y15545I2540J0D01*
G01*
X35560D02*
G03*
X38100Y18085I0J2540D01*
G01*
Y49835D02*
G03*
X35560Y51613I-2159J-381D01*
G01*
X17780D02*
G03*
X15240Y49835I-381J-2159D01*
G01*
X15858Y18085D02*
G03*
X15858Y18085I1922J0D01*
G01*
X33651D02*
G03*
X33651Y18085I1909J0D01*
G01*
X15240D02*
Y49835D01*
X22606Y15545D02*
X17780D01*
X22860Y15799D02*
X22606Y15545D01*
X30480Y15799D02*
X22860D01*
X30734Y15545D02*
X30480Y15799D01*
X35560Y15545D02*
X30734D01*
X38100Y18085D02*
Y49835D01*
X35560Y51613D02*
X17780D01*
M02*
