M48
;Layer_Color=9474304
;FILE_FORMAT=4:3
METRIC
;TYPE=PLATED
T1F00S00C0.310
T2F00S00C0.700
T3F00S00C0.711
T4F00S00C0.900
T5F00S00C1.000
;TYPE=NON_PLATED
T6F00S00C2.100
%
T01
X0010338Y0006452
X0033604Y0018237
T02
X0012154Y0002934
X0007391Y0019456
T03
X0011582Y0014732
X0013614Y0014427
X0015773Y0012668
T04
X0006782Y0022555
Y0025076
Y0027596
Y0030117
Y0032637
Y0035158
Y0037678
X0022022Y0037541
Y0035001
Y0032461
Y0029921
Y0027381
Y0024841
Y0022301
Y0040081
Y0042621
Y0045161
Y0047701
Y0050241
Y0052781
Y0055321
X0006782
Y0052801
Y0050280
Y0047760
Y0045239
Y0042719
Y0040199
T05
X0003175Y0028372
Y0030912
Y0033452
Y0035992
Y0038532
Y0041072
Y0043612
Y0046152
T06
X0001500Y0001500
X0038500
Y0058500
X0001500
M30
