M48
;Layer_Color=9474304
;FILE_FORMAT=4:3
METRIC
;TYPE=PLATED
T1F00S00C0.400
T2F00S00C0.900
T3F00S00C1.000
;TYPE=NON_PLATED
T4F00S00C2.100
%
T01
X0011709Y0009322
X0009652Y0012624
X0017094Y0006121
X0016866Y0032918
X0015621Y0032944
X0030099Y0031217
X0037652Y0025492
T02
X0006782Y0022555
Y0025076
Y0027596
Y0030117
Y0032637
Y0035158
Y0037678
X0022022Y0037541
Y0035001
Y0032461
Y0029921
Y0027381
Y0024841
Y0022301
Y0040081
Y0042621
Y0045161
Y0047701
Y0050241
Y0052781
Y0055321
X0006782
Y0052801
Y0050280
Y0047760
Y0045239
Y0042719
Y0040199
T03
X0003175Y0028372
Y0030912
Y0033452
Y0035992
Y0038532
Y0041072
Y0043612
Y0046152
T04
X0001500Y0001500
X0038500
Y0058500
X0001500
M30
